G04 Layer: BottomSolderMaskLayer*
G04 EasyEDA v6.2.46, 2019-11-03T11:34:55+01:00*
G04 e10e46a80a834b6b97d20d57123ccb7d,d15f1e4770a0489585fd403fbbc54e69,10*
G04 Gerber Generator version 0.2*
G04 Scale: 100 percent, Rotated: No, Reflected: No *
G04 Dimensions in inches *
G04 leading zeros omitted , absolute positions ,2 integer and 4 decimal *
%FSLAX24Y24*%
%MOIN*%
G90*
G70D02*

%ADD28C,0.068000*%
%ADD30C,0.073000*%

%LPD*%
G54D28*
G01X9000Y12800D03*
G01X9000Y13800D03*
G01X6400Y9100D03*
G01X6400Y10100D03*
G01X3400Y8400D03*
G01X3400Y9400D03*
G01X3400Y10400D03*
G01X3400Y11400D03*
G36*
G01X12835Y17334D02*
G01X12835Y18065D01*
G01X13564Y18065D01*
G01X13564Y17334D01*
G01X12835Y17334D01*
G37*
G54D30*
G01X13200Y16700D03*
G01X13200Y15700D03*
G01X13200Y14700D03*
G01X13200Y13700D03*
G01X13200Y12700D03*
G01X13200Y11700D03*
G01X13200Y10700D03*
G01X13200Y9700D03*
G01X13200Y8700D03*
G01X11928Y25171D03*
G01X10928Y25171D03*
G01X9928Y25171D03*
G01X8928Y25171D03*
G01X7928Y25171D03*
G01X6928Y25171D03*
G01X5928Y25171D03*
G01X4928Y25171D03*
G01X3928Y25171D03*
G01X2928Y25171D03*
G01X1928Y25171D03*
G01X928Y25171D03*
G01X7428Y20171D03*
G01X8428Y20171D03*
G01X928Y19171D03*
G01X1928Y19171D03*
G01X2928Y19171D03*
G01X3928Y19171D03*
G01X4928Y19171D03*
G01X5928Y19171D03*
G01X6928Y19171D03*
G01X7928Y19171D03*
G01X8928Y19171D03*
G01X9928Y19171D03*
G01X10928Y19171D03*
G01X928Y20171D03*
G01X928Y21171D03*
G01X928Y22171D03*
G01X11928Y19171D03*
M00*
M02*
