G04 Layer: TopLayer*
G04 EasyEDA v6.2.46, 2019-11-03T11:34:55+01:00*
G04 e10e46a80a834b6b97d20d57123ccb7d,d15f1e4770a0489585fd403fbbc54e69,10*
G04 Gerber Generator version 0.2*
G04 Scale: 100 percent, Rotated: No, Reflected: No *
G04 Dimensions in inches *
G04 leading zeros omitted , absolute positions ,2 integer and 4 decimal *
%FSLAX24Y24*%
%MOIN*%
G90*
G70D02*

%ADD10C,0.010000*%
%ADD11C,0.008000*%
%ADD12C,0.025000*%
%ADD13C,0.020000*%
%ADD14C,0.024400*%
%ADD15R,0.100000X0.200000*%
%ADD16R,0.400000X0.400000*%
%ADD17R,0.100000X0.030000*%
%ADD18C,0.060000*%
%ADD19R,0.065000X0.065000*%
%ADD20C,0.065000*%

%LPD*%
G54D11*
G01X2928Y19171D02*
G01X2928Y18921D01*
G01X3500Y18350D01*
G01X5450Y18350D01*
G01X6550Y17250D01*
G01X6550Y16050D01*
G01X6750Y15850D01*
G01X7400Y15850D01*
G01X1928Y19171D02*
G01X1928Y18921D01*
G01X2800Y18050D01*
G01X5300Y18050D01*
G01X6250Y17100D01*
G01X6250Y15950D01*
G01X6850Y15350D01*
G01X7400Y15350D01*
G54D10*
G01X7400Y13850D02*
G01X8050Y13850D01*
G01X8400Y14200D01*
G01X8400Y17400D01*
G01X8000Y17800D01*
G01X7250Y17800D01*
G01X6450Y18600D01*
G01X6450Y21000D01*
G01X4200Y23250D01*
G01X2100Y23250D01*
G01X900Y24450D01*
G01X928Y24478D01*
G01X928Y25171D01*
G54D11*
G01X3950Y17750D02*
G01X5150Y17750D01*
G01X5950Y16950D01*
G01X5950Y15650D01*
G01X6750Y14850D01*
G01X7400Y14850D01*
G01X7400Y14350D02*
G01X6650Y14350D01*
G01X5650Y15350D01*
G01X5650Y16800D01*
G01X5000Y17450D01*
G01X2550Y17450D01*
G01X928Y19071D01*
G01X928Y19171D01*
G01X7400Y13350D02*
G01X7100Y13350D01*
G54D12*
G01X1900Y4200D02*
G01X1900Y6100D01*
G01X3200Y7400D01*
G01X6000Y7400D01*
G01X6400Y7800D01*
G01X6400Y9100D01*
G54D13*
G01X3400Y8400D02*
G01X4200Y8400D01*
G01X4900Y9100D01*
G01X6400Y9100D01*
G54D12*
G01X6400Y9100D02*
G01X6900Y9100D01*
G01X7400Y9600D01*
G01X7400Y12850D01*
G01X7400Y12850D02*
G01X8950Y12850D01*
G01X9000Y12800D01*
G54D10*
G01X3400Y9400D02*
G01X4000Y9400D01*
G01X5400Y10800D01*
G01X6800Y10800D01*
G01X8000Y10800D02*
G01X9000Y10800D01*
G01X11100Y8700D01*
G01X13200Y8700D01*
G01X3400Y10400D02*
G01X4000Y10400D01*
G01X5000Y11400D01*
G01X6800Y11400D01*
G01X8000Y11400D02*
G01X9600Y11400D01*
G01X11300Y9700D01*
G01X13200Y9700D01*
G01X4928Y19171D02*
G01X5028Y19171D01*
G01X7200Y17000D01*
G01X8000Y17000D01*
G01X10400Y17400D02*
G01X10000Y17800D01*
G01X9400Y18400D01*
G01X9400Y20200D01*
G01X7200Y22400D01*
G01X5800Y22400D01*
G01X3928Y24271D01*
G01X3928Y25171D01*
G01X4928Y25171D02*
G01X4928Y24271D01*
G01X6400Y22800D01*
G01X7800Y22800D01*
G01X10400Y20200D01*
G01X10400Y18200D01*
G01X11000Y17600D01*
G01X11000Y17600D01*
G01X5928Y25171D02*
G01X5928Y24271D01*
G01X7000Y23200D01*
G01X8400Y23200D01*
G01X11400Y20200D01*
G01X11400Y17600D01*
G01X11400Y17400D01*
G01X8428Y20171D02*
G01X8428Y18428D01*
G01X8400Y18400D01*
G01X7428Y20171D02*
G01X7428Y18428D01*
G01X7400Y18400D01*
G01X6928Y25171D02*
G01X6928Y24271D01*
G01X7400Y23800D01*
G01X8800Y23800D01*
G01X12800Y19800D01*
G01X12800Y19000D01*
G01X12000Y18200D01*
G01X12400Y18000D02*
G01X13200Y18800D01*
G01X13200Y20200D01*
G01X9200Y24200D01*
G01X8400Y24200D01*
G01X7950Y24650D01*
G01X7950Y25194D01*
G01X7928Y25171D01*
G01X6800Y11400D02*
G01X6800Y12400D01*
G01X6200Y13000D01*
G01X6200Y14200D01*
G54D12*
G01X10900Y4200D02*
G01X10900Y5900D01*
G01X9400Y7400D01*
G01X6800Y7400D01*
G01X6400Y7800D01*
G01X9800Y17000D02*
G01X9342Y17000D01*
G01X8928Y16659D01*
G01X8928Y19171D02*
G01X8928Y14871D01*
G01X9800Y14000D01*
G01X9800Y13600D01*
G01X9000Y12800D01*
G54D10*
G01X9800Y16400D02*
G01X9800Y14800D01*
G01X10800Y13800D01*
G01X10800Y12200D01*
G01X12300Y10700D01*
G01X13200Y10700D01*
G01X10400Y17400D02*
G01X10400Y15000D01*
G01X11400Y14000D01*
G01X11400Y12600D01*
G01X12300Y11700D01*
G01X13200Y11700D01*
G01X11000Y17600D02*
G01X11000Y15200D01*
G01X12000Y14200D01*
G01X12000Y13200D01*
G01X12500Y12700D01*
G01X13200Y12700D01*
G01X11400Y17400D02*
G01X11400Y15600D01*
G01X12400Y14600D01*
G01X12400Y14000D01*
G01X12700Y13700D01*
G01X13200Y13700D01*
G01X12000Y18200D02*
G01X12000Y15900D01*
G01X13200Y14700D01*
G01X12400Y18000D02*
G01X12400Y16500D01*
G01X13200Y15700D01*
G54D15*
G01X1900Y4200D03*
G01X10900Y4200D03*
G54D16*
G01X6400Y4200D03*
G54D17*
G01X7400Y12850D03*
G01X7400Y13350D03*
G01X7400Y13850D03*
G01X7400Y14350D03*
G01X7400Y14850D03*
G01X7400Y15350D03*
G01X7400Y15850D03*
G01X7400Y16350D03*
G54D18*
G01X9000Y12800D03*
G01X9000Y13800D03*
G01X6400Y9100D03*
G01X6400Y10100D03*
G01X3400Y8400D03*
G01X3400Y9400D03*
G01X3400Y10400D03*
G01X3400Y11400D03*
G54D19*
G01X13200Y17700D03*
G54D20*
G01X13200Y16700D03*
G01X13200Y15700D03*
G01X13200Y14700D03*
G01X13200Y13700D03*
G01X13200Y12700D03*
G01X13200Y11700D03*
G01X13200Y10700D03*
G01X13200Y9700D03*
G01X13200Y8700D03*
G01X11928Y25171D03*
G01X10928Y25171D03*
G01X9928Y25171D03*
G01X8928Y25171D03*
G01X7928Y25171D03*
G01X6928Y25171D03*
G01X5928Y25171D03*
G01X4928Y25171D03*
G01X3928Y25171D03*
G01X2928Y25171D03*
G01X1928Y25171D03*
G01X928Y25171D03*
G01X7428Y20171D03*
G01X8428Y20171D03*
G01X928Y19171D03*
G01X1928Y19171D03*
G01X2928Y19171D03*
G01X3928Y19171D03*
G01X4928Y19171D03*
G01X5928Y19171D03*
G01X6928Y19171D03*
G01X7928Y19171D03*
G01X8928Y19171D03*
G01X9928Y19171D03*
G01X10928Y19171D03*
G01X928Y20171D03*
G01X928Y21171D03*
G01X928Y22171D03*
G01X11928Y19171D03*
G54D14*
G01X3950Y17750D03*
G01X8200Y6000D03*
G01X7200Y6000D03*
G01X8200Y2400D03*
G01X7400Y2400D03*
G01X4600Y4200D03*
G01X8200Y4200D03*
G01X5400Y6000D03*
G01X5400Y2400D03*
G01X4600Y3400D03*
G01X4600Y5200D03*
G01X8200Y5200D03*
G01X8200Y3400D03*
G01X6400Y2400D03*
G01X4600Y2400D03*
G01X4600Y6000D03*
G01X6400Y6000D03*
G01X7100Y13350D03*
G01X6400Y4200D03*
G01X6800Y10800D03*
G01X6800Y11400D03*
G01X8000Y11400D03*
G01X8000Y10800D03*
G01X8000Y17000D03*
G01X7400Y18400D03*
G01X8400Y18400D03*
G01X6200Y14200D03*
G01X9800Y16400D03*
G01X9800Y17000D03*
M00*
M02*
