G04 Layer: BottomLayer*
G04 EasyEDA v6.2.46, 2019-11-03T11:34:55+01:00*
G04 e10e46a80a834b6b97d20d57123ccb7d,d15f1e4770a0489585fd403fbbc54e69,10*
G04 Gerber Generator version 0.2*
G04 Scale: 100 percent, Rotated: No, Reflected: No *
G04 Dimensions in inches *
G04 leading zeros omitted , absolute positions ,2 integer and 4 decimal *
%FSLAX24Y24*%
%MOIN*%
G90*
G70D02*

%ADD10C,0.010000*%
%ADD11C,0.008000*%
%ADD12C,0.025000*%
%ADD14C,0.024400*%
%ADD18C,0.060000*%
%ADD19R,0.065000X0.065000*%
%ADD20C,0.065000*%

%LPD*%
G36*
G01X13760Y25800D02*
G01X239Y25800D01*
G01X234Y25799D01*
G01X228Y25798D01*
G01X223Y25796D01*
G01X213Y25790D01*
G01X209Y25786D01*
G01X203Y25776D01*
G01X201Y25771D01*
G01X200Y25765D01*
G01X199Y25760D01*
G01X200Y18030D01*
G01X200Y18024D01*
G01X201Y18019D01*
G01X203Y18013D01*
G01X206Y18008D01*
G01X214Y18000D01*
G01X219Y17996D01*
G01X224Y17993D01*
G01X229Y17992D01*
G01X3200Y17200D01*
G01X3200Y12000D01*
G01X227Y11009D01*
G01X221Y11006D01*
G01X216Y11003D01*
G01X211Y10999D01*
G01X207Y10994D01*
G01X204Y10989D01*
G01X201Y10983D01*
G01X200Y10977D01*
G01X200Y10971D01*
G01X199Y239D01*
G01X200Y234D01*
G01X201Y228D01*
G01X203Y223D01*
G01X209Y213D01*
G01X213Y209D01*
G01X223Y203D01*
G01X228Y201D01*
G01X234Y200D01*
G01X239Y199D01*
G01X240Y200D01*
G01X13760Y199D01*
G01X13765Y200D01*
G01X13771Y201D01*
G01X13776Y203D01*
G01X13786Y209D01*
G01X13790Y213D01*
G01X13796Y223D01*
G01X13798Y228D01*
G01X13799Y234D01*
G01X13800Y239D01*
G01X13800Y25760D01*
G01X13799Y25765D01*
G01X13798Y25771D01*
G01X13796Y25776D01*
G01X13790Y25786D01*
G01X13786Y25790D01*
G01X13776Y25796D01*
G01X13771Y25798D01*
G01X13765Y25799D01*
G01X13760Y25800D01*
G37*

%LPC*%
G36*
G01X8426Y18621D02*
G01X8400Y18623D01*
G01X8386Y18622D01*
G01X8373Y18621D01*
G01X8359Y18619D01*
G01X8346Y18616D01*
G01X8320Y18608D01*
G01X8308Y18603D01*
G01X8296Y18597D01*
G01X8284Y18590D01*
G01X8273Y18583D01*
G01X8262Y18575D01*
G01X8242Y18557D01*
G01X8224Y18537D01*
G01X8216Y18526D01*
G01X8209Y18515D01*
G01X8202Y18503D01*
G01X8196Y18491D01*
G01X8191Y18479D01*
G01X8183Y18453D01*
G01X8180Y18440D01*
G01X8178Y18426D01*
G01X8177Y18413D01*
G01X8177Y18385D01*
G01X8178Y18370D01*
G01X8181Y18356D01*
G01X8184Y18341D01*
G01X8194Y18313D01*
G01X8200Y18300D01*
G01X8207Y18287D01*
G01X8215Y18274D01*
G01X8218Y18269D01*
G01X8220Y18264D01*
G01X8222Y18252D01*
G01X8220Y18240D01*
G01X8214Y18228D01*
G01X8210Y18224D01*
G01X7949Y17962D01*
G01X7944Y17958D01*
G01X7939Y17955D01*
G01X7933Y17952D01*
G01X7927Y17951D01*
G01X7399Y17951D01*
G01X7388Y17950D01*
G01X7376Y17949D01*
G01X7364Y17946D01*
G01X7353Y17943D01*
G01X7342Y17939D01*
G01X7331Y17934D01*
G01X7311Y17922D01*
G01X7301Y17914D01*
G01X6685Y17298D01*
G01X6677Y17288D01*
G01X6665Y17268D01*
G01X6660Y17257D01*
G01X6656Y17246D01*
G01X6653Y17235D01*
G01X6650Y17223D01*
G01X6649Y17211D01*
G01X6648Y17200D01*
G01X6648Y13872D01*
G01X6647Y13866D01*
G01X6644Y13860D01*
G01X6641Y13855D01*
G01X6637Y13850D01*
G01X6085Y13298D01*
G01X6077Y13288D01*
G01X6065Y13268D01*
G01X6060Y13257D01*
G01X6056Y13246D01*
G01X6053Y13235D01*
G01X6050Y13223D01*
G01X6049Y13211D01*
G01X6048Y13200D01*
G01X6048Y11200D01*
G01X6050Y11176D01*
G01X6053Y11164D01*
G01X6056Y11153D01*
G01X6060Y11142D01*
G01X6065Y11131D01*
G01X6077Y11111D01*
G01X6085Y11101D01*
G01X6501Y10685D01*
G01X6511Y10677D01*
G01X6531Y10665D01*
G01X6542Y10660D01*
G01X6553Y10656D01*
G01X6564Y10653D01*
G01X6576Y10650D01*
G01X6588Y10649D01*
G01X6599Y10648D01*
G01X6625Y10648D01*
G01X6631Y10647D01*
G01X6646Y10638D01*
G01X6657Y10628D01*
G01X6679Y10612D01*
G01X6692Y10604D01*
G01X6704Y10598D01*
G01X6717Y10592D01*
G01X6730Y10588D01*
G01X6744Y10584D01*
G01X6757Y10580D01*
G01X6771Y10578D01*
G01X6799Y10576D01*
G01X6814Y10577D01*
G01X6828Y10578D01*
G01X6842Y10580D01*
G01X6855Y10584D01*
G01X6869Y10588D01*
G01X6882Y10592D01*
G01X6895Y10598D01*
G01X6907Y10604D01*
G01X6920Y10612D01*
G01X6942Y10628D01*
G01X6953Y10638D01*
G01X6968Y10647D01*
G01X6974Y10648D01*
G01X7825Y10648D01*
G01X7831Y10647D01*
G01X7846Y10638D01*
G01X7857Y10628D01*
G01X7879Y10612D01*
G01X7892Y10604D01*
G01X7904Y10598D01*
G01X7917Y10592D01*
G01X7930Y10588D01*
G01X7944Y10584D01*
G01X7957Y10580D01*
G01X7971Y10578D01*
G01X7985Y10577D01*
G01X8000Y10576D01*
G01X8026Y10578D01*
G01X8040Y10580D01*
G01X8053Y10583D01*
G01X8079Y10591D01*
G01X8091Y10596D01*
G01X8103Y10602D01*
G01X8115Y10609D01*
G01X8126Y10616D01*
G01X8137Y10624D01*
G01X8157Y10642D01*
G01X8175Y10662D01*
G01X8183Y10673D01*
G01X8190Y10684D01*
G01X8197Y10696D01*
G01X8203Y10708D01*
G01X8208Y10720D01*
G01X8216Y10746D01*
G01X8219Y10759D01*
G01X8221Y10773D01*
G01X8222Y10786D01*
G01X8223Y10800D01*
G01X8221Y10826D01*
G01X8219Y10840D01*
G01X8216Y10853D01*
G01X8208Y10879D01*
G01X8203Y10891D01*
G01X8197Y10903D01*
G01X8190Y10915D01*
G01X8183Y10926D01*
G01X8175Y10937D01*
G01X8157Y10957D01*
G01X8137Y10975D01*
G01X8126Y10983D01*
G01X8115Y10990D01*
G01X8103Y10997D01*
G01X8091Y11003D01*
G01X8079Y11008D01*
G01X8053Y11016D01*
G01X8040Y11019D01*
G01X8026Y11021D01*
G01X8000Y11023D01*
G01X7985Y11022D01*
G01X7971Y11021D01*
G01X7957Y11019D01*
G01X7944Y11015D01*
G01X7930Y11011D01*
G01X7917Y11007D01*
G01X7904Y11001D01*
G01X7892Y10995D01*
G01X7879Y10987D01*
G01X7857Y10971D01*
G01X7846Y10961D01*
G01X7831Y10952D01*
G01X7825Y10951D01*
G01X6974Y10951D01*
G01X6968Y10952D01*
G01X6953Y10961D01*
G01X6942Y10971D01*
G01X6920Y10987D01*
G01X6907Y10995D01*
G01X6895Y11001D01*
G01X6882Y11007D01*
G01X6869Y11011D01*
G01X6855Y11015D01*
G01X6842Y11019D01*
G01X6828Y11021D01*
G01X6814Y11022D01*
G01X6785Y11022D01*
G01X6770Y11021D01*
G01X6756Y11018D01*
G01X6741Y11015D01*
G01X6713Y11005D01*
G01X6700Y10999D01*
G01X6687Y10992D01*
G01X6674Y10984D01*
G01X6669Y10981D01*
G01X6664Y10979D01*
G01X6652Y10977D01*
G01X6640Y10979D01*
G01X6628Y10985D01*
G01X6624Y10989D01*
G01X6362Y11250D01*
G01X6358Y11255D01*
G01X6355Y11260D01*
G01X6352Y11266D01*
G01X6351Y11272D01*
G01X6351Y13127D01*
G01X6352Y13133D01*
G01X6355Y13139D01*
G01X6358Y13144D01*
G01X6362Y13149D01*
G01X6914Y13701D01*
G01X6922Y13711D01*
G01X6934Y13731D01*
G01X6939Y13742D01*
G01X6943Y13753D01*
G01X6946Y13764D01*
G01X6949Y13776D01*
G01X6950Y13788D01*
G01X6951Y13799D01*
G01X6951Y17127D01*
G01X6952Y17133D01*
G01X6955Y17139D01*
G01X6958Y17144D01*
G01X6962Y17149D01*
G01X7450Y17637D01*
G01X7455Y17641D01*
G01X7460Y17644D01*
G01X7466Y17647D01*
G01X7472Y17648D01*
G01X8000Y17648D01*
G01X8011Y17649D01*
G01X8023Y17650D01*
G01X8035Y17653D01*
G01X8046Y17656D01*
G01X8057Y17660D01*
G01X8068Y17665D01*
G01X8088Y17677D01*
G01X8098Y17685D01*
G01X8514Y18101D01*
G01X8522Y18111D01*
G01X8534Y18131D01*
G01X8539Y18142D01*
G01X8543Y18153D01*
G01X8546Y18164D01*
G01X8549Y18176D01*
G01X8550Y18188D01*
G01X8551Y18199D01*
G01X8551Y18225D01*
G01X8552Y18231D01*
G01X8561Y18246D01*
G01X8571Y18257D01*
G01X8587Y18279D01*
G01X8595Y18292D01*
G01X8601Y18304D01*
G01X8607Y18317D01*
G01X8611Y18330D01*
G01X8615Y18344D01*
G01X8619Y18357D01*
G01X8621Y18371D01*
G01X8622Y18385D01*
G01X8623Y18400D01*
G01X8621Y18426D01*
G01X8619Y18440D01*
G01X8616Y18453D01*
G01X8608Y18479D01*
G01X8603Y18491D01*
G01X8597Y18503D01*
G01X8590Y18515D01*
G01X8583Y18526D01*
G01X8575Y18537D01*
G01X8557Y18557D01*
G01X8537Y18575D01*
G01X8526Y18583D01*
G01X8515Y18590D01*
G01X8503Y18597D01*
G01X8491Y18603D01*
G01X8479Y18608D01*
G01X8453Y18616D01*
G01X8440Y18619D01*
G01X8426Y18621D01*
G37*
G36*
G01X7426Y18621D02*
G01X7400Y18623D01*
G01X7385Y18622D01*
G01X7371Y18621D01*
G01X7357Y18619D01*
G01X7344Y18615D01*
G01X7330Y18611D01*
G01X7317Y18607D01*
G01X7304Y18601D01*
G01X7292Y18595D01*
G01X7279Y18587D01*
G01X7257Y18571D01*
G01X7246Y18561D01*
G01X7231Y18552D01*
G01X7225Y18551D01*
G01X6799Y18551D01*
G01X6788Y18550D01*
G01X6776Y18549D01*
G01X6764Y18546D01*
G01X6753Y18543D01*
G01X6742Y18539D01*
G01X6731Y18534D01*
G01X6711Y18522D01*
G01X6701Y18514D01*
G01X6085Y17898D01*
G01X6077Y17888D01*
G01X6065Y17868D01*
G01X6060Y17857D01*
G01X6056Y17846D01*
G01X6053Y17835D01*
G01X6050Y17823D01*
G01X6049Y17811D01*
G01X6048Y17800D01*
G01X6048Y14374D01*
G01X6047Y14368D01*
G01X6038Y14353D01*
G01X6028Y14342D01*
G01X6012Y14320D01*
G01X6004Y14307D01*
G01X5998Y14295D01*
G01X5992Y14282D01*
G01X5988Y14269D01*
G01X5984Y14255D01*
G01X5980Y14242D01*
G01X5978Y14228D01*
G01X5977Y14214D01*
G01X5976Y14199D01*
G01X5977Y14186D01*
G01X5978Y14173D01*
G01X5980Y14159D01*
G01X5983Y14146D01*
G01X5991Y14120D01*
G01X5996Y14108D01*
G01X6002Y14096D01*
G01X6009Y14084D01*
G01X6016Y14073D01*
G01X6024Y14062D01*
G01X6042Y14042D01*
G01X6062Y14024D01*
G01X6073Y14016D01*
G01X6084Y14009D01*
G01X6096Y14002D01*
G01X6108Y13996D01*
G01X6120Y13991D01*
G01X6146Y13983D01*
G01X6159Y13980D01*
G01X6173Y13978D01*
G01X6186Y13977D01*
G01X6200Y13976D01*
G01X6226Y13978D01*
G01X6240Y13980D01*
G01X6253Y13983D01*
G01X6279Y13991D01*
G01X6291Y13996D01*
G01X6303Y14002D01*
G01X6315Y14009D01*
G01X6326Y14016D01*
G01X6337Y14024D01*
G01X6357Y14042D01*
G01X6375Y14062D01*
G01X6383Y14073D01*
G01X6390Y14084D01*
G01X6397Y14096D01*
G01X6403Y14108D01*
G01X6408Y14120D01*
G01X6416Y14146D01*
G01X6419Y14159D01*
G01X6421Y14173D01*
G01X6422Y14186D01*
G01X6423Y14200D01*
G01X6421Y14228D01*
G01X6419Y14242D01*
G01X6415Y14255D01*
G01X6411Y14269D01*
G01X6407Y14282D01*
G01X6401Y14295D01*
G01X6395Y14307D01*
G01X6387Y14320D01*
G01X6371Y14342D01*
G01X6361Y14353D01*
G01X6352Y14368D01*
G01X6351Y14374D01*
G01X6351Y17727D01*
G01X6352Y17733D01*
G01X6355Y17739D01*
G01X6358Y17744D01*
G01X6362Y17749D01*
G01X6850Y18237D01*
G01X6855Y18241D01*
G01X6860Y18244D01*
G01X6866Y18247D01*
G01X6872Y18248D01*
G01X7225Y18248D01*
G01X7231Y18247D01*
G01X7246Y18238D01*
G01X7257Y18228D01*
G01X7279Y18212D01*
G01X7292Y18204D01*
G01X7304Y18198D01*
G01X7317Y18192D01*
G01X7330Y18188D01*
G01X7344Y18184D01*
G01X7357Y18180D01*
G01X7371Y18178D01*
G01X7385Y18177D01*
G01X7413Y18177D01*
G01X7426Y18178D01*
G01X7440Y18180D01*
G01X7453Y18183D01*
G01X7479Y18191D01*
G01X7491Y18196D01*
G01X7503Y18202D01*
G01X7515Y18209D01*
G01X7526Y18216D01*
G01X7537Y18224D01*
G01X7557Y18242D01*
G01X7575Y18262D01*
G01X7583Y18273D01*
G01X7590Y18284D01*
G01X7597Y18296D01*
G01X7603Y18308D01*
G01X7608Y18320D01*
G01X7616Y18346D01*
G01X7619Y18359D01*
G01X7621Y18373D01*
G01X7622Y18386D01*
G01X7623Y18400D01*
G01X7621Y18426D01*
G01X7619Y18440D01*
G01X7616Y18453D01*
G01X7608Y18479D01*
G01X7603Y18491D01*
G01X7597Y18503D01*
G01X7590Y18515D01*
G01X7583Y18526D01*
G01X7575Y18537D01*
G01X7557Y18557D01*
G01X7537Y18575D01*
G01X7526Y18583D01*
G01X7515Y18590D01*
G01X7503Y18597D01*
G01X7491Y18603D01*
G01X7479Y18608D01*
G01X7453Y18616D01*
G01X7440Y18619D01*
G01X7426Y18621D01*
G37*
G36*
G01X13525Y18126D02*
G01X12875Y18126D01*
G01X12865Y18125D01*
G01X12856Y18124D01*
G01X12847Y18122D01*
G01X12838Y18119D01*
G01X12829Y18115D01*
G01X12821Y18110D01*
G01X12814Y18105D01*
G01X12806Y18099D01*
G01X12800Y18093D01*
G01X12794Y18085D01*
G01X12789Y18078D01*
G01X12784Y18070D01*
G01X12780Y18061D01*
G01X12777Y18052D01*
G01X12775Y18043D01*
G01X12773Y18025D01*
G01X12773Y17960D01*
G01X12772Y17954D01*
G01X12770Y17949D01*
G01X12764Y17939D01*
G01X12760Y17935D01*
G01X12750Y17929D01*
G01X12745Y17927D01*
G01X12739Y17926D01*
G01X10500Y17926D01*
G01X10472Y17924D01*
G01X10459Y17922D01*
G01X10445Y17919D01*
G01X10419Y17911D01*
G01X10407Y17906D01*
G01X10394Y17900D01*
G01X10383Y17893D01*
G01X10371Y17885D01*
G01X10360Y17877D01*
G01X10350Y17869D01*
G01X9630Y17149D01*
G01X9622Y17139D01*
G01X9614Y17128D01*
G01X9606Y17116D01*
G01X9599Y17105D01*
G01X9593Y17092D01*
G01X9588Y17080D01*
G01X9580Y17054D01*
G01X9577Y17040D01*
G01X9575Y17027D01*
G01X9574Y17013D01*
G01X9573Y17000D01*
G01X9575Y16972D01*
G01X9577Y16959D01*
G01X9580Y16945D01*
G01X9588Y16919D01*
G01X9593Y16907D01*
G01X9599Y16894D01*
G01X9606Y16883D01*
G01X9614Y16871D01*
G01X9622Y16860D01*
G01X9630Y16850D01*
G01X9650Y16830D01*
G01X9660Y16822D01*
G01X9671Y16814D01*
G01X9683Y16806D01*
G01X9694Y16799D01*
G01X9707Y16793D01*
G01X9719Y16788D01*
G01X9745Y16780D01*
G01X9759Y16777D01*
G01X9772Y16775D01*
G01X9800Y16773D01*
G01X9813Y16774D01*
G01X9827Y16775D01*
G01X9840Y16777D01*
G01X9854Y16780D01*
G01X9880Y16788D01*
G01X9892Y16793D01*
G01X9905Y16799D01*
G01X9916Y16806D01*
G01X9928Y16814D01*
G01X9939Y16822D01*
G01X9949Y16830D01*
G01X10581Y17462D01*
G01X10586Y17466D01*
G01X10592Y17469D01*
G01X10597Y17472D01*
G01X10603Y17473D01*
G01X12739Y17473D01*
G01X12745Y17472D01*
G01X12750Y17470D01*
G01X12760Y17464D01*
G01X12764Y17460D01*
G01X12770Y17450D01*
G01X12772Y17445D01*
G01X12773Y17439D01*
G01X12773Y17375D01*
G01X12774Y17365D01*
G01X12775Y17356D01*
G01X12777Y17347D01*
G01X12780Y17338D01*
G01X12784Y17329D01*
G01X12789Y17321D01*
G01X12794Y17314D01*
G01X12800Y17306D01*
G01X12806Y17300D01*
G01X12814Y17294D01*
G01X12821Y17289D01*
G01X12829Y17284D01*
G01X12838Y17280D01*
G01X12847Y17277D01*
G01X12856Y17275D01*
G01X12865Y17274D01*
G01X12875Y17273D01*
G01X13525Y17273D01*
G01X13543Y17275D01*
G01X13552Y17277D01*
G01X13561Y17280D01*
G01X13570Y17284D01*
G01X13578Y17289D01*
G01X13585Y17294D01*
G01X13593Y17300D01*
G01X13599Y17306D01*
G01X13605Y17314D01*
G01X13610Y17321D01*
G01X13615Y17329D01*
G01X13619Y17338D01*
G01X13622Y17347D01*
G01X13624Y17356D01*
G01X13625Y17365D01*
G01X13626Y17375D01*
G01X13626Y18025D01*
G01X13624Y18043D01*
G01X13622Y18052D01*
G01X13619Y18061D01*
G01X13615Y18070D01*
G01X13610Y18078D01*
G01X13605Y18085D01*
G01X13599Y18093D01*
G01X13593Y18099D01*
G01X13585Y18105D01*
G01X13578Y18110D01*
G01X13570Y18115D01*
G01X13561Y18119D01*
G01X13552Y18122D01*
G01X13543Y18124D01*
G01X13525Y18126D01*
G37*
G36*
G01X8013Y17222D02*
G01X8000Y17223D01*
G01X7986Y17222D01*
G01X7973Y17221D01*
G01X7959Y17219D01*
G01X7946Y17216D01*
G01X7920Y17208D01*
G01X7908Y17203D01*
G01X7896Y17197D01*
G01X7884Y17190D01*
G01X7873Y17183D01*
G01X7862Y17175D01*
G01X7842Y17157D01*
G01X7824Y17137D01*
G01X7816Y17126D01*
G01X7809Y17115D01*
G01X7802Y17103D01*
G01X7796Y17091D01*
G01X7791Y17079D01*
G01X7783Y17053D01*
G01X7780Y17040D01*
G01X7778Y17026D01*
G01X7776Y17000D01*
G01X7778Y16972D01*
G01X7780Y16958D01*
G01X7783Y16945D01*
G01X7787Y16932D01*
G01X7797Y16906D01*
G01X7803Y16894D01*
G01X7810Y16882D01*
G01X7818Y16870D01*
G01X7826Y16859D01*
G01X7835Y16849D01*
G01X7845Y16839D01*
G01X7865Y16821D01*
G01X7877Y16813D01*
G01X7888Y16806D01*
G01X7901Y16800D01*
G01X7913Y16794D01*
G01X7926Y16789D01*
G01X7939Y16785D01*
G01X7952Y16782D01*
G01X7966Y16779D01*
G01X7980Y16777D01*
G01X7993Y16777D01*
G01X7999Y16776D01*
G01X8011Y16772D01*
G01X8016Y16769D01*
G01X8021Y16765D01*
G01X8501Y16285D01*
G01X8511Y16277D01*
G01X8531Y16265D01*
G01X8542Y16260D01*
G01X8553Y16256D01*
G01X8564Y16253D01*
G01X8576Y16250D01*
G01X8588Y16249D01*
G01X8599Y16248D01*
G01X9625Y16248D01*
G01X9631Y16247D01*
G01X9646Y16238D01*
G01X9657Y16228D01*
G01X9679Y16212D01*
G01X9692Y16204D01*
G01X9704Y16198D01*
G01X9717Y16192D01*
G01X9730Y16188D01*
G01X9744Y16184D01*
G01X9757Y16180D01*
G01X9771Y16178D01*
G01X9785Y16177D01*
G01X9800Y16176D01*
G01X9826Y16178D01*
G01X9840Y16180D01*
G01X9853Y16183D01*
G01X9879Y16191D01*
G01X9891Y16196D01*
G01X9903Y16202D01*
G01X9915Y16209D01*
G01X9926Y16216D01*
G01X9937Y16224D01*
G01X9957Y16242D01*
G01X9975Y16262D01*
G01X9983Y16273D01*
G01X9990Y16284D01*
G01X9997Y16296D01*
G01X10003Y16308D01*
G01X10008Y16320D01*
G01X10016Y16346D01*
G01X10019Y16359D01*
G01X10021Y16373D01*
G01X10022Y16386D01*
G01X10022Y16413D01*
G01X10021Y16426D01*
G01X10019Y16440D01*
G01X10016Y16453D01*
G01X10008Y16479D01*
G01X10003Y16491D01*
G01X9997Y16503D01*
G01X9990Y16515D01*
G01X9983Y16526D01*
G01X9975Y16537D01*
G01X9957Y16557D01*
G01X9937Y16575D01*
G01X9926Y16583D01*
G01X9915Y16590D01*
G01X9903Y16597D01*
G01X9891Y16603D01*
G01X9879Y16608D01*
G01X9853Y16616D01*
G01X9840Y16619D01*
G01X9826Y16621D01*
G01X9800Y16623D01*
G01X9785Y16622D01*
G01X9771Y16621D01*
G01X9757Y16619D01*
G01X9744Y16615D01*
G01X9730Y16611D01*
G01X9717Y16607D01*
G01X9704Y16601D01*
G01X9692Y16595D01*
G01X9679Y16587D01*
G01X9657Y16571D01*
G01X9646Y16561D01*
G01X9631Y16552D01*
G01X9625Y16551D01*
G01X8672Y16551D01*
G01X8666Y16552D01*
G01X8660Y16555D01*
G01X8655Y16558D01*
G01X8650Y16562D01*
G01X8234Y16978D01*
G01X8230Y16983D01*
G01X8227Y16988D01*
G01X8223Y17000D01*
G01X8222Y17006D01*
G01X8222Y17019D01*
G01X8220Y17033D01*
G01X8217Y17047D01*
G01X8214Y17060D01*
G01X8210Y17073D01*
G01X8205Y17086D01*
G01X8199Y17098D01*
G01X8193Y17111D01*
G01X8186Y17122D01*
G01X8178Y17134D01*
G01X8160Y17154D01*
G01X8150Y17164D01*
G01X8140Y17173D01*
G01X8129Y17181D01*
G01X8117Y17189D01*
G01X8105Y17196D01*
G01X8093Y17202D01*
G01X8067Y17212D01*
G01X8054Y17216D01*
G01X8041Y17219D01*
G01X8027Y17221D01*
G01X8013Y17222D01*
G37*
G36*
G01X3946Y19597D02*
G01X3928Y19598D01*
G01X3890Y19596D01*
G01X3872Y19594D01*
G01X3854Y19591D01*
G01X3835Y19587D01*
G01X3817Y19583D01*
G01X3799Y19578D01*
G01X3782Y19572D01*
G01X3748Y19558D01*
G01X3731Y19549D01*
G01X3699Y19531D01*
G01X3683Y19520D01*
G01X3668Y19509D01*
G01X3654Y19498D01*
G01X3640Y19486D01*
G01X3626Y19473D01*
G01X3614Y19459D01*
G01X3601Y19445D01*
G01X3590Y19431D01*
G01X3579Y19416D01*
G01X3568Y19400D01*
G01X3550Y19368D01*
G01X3542Y19352D01*
G01X3534Y19335D01*
G01X3527Y19317D01*
G01X3521Y19300D01*
G01X3516Y19282D01*
G01X3512Y19264D01*
G01X3508Y19245D01*
G01X3505Y19227D01*
G01X3503Y19209D01*
G01X3502Y19190D01*
G01X3502Y19153D01*
G01X3503Y19134D01*
G01X3505Y19116D01*
G01X3508Y19097D01*
G01X3516Y19061D01*
G01X3521Y19043D01*
G01X3527Y19026D01*
G01X3534Y19008D01*
G01X3542Y18991D01*
G01X3550Y18975D01*
G01X3559Y18958D01*
G01X3568Y18943D01*
G01X3579Y18927D01*
G01X3590Y18912D01*
G01X3601Y18898D01*
G01X3614Y18884D01*
G01X3626Y18870D01*
G01X3640Y18857D01*
G01X3668Y18833D01*
G01X3683Y18822D01*
G01X3715Y18802D01*
G01X3731Y18794D01*
G01X3748Y18785D01*
G01X3782Y18771D01*
G01X3788Y18769D01*
G01X3793Y18765D01*
G01X3797Y18761D01*
G01X3801Y18756D01*
G01X3807Y18746D01*
G01X3809Y18734D01*
G01X3809Y17940D01*
G01X3808Y17934D01*
G01X3804Y17922D01*
G01X3800Y17916D01*
G01X3796Y17911D01*
G01X3786Y17901D01*
G01X3777Y17891D01*
G01X3769Y17880D01*
G01X3761Y17868D01*
G01X3747Y17844D01*
G01X3737Y17818D01*
G01X3733Y17805D01*
G01X3730Y17791D01*
G01X3728Y17777D01*
G01X3727Y17763D01*
G01X3726Y17750D01*
G01X3727Y17736D01*
G01X3728Y17723D01*
G01X3730Y17709D01*
G01X3733Y17696D01*
G01X3741Y17670D01*
G01X3746Y17658D01*
G01X3752Y17646D01*
G01X3759Y17634D01*
G01X3766Y17623D01*
G01X3774Y17612D01*
G01X3792Y17592D01*
G01X3812Y17574D01*
G01X3823Y17566D01*
G01X3834Y17559D01*
G01X3846Y17552D01*
G01X3858Y17546D01*
G01X3870Y17541D01*
G01X3896Y17533D01*
G01X3909Y17530D01*
G01X3923Y17528D01*
G01X3936Y17527D01*
G01X3963Y17527D01*
G01X3976Y17528D01*
G01X3990Y17530D01*
G01X4003Y17533D01*
G01X4029Y17541D01*
G01X4041Y17546D01*
G01X4053Y17552D01*
G01X4065Y17559D01*
G01X4076Y17566D01*
G01X4087Y17574D01*
G01X4107Y17592D01*
G01X4125Y17612D01*
G01X4133Y17623D01*
G01X4140Y17634D01*
G01X4147Y17646D01*
G01X4153Y17658D01*
G01X4158Y17670D01*
G01X4166Y17696D01*
G01X4169Y17709D01*
G01X4171Y17723D01*
G01X4173Y17749D01*
G01X4171Y17777D01*
G01X4169Y17791D01*
G01X4166Y17805D01*
G01X4162Y17818D01*
G01X4152Y17844D01*
G01X4138Y17868D01*
G01X4130Y17880D01*
G01X4122Y17891D01*
G01X4113Y17901D01*
G01X4103Y17911D01*
G01X4099Y17916D01*
G01X4095Y17922D01*
G01X4091Y17934D01*
G01X4090Y17940D01*
G01X4090Y18752D01*
G01X4091Y18758D01*
G01X4093Y18765D01*
G01X4095Y18770D01*
G01X4098Y18776D01*
G01X4103Y18781D01*
G01X4108Y18785D01*
G01X4113Y18788D01*
G01X4147Y18806D01*
G01X4163Y18816D01*
G01X4178Y18827D01*
G01X4194Y18839D01*
G01X4208Y18851D01*
G01X4236Y18877D01*
G01X4249Y18892D01*
G01X4261Y18906D01*
G01X4272Y18921D01*
G01X4283Y18937D01*
G01X4293Y18953D01*
G01X4303Y18970D01*
G01X4312Y18987D01*
G01X4319Y19004D01*
G01X4327Y19022D01*
G01X4333Y19040D01*
G01X4338Y19058D01*
G01X4343Y19077D01*
G01X4347Y19096D01*
G01X4350Y19114D01*
G01X4352Y19133D01*
G01X4354Y19171D01*
G01X4352Y19209D01*
G01X4350Y19227D01*
G01X4347Y19245D01*
G01X4344Y19264D01*
G01X4334Y19300D01*
G01X4328Y19317D01*
G01X4321Y19335D01*
G01X4314Y19352D01*
G01X4305Y19368D01*
G01X4297Y19384D01*
G01X4277Y19416D01*
G01X4266Y19431D01*
G01X4242Y19459D01*
G01X4229Y19473D01*
G01X4215Y19486D01*
G01X4201Y19498D01*
G01X4187Y19509D01*
G01X4172Y19520D01*
G01X4156Y19531D01*
G01X4141Y19540D01*
G01X4124Y19549D01*
G01X4108Y19558D01*
G01X4091Y19565D01*
G01X4073Y19572D01*
G01X4056Y19578D01*
G01X4038Y19583D01*
G01X4002Y19591D01*
G01X3983Y19594D01*
G01X3965Y19596D01*
G01X3946Y19597D01*
G37*
G36*
G01X6828Y11621D02*
G01X6800Y11623D01*
G01X6786Y11622D01*
G01X6773Y11621D01*
G01X6759Y11619D01*
G01X6746Y11616D01*
G01X6720Y11608D01*
G01X6708Y11603D01*
G01X6696Y11597D01*
G01X6684Y11590D01*
G01X6673Y11583D01*
G01X6662Y11575D01*
G01X6642Y11557D01*
G01X6624Y11537D01*
G01X6616Y11526D01*
G01X6609Y11515D01*
G01X6602Y11503D01*
G01X6596Y11491D01*
G01X6591Y11479D01*
G01X6583Y11453D01*
G01X6580Y11440D01*
G01X6578Y11426D01*
G01X6576Y11400D01*
G01X6577Y11386D01*
G01X6578Y11373D01*
G01X6580Y11359D01*
G01X6583Y11346D01*
G01X6591Y11320D01*
G01X6596Y11308D01*
G01X6602Y11296D01*
G01X6609Y11284D01*
G01X6616Y11273D01*
G01X6624Y11262D01*
G01X6642Y11242D01*
G01X6662Y11224D01*
G01X6673Y11216D01*
G01X6684Y11209D01*
G01X6696Y11202D01*
G01X6708Y11196D01*
G01X6720Y11191D01*
G01X6746Y11183D01*
G01X6759Y11180D01*
G01X6773Y11178D01*
G01X6799Y11176D01*
G01X6814Y11177D01*
G01X6828Y11178D01*
G01X6842Y11180D01*
G01X6855Y11184D01*
G01X6869Y11188D01*
G01X6882Y11192D01*
G01X6895Y11198D01*
G01X6907Y11204D01*
G01X6920Y11212D01*
G01X6942Y11228D01*
G01X6953Y11238D01*
G01X6968Y11247D01*
G01X6974Y11248D01*
G01X7825Y11248D01*
G01X7831Y11247D01*
G01X7846Y11238D01*
G01X7857Y11228D01*
G01X7879Y11212D01*
G01X7892Y11204D01*
G01X7904Y11198D01*
G01X7917Y11192D01*
G01X7930Y11188D01*
G01X7944Y11184D01*
G01X7957Y11180D01*
G01X7971Y11178D01*
G01X7985Y11177D01*
G01X8000Y11176D01*
G01X8026Y11178D01*
G01X8040Y11180D01*
G01X8053Y11183D01*
G01X8079Y11191D01*
G01X8091Y11196D01*
G01X8103Y11202D01*
G01X8115Y11209D01*
G01X8126Y11216D01*
G01X8137Y11224D01*
G01X8157Y11242D01*
G01X8175Y11262D01*
G01X8183Y11273D01*
G01X8190Y11284D01*
G01X8197Y11296D01*
G01X8203Y11308D01*
G01X8208Y11320D01*
G01X8216Y11346D01*
G01X8219Y11359D01*
G01X8221Y11373D01*
G01X8222Y11386D01*
G01X8223Y11400D01*
G01X8221Y11426D01*
G01X8219Y11440D01*
G01X8216Y11453D01*
G01X8208Y11479D01*
G01X8203Y11491D01*
G01X8197Y11503D01*
G01X8190Y11515D01*
G01X8183Y11526D01*
G01X8175Y11537D01*
G01X8157Y11557D01*
G01X8137Y11575D01*
G01X8126Y11583D01*
G01X8115Y11590D01*
G01X8103Y11597D01*
G01X8091Y11603D01*
G01X8079Y11608D01*
G01X8053Y11616D01*
G01X8040Y11619D01*
G01X8026Y11621D01*
G01X8000Y11623D01*
G01X7985Y11622D01*
G01X7971Y11621D01*
G01X7957Y11619D01*
G01X7944Y11615D01*
G01X7930Y11611D01*
G01X7917Y11607D01*
G01X7904Y11601D01*
G01X7892Y11595D01*
G01X7879Y11587D01*
G01X7857Y11571D01*
G01X7846Y11561D01*
G01X7831Y11552D01*
G01X7825Y11551D01*
G01X6974Y11551D01*
G01X6968Y11552D01*
G01X6953Y11561D01*
G01X6942Y11571D01*
G01X6920Y11587D01*
G01X6907Y11595D01*
G01X6895Y11601D01*
G01X6882Y11607D01*
G01X6869Y11611D01*
G01X6855Y11615D01*
G01X6842Y11619D01*
G01X6828Y11621D01*
G37*
G36*
G01X13218Y10125D02*
G01X13200Y10126D01*
G01X13162Y10124D01*
G01X13144Y10122D01*
G01X13126Y10119D01*
G01X13107Y10115D01*
G01X13089Y10111D01*
G01X13071Y10106D01*
G01X13054Y10100D01*
G01X13036Y10093D01*
G01X13019Y10086D01*
G01X13003Y10077D01*
G01X12986Y10068D01*
G01X12971Y10059D01*
G01X12955Y10048D01*
G01X12940Y10037D01*
G01X12926Y10026D01*
G01X12912Y10014D01*
G01X12898Y10001D01*
G01X12885Y9987D01*
G01X12873Y9973D01*
G01X12862Y9959D01*
G01X12851Y9944D01*
G01X12840Y9928D01*
G01X12831Y9913D01*
G01X12822Y9896D01*
G01X12813Y9880D01*
G01X12806Y9863D01*
G01X12799Y9845D01*
G01X12793Y9828D01*
G01X12788Y9810D01*
G01X12784Y9792D01*
G01X12780Y9773D01*
G01X12777Y9755D01*
G01X12775Y9737D01*
G01X12773Y9699D01*
G01X12775Y9662D01*
G01X12777Y9644D01*
G01X12780Y9626D01*
G01X12784Y9607D01*
G01X12788Y9589D01*
G01X12793Y9571D01*
G01X12799Y9554D01*
G01X12806Y9536D01*
G01X12813Y9519D01*
G01X12822Y9503D01*
G01X12831Y9486D01*
G01X12840Y9471D01*
G01X12851Y9455D01*
G01X12862Y9440D01*
G01X12873Y9426D01*
G01X12885Y9412D01*
G01X12898Y9398D01*
G01X12912Y9385D01*
G01X12926Y9373D01*
G01X12940Y9362D01*
G01X12955Y9351D01*
G01X12971Y9340D01*
G01X12986Y9331D01*
G01X13003Y9322D01*
G01X13019Y9313D01*
G01X13036Y9306D01*
G01X13054Y9299D01*
G01X13071Y9293D01*
G01X13089Y9288D01*
G01X13107Y9284D01*
G01X13126Y9280D01*
G01X13144Y9277D01*
G01X13162Y9275D01*
G01X13200Y9273D01*
G01X13218Y9274D01*
G01X13237Y9275D01*
G01X13255Y9277D01*
G01X13273Y9280D01*
G01X13292Y9284D01*
G01X13310Y9288D01*
G01X13328Y9293D01*
G01X13345Y9299D01*
G01X13363Y9306D01*
G01X13380Y9313D01*
G01X13396Y9322D01*
G01X13413Y9331D01*
G01X13428Y9340D01*
G01X13444Y9351D01*
G01X13459Y9362D01*
G01X13473Y9373D01*
G01X13487Y9385D01*
G01X13501Y9398D01*
G01X13514Y9412D01*
G01X13526Y9426D01*
G01X13537Y9440D01*
G01X13548Y9455D01*
G01X13559Y9471D01*
G01X13568Y9486D01*
G01X13577Y9503D01*
G01X13586Y9519D01*
G01X13593Y9536D01*
G01X13600Y9554D01*
G01X13606Y9571D01*
G01X13611Y9589D01*
G01X13615Y9607D01*
G01X13619Y9626D01*
G01X13622Y9644D01*
G01X13624Y9662D01*
G01X13626Y9700D01*
G01X13625Y9718D01*
G01X13624Y9737D01*
G01X13622Y9755D01*
G01X13619Y9773D01*
G01X13615Y9792D01*
G01X13611Y9810D01*
G01X13606Y9828D01*
G01X13600Y9845D01*
G01X13593Y9863D01*
G01X13586Y9880D01*
G01X13577Y9896D01*
G01X13568Y9913D01*
G01X13559Y9928D01*
G01X13548Y9944D01*
G01X13537Y9959D01*
G01X13526Y9973D01*
G01X13514Y9987D01*
G01X13501Y10001D01*
G01X13487Y10014D01*
G01X13473Y10026D01*
G01X13459Y10037D01*
G01X13444Y10048D01*
G01X13428Y10059D01*
G01X13413Y10068D01*
G01X13396Y10077D01*
G01X13380Y10086D01*
G01X13363Y10093D01*
G01X13345Y10100D01*
G01X13328Y10106D01*
G01X13310Y10111D01*
G01X13292Y10115D01*
G01X13273Y10119D01*
G01X13255Y10122D01*
G01X13237Y10124D01*
G01X13218Y10125D01*
G37*
G36*
G01X946Y25597D02*
G01X928Y25598D01*
G01X890Y25596D01*
G01X872Y25594D01*
G01X854Y25591D01*
G01X835Y25587D01*
G01X817Y25583D01*
G01X799Y25578D01*
G01X782Y25572D01*
G01X748Y25558D01*
G01X731Y25549D01*
G01X699Y25531D01*
G01X683Y25520D01*
G01X668Y25509D01*
G01X654Y25498D01*
G01X640Y25486D01*
G01X626Y25473D01*
G01X614Y25459D01*
G01X601Y25445D01*
G01X590Y25431D01*
G01X579Y25416D01*
G01X568Y25400D01*
G01X550Y25368D01*
G01X542Y25352D01*
G01X534Y25335D01*
G01X527Y25317D01*
G01X521Y25300D01*
G01X516Y25282D01*
G01X512Y25264D01*
G01X508Y25245D01*
G01X505Y25227D01*
G01X503Y25209D01*
G01X502Y25190D01*
G01X502Y25153D01*
G01X503Y25134D01*
G01X505Y25116D01*
G01X508Y25098D01*
G01X512Y25079D01*
G01X516Y25061D01*
G01X521Y25043D01*
G01X527Y25026D01*
G01X534Y25008D01*
G01X542Y24991D01*
G01X550Y24975D01*
G01X568Y24943D01*
G01X579Y24927D01*
G01X590Y24912D01*
G01X601Y24898D01*
G01X614Y24884D01*
G01X626Y24870D01*
G01X640Y24857D01*
G01X654Y24845D01*
G01X668Y24834D01*
G01X683Y24823D01*
G01X699Y24812D01*
G01X731Y24794D01*
G01X748Y24785D01*
G01X782Y24771D01*
G01X799Y24765D01*
G01X817Y24760D01*
G01X835Y24756D01*
G01X854Y24752D01*
G01X872Y24749D01*
G01X890Y24747D01*
G01X909Y24746D01*
G01X946Y24746D01*
G01X965Y24747D01*
G01X983Y24749D01*
G01X1002Y24752D01*
G01X1038Y24760D01*
G01X1056Y24765D01*
G01X1073Y24771D01*
G01X1091Y24778D01*
G01X1108Y24785D01*
G01X1124Y24794D01*
G01X1141Y24803D01*
G01X1156Y24812D01*
G01X1172Y24823D01*
G01X1187Y24834D01*
G01X1201Y24845D01*
G01X1215Y24857D01*
G01X1229Y24870D01*
G01X1242Y24884D01*
G01X1266Y24912D01*
G01X1277Y24927D01*
G01X1297Y24959D01*
G01X1305Y24975D01*
G01X1314Y24991D01*
G01X1321Y25008D01*
G01X1328Y25026D01*
G01X1334Y25043D01*
G01X1344Y25079D01*
G01X1347Y25098D01*
G01X1350Y25116D01*
G01X1352Y25134D01*
G01X1353Y25153D01*
G01X1354Y25171D01*
G01X1352Y25209D01*
G01X1350Y25227D01*
G01X1347Y25245D01*
G01X1344Y25264D01*
G01X1334Y25300D01*
G01X1328Y25317D01*
G01X1321Y25335D01*
G01X1314Y25352D01*
G01X1305Y25368D01*
G01X1297Y25384D01*
G01X1277Y25416D01*
G01X1266Y25431D01*
G01X1242Y25459D01*
G01X1229Y25473D01*
G01X1215Y25486D01*
G01X1201Y25498D01*
G01X1187Y25509D01*
G01X1172Y25520D01*
G01X1156Y25531D01*
G01X1141Y25540D01*
G01X1124Y25549D01*
G01X1108Y25558D01*
G01X1091Y25565D01*
G01X1073Y25572D01*
G01X1056Y25578D01*
G01X1038Y25583D01*
G01X1002Y25591D01*
G01X983Y25594D01*
G01X965Y25596D01*
G01X946Y25597D01*
G37*
G36*
G01X13218Y11125D02*
G01X13200Y11126D01*
G01X13162Y11124D01*
G01X13144Y11122D01*
G01X13126Y11119D01*
G01X13107Y11115D01*
G01X13089Y11111D01*
G01X13071Y11106D01*
G01X13054Y11100D01*
G01X13036Y11093D01*
G01X13019Y11086D01*
G01X13003Y11077D01*
G01X12986Y11068D01*
G01X12971Y11059D01*
G01X12955Y11048D01*
G01X12940Y11037D01*
G01X12926Y11026D01*
G01X12912Y11014D01*
G01X12898Y11001D01*
G01X12885Y10987D01*
G01X12873Y10973D01*
G01X12862Y10959D01*
G01X12851Y10944D01*
G01X12840Y10928D01*
G01X12831Y10913D01*
G01X12822Y10896D01*
G01X12813Y10880D01*
G01X12806Y10863D01*
G01X12799Y10845D01*
G01X12793Y10828D01*
G01X12788Y10810D01*
G01X12784Y10792D01*
G01X12780Y10773D01*
G01X12777Y10755D01*
G01X12775Y10737D01*
G01X12774Y10718D01*
G01X12773Y10700D01*
G01X12775Y10662D01*
G01X12777Y10644D01*
G01X12780Y10626D01*
G01X12784Y10607D01*
G01X12788Y10589D01*
G01X12793Y10571D01*
G01X12799Y10554D01*
G01X12806Y10536D01*
G01X12813Y10519D01*
G01X12822Y10503D01*
G01X12831Y10486D01*
G01X12840Y10471D01*
G01X12851Y10455D01*
G01X12862Y10440D01*
G01X12873Y10426D01*
G01X12885Y10412D01*
G01X12898Y10398D01*
G01X12912Y10385D01*
G01X12926Y10373D01*
G01X12940Y10362D01*
G01X12955Y10351D01*
G01X12971Y10340D01*
G01X12986Y10331D01*
G01X13003Y10322D01*
G01X13019Y10313D01*
G01X13036Y10306D01*
G01X13054Y10299D01*
G01X13071Y10293D01*
G01X13089Y10288D01*
G01X13107Y10284D01*
G01X13126Y10280D01*
G01X13144Y10277D01*
G01X13162Y10275D01*
G01X13200Y10273D01*
G01X13218Y10274D01*
G01X13237Y10275D01*
G01X13255Y10277D01*
G01X13273Y10280D01*
G01X13292Y10284D01*
G01X13310Y10288D01*
G01X13328Y10293D01*
G01X13345Y10299D01*
G01X13363Y10306D01*
G01X13380Y10313D01*
G01X13396Y10322D01*
G01X13413Y10331D01*
G01X13428Y10340D01*
G01X13444Y10351D01*
G01X13459Y10362D01*
G01X13473Y10373D01*
G01X13487Y10385D01*
G01X13501Y10398D01*
G01X13514Y10412D01*
G01X13526Y10426D01*
G01X13537Y10440D01*
G01X13548Y10455D01*
G01X13559Y10471D01*
G01X13568Y10486D01*
G01X13577Y10503D01*
G01X13586Y10519D01*
G01X13593Y10536D01*
G01X13600Y10554D01*
G01X13606Y10571D01*
G01X13611Y10589D01*
G01X13615Y10607D01*
G01X13619Y10626D01*
G01X13622Y10644D01*
G01X13624Y10662D01*
G01X13626Y10700D01*
G01X13625Y10718D01*
G01X13624Y10737D01*
G01X13622Y10755D01*
G01X13619Y10773D01*
G01X13615Y10792D01*
G01X13611Y10810D01*
G01X13606Y10828D01*
G01X13600Y10845D01*
G01X13593Y10863D01*
G01X13586Y10880D01*
G01X13577Y10896D01*
G01X13568Y10913D01*
G01X13559Y10928D01*
G01X13548Y10944D01*
G01X13537Y10959D01*
G01X13526Y10973D01*
G01X13514Y10987D01*
G01X13501Y11001D01*
G01X13487Y11014D01*
G01X13473Y11026D01*
G01X13459Y11037D01*
G01X13444Y11048D01*
G01X13428Y11059D01*
G01X13413Y11068D01*
G01X13396Y11077D01*
G01X13380Y11086D01*
G01X13363Y11093D01*
G01X13345Y11100D01*
G01X13328Y11106D01*
G01X13310Y11111D01*
G01X13292Y11115D01*
G01X13273Y11119D01*
G01X13255Y11122D01*
G01X13237Y11124D01*
G01X13218Y11125D01*
G37*
G36*
G01X5946Y25597D02*
G01X5928Y25598D01*
G01X5890Y25596D01*
G01X5872Y25594D01*
G01X5854Y25591D01*
G01X5835Y25587D01*
G01X5817Y25583D01*
G01X5799Y25578D01*
G01X5782Y25572D01*
G01X5748Y25558D01*
G01X5731Y25549D01*
G01X5699Y25531D01*
G01X5683Y25520D01*
G01X5668Y25509D01*
G01X5654Y25498D01*
G01X5640Y25486D01*
G01X5626Y25473D01*
G01X5614Y25459D01*
G01X5601Y25445D01*
G01X5590Y25431D01*
G01X5579Y25416D01*
G01X5568Y25400D01*
G01X5550Y25368D01*
G01X5542Y25352D01*
G01X5534Y25335D01*
G01X5527Y25317D01*
G01X5521Y25300D01*
G01X5516Y25282D01*
G01X5512Y25264D01*
G01X5508Y25245D01*
G01X5505Y25227D01*
G01X5503Y25209D01*
G01X5502Y25190D01*
G01X5502Y25153D01*
G01X5503Y25134D01*
G01X5505Y25116D01*
G01X5508Y25098D01*
G01X5512Y25079D01*
G01X5516Y25061D01*
G01X5521Y25043D01*
G01X5527Y25026D01*
G01X5534Y25008D01*
G01X5542Y24991D01*
G01X5550Y24975D01*
G01X5568Y24943D01*
G01X5579Y24927D01*
G01X5590Y24912D01*
G01X5601Y24898D01*
G01X5614Y24884D01*
G01X5626Y24870D01*
G01X5640Y24857D01*
G01X5654Y24845D01*
G01X5668Y24834D01*
G01X5683Y24823D01*
G01X5699Y24812D01*
G01X5731Y24794D01*
G01X5748Y24785D01*
G01X5782Y24771D01*
G01X5799Y24765D01*
G01X5817Y24760D01*
G01X5835Y24756D01*
G01X5854Y24752D01*
G01X5872Y24749D01*
G01X5890Y24747D01*
G01X5909Y24746D01*
G01X5946Y24746D01*
G01X5965Y24747D01*
G01X5983Y24749D01*
G01X6002Y24752D01*
G01X6038Y24760D01*
G01X6056Y24765D01*
G01X6073Y24771D01*
G01X6091Y24778D01*
G01X6108Y24785D01*
G01X6124Y24794D01*
G01X6141Y24803D01*
G01X6156Y24812D01*
G01X6172Y24823D01*
G01X6187Y24834D01*
G01X6201Y24845D01*
G01X6215Y24857D01*
G01X6229Y24870D01*
G01X6242Y24884D01*
G01X6266Y24912D01*
G01X6277Y24927D01*
G01X6297Y24959D01*
G01X6305Y24975D01*
G01X6314Y24991D01*
G01X6321Y25008D01*
G01X6328Y25026D01*
G01X6334Y25043D01*
G01X6344Y25079D01*
G01X6347Y25098D01*
G01X6350Y25116D01*
G01X6352Y25134D01*
G01X6353Y25153D01*
G01X6354Y25171D01*
G01X6352Y25209D01*
G01X6350Y25227D01*
G01X6347Y25245D01*
G01X6344Y25264D01*
G01X6334Y25300D01*
G01X6328Y25317D01*
G01X6321Y25335D01*
G01X6314Y25352D01*
G01X6305Y25368D01*
G01X6297Y25384D01*
G01X6277Y25416D01*
G01X6266Y25431D01*
G01X6242Y25459D01*
G01X6229Y25473D01*
G01X6215Y25486D01*
G01X6201Y25498D01*
G01X6187Y25509D01*
G01X6172Y25520D01*
G01X6156Y25531D01*
G01X6141Y25540D01*
G01X6124Y25549D01*
G01X6108Y25558D01*
G01X6091Y25565D01*
G01X6073Y25572D01*
G01X6056Y25578D01*
G01X6038Y25583D01*
G01X6002Y25591D01*
G01X5983Y25594D01*
G01X5965Y25596D01*
G01X5946Y25597D01*
G37*
G36*
G01X13218Y9125D02*
G01X13200Y9126D01*
G01X13162Y9124D01*
G01X13144Y9122D01*
G01X13126Y9119D01*
G01X13107Y9115D01*
G01X13089Y9111D01*
G01X13071Y9106D01*
G01X13054Y9100D01*
G01X13036Y9093D01*
G01X13019Y9086D01*
G01X13003Y9077D01*
G01X12986Y9068D01*
G01X12971Y9059D01*
G01X12955Y9048D01*
G01X12940Y9037D01*
G01X12926Y9026D01*
G01X12912Y9014D01*
G01X12898Y9001D01*
G01X12885Y8987D01*
G01X12873Y8973D01*
G01X12862Y8959D01*
G01X12851Y8944D01*
G01X12840Y8928D01*
G01X12831Y8913D01*
G01X12822Y8896D01*
G01X12813Y8880D01*
G01X12806Y8863D01*
G01X12799Y8845D01*
G01X12793Y8828D01*
G01X12788Y8810D01*
G01X12784Y8792D01*
G01X12780Y8773D01*
G01X12777Y8755D01*
G01X12775Y8737D01*
G01X12774Y8718D01*
G01X12773Y8700D01*
G01X12775Y8662D01*
G01X12777Y8644D01*
G01X12780Y8626D01*
G01X12784Y8607D01*
G01X12788Y8589D01*
G01X12793Y8571D01*
G01X12799Y8554D01*
G01X12806Y8536D01*
G01X12813Y8519D01*
G01X12822Y8503D01*
G01X12831Y8486D01*
G01X12840Y8471D01*
G01X12851Y8455D01*
G01X12862Y8440D01*
G01X12873Y8426D01*
G01X12885Y8412D01*
G01X12898Y8398D01*
G01X12912Y8385D01*
G01X12926Y8373D01*
G01X12940Y8362D01*
G01X12955Y8351D01*
G01X12971Y8340D01*
G01X12986Y8331D01*
G01X13003Y8322D01*
G01X13019Y8313D01*
G01X13036Y8306D01*
G01X13054Y8299D01*
G01X13071Y8293D01*
G01X13089Y8288D01*
G01X13107Y8284D01*
G01X13126Y8280D01*
G01X13144Y8277D01*
G01X13162Y8275D01*
G01X13200Y8273D01*
G01X13218Y8274D01*
G01X13237Y8275D01*
G01X13255Y8277D01*
G01X13273Y8280D01*
G01X13292Y8284D01*
G01X13310Y8288D01*
G01X13328Y8293D01*
G01X13345Y8299D01*
G01X13363Y8306D01*
G01X13380Y8313D01*
G01X13396Y8322D01*
G01X13413Y8331D01*
G01X13428Y8340D01*
G01X13444Y8351D01*
G01X13459Y8362D01*
G01X13473Y8373D01*
G01X13487Y8385D01*
G01X13501Y8398D01*
G01X13514Y8412D01*
G01X13526Y8426D01*
G01X13537Y8440D01*
G01X13548Y8455D01*
G01X13559Y8471D01*
G01X13568Y8486D01*
G01X13577Y8503D01*
G01X13586Y8519D01*
G01X13593Y8536D01*
G01X13600Y8554D01*
G01X13606Y8571D01*
G01X13611Y8589D01*
G01X13615Y8607D01*
G01X13619Y8626D01*
G01X13622Y8644D01*
G01X13624Y8662D01*
G01X13626Y8700D01*
G01X13625Y8718D01*
G01X13624Y8737D01*
G01X13622Y8755D01*
G01X13619Y8773D01*
G01X13615Y8792D01*
G01X13611Y8810D01*
G01X13606Y8828D01*
G01X13600Y8845D01*
G01X13593Y8863D01*
G01X13586Y8880D01*
G01X13577Y8896D01*
G01X13568Y8913D01*
G01X13559Y8928D01*
G01X13548Y8944D01*
G01X13537Y8959D01*
G01X13526Y8973D01*
G01X13514Y8987D01*
G01X13501Y9001D01*
G01X13487Y9014D01*
G01X13473Y9026D01*
G01X13459Y9037D01*
G01X13444Y9048D01*
G01X13428Y9059D01*
G01X13413Y9068D01*
G01X13396Y9077D01*
G01X13380Y9086D01*
G01X13363Y9093D01*
G01X13345Y9100D01*
G01X13328Y9106D01*
G01X13310Y9111D01*
G01X13292Y9115D01*
G01X13273Y9119D01*
G01X13255Y9122D01*
G01X13237Y9124D01*
G01X13218Y9125D01*
G37*
G36*
G01X4946Y25597D02*
G01X4928Y25598D01*
G01X4890Y25596D01*
G01X4872Y25594D01*
G01X4854Y25591D01*
G01X4835Y25587D01*
G01X4817Y25583D01*
G01X4799Y25578D01*
G01X4782Y25572D01*
G01X4748Y25558D01*
G01X4731Y25549D01*
G01X4699Y25531D01*
G01X4683Y25520D01*
G01X4668Y25509D01*
G01X4654Y25498D01*
G01X4640Y25486D01*
G01X4626Y25473D01*
G01X4614Y25459D01*
G01X4601Y25445D01*
G01X4590Y25431D01*
G01X4579Y25416D01*
G01X4568Y25400D01*
G01X4550Y25368D01*
G01X4542Y25352D01*
G01X4534Y25335D01*
G01X4527Y25317D01*
G01X4521Y25300D01*
G01X4516Y25282D01*
G01X4512Y25264D01*
G01X4508Y25245D01*
G01X4505Y25227D01*
G01X4503Y25209D01*
G01X4502Y25190D01*
G01X4502Y25153D01*
G01X4503Y25134D01*
G01X4505Y25116D01*
G01X4508Y25098D01*
G01X4512Y25079D01*
G01X4516Y25061D01*
G01X4521Y25043D01*
G01X4527Y25026D01*
G01X4534Y25008D01*
G01X4542Y24991D01*
G01X4550Y24975D01*
G01X4568Y24943D01*
G01X4579Y24927D01*
G01X4590Y24912D01*
G01X4601Y24898D01*
G01X4614Y24884D01*
G01X4626Y24870D01*
G01X4640Y24857D01*
G01X4654Y24845D01*
G01X4668Y24834D01*
G01X4683Y24823D01*
G01X4699Y24812D01*
G01X4731Y24794D01*
G01X4748Y24785D01*
G01X4782Y24771D01*
G01X4799Y24765D01*
G01X4817Y24760D01*
G01X4835Y24756D01*
G01X4854Y24752D01*
G01X4872Y24749D01*
G01X4890Y24747D01*
G01X4909Y24746D01*
G01X4946Y24746D01*
G01X4965Y24747D01*
G01X4983Y24749D01*
G01X5002Y24752D01*
G01X5038Y24760D01*
G01X5056Y24765D01*
G01X5073Y24771D01*
G01X5091Y24778D01*
G01X5108Y24785D01*
G01X5124Y24794D01*
G01X5141Y24803D01*
G01X5156Y24812D01*
G01X5172Y24823D01*
G01X5187Y24834D01*
G01X5201Y24845D01*
G01X5215Y24857D01*
G01X5229Y24870D01*
G01X5242Y24884D01*
G01X5266Y24912D01*
G01X5277Y24927D01*
G01X5297Y24959D01*
G01X5305Y24975D01*
G01X5314Y24991D01*
G01X5321Y25008D01*
G01X5328Y25026D01*
G01X5334Y25043D01*
G01X5344Y25079D01*
G01X5347Y25098D01*
G01X5350Y25116D01*
G01X5352Y25134D01*
G01X5353Y25153D01*
G01X5354Y25171D01*
G01X5352Y25209D01*
G01X5350Y25227D01*
G01X5347Y25245D01*
G01X5344Y25264D01*
G01X5334Y25300D01*
G01X5328Y25317D01*
G01X5321Y25335D01*
G01X5314Y25352D01*
G01X5305Y25368D01*
G01X5297Y25384D01*
G01X5277Y25416D01*
G01X5266Y25431D01*
G01X5242Y25459D01*
G01X5229Y25473D01*
G01X5215Y25486D01*
G01X5201Y25498D01*
G01X5187Y25509D01*
G01X5172Y25520D01*
G01X5156Y25531D01*
G01X5141Y25540D01*
G01X5124Y25549D01*
G01X5108Y25558D01*
G01X5091Y25565D01*
G01X5073Y25572D01*
G01X5056Y25578D01*
G01X5038Y25583D01*
G01X5002Y25591D01*
G01X4983Y25594D01*
G01X4965Y25596D01*
G01X4946Y25597D01*
G37*
G36*
G01X8446Y20597D02*
G01X8428Y20598D01*
G01X8390Y20596D01*
G01X8372Y20594D01*
G01X8354Y20591D01*
G01X8335Y20587D01*
G01X8317Y20583D01*
G01X8299Y20578D01*
G01X8282Y20572D01*
G01X8248Y20558D01*
G01X8231Y20549D01*
G01X8199Y20531D01*
G01X8183Y20520D01*
G01X8168Y20509D01*
G01X8154Y20498D01*
G01X8140Y20486D01*
G01X8126Y20473D01*
G01X8114Y20459D01*
G01X8101Y20445D01*
G01X8090Y20431D01*
G01X8079Y20416D01*
G01X8068Y20400D01*
G01X8050Y20368D01*
G01X8042Y20352D01*
G01X8034Y20335D01*
G01X8027Y20317D01*
G01X8021Y20300D01*
G01X8016Y20282D01*
G01X8012Y20264D01*
G01X8008Y20245D01*
G01X8005Y20227D01*
G01X8003Y20209D01*
G01X8002Y20190D01*
G01X8002Y20153D01*
G01X8003Y20134D01*
G01X8005Y20116D01*
G01X8008Y20098D01*
G01X8012Y20079D01*
G01X8016Y20061D01*
G01X8021Y20043D01*
G01X8027Y20026D01*
G01X8034Y20008D01*
G01X8042Y19991D01*
G01X8050Y19975D01*
G01X8068Y19943D01*
G01X8079Y19927D01*
G01X8090Y19912D01*
G01X8101Y19898D01*
G01X8114Y19884D01*
G01X8126Y19870D01*
G01X8140Y19857D01*
G01X8154Y19845D01*
G01X8168Y19834D01*
G01X8183Y19823D01*
G01X8199Y19812D01*
G01X8231Y19794D01*
G01X8248Y19785D01*
G01X8282Y19771D01*
G01X8299Y19765D01*
G01X8317Y19760D01*
G01X8335Y19756D01*
G01X8354Y19752D01*
G01X8372Y19749D01*
G01X8390Y19747D01*
G01X8409Y19746D01*
G01X8446Y19746D01*
G01X8465Y19747D01*
G01X8483Y19749D01*
G01X8502Y19752D01*
G01X8538Y19760D01*
G01X8556Y19765D01*
G01X8573Y19771D01*
G01X8591Y19778D01*
G01X8608Y19785D01*
G01X8624Y19794D01*
G01X8641Y19803D01*
G01X8656Y19812D01*
G01X8672Y19823D01*
G01X8687Y19834D01*
G01X8701Y19845D01*
G01X8715Y19857D01*
G01X8729Y19870D01*
G01X8742Y19884D01*
G01X8766Y19912D01*
G01X8777Y19927D01*
G01X8797Y19959D01*
G01X8805Y19975D01*
G01X8814Y19991D01*
G01X8821Y20008D01*
G01X8828Y20026D01*
G01X8834Y20043D01*
G01X8844Y20079D01*
G01X8847Y20098D01*
G01X8850Y20116D01*
G01X8852Y20134D01*
G01X8853Y20153D01*
G01X8854Y20171D01*
G01X8852Y20209D01*
G01X8850Y20227D01*
G01X8847Y20245D01*
G01X8844Y20264D01*
G01X8834Y20300D01*
G01X8828Y20317D01*
G01X8821Y20335D01*
G01X8814Y20352D01*
G01X8805Y20368D01*
G01X8797Y20384D01*
G01X8777Y20416D01*
G01X8766Y20431D01*
G01X8742Y20459D01*
G01X8729Y20473D01*
G01X8715Y20486D01*
G01X8701Y20498D01*
G01X8687Y20509D01*
G01X8672Y20520D01*
G01X8656Y20531D01*
G01X8641Y20540D01*
G01X8624Y20549D01*
G01X8608Y20558D01*
G01X8591Y20565D01*
G01X8573Y20572D01*
G01X8556Y20578D01*
G01X8538Y20583D01*
G01X8502Y20591D01*
G01X8483Y20594D01*
G01X8465Y20596D01*
G01X8446Y20597D01*
G37*
G36*
G01X6946Y25597D02*
G01X6928Y25598D01*
G01X6890Y25596D01*
G01X6872Y25594D01*
G01X6854Y25591D01*
G01X6835Y25587D01*
G01X6817Y25583D01*
G01X6799Y25578D01*
G01X6782Y25572D01*
G01X6748Y25558D01*
G01X6731Y25549D01*
G01X6699Y25531D01*
G01X6683Y25520D01*
G01X6668Y25509D01*
G01X6654Y25498D01*
G01X6640Y25486D01*
G01X6626Y25473D01*
G01X6614Y25459D01*
G01X6601Y25445D01*
G01X6590Y25431D01*
G01X6579Y25416D01*
G01X6568Y25400D01*
G01X6550Y25368D01*
G01X6542Y25352D01*
G01X6534Y25335D01*
G01X6527Y25317D01*
G01X6521Y25300D01*
G01X6516Y25282D01*
G01X6512Y25264D01*
G01X6508Y25245D01*
G01X6505Y25227D01*
G01X6503Y25209D01*
G01X6502Y25190D01*
G01X6502Y25153D01*
G01X6503Y25134D01*
G01X6505Y25116D01*
G01X6508Y25098D01*
G01X6512Y25079D01*
G01X6516Y25061D01*
G01X6521Y25043D01*
G01X6527Y25026D01*
G01X6534Y25008D01*
G01X6542Y24991D01*
G01X6550Y24975D01*
G01X6568Y24943D01*
G01X6579Y24927D01*
G01X6590Y24912D01*
G01X6601Y24898D01*
G01X6614Y24884D01*
G01X6626Y24870D01*
G01X6640Y24857D01*
G01X6654Y24845D01*
G01X6668Y24834D01*
G01X6683Y24823D01*
G01X6699Y24812D01*
G01X6731Y24794D01*
G01X6748Y24785D01*
G01X6782Y24771D01*
G01X6799Y24765D01*
G01X6817Y24760D01*
G01X6835Y24756D01*
G01X6854Y24752D01*
G01X6872Y24749D01*
G01X6890Y24747D01*
G01X6909Y24746D01*
G01X6946Y24746D01*
G01X6965Y24747D01*
G01X6983Y24749D01*
G01X7002Y24752D01*
G01X7038Y24760D01*
G01X7056Y24765D01*
G01X7073Y24771D01*
G01X7091Y24778D01*
G01X7108Y24785D01*
G01X7124Y24794D01*
G01X7141Y24803D01*
G01X7156Y24812D01*
G01X7172Y24823D01*
G01X7187Y24834D01*
G01X7201Y24845D01*
G01X7215Y24857D01*
G01X7229Y24870D01*
G01X7242Y24884D01*
G01X7266Y24912D01*
G01X7277Y24927D01*
G01X7297Y24959D01*
G01X7305Y24975D01*
G01X7314Y24991D01*
G01X7321Y25008D01*
G01X7328Y25026D01*
G01X7334Y25043D01*
G01X7344Y25079D01*
G01X7347Y25098D01*
G01X7350Y25116D01*
G01X7352Y25134D01*
G01X7353Y25153D01*
G01X7354Y25171D01*
G01X7352Y25209D01*
G01X7350Y25227D01*
G01X7347Y25245D01*
G01X7344Y25264D01*
G01X7334Y25300D01*
G01X7328Y25317D01*
G01X7321Y25335D01*
G01X7314Y25352D01*
G01X7305Y25368D01*
G01X7297Y25384D01*
G01X7277Y25416D01*
G01X7266Y25431D01*
G01X7242Y25459D01*
G01X7229Y25473D01*
G01X7215Y25486D01*
G01X7201Y25498D01*
G01X7187Y25509D01*
G01X7172Y25520D01*
G01X7156Y25531D01*
G01X7141Y25540D01*
G01X7124Y25549D01*
G01X7108Y25558D01*
G01X7091Y25565D01*
G01X7073Y25572D01*
G01X7056Y25578D01*
G01X7038Y25583D01*
G01X7002Y25591D01*
G01X6983Y25594D01*
G01X6965Y25596D01*
G01X6946Y25597D01*
G37*
G36*
G01X946Y21597D02*
G01X928Y21598D01*
G01X890Y21596D01*
G01X872Y21594D01*
G01X854Y21591D01*
G01X835Y21587D01*
G01X817Y21583D01*
G01X799Y21578D01*
G01X782Y21572D01*
G01X748Y21558D01*
G01X731Y21549D01*
G01X699Y21531D01*
G01X683Y21520D01*
G01X668Y21509D01*
G01X654Y21498D01*
G01X640Y21486D01*
G01X626Y21473D01*
G01X614Y21459D01*
G01X601Y21445D01*
G01X590Y21431D01*
G01X579Y21416D01*
G01X568Y21400D01*
G01X550Y21368D01*
G01X542Y21352D01*
G01X534Y21335D01*
G01X527Y21317D01*
G01X521Y21300D01*
G01X516Y21282D01*
G01X512Y21264D01*
G01X508Y21245D01*
G01X505Y21227D01*
G01X503Y21209D01*
G01X502Y21190D01*
G01X502Y21153D01*
G01X503Y21134D01*
G01X505Y21116D01*
G01X508Y21098D01*
G01X512Y21079D01*
G01X516Y21061D01*
G01X521Y21043D01*
G01X527Y21026D01*
G01X534Y21008D01*
G01X542Y20991D01*
G01X550Y20975D01*
G01X568Y20943D01*
G01X579Y20927D01*
G01X590Y20912D01*
G01X601Y20898D01*
G01X614Y20884D01*
G01X626Y20870D01*
G01X640Y20857D01*
G01X654Y20845D01*
G01X668Y20834D01*
G01X683Y20823D01*
G01X699Y20812D01*
G01X731Y20794D01*
G01X748Y20785D01*
G01X782Y20771D01*
G01X799Y20765D01*
G01X817Y20760D01*
G01X835Y20756D01*
G01X854Y20752D01*
G01X872Y20749D01*
G01X890Y20747D01*
G01X909Y20746D01*
G01X946Y20746D01*
G01X965Y20747D01*
G01X983Y20749D01*
G01X1002Y20752D01*
G01X1038Y20760D01*
G01X1056Y20765D01*
G01X1073Y20771D01*
G01X1091Y20778D01*
G01X1108Y20785D01*
G01X1124Y20794D01*
G01X1141Y20803D01*
G01X1156Y20812D01*
G01X1172Y20823D01*
G01X1187Y20834D01*
G01X1201Y20845D01*
G01X1215Y20857D01*
G01X1229Y20870D01*
G01X1242Y20884D01*
G01X1266Y20912D01*
G01X1277Y20927D01*
G01X1297Y20959D01*
G01X1305Y20975D01*
G01X1314Y20991D01*
G01X1321Y21008D01*
G01X1328Y21026D01*
G01X1334Y21043D01*
G01X1344Y21079D01*
G01X1347Y21098D01*
G01X1350Y21116D01*
G01X1352Y21134D01*
G01X1353Y21153D01*
G01X1354Y21171D01*
G01X1352Y21209D01*
G01X1350Y21227D01*
G01X1347Y21245D01*
G01X1344Y21264D01*
G01X1334Y21300D01*
G01X1328Y21317D01*
G01X1321Y21335D01*
G01X1314Y21352D01*
G01X1305Y21368D01*
G01X1297Y21384D01*
G01X1277Y21416D01*
G01X1266Y21431D01*
G01X1242Y21459D01*
G01X1229Y21473D01*
G01X1215Y21486D01*
G01X1201Y21498D01*
G01X1187Y21509D01*
G01X1172Y21520D01*
G01X1156Y21531D01*
G01X1141Y21540D01*
G01X1124Y21549D01*
G01X1108Y21558D01*
G01X1091Y21565D01*
G01X1073Y21572D01*
G01X1056Y21578D01*
G01X1038Y21583D01*
G01X1002Y21591D01*
G01X983Y21594D01*
G01X965Y21596D01*
G01X946Y21597D01*
G37*
G36*
G01X3946Y25597D02*
G01X3928Y25598D01*
G01X3890Y25596D01*
G01X3872Y25594D01*
G01X3854Y25591D01*
G01X3835Y25587D01*
G01X3817Y25583D01*
G01X3799Y25578D01*
G01X3782Y25572D01*
G01X3748Y25558D01*
G01X3731Y25549D01*
G01X3699Y25531D01*
G01X3683Y25520D01*
G01X3668Y25509D01*
G01X3654Y25498D01*
G01X3640Y25486D01*
G01X3626Y25473D01*
G01X3614Y25459D01*
G01X3601Y25445D01*
G01X3590Y25431D01*
G01X3579Y25416D01*
G01X3568Y25400D01*
G01X3550Y25368D01*
G01X3542Y25352D01*
G01X3534Y25335D01*
G01X3527Y25317D01*
G01X3521Y25300D01*
G01X3516Y25282D01*
G01X3512Y25264D01*
G01X3508Y25245D01*
G01X3505Y25227D01*
G01X3503Y25209D01*
G01X3502Y25190D01*
G01X3502Y25153D01*
G01X3503Y25134D01*
G01X3505Y25116D01*
G01X3508Y25098D01*
G01X3512Y25079D01*
G01X3516Y25061D01*
G01X3521Y25043D01*
G01X3527Y25026D01*
G01X3534Y25008D01*
G01X3542Y24991D01*
G01X3550Y24975D01*
G01X3568Y24943D01*
G01X3579Y24927D01*
G01X3590Y24912D01*
G01X3601Y24898D01*
G01X3614Y24884D01*
G01X3626Y24870D01*
G01X3640Y24857D01*
G01X3654Y24845D01*
G01X3668Y24834D01*
G01X3683Y24823D01*
G01X3699Y24812D01*
G01X3731Y24794D01*
G01X3748Y24785D01*
G01X3782Y24771D01*
G01X3799Y24765D01*
G01X3817Y24760D01*
G01X3835Y24756D01*
G01X3854Y24752D01*
G01X3872Y24749D01*
G01X3890Y24747D01*
G01X3909Y24746D01*
G01X3946Y24746D01*
G01X3965Y24747D01*
G01X3983Y24749D01*
G01X4002Y24752D01*
G01X4038Y24760D01*
G01X4056Y24765D01*
G01X4073Y24771D01*
G01X4091Y24778D01*
G01X4108Y24785D01*
G01X4124Y24794D01*
G01X4141Y24803D01*
G01X4156Y24812D01*
G01X4172Y24823D01*
G01X4187Y24834D01*
G01X4201Y24845D01*
G01X4215Y24857D01*
G01X4229Y24870D01*
G01X4242Y24884D01*
G01X4266Y24912D01*
G01X4277Y24927D01*
G01X4297Y24959D01*
G01X4305Y24975D01*
G01X4314Y24991D01*
G01X4321Y25008D01*
G01X4328Y25026D01*
G01X4334Y25043D01*
G01X4344Y25079D01*
G01X4347Y25098D01*
G01X4350Y25116D01*
G01X4352Y25134D01*
G01X4353Y25153D01*
G01X4354Y25171D01*
G01X4352Y25209D01*
G01X4350Y25227D01*
G01X4347Y25245D01*
G01X4344Y25264D01*
G01X4334Y25300D01*
G01X4328Y25317D01*
G01X4321Y25335D01*
G01X4314Y25352D01*
G01X4305Y25368D01*
G01X4297Y25384D01*
G01X4277Y25416D01*
G01X4266Y25431D01*
G01X4242Y25459D01*
G01X4229Y25473D01*
G01X4215Y25486D01*
G01X4201Y25498D01*
G01X4187Y25509D01*
G01X4172Y25520D01*
G01X4156Y25531D01*
G01X4141Y25540D01*
G01X4124Y25549D01*
G01X4108Y25558D01*
G01X4091Y25565D01*
G01X4073Y25572D01*
G01X4056Y25578D01*
G01X4038Y25583D01*
G01X4002Y25591D01*
G01X3983Y25594D01*
G01X3965Y25596D01*
G01X3946Y25597D01*
G37*
G36*
G01X13218Y12125D02*
G01X13200Y12126D01*
G01X13162Y12124D01*
G01X13144Y12122D01*
G01X13126Y12119D01*
G01X13107Y12115D01*
G01X13089Y12111D01*
G01X13071Y12106D01*
G01X13054Y12100D01*
G01X13036Y12093D01*
G01X13019Y12086D01*
G01X13003Y12077D01*
G01X12986Y12068D01*
G01X12971Y12059D01*
G01X12955Y12048D01*
G01X12940Y12037D01*
G01X12926Y12026D01*
G01X12912Y12014D01*
G01X12898Y12001D01*
G01X12885Y11987D01*
G01X12873Y11973D01*
G01X12862Y11959D01*
G01X12851Y11944D01*
G01X12840Y11928D01*
G01X12831Y11913D01*
G01X12822Y11896D01*
G01X12813Y11880D01*
G01X12806Y11863D01*
G01X12799Y11845D01*
G01X12793Y11828D01*
G01X12788Y11810D01*
G01X12784Y11792D01*
G01X12780Y11773D01*
G01X12777Y11755D01*
G01X12775Y11737D01*
G01X12773Y11699D01*
G01X12775Y11662D01*
G01X12777Y11644D01*
G01X12780Y11626D01*
G01X12784Y11607D01*
G01X12788Y11589D01*
G01X12793Y11571D01*
G01X12799Y11554D01*
G01X12806Y11536D01*
G01X12813Y11519D01*
G01X12822Y11503D01*
G01X12831Y11486D01*
G01X12840Y11471D01*
G01X12851Y11455D01*
G01X12862Y11440D01*
G01X12873Y11426D01*
G01X12885Y11412D01*
G01X12898Y11398D01*
G01X12912Y11385D01*
G01X12926Y11373D01*
G01X12940Y11362D01*
G01X12955Y11351D01*
G01X12971Y11340D01*
G01X12986Y11331D01*
G01X13003Y11322D01*
G01X13019Y11313D01*
G01X13036Y11306D01*
G01X13054Y11299D01*
G01X13071Y11293D01*
G01X13089Y11288D01*
G01X13107Y11284D01*
G01X13126Y11280D01*
G01X13144Y11277D01*
G01X13162Y11275D01*
G01X13200Y11273D01*
G01X13218Y11274D01*
G01X13237Y11275D01*
G01X13255Y11277D01*
G01X13273Y11280D01*
G01X13292Y11284D01*
G01X13310Y11288D01*
G01X13328Y11293D01*
G01X13345Y11299D01*
G01X13363Y11306D01*
G01X13380Y11313D01*
G01X13396Y11322D01*
G01X13413Y11331D01*
G01X13428Y11340D01*
G01X13444Y11351D01*
G01X13459Y11362D01*
G01X13473Y11373D01*
G01X13487Y11385D01*
G01X13501Y11398D01*
G01X13514Y11412D01*
G01X13526Y11426D01*
G01X13537Y11440D01*
G01X13548Y11455D01*
G01X13559Y11471D01*
G01X13568Y11486D01*
G01X13577Y11503D01*
G01X13586Y11519D01*
G01X13593Y11536D01*
G01X13600Y11554D01*
G01X13606Y11571D01*
G01X13611Y11589D01*
G01X13615Y11607D01*
G01X13619Y11626D01*
G01X13622Y11644D01*
G01X13624Y11662D01*
G01X13626Y11700D01*
G01X13625Y11718D01*
G01X13624Y11737D01*
G01X13622Y11755D01*
G01X13619Y11773D01*
G01X13615Y11792D01*
G01X13611Y11810D01*
G01X13606Y11828D01*
G01X13600Y11845D01*
G01X13593Y11863D01*
G01X13586Y11880D01*
G01X13577Y11896D01*
G01X13568Y11913D01*
G01X13559Y11928D01*
G01X13548Y11944D01*
G01X13537Y11959D01*
G01X13526Y11973D01*
G01X13514Y11987D01*
G01X13501Y12001D01*
G01X13487Y12014D01*
G01X13473Y12026D01*
G01X13459Y12037D01*
G01X13444Y12048D01*
G01X13428Y12059D01*
G01X13413Y12068D01*
G01X13396Y12077D01*
G01X13380Y12086D01*
G01X13363Y12093D01*
G01X13345Y12100D01*
G01X13328Y12106D01*
G01X13310Y12111D01*
G01X13292Y12115D01*
G01X13273Y12119D01*
G01X13255Y12122D01*
G01X13237Y12124D01*
G01X13218Y12125D01*
G37*
G36*
G01X7946Y25597D02*
G01X7928Y25598D01*
G01X7890Y25596D01*
G01X7872Y25594D01*
G01X7854Y25591D01*
G01X7835Y25587D01*
G01X7817Y25583D01*
G01X7799Y25578D01*
G01X7782Y25572D01*
G01X7748Y25558D01*
G01X7731Y25549D01*
G01X7699Y25531D01*
G01X7683Y25520D01*
G01X7668Y25509D01*
G01X7654Y25498D01*
G01X7640Y25486D01*
G01X7626Y25473D01*
G01X7614Y25459D01*
G01X7601Y25445D01*
G01X7590Y25431D01*
G01X7579Y25416D01*
G01X7568Y25400D01*
G01X7550Y25368D01*
G01X7542Y25352D01*
G01X7534Y25335D01*
G01X7527Y25317D01*
G01X7521Y25300D01*
G01X7516Y25282D01*
G01X7512Y25264D01*
G01X7508Y25245D01*
G01X7505Y25227D01*
G01X7503Y25209D01*
G01X7502Y25190D01*
G01X7502Y25153D01*
G01X7503Y25134D01*
G01X7505Y25116D01*
G01X7508Y25098D01*
G01X7512Y25079D01*
G01X7516Y25061D01*
G01X7521Y25043D01*
G01X7527Y25026D01*
G01X7534Y25008D01*
G01X7542Y24991D01*
G01X7550Y24975D01*
G01X7568Y24943D01*
G01X7579Y24927D01*
G01X7590Y24912D01*
G01X7601Y24898D01*
G01X7614Y24884D01*
G01X7626Y24870D01*
G01X7640Y24857D01*
G01X7654Y24845D01*
G01X7668Y24834D01*
G01X7683Y24823D01*
G01X7699Y24812D01*
G01X7731Y24794D01*
G01X7748Y24785D01*
G01X7782Y24771D01*
G01X7799Y24765D01*
G01X7817Y24760D01*
G01X7835Y24756D01*
G01X7854Y24752D01*
G01X7872Y24749D01*
G01X7890Y24747D01*
G01X7909Y24746D01*
G01X7946Y24746D01*
G01X7965Y24747D01*
G01X7983Y24749D01*
G01X8002Y24752D01*
G01X8038Y24760D01*
G01X8056Y24765D01*
G01X8073Y24771D01*
G01X8091Y24778D01*
G01X8108Y24785D01*
G01X8124Y24794D01*
G01X8141Y24803D01*
G01X8156Y24812D01*
G01X8172Y24823D01*
G01X8187Y24834D01*
G01X8201Y24845D01*
G01X8215Y24857D01*
G01X8229Y24870D01*
G01X8242Y24884D01*
G01X8266Y24912D01*
G01X8277Y24927D01*
G01X8297Y24959D01*
G01X8305Y24975D01*
G01X8314Y24991D01*
G01X8321Y25008D01*
G01X8328Y25026D01*
G01X8334Y25043D01*
G01X8344Y25079D01*
G01X8347Y25098D01*
G01X8350Y25116D01*
G01X8352Y25134D01*
G01X8353Y25153D01*
G01X8354Y25171D01*
G01X8352Y25209D01*
G01X8350Y25227D01*
G01X8347Y25245D01*
G01X8344Y25264D01*
G01X8334Y25300D01*
G01X8328Y25317D01*
G01X8321Y25335D01*
G01X8314Y25352D01*
G01X8305Y25368D01*
G01X8297Y25384D01*
G01X8277Y25416D01*
G01X8266Y25431D01*
G01X8242Y25459D01*
G01X8229Y25473D01*
G01X8215Y25486D01*
G01X8201Y25498D01*
G01X8187Y25509D01*
G01X8172Y25520D01*
G01X8156Y25531D01*
G01X8141Y25540D01*
G01X8124Y25549D01*
G01X8108Y25558D01*
G01X8091Y25565D01*
G01X8073Y25572D01*
G01X8056Y25578D01*
G01X8038Y25583D01*
G01X8002Y25591D01*
G01X7983Y25594D01*
G01X7965Y25596D01*
G01X7946Y25597D01*
G37*
G36*
G01X946Y20597D02*
G01X928Y20598D01*
G01X890Y20596D01*
G01X872Y20594D01*
G01X854Y20591D01*
G01X835Y20587D01*
G01X817Y20583D01*
G01X799Y20578D01*
G01X782Y20572D01*
G01X748Y20558D01*
G01X731Y20549D01*
G01X699Y20531D01*
G01X683Y20520D01*
G01X668Y20509D01*
G01X654Y20498D01*
G01X640Y20486D01*
G01X626Y20473D01*
G01X614Y20459D01*
G01X601Y20445D01*
G01X590Y20431D01*
G01X579Y20416D01*
G01X568Y20400D01*
G01X550Y20368D01*
G01X542Y20352D01*
G01X534Y20335D01*
G01X527Y20317D01*
G01X521Y20300D01*
G01X516Y20282D01*
G01X512Y20264D01*
G01X508Y20245D01*
G01X505Y20227D01*
G01X503Y20209D01*
G01X502Y20190D01*
G01X502Y20153D01*
G01X503Y20134D01*
G01X505Y20116D01*
G01X508Y20098D01*
G01X512Y20079D01*
G01X516Y20061D01*
G01X521Y20043D01*
G01X527Y20026D01*
G01X534Y20008D01*
G01X542Y19991D01*
G01X550Y19975D01*
G01X568Y19943D01*
G01X579Y19927D01*
G01X590Y19912D01*
G01X601Y19898D01*
G01X614Y19884D01*
G01X626Y19870D01*
G01X640Y19857D01*
G01X654Y19845D01*
G01X668Y19834D01*
G01X683Y19823D01*
G01X699Y19812D01*
G01X731Y19794D01*
G01X748Y19785D01*
G01X782Y19771D01*
G01X799Y19765D01*
G01X817Y19760D01*
G01X835Y19756D01*
G01X854Y19752D01*
G01X872Y19749D01*
G01X890Y19747D01*
G01X909Y19746D01*
G01X946Y19746D01*
G01X965Y19747D01*
G01X983Y19749D01*
G01X1002Y19752D01*
G01X1038Y19760D01*
G01X1056Y19765D01*
G01X1073Y19771D01*
G01X1091Y19778D01*
G01X1108Y19785D01*
G01X1124Y19794D01*
G01X1141Y19803D01*
G01X1156Y19812D01*
G01X1172Y19823D01*
G01X1187Y19834D01*
G01X1201Y19845D01*
G01X1215Y19857D01*
G01X1229Y19870D01*
G01X1242Y19884D01*
G01X1266Y19912D01*
G01X1277Y19927D01*
G01X1297Y19959D01*
G01X1305Y19975D01*
G01X1314Y19991D01*
G01X1321Y20008D01*
G01X1328Y20026D01*
G01X1334Y20043D01*
G01X1344Y20079D01*
G01X1347Y20098D01*
G01X1350Y20116D01*
G01X1352Y20134D01*
G01X1353Y20153D01*
G01X1354Y20171D01*
G01X1352Y20209D01*
G01X1350Y20227D01*
G01X1347Y20245D01*
G01X1344Y20264D01*
G01X1334Y20300D01*
G01X1328Y20317D01*
G01X1321Y20335D01*
G01X1314Y20352D01*
G01X1305Y20368D01*
G01X1297Y20384D01*
G01X1277Y20416D01*
G01X1266Y20431D01*
G01X1242Y20459D01*
G01X1229Y20473D01*
G01X1215Y20486D01*
G01X1201Y20498D01*
G01X1187Y20509D01*
G01X1172Y20520D01*
G01X1156Y20531D01*
G01X1141Y20540D01*
G01X1124Y20549D01*
G01X1108Y20558D01*
G01X1091Y20565D01*
G01X1073Y20572D01*
G01X1056Y20578D01*
G01X1038Y20583D01*
G01X1002Y20591D01*
G01X983Y20594D01*
G01X965Y20596D01*
G01X946Y20597D01*
G37*
G36*
G01X7946Y19597D02*
G01X7928Y19598D01*
G01X7890Y19596D01*
G01X7872Y19594D01*
G01X7854Y19591D01*
G01X7835Y19587D01*
G01X7817Y19583D01*
G01X7799Y19578D01*
G01X7782Y19572D01*
G01X7748Y19558D01*
G01X7731Y19549D01*
G01X7699Y19531D01*
G01X7683Y19520D01*
G01X7668Y19509D01*
G01X7654Y19498D01*
G01X7640Y19486D01*
G01X7626Y19473D01*
G01X7614Y19459D01*
G01X7601Y19445D01*
G01X7590Y19431D01*
G01X7579Y19416D01*
G01X7568Y19400D01*
G01X7550Y19368D01*
G01X7542Y19352D01*
G01X7534Y19335D01*
G01X7527Y19317D01*
G01X7521Y19300D01*
G01X7516Y19282D01*
G01X7512Y19264D01*
G01X7508Y19245D01*
G01X7505Y19227D01*
G01X7503Y19209D01*
G01X7502Y19190D01*
G01X7502Y19153D01*
G01X7503Y19134D01*
G01X7505Y19116D01*
G01X7508Y19098D01*
G01X7512Y19079D01*
G01X7516Y19061D01*
G01X7521Y19043D01*
G01X7527Y19026D01*
G01X7534Y19008D01*
G01X7542Y18991D01*
G01X7550Y18975D01*
G01X7568Y18943D01*
G01X7579Y18927D01*
G01X7590Y18912D01*
G01X7601Y18898D01*
G01X7614Y18884D01*
G01X7626Y18870D01*
G01X7640Y18857D01*
G01X7654Y18845D01*
G01X7668Y18834D01*
G01X7683Y18823D01*
G01X7699Y18812D01*
G01X7731Y18794D01*
G01X7748Y18785D01*
G01X7782Y18771D01*
G01X7799Y18765D01*
G01X7817Y18760D01*
G01X7835Y18756D01*
G01X7854Y18752D01*
G01X7872Y18749D01*
G01X7890Y18747D01*
G01X7909Y18746D01*
G01X7946Y18746D01*
G01X7965Y18747D01*
G01X7983Y18749D01*
G01X8002Y18752D01*
G01X8038Y18760D01*
G01X8056Y18765D01*
G01X8073Y18771D01*
G01X8091Y18778D01*
G01X8108Y18785D01*
G01X8124Y18794D01*
G01X8141Y18803D01*
G01X8156Y18812D01*
G01X8172Y18823D01*
G01X8187Y18834D01*
G01X8201Y18845D01*
G01X8215Y18857D01*
G01X8229Y18870D01*
G01X8242Y18884D01*
G01X8266Y18912D01*
G01X8277Y18927D01*
G01X8297Y18959D01*
G01X8305Y18975D01*
G01X8314Y18991D01*
G01X8321Y19008D01*
G01X8328Y19026D01*
G01X8334Y19043D01*
G01X8344Y19079D01*
G01X8347Y19098D01*
G01X8350Y19116D01*
G01X8352Y19134D01*
G01X8353Y19153D01*
G01X8354Y19171D01*
G01X8352Y19209D01*
G01X8350Y19227D01*
G01X8347Y19245D01*
G01X8344Y19264D01*
G01X8334Y19300D01*
G01X8328Y19317D01*
G01X8321Y19335D01*
G01X8314Y19352D01*
G01X8305Y19368D01*
G01X8297Y19384D01*
G01X8277Y19416D01*
G01X8266Y19431D01*
G01X8242Y19459D01*
G01X8229Y19473D01*
G01X8215Y19486D01*
G01X8201Y19498D01*
G01X8187Y19509D01*
G01X8172Y19520D01*
G01X8156Y19531D01*
G01X8141Y19540D01*
G01X8124Y19549D01*
G01X8108Y19558D01*
G01X8091Y19565D01*
G01X8073Y19572D01*
G01X8056Y19578D01*
G01X8038Y19583D01*
G01X8002Y19591D01*
G01X7983Y19594D01*
G01X7965Y19596D01*
G01X7946Y19597D01*
G37*
G36*
G01X13218Y13125D02*
G01X13200Y13126D01*
G01X13162Y13124D01*
G01X13144Y13122D01*
G01X13126Y13119D01*
G01X13107Y13115D01*
G01X13089Y13111D01*
G01X13071Y13106D01*
G01X13054Y13100D01*
G01X13036Y13093D01*
G01X13019Y13086D01*
G01X13003Y13077D01*
G01X12986Y13068D01*
G01X12971Y13059D01*
G01X12955Y13048D01*
G01X12940Y13037D01*
G01X12926Y13026D01*
G01X12912Y13014D01*
G01X12898Y13001D01*
G01X12885Y12987D01*
G01X12873Y12973D01*
G01X12862Y12959D01*
G01X12851Y12944D01*
G01X12840Y12928D01*
G01X12831Y12913D01*
G01X12822Y12896D01*
G01X12813Y12880D01*
G01X12806Y12863D01*
G01X12799Y12845D01*
G01X12793Y12828D01*
G01X12788Y12810D01*
G01X12784Y12792D01*
G01X12780Y12773D01*
G01X12777Y12755D01*
G01X12775Y12737D01*
G01X12773Y12699D01*
G01X12775Y12662D01*
G01X12777Y12644D01*
G01X12780Y12626D01*
G01X12784Y12607D01*
G01X12788Y12589D01*
G01X12793Y12571D01*
G01X12799Y12554D01*
G01X12806Y12536D01*
G01X12813Y12519D01*
G01X12822Y12503D01*
G01X12831Y12486D01*
G01X12840Y12471D01*
G01X12851Y12455D01*
G01X12862Y12440D01*
G01X12873Y12426D01*
G01X12885Y12412D01*
G01X12898Y12398D01*
G01X12912Y12385D01*
G01X12926Y12373D01*
G01X12940Y12362D01*
G01X12955Y12351D01*
G01X12971Y12340D01*
G01X12986Y12331D01*
G01X13003Y12322D01*
G01X13019Y12313D01*
G01X13036Y12306D01*
G01X13054Y12299D01*
G01X13071Y12293D01*
G01X13089Y12288D01*
G01X13107Y12284D01*
G01X13126Y12280D01*
G01X13144Y12277D01*
G01X13162Y12275D01*
G01X13200Y12273D01*
G01X13218Y12274D01*
G01X13237Y12275D01*
G01X13255Y12277D01*
G01X13273Y12280D01*
G01X13292Y12284D01*
G01X13310Y12288D01*
G01X13328Y12293D01*
G01X13345Y12299D01*
G01X13363Y12306D01*
G01X13380Y12313D01*
G01X13396Y12322D01*
G01X13413Y12331D01*
G01X13428Y12340D01*
G01X13444Y12351D01*
G01X13459Y12362D01*
G01X13473Y12373D01*
G01X13487Y12385D01*
G01X13501Y12398D01*
G01X13514Y12412D01*
G01X13526Y12426D01*
G01X13537Y12440D01*
G01X13548Y12455D01*
G01X13559Y12471D01*
G01X13568Y12486D01*
G01X13577Y12503D01*
G01X13586Y12519D01*
G01X13593Y12536D01*
G01X13600Y12554D01*
G01X13606Y12571D01*
G01X13611Y12589D01*
G01X13615Y12607D01*
G01X13619Y12626D01*
G01X13622Y12644D01*
G01X13624Y12662D01*
G01X13626Y12700D01*
G01X13625Y12718D01*
G01X13624Y12737D01*
G01X13622Y12755D01*
G01X13619Y12773D01*
G01X13615Y12792D01*
G01X13611Y12810D01*
G01X13606Y12828D01*
G01X13600Y12845D01*
G01X13593Y12863D01*
G01X13586Y12880D01*
G01X13577Y12896D01*
G01X13568Y12913D01*
G01X13559Y12928D01*
G01X13548Y12944D01*
G01X13537Y12959D01*
G01X13526Y12973D01*
G01X13514Y12987D01*
G01X13501Y13001D01*
G01X13487Y13014D01*
G01X13473Y13026D01*
G01X13459Y13037D01*
G01X13444Y13048D01*
G01X13428Y13059D01*
G01X13413Y13068D01*
G01X13396Y13077D01*
G01X13380Y13086D01*
G01X13363Y13093D01*
G01X13345Y13100D01*
G01X13328Y13106D01*
G01X13310Y13111D01*
G01X13292Y13115D01*
G01X13273Y13119D01*
G01X13255Y13122D01*
G01X13237Y13124D01*
G01X13218Y13125D01*
G37*
G36*
G01X6946Y19597D02*
G01X6928Y19598D01*
G01X6890Y19596D01*
G01X6872Y19594D01*
G01X6854Y19591D01*
G01X6835Y19587D01*
G01X6817Y19583D01*
G01X6799Y19578D01*
G01X6782Y19572D01*
G01X6748Y19558D01*
G01X6731Y19549D01*
G01X6699Y19531D01*
G01X6683Y19520D01*
G01X6668Y19509D01*
G01X6654Y19498D01*
G01X6640Y19486D01*
G01X6626Y19473D01*
G01X6614Y19459D01*
G01X6601Y19445D01*
G01X6590Y19431D01*
G01X6579Y19416D01*
G01X6568Y19400D01*
G01X6550Y19368D01*
G01X6542Y19352D01*
G01X6534Y19335D01*
G01X6527Y19317D01*
G01X6521Y19300D01*
G01X6516Y19282D01*
G01X6512Y19264D01*
G01X6508Y19245D01*
G01X6505Y19227D01*
G01X6503Y19209D01*
G01X6502Y19190D01*
G01X6502Y19153D01*
G01X6503Y19134D01*
G01X6505Y19116D01*
G01X6508Y19098D01*
G01X6512Y19079D01*
G01X6516Y19061D01*
G01X6521Y19043D01*
G01X6527Y19026D01*
G01X6534Y19008D01*
G01X6542Y18991D01*
G01X6550Y18975D01*
G01X6568Y18943D01*
G01X6579Y18927D01*
G01X6590Y18912D01*
G01X6601Y18898D01*
G01X6614Y18884D01*
G01X6626Y18870D01*
G01X6640Y18857D01*
G01X6654Y18845D01*
G01X6668Y18834D01*
G01X6683Y18823D01*
G01X6699Y18812D01*
G01X6731Y18794D01*
G01X6748Y18785D01*
G01X6782Y18771D01*
G01X6799Y18765D01*
G01X6817Y18760D01*
G01X6835Y18756D01*
G01X6854Y18752D01*
G01X6872Y18749D01*
G01X6890Y18747D01*
G01X6909Y18746D01*
G01X6946Y18746D01*
G01X6965Y18747D01*
G01X6983Y18749D01*
G01X7002Y18752D01*
G01X7038Y18760D01*
G01X7056Y18765D01*
G01X7073Y18771D01*
G01X7091Y18778D01*
G01X7108Y18785D01*
G01X7124Y18794D01*
G01X7141Y18803D01*
G01X7156Y18812D01*
G01X7172Y18823D01*
G01X7187Y18834D01*
G01X7201Y18845D01*
G01X7215Y18857D01*
G01X7229Y18870D01*
G01X7242Y18884D01*
G01X7266Y18912D01*
G01X7277Y18927D01*
G01X7297Y18959D01*
G01X7305Y18975D01*
G01X7314Y18991D01*
G01X7321Y19008D01*
G01X7328Y19026D01*
G01X7334Y19043D01*
G01X7344Y19079D01*
G01X7347Y19098D01*
G01X7350Y19116D01*
G01X7352Y19134D01*
G01X7353Y19153D01*
G01X7354Y19171D01*
G01X7352Y19209D01*
G01X7350Y19227D01*
G01X7347Y19245D01*
G01X7344Y19264D01*
G01X7334Y19300D01*
G01X7328Y19317D01*
G01X7321Y19335D01*
G01X7314Y19352D01*
G01X7305Y19368D01*
G01X7297Y19384D01*
G01X7277Y19416D01*
G01X7266Y19431D01*
G01X7242Y19459D01*
G01X7229Y19473D01*
G01X7215Y19486D01*
G01X7201Y19498D01*
G01X7187Y19509D01*
G01X7172Y19520D01*
G01X7156Y19531D01*
G01X7141Y19540D01*
G01X7124Y19549D01*
G01X7108Y19558D01*
G01X7091Y19565D01*
G01X7073Y19572D01*
G01X7056Y19578D01*
G01X7038Y19583D01*
G01X7002Y19591D01*
G01X6983Y19594D01*
G01X6965Y19596D01*
G01X6946Y19597D01*
G37*
G36*
G01X11946Y25597D02*
G01X11928Y25598D01*
G01X11890Y25596D01*
G01X11872Y25594D01*
G01X11854Y25591D01*
G01X11835Y25587D01*
G01X11817Y25583D01*
G01X11799Y25578D01*
G01X11782Y25572D01*
G01X11748Y25558D01*
G01X11731Y25549D01*
G01X11699Y25531D01*
G01X11683Y25520D01*
G01X11668Y25509D01*
G01X11654Y25498D01*
G01X11640Y25486D01*
G01X11626Y25473D01*
G01X11614Y25459D01*
G01X11601Y25445D01*
G01X11590Y25431D01*
G01X11579Y25416D01*
G01X11568Y25400D01*
G01X11550Y25368D01*
G01X11542Y25352D01*
G01X11534Y25335D01*
G01X11527Y25317D01*
G01X11521Y25300D01*
G01X11516Y25282D01*
G01X11512Y25264D01*
G01X11508Y25245D01*
G01X11505Y25227D01*
G01X11503Y25209D01*
G01X11502Y25190D01*
G01X11502Y25153D01*
G01X11503Y25134D01*
G01X11505Y25116D01*
G01X11508Y25098D01*
G01X11512Y25079D01*
G01X11516Y25061D01*
G01X11521Y25043D01*
G01X11527Y25026D01*
G01X11534Y25008D01*
G01X11542Y24991D01*
G01X11550Y24975D01*
G01X11568Y24943D01*
G01X11579Y24927D01*
G01X11590Y24912D01*
G01X11601Y24898D01*
G01X11614Y24884D01*
G01X11626Y24870D01*
G01X11640Y24857D01*
G01X11654Y24845D01*
G01X11668Y24834D01*
G01X11683Y24823D01*
G01X11699Y24812D01*
G01X11731Y24794D01*
G01X11748Y24785D01*
G01X11782Y24771D01*
G01X11799Y24765D01*
G01X11817Y24760D01*
G01X11835Y24756D01*
G01X11854Y24752D01*
G01X11872Y24749D01*
G01X11890Y24747D01*
G01X11909Y24746D01*
G01X11946Y24746D01*
G01X11965Y24747D01*
G01X11983Y24749D01*
G01X12002Y24752D01*
G01X12038Y24760D01*
G01X12056Y24765D01*
G01X12073Y24771D01*
G01X12091Y24778D01*
G01X12108Y24785D01*
G01X12124Y24794D01*
G01X12141Y24803D01*
G01X12156Y24812D01*
G01X12172Y24823D01*
G01X12187Y24834D01*
G01X12201Y24845D01*
G01X12215Y24857D01*
G01X12229Y24870D01*
G01X12242Y24884D01*
G01X12266Y24912D01*
G01X12277Y24927D01*
G01X12297Y24959D01*
G01X12305Y24975D01*
G01X12314Y24991D01*
G01X12321Y25008D01*
G01X12328Y25026D01*
G01X12334Y25043D01*
G01X12344Y25079D01*
G01X12347Y25098D01*
G01X12350Y25116D01*
G01X12352Y25134D01*
G01X12353Y25153D01*
G01X12354Y25171D01*
G01X12352Y25209D01*
G01X12350Y25227D01*
G01X12347Y25245D01*
G01X12344Y25264D01*
G01X12334Y25300D01*
G01X12328Y25317D01*
G01X12321Y25335D01*
G01X12314Y25352D01*
G01X12305Y25368D01*
G01X12297Y25384D01*
G01X12277Y25416D01*
G01X12266Y25431D01*
G01X12242Y25459D01*
G01X12229Y25473D01*
G01X12215Y25486D01*
G01X12201Y25498D01*
G01X12187Y25509D01*
G01X12172Y25520D01*
G01X12156Y25531D01*
G01X12141Y25540D01*
G01X12124Y25549D01*
G01X12108Y25558D01*
G01X12091Y25565D01*
G01X12073Y25572D01*
G01X12056Y25578D01*
G01X12038Y25583D01*
G01X12002Y25591D01*
G01X11983Y25594D01*
G01X11965Y25596D01*
G01X11946Y25597D01*
G37*
G36*
G01X2946Y25597D02*
G01X2928Y25598D01*
G01X2890Y25596D01*
G01X2872Y25594D01*
G01X2854Y25591D01*
G01X2835Y25587D01*
G01X2817Y25583D01*
G01X2799Y25578D01*
G01X2782Y25572D01*
G01X2748Y25558D01*
G01X2731Y25549D01*
G01X2699Y25531D01*
G01X2683Y25520D01*
G01X2668Y25509D01*
G01X2654Y25498D01*
G01X2640Y25486D01*
G01X2626Y25473D01*
G01X2614Y25459D01*
G01X2601Y25445D01*
G01X2590Y25431D01*
G01X2579Y25416D01*
G01X2568Y25400D01*
G01X2550Y25368D01*
G01X2542Y25352D01*
G01X2534Y25335D01*
G01X2527Y25317D01*
G01X2521Y25300D01*
G01X2516Y25282D01*
G01X2512Y25264D01*
G01X2508Y25245D01*
G01X2505Y25227D01*
G01X2503Y25209D01*
G01X2502Y25190D01*
G01X2502Y25153D01*
G01X2503Y25134D01*
G01X2505Y25116D01*
G01X2508Y25098D01*
G01X2512Y25079D01*
G01X2516Y25061D01*
G01X2521Y25043D01*
G01X2527Y25026D01*
G01X2534Y25008D01*
G01X2542Y24991D01*
G01X2550Y24975D01*
G01X2568Y24943D01*
G01X2579Y24927D01*
G01X2590Y24912D01*
G01X2601Y24898D01*
G01X2614Y24884D01*
G01X2626Y24870D01*
G01X2640Y24857D01*
G01X2654Y24845D01*
G01X2668Y24834D01*
G01X2683Y24823D01*
G01X2699Y24812D01*
G01X2731Y24794D01*
G01X2748Y24785D01*
G01X2782Y24771D01*
G01X2799Y24765D01*
G01X2817Y24760D01*
G01X2835Y24756D01*
G01X2854Y24752D01*
G01X2872Y24749D01*
G01X2890Y24747D01*
G01X2909Y24746D01*
G01X2946Y24746D01*
G01X2965Y24747D01*
G01X2983Y24749D01*
G01X3002Y24752D01*
G01X3038Y24760D01*
G01X3056Y24765D01*
G01X3073Y24771D01*
G01X3091Y24778D01*
G01X3108Y24785D01*
G01X3124Y24794D01*
G01X3141Y24803D01*
G01X3156Y24812D01*
G01X3172Y24823D01*
G01X3187Y24834D01*
G01X3201Y24845D01*
G01X3215Y24857D01*
G01X3229Y24870D01*
G01X3242Y24884D01*
G01X3266Y24912D01*
G01X3277Y24927D01*
G01X3297Y24959D01*
G01X3305Y24975D01*
G01X3314Y24991D01*
G01X3321Y25008D01*
G01X3328Y25026D01*
G01X3334Y25043D01*
G01X3344Y25079D01*
G01X3347Y25098D01*
G01X3350Y25116D01*
G01X3352Y25134D01*
G01X3353Y25153D01*
G01X3354Y25171D01*
G01X3352Y25209D01*
G01X3350Y25227D01*
G01X3347Y25245D01*
G01X3344Y25264D01*
G01X3334Y25300D01*
G01X3328Y25317D01*
G01X3321Y25335D01*
G01X3314Y25352D01*
G01X3305Y25368D01*
G01X3297Y25384D01*
G01X3277Y25416D01*
G01X3266Y25431D01*
G01X3242Y25459D01*
G01X3229Y25473D01*
G01X3215Y25486D01*
G01X3201Y25498D01*
G01X3187Y25509D01*
G01X3172Y25520D01*
G01X3156Y25531D01*
G01X3141Y25540D01*
G01X3124Y25549D01*
G01X3108Y25558D01*
G01X3091Y25565D01*
G01X3073Y25572D01*
G01X3056Y25578D01*
G01X3038Y25583D01*
G01X3002Y25591D01*
G01X2983Y25594D01*
G01X2965Y25596D01*
G01X2946Y25597D01*
G37*
G36*
G01X13218Y14125D02*
G01X13200Y14126D01*
G01X13162Y14124D01*
G01X13144Y14122D01*
G01X13126Y14119D01*
G01X13107Y14115D01*
G01X13089Y14111D01*
G01X13071Y14106D01*
G01X13054Y14100D01*
G01X13036Y14093D01*
G01X13019Y14086D01*
G01X13003Y14077D01*
G01X12986Y14068D01*
G01X12971Y14059D01*
G01X12955Y14048D01*
G01X12940Y14037D01*
G01X12926Y14026D01*
G01X12912Y14014D01*
G01X12898Y14001D01*
G01X12885Y13987D01*
G01X12873Y13973D01*
G01X12862Y13959D01*
G01X12851Y13944D01*
G01X12840Y13928D01*
G01X12831Y13913D01*
G01X12822Y13896D01*
G01X12813Y13880D01*
G01X12806Y13863D01*
G01X12799Y13845D01*
G01X12793Y13828D01*
G01X12788Y13810D01*
G01X12784Y13792D01*
G01X12780Y13773D01*
G01X12777Y13755D01*
G01X12775Y13737D01*
G01X12774Y13718D01*
G01X12773Y13700D01*
G01X12775Y13662D01*
G01X12777Y13644D01*
G01X12780Y13626D01*
G01X12784Y13607D01*
G01X12788Y13589D01*
G01X12793Y13571D01*
G01X12799Y13554D01*
G01X12806Y13536D01*
G01X12813Y13519D01*
G01X12822Y13503D01*
G01X12831Y13486D01*
G01X12840Y13471D01*
G01X12851Y13455D01*
G01X12862Y13440D01*
G01X12873Y13426D01*
G01X12885Y13412D01*
G01X12898Y13398D01*
G01X12912Y13385D01*
G01X12926Y13373D01*
G01X12940Y13362D01*
G01X12955Y13351D01*
G01X12971Y13340D01*
G01X12986Y13331D01*
G01X13003Y13322D01*
G01X13019Y13313D01*
G01X13036Y13306D01*
G01X13054Y13299D01*
G01X13071Y13293D01*
G01X13089Y13288D01*
G01X13107Y13284D01*
G01X13126Y13280D01*
G01X13144Y13277D01*
G01X13162Y13275D01*
G01X13200Y13273D01*
G01X13218Y13274D01*
G01X13237Y13275D01*
G01X13255Y13277D01*
G01X13273Y13280D01*
G01X13292Y13284D01*
G01X13310Y13288D01*
G01X13328Y13293D01*
G01X13345Y13299D01*
G01X13363Y13306D01*
G01X13380Y13313D01*
G01X13396Y13322D01*
G01X13413Y13331D01*
G01X13428Y13340D01*
G01X13444Y13351D01*
G01X13459Y13362D01*
G01X13473Y13373D01*
G01X13487Y13385D01*
G01X13501Y13398D01*
G01X13514Y13412D01*
G01X13526Y13426D01*
G01X13537Y13440D01*
G01X13548Y13455D01*
G01X13559Y13471D01*
G01X13568Y13486D01*
G01X13577Y13503D01*
G01X13586Y13519D01*
G01X13593Y13536D01*
G01X13600Y13554D01*
G01X13606Y13571D01*
G01X13611Y13589D01*
G01X13615Y13607D01*
G01X13619Y13626D01*
G01X13622Y13644D01*
G01X13624Y13662D01*
G01X13626Y13700D01*
G01X13625Y13718D01*
G01X13624Y13737D01*
G01X13622Y13755D01*
G01X13619Y13773D01*
G01X13615Y13792D01*
G01X13611Y13810D01*
G01X13606Y13828D01*
G01X13600Y13845D01*
G01X13593Y13863D01*
G01X13586Y13880D01*
G01X13577Y13896D01*
G01X13568Y13913D01*
G01X13559Y13928D01*
G01X13548Y13944D01*
G01X13537Y13959D01*
G01X13526Y13973D01*
G01X13514Y13987D01*
G01X13501Y14001D01*
G01X13487Y14014D01*
G01X13473Y14026D01*
G01X13459Y14037D01*
G01X13444Y14048D01*
G01X13428Y14059D01*
G01X13413Y14068D01*
G01X13396Y14077D01*
G01X13380Y14086D01*
G01X13363Y14093D01*
G01X13345Y14100D01*
G01X13328Y14106D01*
G01X13310Y14111D01*
G01X13292Y14115D01*
G01X13273Y14119D01*
G01X13255Y14122D01*
G01X13237Y14124D01*
G01X13218Y14125D01*
G37*
G36*
G01X9946Y25597D02*
G01X9928Y25598D01*
G01X9890Y25596D01*
G01X9872Y25594D01*
G01X9854Y25591D01*
G01X9835Y25587D01*
G01X9817Y25583D01*
G01X9799Y25578D01*
G01X9782Y25572D01*
G01X9748Y25558D01*
G01X9731Y25549D01*
G01X9699Y25531D01*
G01X9683Y25520D01*
G01X9668Y25509D01*
G01X9654Y25498D01*
G01X9640Y25486D01*
G01X9626Y25473D01*
G01X9614Y25459D01*
G01X9601Y25445D01*
G01X9590Y25431D01*
G01X9579Y25416D01*
G01X9568Y25400D01*
G01X9550Y25368D01*
G01X9542Y25352D01*
G01X9534Y25335D01*
G01X9527Y25317D01*
G01X9521Y25300D01*
G01X9516Y25282D01*
G01X9512Y25264D01*
G01X9508Y25245D01*
G01X9505Y25227D01*
G01X9503Y25209D01*
G01X9502Y25190D01*
G01X9502Y25153D01*
G01X9503Y25134D01*
G01X9505Y25116D01*
G01X9508Y25098D01*
G01X9512Y25079D01*
G01X9516Y25061D01*
G01X9521Y25043D01*
G01X9527Y25026D01*
G01X9534Y25008D01*
G01X9542Y24991D01*
G01X9550Y24975D01*
G01X9568Y24943D01*
G01X9579Y24927D01*
G01X9590Y24912D01*
G01X9601Y24898D01*
G01X9614Y24884D01*
G01X9626Y24870D01*
G01X9640Y24857D01*
G01X9654Y24845D01*
G01X9668Y24834D01*
G01X9683Y24823D01*
G01X9699Y24812D01*
G01X9731Y24794D01*
G01X9748Y24785D01*
G01X9782Y24771D01*
G01X9799Y24765D01*
G01X9817Y24760D01*
G01X9835Y24756D01*
G01X9854Y24752D01*
G01X9872Y24749D01*
G01X9890Y24747D01*
G01X9909Y24746D01*
G01X9946Y24746D01*
G01X9965Y24747D01*
G01X9983Y24749D01*
G01X10002Y24752D01*
G01X10038Y24760D01*
G01X10056Y24765D01*
G01X10073Y24771D01*
G01X10091Y24778D01*
G01X10108Y24785D01*
G01X10124Y24794D01*
G01X10141Y24803D01*
G01X10156Y24812D01*
G01X10172Y24823D01*
G01X10187Y24834D01*
G01X10201Y24845D01*
G01X10215Y24857D01*
G01X10229Y24870D01*
G01X10242Y24884D01*
G01X10266Y24912D01*
G01X10277Y24927D01*
G01X10297Y24959D01*
G01X10305Y24975D01*
G01X10314Y24991D01*
G01X10321Y25008D01*
G01X10328Y25026D01*
G01X10334Y25043D01*
G01X10344Y25079D01*
G01X10347Y25098D01*
G01X10350Y25116D01*
G01X10352Y25134D01*
G01X10353Y25153D01*
G01X10354Y25171D01*
G01X10352Y25209D01*
G01X10350Y25227D01*
G01X10347Y25245D01*
G01X10344Y25264D01*
G01X10334Y25300D01*
G01X10328Y25317D01*
G01X10321Y25335D01*
G01X10314Y25352D01*
G01X10305Y25368D01*
G01X10297Y25384D01*
G01X10277Y25416D01*
G01X10266Y25431D01*
G01X10242Y25459D01*
G01X10229Y25473D01*
G01X10215Y25486D01*
G01X10201Y25498D01*
G01X10187Y25509D01*
G01X10172Y25520D01*
G01X10156Y25531D01*
G01X10141Y25540D01*
G01X10124Y25549D01*
G01X10108Y25558D01*
G01X10091Y25565D01*
G01X10073Y25572D01*
G01X10056Y25578D01*
G01X10038Y25583D01*
G01X10002Y25591D01*
G01X9983Y25594D01*
G01X9965Y25596D01*
G01X9946Y25597D01*
G37*
G36*
G01X11946Y19597D02*
G01X11928Y19598D01*
G01X11890Y19596D01*
G01X11872Y19594D01*
G01X11854Y19591D01*
G01X11835Y19587D01*
G01X11817Y19583D01*
G01X11799Y19578D01*
G01X11782Y19572D01*
G01X11748Y19558D01*
G01X11731Y19549D01*
G01X11699Y19531D01*
G01X11683Y19520D01*
G01X11668Y19509D01*
G01X11654Y19498D01*
G01X11640Y19486D01*
G01X11626Y19473D01*
G01X11614Y19459D01*
G01X11601Y19445D01*
G01X11590Y19431D01*
G01X11579Y19416D01*
G01X11568Y19400D01*
G01X11550Y19368D01*
G01X11542Y19352D01*
G01X11534Y19335D01*
G01X11527Y19317D01*
G01X11521Y19300D01*
G01X11516Y19282D01*
G01X11512Y19264D01*
G01X11508Y19245D01*
G01X11505Y19227D01*
G01X11503Y19209D01*
G01X11502Y19190D01*
G01X11502Y19153D01*
G01X11503Y19134D01*
G01X11505Y19116D01*
G01X11508Y19098D01*
G01X11512Y19079D01*
G01X11516Y19061D01*
G01X11521Y19043D01*
G01X11527Y19026D01*
G01X11534Y19008D01*
G01X11542Y18991D01*
G01X11550Y18975D01*
G01X11568Y18943D01*
G01X11579Y18927D01*
G01X11590Y18912D01*
G01X11601Y18898D01*
G01X11614Y18884D01*
G01X11626Y18870D01*
G01X11640Y18857D01*
G01X11654Y18845D01*
G01X11668Y18834D01*
G01X11683Y18823D01*
G01X11699Y18812D01*
G01X11731Y18794D01*
G01X11748Y18785D01*
G01X11782Y18771D01*
G01X11799Y18765D01*
G01X11817Y18760D01*
G01X11835Y18756D01*
G01X11854Y18752D01*
G01X11872Y18749D01*
G01X11890Y18747D01*
G01X11909Y18746D01*
G01X11946Y18746D01*
G01X11965Y18747D01*
G01X11983Y18749D01*
G01X12002Y18752D01*
G01X12038Y18760D01*
G01X12056Y18765D01*
G01X12073Y18771D01*
G01X12091Y18778D01*
G01X12108Y18785D01*
G01X12124Y18794D01*
G01X12141Y18803D01*
G01X12156Y18812D01*
G01X12172Y18823D01*
G01X12187Y18834D01*
G01X12201Y18845D01*
G01X12215Y18857D01*
G01X12229Y18870D01*
G01X12242Y18884D01*
G01X12266Y18912D01*
G01X12277Y18927D01*
G01X12297Y18959D01*
G01X12305Y18975D01*
G01X12314Y18991D01*
G01X12321Y19008D01*
G01X12328Y19026D01*
G01X12334Y19043D01*
G01X12344Y19079D01*
G01X12347Y19098D01*
G01X12350Y19116D01*
G01X12352Y19134D01*
G01X12353Y19153D01*
G01X12354Y19171D01*
G01X12352Y19209D01*
G01X12350Y19227D01*
G01X12347Y19245D01*
G01X12344Y19264D01*
G01X12334Y19300D01*
G01X12328Y19317D01*
G01X12321Y19335D01*
G01X12314Y19352D01*
G01X12305Y19368D01*
G01X12297Y19384D01*
G01X12277Y19416D01*
G01X12266Y19431D01*
G01X12242Y19459D01*
G01X12229Y19473D01*
G01X12215Y19486D01*
G01X12201Y19498D01*
G01X12187Y19509D01*
G01X12172Y19520D01*
G01X12156Y19531D01*
G01X12141Y19540D01*
G01X12124Y19549D01*
G01X12108Y19558D01*
G01X12091Y19565D01*
G01X12073Y19572D01*
G01X12056Y19578D01*
G01X12038Y19583D01*
G01X12002Y19591D01*
G01X11983Y19594D01*
G01X11965Y19596D01*
G01X11946Y19597D01*
G37*
G36*
G01X8946Y19597D02*
G01X8928Y19598D01*
G01X8890Y19596D01*
G01X8872Y19594D01*
G01X8854Y19591D01*
G01X8835Y19587D01*
G01X8817Y19583D01*
G01X8799Y19578D01*
G01X8782Y19572D01*
G01X8748Y19558D01*
G01X8731Y19549D01*
G01X8699Y19531D01*
G01X8683Y19520D01*
G01X8668Y19509D01*
G01X8654Y19498D01*
G01X8640Y19486D01*
G01X8626Y19473D01*
G01X8614Y19459D01*
G01X8601Y19445D01*
G01X8590Y19431D01*
G01X8579Y19416D01*
G01X8568Y19400D01*
G01X8550Y19368D01*
G01X8542Y19352D01*
G01X8534Y19335D01*
G01X8527Y19317D01*
G01X8521Y19300D01*
G01X8516Y19282D01*
G01X8512Y19264D01*
G01X8508Y19245D01*
G01X8505Y19227D01*
G01X8503Y19209D01*
G01X8502Y19190D01*
G01X8502Y19153D01*
G01X8503Y19134D01*
G01X8505Y19116D01*
G01X8508Y19098D01*
G01X8512Y19079D01*
G01X8516Y19061D01*
G01X8521Y19043D01*
G01X8527Y19026D01*
G01X8534Y19008D01*
G01X8542Y18991D01*
G01X8550Y18975D01*
G01X8568Y18943D01*
G01X8579Y18927D01*
G01X8590Y18912D01*
G01X8601Y18898D01*
G01X8614Y18884D01*
G01X8626Y18870D01*
G01X8640Y18857D01*
G01X8654Y18845D01*
G01X8668Y18834D01*
G01X8683Y18823D01*
G01X8699Y18812D01*
G01X8731Y18794D01*
G01X8748Y18785D01*
G01X8782Y18771D01*
G01X8799Y18765D01*
G01X8817Y18760D01*
G01X8835Y18756D01*
G01X8854Y18752D01*
G01X8872Y18749D01*
G01X8890Y18747D01*
G01X8909Y18746D01*
G01X8946Y18746D01*
G01X8965Y18747D01*
G01X8983Y18749D01*
G01X9002Y18752D01*
G01X9038Y18760D01*
G01X9056Y18765D01*
G01X9073Y18771D01*
G01X9091Y18778D01*
G01X9108Y18785D01*
G01X9124Y18794D01*
G01X9141Y18803D01*
G01X9156Y18812D01*
G01X9172Y18823D01*
G01X9187Y18834D01*
G01X9201Y18845D01*
G01X9215Y18857D01*
G01X9229Y18870D01*
G01X9242Y18884D01*
G01X9266Y18912D01*
G01X9277Y18927D01*
G01X9297Y18959D01*
G01X9305Y18975D01*
G01X9314Y18991D01*
G01X9321Y19008D01*
G01X9328Y19026D01*
G01X9334Y19043D01*
G01X9344Y19079D01*
G01X9347Y19098D01*
G01X9350Y19116D01*
G01X9352Y19134D01*
G01X9353Y19153D01*
G01X9354Y19171D01*
G01X9352Y19209D01*
G01X9350Y19227D01*
G01X9347Y19245D01*
G01X9344Y19264D01*
G01X9334Y19300D01*
G01X9328Y19317D01*
G01X9321Y19335D01*
G01X9314Y19352D01*
G01X9305Y19368D01*
G01X9297Y19384D01*
G01X9277Y19416D01*
G01X9266Y19431D01*
G01X9242Y19459D01*
G01X9229Y19473D01*
G01X9215Y19486D01*
G01X9201Y19498D01*
G01X9187Y19509D01*
G01X9172Y19520D01*
G01X9156Y19531D01*
G01X9141Y19540D01*
G01X9124Y19549D01*
G01X9108Y19558D01*
G01X9091Y19565D01*
G01X9073Y19572D01*
G01X9056Y19578D01*
G01X9038Y19583D01*
G01X9002Y19591D01*
G01X8983Y19594D01*
G01X8965Y19596D01*
G01X8946Y19597D01*
G37*
G36*
G01X946Y19597D02*
G01X928Y19598D01*
G01X890Y19596D01*
G01X872Y19594D01*
G01X854Y19591D01*
G01X835Y19587D01*
G01X817Y19583D01*
G01X799Y19578D01*
G01X782Y19572D01*
G01X748Y19558D01*
G01X731Y19549D01*
G01X699Y19531D01*
G01X683Y19520D01*
G01X668Y19509D01*
G01X654Y19498D01*
G01X640Y19486D01*
G01X626Y19473D01*
G01X614Y19459D01*
G01X601Y19445D01*
G01X590Y19431D01*
G01X579Y19416D01*
G01X568Y19400D01*
G01X550Y19368D01*
G01X542Y19352D01*
G01X534Y19335D01*
G01X527Y19317D01*
G01X521Y19300D01*
G01X516Y19282D01*
G01X512Y19264D01*
G01X508Y19245D01*
G01X505Y19227D01*
G01X503Y19209D01*
G01X502Y19190D01*
G01X502Y19153D01*
G01X503Y19134D01*
G01X505Y19116D01*
G01X508Y19098D01*
G01X512Y19079D01*
G01X516Y19061D01*
G01X521Y19043D01*
G01X527Y19026D01*
G01X534Y19008D01*
G01X542Y18991D01*
G01X550Y18975D01*
G01X568Y18943D01*
G01X579Y18927D01*
G01X590Y18912D01*
G01X601Y18898D01*
G01X614Y18884D01*
G01X626Y18870D01*
G01X640Y18857D01*
G01X654Y18845D01*
G01X668Y18834D01*
G01X683Y18823D01*
G01X699Y18812D01*
G01X731Y18794D01*
G01X748Y18785D01*
G01X782Y18771D01*
G01X799Y18765D01*
G01X817Y18760D01*
G01X835Y18756D01*
G01X854Y18752D01*
G01X872Y18749D01*
G01X890Y18747D01*
G01X909Y18746D01*
G01X946Y18746D01*
G01X965Y18747D01*
G01X983Y18749D01*
G01X1002Y18752D01*
G01X1038Y18760D01*
G01X1056Y18765D01*
G01X1073Y18771D01*
G01X1091Y18778D01*
G01X1108Y18785D01*
G01X1124Y18794D01*
G01X1141Y18803D01*
G01X1156Y18812D01*
G01X1172Y18823D01*
G01X1187Y18834D01*
G01X1201Y18845D01*
G01X1215Y18857D01*
G01X1229Y18870D01*
G01X1242Y18884D01*
G01X1266Y18912D01*
G01X1277Y18927D01*
G01X1297Y18959D01*
G01X1305Y18975D01*
G01X1314Y18991D01*
G01X1321Y19008D01*
G01X1328Y19026D01*
G01X1334Y19043D01*
G01X1344Y19079D01*
G01X1347Y19098D01*
G01X1350Y19116D01*
G01X1352Y19134D01*
G01X1353Y19153D01*
G01X1354Y19171D01*
G01X1352Y19209D01*
G01X1350Y19227D01*
G01X1347Y19245D01*
G01X1344Y19264D01*
G01X1334Y19300D01*
G01X1328Y19317D01*
G01X1321Y19335D01*
G01X1314Y19352D01*
G01X1305Y19368D01*
G01X1297Y19384D01*
G01X1277Y19416D01*
G01X1266Y19431D01*
G01X1242Y19459D01*
G01X1229Y19473D01*
G01X1215Y19486D01*
G01X1201Y19498D01*
G01X1187Y19509D01*
G01X1172Y19520D01*
G01X1156Y19531D01*
G01X1141Y19540D01*
G01X1124Y19549D01*
G01X1108Y19558D01*
G01X1091Y19565D01*
G01X1073Y19572D01*
G01X1056Y19578D01*
G01X1038Y19583D01*
G01X1002Y19591D01*
G01X983Y19594D01*
G01X965Y19596D01*
G01X946Y19597D01*
G37*
G36*
G01X4946Y19597D02*
G01X4928Y19598D01*
G01X4890Y19596D01*
G01X4872Y19594D01*
G01X4854Y19591D01*
G01X4835Y19587D01*
G01X4817Y19583D01*
G01X4799Y19578D01*
G01X4782Y19572D01*
G01X4748Y19558D01*
G01X4731Y19549D01*
G01X4699Y19531D01*
G01X4683Y19520D01*
G01X4668Y19509D01*
G01X4654Y19498D01*
G01X4640Y19486D01*
G01X4626Y19473D01*
G01X4614Y19459D01*
G01X4601Y19445D01*
G01X4590Y19431D01*
G01X4579Y19416D01*
G01X4568Y19400D01*
G01X4550Y19368D01*
G01X4542Y19352D01*
G01X4534Y19335D01*
G01X4527Y19317D01*
G01X4521Y19300D01*
G01X4516Y19282D01*
G01X4512Y19264D01*
G01X4508Y19245D01*
G01X4505Y19227D01*
G01X4503Y19209D01*
G01X4502Y19190D01*
G01X4502Y19153D01*
G01X4503Y19134D01*
G01X4505Y19116D01*
G01X4508Y19098D01*
G01X4512Y19079D01*
G01X4516Y19061D01*
G01X4521Y19043D01*
G01X4527Y19026D01*
G01X4534Y19008D01*
G01X4542Y18991D01*
G01X4550Y18975D01*
G01X4568Y18943D01*
G01X4579Y18927D01*
G01X4590Y18912D01*
G01X4601Y18898D01*
G01X4614Y18884D01*
G01X4626Y18870D01*
G01X4640Y18857D01*
G01X4654Y18845D01*
G01X4668Y18834D01*
G01X4683Y18823D01*
G01X4699Y18812D01*
G01X4731Y18794D01*
G01X4748Y18785D01*
G01X4782Y18771D01*
G01X4799Y18765D01*
G01X4817Y18760D01*
G01X4835Y18756D01*
G01X4854Y18752D01*
G01X4872Y18749D01*
G01X4890Y18747D01*
G01X4909Y18746D01*
G01X4946Y18746D01*
G01X4965Y18747D01*
G01X4983Y18749D01*
G01X5002Y18752D01*
G01X5038Y18760D01*
G01X5056Y18765D01*
G01X5073Y18771D01*
G01X5091Y18778D01*
G01X5108Y18785D01*
G01X5124Y18794D01*
G01X5141Y18803D01*
G01X5156Y18812D01*
G01X5172Y18823D01*
G01X5187Y18834D01*
G01X5201Y18845D01*
G01X5215Y18857D01*
G01X5229Y18870D01*
G01X5242Y18884D01*
G01X5266Y18912D01*
G01X5277Y18927D01*
G01X5297Y18959D01*
G01X5305Y18975D01*
G01X5314Y18991D01*
G01X5321Y19008D01*
G01X5328Y19026D01*
G01X5334Y19043D01*
G01X5344Y19079D01*
G01X5347Y19098D01*
G01X5350Y19116D01*
G01X5352Y19134D01*
G01X5353Y19153D01*
G01X5354Y19171D01*
G01X5352Y19209D01*
G01X5350Y19227D01*
G01X5347Y19245D01*
G01X5344Y19264D01*
G01X5334Y19300D01*
G01X5328Y19317D01*
G01X5321Y19335D01*
G01X5314Y19352D01*
G01X5305Y19368D01*
G01X5297Y19384D01*
G01X5277Y19416D01*
G01X5266Y19431D01*
G01X5242Y19459D01*
G01X5229Y19473D01*
G01X5215Y19486D01*
G01X5201Y19498D01*
G01X5187Y19509D01*
G01X5172Y19520D01*
G01X5156Y19531D01*
G01X5141Y19540D01*
G01X5124Y19549D01*
G01X5108Y19558D01*
G01X5091Y19565D01*
G01X5073Y19572D01*
G01X5056Y19578D01*
G01X5038Y19583D01*
G01X5002Y19591D01*
G01X4983Y19594D01*
G01X4965Y19596D01*
G01X4946Y19597D01*
G37*
G36*
G01X13218Y15125D02*
G01X13200Y15126D01*
G01X13162Y15124D01*
G01X13144Y15122D01*
G01X13126Y15119D01*
G01X13107Y15115D01*
G01X13089Y15111D01*
G01X13071Y15106D01*
G01X13054Y15100D01*
G01X13036Y15093D01*
G01X13019Y15086D01*
G01X13003Y15077D01*
G01X12986Y15068D01*
G01X12971Y15059D01*
G01X12955Y15048D01*
G01X12940Y15037D01*
G01X12926Y15026D01*
G01X12912Y15014D01*
G01X12898Y15001D01*
G01X12885Y14987D01*
G01X12873Y14973D01*
G01X12862Y14959D01*
G01X12851Y14944D01*
G01X12840Y14928D01*
G01X12831Y14913D01*
G01X12822Y14896D01*
G01X12813Y14880D01*
G01X12806Y14863D01*
G01X12799Y14845D01*
G01X12793Y14828D01*
G01X12788Y14810D01*
G01X12784Y14792D01*
G01X12780Y14773D01*
G01X12777Y14755D01*
G01X12775Y14737D01*
G01X12774Y14718D01*
G01X12773Y14700D01*
G01X12775Y14662D01*
G01X12777Y14644D01*
G01X12780Y14626D01*
G01X12784Y14607D01*
G01X12788Y14589D01*
G01X12793Y14571D01*
G01X12799Y14554D01*
G01X12806Y14536D01*
G01X12813Y14519D01*
G01X12822Y14503D01*
G01X12831Y14486D01*
G01X12840Y14471D01*
G01X12851Y14455D01*
G01X12862Y14440D01*
G01X12873Y14426D01*
G01X12885Y14412D01*
G01X12898Y14398D01*
G01X12912Y14385D01*
G01X12926Y14373D01*
G01X12940Y14362D01*
G01X12955Y14351D01*
G01X12971Y14340D01*
G01X12986Y14331D01*
G01X13003Y14322D01*
G01X13019Y14313D01*
G01X13036Y14306D01*
G01X13054Y14299D01*
G01X13071Y14293D01*
G01X13089Y14288D01*
G01X13107Y14284D01*
G01X13126Y14280D01*
G01X13144Y14277D01*
G01X13162Y14275D01*
G01X13200Y14273D01*
G01X13218Y14274D01*
G01X13237Y14275D01*
G01X13255Y14277D01*
G01X13273Y14280D01*
G01X13292Y14284D01*
G01X13310Y14288D01*
G01X13328Y14293D01*
G01X13345Y14299D01*
G01X13363Y14306D01*
G01X13380Y14313D01*
G01X13396Y14322D01*
G01X13413Y14331D01*
G01X13428Y14340D01*
G01X13444Y14351D01*
G01X13459Y14362D01*
G01X13473Y14373D01*
G01X13487Y14385D01*
G01X13501Y14398D01*
G01X13514Y14412D01*
G01X13526Y14426D01*
G01X13537Y14440D01*
G01X13548Y14455D01*
G01X13559Y14471D01*
G01X13568Y14486D01*
G01X13577Y14503D01*
G01X13586Y14519D01*
G01X13593Y14536D01*
G01X13600Y14554D01*
G01X13606Y14571D01*
G01X13611Y14589D01*
G01X13615Y14607D01*
G01X13619Y14626D01*
G01X13622Y14644D01*
G01X13624Y14662D01*
G01X13626Y14700D01*
G01X13625Y14718D01*
G01X13624Y14737D01*
G01X13622Y14755D01*
G01X13619Y14773D01*
G01X13615Y14792D01*
G01X13611Y14810D01*
G01X13606Y14828D01*
G01X13600Y14845D01*
G01X13593Y14863D01*
G01X13586Y14880D01*
G01X13577Y14896D01*
G01X13568Y14913D01*
G01X13559Y14928D01*
G01X13548Y14944D01*
G01X13537Y14959D01*
G01X13526Y14973D01*
G01X13514Y14987D01*
G01X13501Y15001D01*
G01X13487Y15014D01*
G01X13473Y15026D01*
G01X13459Y15037D01*
G01X13444Y15048D01*
G01X13428Y15059D01*
G01X13413Y15068D01*
G01X13396Y15077D01*
G01X13380Y15086D01*
G01X13363Y15093D01*
G01X13345Y15100D01*
G01X13328Y15106D01*
G01X13310Y15111D01*
G01X13292Y15115D01*
G01X13273Y15119D01*
G01X13255Y15122D01*
G01X13237Y15124D01*
G01X13218Y15125D01*
G37*
G36*
G01X2946Y19597D02*
G01X2928Y19598D01*
G01X2890Y19596D01*
G01X2872Y19594D01*
G01X2854Y19591D01*
G01X2835Y19587D01*
G01X2817Y19583D01*
G01X2799Y19578D01*
G01X2782Y19572D01*
G01X2748Y19558D01*
G01X2731Y19549D01*
G01X2699Y19531D01*
G01X2683Y19520D01*
G01X2668Y19509D01*
G01X2654Y19498D01*
G01X2640Y19486D01*
G01X2626Y19473D01*
G01X2614Y19459D01*
G01X2601Y19445D01*
G01X2590Y19431D01*
G01X2579Y19416D01*
G01X2568Y19400D01*
G01X2550Y19368D01*
G01X2542Y19352D01*
G01X2534Y19335D01*
G01X2527Y19317D01*
G01X2521Y19300D01*
G01X2516Y19282D01*
G01X2512Y19264D01*
G01X2508Y19245D01*
G01X2505Y19227D01*
G01X2503Y19209D01*
G01X2502Y19190D01*
G01X2502Y19153D01*
G01X2503Y19134D01*
G01X2505Y19116D01*
G01X2508Y19098D01*
G01X2512Y19079D01*
G01X2516Y19061D01*
G01X2521Y19043D01*
G01X2527Y19026D01*
G01X2534Y19008D01*
G01X2542Y18991D01*
G01X2550Y18975D01*
G01X2568Y18943D01*
G01X2579Y18927D01*
G01X2590Y18912D01*
G01X2601Y18898D01*
G01X2614Y18884D01*
G01X2626Y18870D01*
G01X2640Y18857D01*
G01X2654Y18845D01*
G01X2668Y18834D01*
G01X2683Y18823D01*
G01X2699Y18812D01*
G01X2731Y18794D01*
G01X2748Y18785D01*
G01X2782Y18771D01*
G01X2799Y18765D01*
G01X2817Y18760D01*
G01X2835Y18756D01*
G01X2854Y18752D01*
G01X2872Y18749D01*
G01X2890Y18747D01*
G01X2909Y18746D01*
G01X2946Y18746D01*
G01X2965Y18747D01*
G01X2983Y18749D01*
G01X3002Y18752D01*
G01X3038Y18760D01*
G01X3056Y18765D01*
G01X3073Y18771D01*
G01X3091Y18778D01*
G01X3108Y18785D01*
G01X3124Y18794D01*
G01X3141Y18803D01*
G01X3156Y18812D01*
G01X3172Y18823D01*
G01X3187Y18834D01*
G01X3201Y18845D01*
G01X3215Y18857D01*
G01X3229Y18870D01*
G01X3242Y18884D01*
G01X3266Y18912D01*
G01X3277Y18927D01*
G01X3297Y18959D01*
G01X3305Y18975D01*
G01X3314Y18991D01*
G01X3321Y19008D01*
G01X3328Y19026D01*
G01X3334Y19043D01*
G01X3344Y19079D01*
G01X3347Y19098D01*
G01X3350Y19116D01*
G01X3352Y19134D01*
G01X3353Y19153D01*
G01X3354Y19171D01*
G01X3352Y19209D01*
G01X3350Y19227D01*
G01X3347Y19245D01*
G01X3344Y19264D01*
G01X3334Y19300D01*
G01X3328Y19317D01*
G01X3321Y19335D01*
G01X3314Y19352D01*
G01X3305Y19368D01*
G01X3297Y19384D01*
G01X3277Y19416D01*
G01X3266Y19431D01*
G01X3242Y19459D01*
G01X3229Y19473D01*
G01X3215Y19486D01*
G01X3201Y19498D01*
G01X3187Y19509D01*
G01X3172Y19520D01*
G01X3156Y19531D01*
G01X3141Y19540D01*
G01X3124Y19549D01*
G01X3108Y19558D01*
G01X3091Y19565D01*
G01X3073Y19572D01*
G01X3056Y19578D01*
G01X3038Y19583D01*
G01X3002Y19591D01*
G01X2983Y19594D01*
G01X2965Y19596D01*
G01X2946Y19597D01*
G37*
G36*
G01X13218Y16125D02*
G01X13200Y16126D01*
G01X13162Y16124D01*
G01X13144Y16122D01*
G01X13126Y16119D01*
G01X13107Y16115D01*
G01X13089Y16111D01*
G01X13071Y16106D01*
G01X13054Y16100D01*
G01X13036Y16093D01*
G01X13019Y16086D01*
G01X13003Y16077D01*
G01X12986Y16068D01*
G01X12971Y16059D01*
G01X12955Y16048D01*
G01X12940Y16037D01*
G01X12926Y16026D01*
G01X12912Y16014D01*
G01X12898Y16001D01*
G01X12885Y15987D01*
G01X12873Y15973D01*
G01X12862Y15959D01*
G01X12851Y15944D01*
G01X12840Y15928D01*
G01X12831Y15913D01*
G01X12822Y15896D01*
G01X12813Y15880D01*
G01X12806Y15863D01*
G01X12799Y15845D01*
G01X12793Y15828D01*
G01X12788Y15810D01*
G01X12784Y15792D01*
G01X12780Y15773D01*
G01X12777Y15755D01*
G01X12775Y15737D01*
G01X12773Y15699D01*
G01X12775Y15662D01*
G01X12777Y15644D01*
G01X12780Y15626D01*
G01X12784Y15607D01*
G01X12788Y15589D01*
G01X12793Y15571D01*
G01X12799Y15554D01*
G01X12806Y15536D01*
G01X12813Y15519D01*
G01X12822Y15503D01*
G01X12831Y15486D01*
G01X12840Y15471D01*
G01X12851Y15455D01*
G01X12862Y15440D01*
G01X12873Y15426D01*
G01X12885Y15412D01*
G01X12898Y15398D01*
G01X12912Y15385D01*
G01X12926Y15373D01*
G01X12940Y15362D01*
G01X12955Y15351D01*
G01X12971Y15340D01*
G01X12986Y15331D01*
G01X13003Y15322D01*
G01X13019Y15313D01*
G01X13036Y15306D01*
G01X13054Y15299D01*
G01X13071Y15293D01*
G01X13089Y15288D01*
G01X13107Y15284D01*
G01X13126Y15280D01*
G01X13144Y15277D01*
G01X13162Y15275D01*
G01X13200Y15273D01*
G01X13218Y15274D01*
G01X13237Y15275D01*
G01X13255Y15277D01*
G01X13273Y15280D01*
G01X13292Y15284D01*
G01X13310Y15288D01*
G01X13328Y15293D01*
G01X13345Y15299D01*
G01X13363Y15306D01*
G01X13380Y15313D01*
G01X13396Y15322D01*
G01X13413Y15331D01*
G01X13428Y15340D01*
G01X13444Y15351D01*
G01X13459Y15362D01*
G01X13473Y15373D01*
G01X13487Y15385D01*
G01X13501Y15398D01*
G01X13514Y15412D01*
G01X13526Y15426D01*
G01X13537Y15440D01*
G01X13548Y15455D01*
G01X13559Y15471D01*
G01X13568Y15486D01*
G01X13577Y15503D01*
G01X13586Y15519D01*
G01X13593Y15536D01*
G01X13600Y15554D01*
G01X13606Y15571D01*
G01X13611Y15589D01*
G01X13615Y15607D01*
G01X13619Y15626D01*
G01X13622Y15644D01*
G01X13624Y15662D01*
G01X13626Y15700D01*
G01X13625Y15718D01*
G01X13624Y15737D01*
G01X13622Y15755D01*
G01X13619Y15773D01*
G01X13615Y15792D01*
G01X13611Y15810D01*
G01X13606Y15828D01*
G01X13600Y15845D01*
G01X13593Y15863D01*
G01X13586Y15880D01*
G01X13577Y15896D01*
G01X13568Y15913D01*
G01X13559Y15928D01*
G01X13548Y15944D01*
G01X13537Y15959D01*
G01X13526Y15973D01*
G01X13514Y15987D01*
G01X13501Y16001D01*
G01X13487Y16014D01*
G01X13473Y16026D01*
G01X13459Y16037D01*
G01X13444Y16048D01*
G01X13428Y16059D01*
G01X13413Y16068D01*
G01X13396Y16077D01*
G01X13380Y16086D01*
G01X13363Y16093D01*
G01X13345Y16100D01*
G01X13328Y16106D01*
G01X13310Y16111D01*
G01X13292Y16115D01*
G01X13273Y16119D01*
G01X13255Y16122D01*
G01X13237Y16124D01*
G01X13218Y16125D01*
G37*
G36*
G01X1946Y19597D02*
G01X1928Y19598D01*
G01X1890Y19596D01*
G01X1872Y19594D01*
G01X1854Y19591D01*
G01X1835Y19587D01*
G01X1817Y19583D01*
G01X1799Y19578D01*
G01X1782Y19572D01*
G01X1748Y19558D01*
G01X1731Y19549D01*
G01X1699Y19531D01*
G01X1683Y19520D01*
G01X1668Y19509D01*
G01X1654Y19498D01*
G01X1640Y19486D01*
G01X1626Y19473D01*
G01X1614Y19459D01*
G01X1601Y19445D01*
G01X1590Y19431D01*
G01X1579Y19416D01*
G01X1568Y19400D01*
G01X1550Y19368D01*
G01X1542Y19352D01*
G01X1534Y19335D01*
G01X1527Y19317D01*
G01X1521Y19300D01*
G01X1516Y19282D01*
G01X1512Y19264D01*
G01X1508Y19245D01*
G01X1505Y19227D01*
G01X1503Y19209D01*
G01X1502Y19190D01*
G01X1502Y19153D01*
G01X1503Y19134D01*
G01X1505Y19116D01*
G01X1508Y19098D01*
G01X1512Y19079D01*
G01X1516Y19061D01*
G01X1521Y19043D01*
G01X1527Y19026D01*
G01X1534Y19008D01*
G01X1542Y18991D01*
G01X1550Y18975D01*
G01X1568Y18943D01*
G01X1579Y18927D01*
G01X1590Y18912D01*
G01X1601Y18898D01*
G01X1614Y18884D01*
G01X1626Y18870D01*
G01X1640Y18857D01*
G01X1654Y18845D01*
G01X1668Y18834D01*
G01X1683Y18823D01*
G01X1699Y18812D01*
G01X1731Y18794D01*
G01X1748Y18785D01*
G01X1782Y18771D01*
G01X1799Y18765D01*
G01X1817Y18760D01*
G01X1835Y18756D01*
G01X1854Y18752D01*
G01X1872Y18749D01*
G01X1890Y18747D01*
G01X1909Y18746D01*
G01X1946Y18746D01*
G01X1965Y18747D01*
G01X1983Y18749D01*
G01X2002Y18752D01*
G01X2038Y18760D01*
G01X2056Y18765D01*
G01X2073Y18771D01*
G01X2091Y18778D01*
G01X2108Y18785D01*
G01X2124Y18794D01*
G01X2141Y18803D01*
G01X2156Y18812D01*
G01X2172Y18823D01*
G01X2187Y18834D01*
G01X2201Y18845D01*
G01X2215Y18857D01*
G01X2229Y18870D01*
G01X2242Y18884D01*
G01X2266Y18912D01*
G01X2277Y18927D01*
G01X2297Y18959D01*
G01X2305Y18975D01*
G01X2314Y18991D01*
G01X2321Y19008D01*
G01X2328Y19026D01*
G01X2334Y19043D01*
G01X2344Y19079D01*
G01X2347Y19098D01*
G01X2350Y19116D01*
G01X2352Y19134D01*
G01X2353Y19153D01*
G01X2354Y19171D01*
G01X2352Y19209D01*
G01X2350Y19227D01*
G01X2347Y19245D01*
G01X2344Y19264D01*
G01X2334Y19300D01*
G01X2328Y19317D01*
G01X2321Y19335D01*
G01X2314Y19352D01*
G01X2305Y19368D01*
G01X2297Y19384D01*
G01X2277Y19416D01*
G01X2266Y19431D01*
G01X2242Y19459D01*
G01X2229Y19473D01*
G01X2215Y19486D01*
G01X2201Y19498D01*
G01X2187Y19509D01*
G01X2172Y19520D01*
G01X2156Y19531D01*
G01X2141Y19540D01*
G01X2124Y19549D01*
G01X2108Y19558D01*
G01X2091Y19565D01*
G01X2073Y19572D01*
G01X2056Y19578D01*
G01X2038Y19583D01*
G01X2002Y19591D01*
G01X1983Y19594D01*
G01X1965Y19596D01*
G01X1946Y19597D01*
G37*
G36*
G01X9946Y19597D02*
G01X9928Y19598D01*
G01X9890Y19596D01*
G01X9872Y19594D01*
G01X9854Y19591D01*
G01X9835Y19587D01*
G01X9817Y19583D01*
G01X9799Y19578D01*
G01X9782Y19572D01*
G01X9748Y19558D01*
G01X9731Y19549D01*
G01X9699Y19531D01*
G01X9683Y19520D01*
G01X9668Y19509D01*
G01X9654Y19498D01*
G01X9640Y19486D01*
G01X9626Y19473D01*
G01X9614Y19459D01*
G01X9601Y19445D01*
G01X9590Y19431D01*
G01X9579Y19416D01*
G01X9568Y19400D01*
G01X9550Y19368D01*
G01X9542Y19352D01*
G01X9534Y19335D01*
G01X9527Y19317D01*
G01X9521Y19300D01*
G01X9516Y19282D01*
G01X9512Y19264D01*
G01X9508Y19245D01*
G01X9505Y19227D01*
G01X9503Y19209D01*
G01X9502Y19190D01*
G01X9502Y19153D01*
G01X9503Y19134D01*
G01X9505Y19116D01*
G01X9508Y19098D01*
G01X9512Y19079D01*
G01X9516Y19061D01*
G01X9521Y19043D01*
G01X9527Y19026D01*
G01X9534Y19008D01*
G01X9542Y18991D01*
G01X9550Y18975D01*
G01X9568Y18943D01*
G01X9579Y18927D01*
G01X9590Y18912D01*
G01X9601Y18898D01*
G01X9614Y18884D01*
G01X9626Y18870D01*
G01X9640Y18857D01*
G01X9654Y18845D01*
G01X9668Y18834D01*
G01X9683Y18823D01*
G01X9699Y18812D01*
G01X9731Y18794D01*
G01X9748Y18785D01*
G01X9782Y18771D01*
G01X9799Y18765D01*
G01X9817Y18760D01*
G01X9835Y18756D01*
G01X9854Y18752D01*
G01X9872Y18749D01*
G01X9890Y18747D01*
G01X9909Y18746D01*
G01X9946Y18746D01*
G01X9965Y18747D01*
G01X9983Y18749D01*
G01X10002Y18752D01*
G01X10038Y18760D01*
G01X10056Y18765D01*
G01X10073Y18771D01*
G01X10091Y18778D01*
G01X10108Y18785D01*
G01X10124Y18794D01*
G01X10141Y18803D01*
G01X10156Y18812D01*
G01X10172Y18823D01*
G01X10187Y18834D01*
G01X10201Y18845D01*
G01X10215Y18857D01*
G01X10229Y18870D01*
G01X10242Y18884D01*
G01X10266Y18912D01*
G01X10277Y18927D01*
G01X10297Y18959D01*
G01X10305Y18975D01*
G01X10314Y18991D01*
G01X10321Y19008D01*
G01X10328Y19026D01*
G01X10334Y19043D01*
G01X10344Y19079D01*
G01X10347Y19098D01*
G01X10350Y19116D01*
G01X10352Y19134D01*
G01X10353Y19153D01*
G01X10354Y19171D01*
G01X10352Y19209D01*
G01X10350Y19227D01*
G01X10347Y19245D01*
G01X10344Y19264D01*
G01X10334Y19300D01*
G01X10328Y19317D01*
G01X10321Y19335D01*
G01X10314Y19352D01*
G01X10305Y19368D01*
G01X10297Y19384D01*
G01X10277Y19416D01*
G01X10266Y19431D01*
G01X10242Y19459D01*
G01X10229Y19473D01*
G01X10215Y19486D01*
G01X10201Y19498D01*
G01X10187Y19509D01*
G01X10172Y19520D01*
G01X10156Y19531D01*
G01X10141Y19540D01*
G01X10124Y19549D01*
G01X10108Y19558D01*
G01X10091Y19565D01*
G01X10073Y19572D01*
G01X10056Y19578D01*
G01X10038Y19583D01*
G01X10002Y19591D01*
G01X9983Y19594D01*
G01X9965Y19596D01*
G01X9946Y19597D01*
G37*
G36*
G01X5946Y19597D02*
G01X5928Y19598D01*
G01X5890Y19596D01*
G01X5872Y19594D01*
G01X5854Y19591D01*
G01X5835Y19587D01*
G01X5817Y19583D01*
G01X5799Y19578D01*
G01X5782Y19572D01*
G01X5748Y19558D01*
G01X5731Y19549D01*
G01X5699Y19531D01*
G01X5683Y19520D01*
G01X5668Y19509D01*
G01X5654Y19498D01*
G01X5640Y19486D01*
G01X5626Y19473D01*
G01X5614Y19459D01*
G01X5601Y19445D01*
G01X5590Y19431D01*
G01X5579Y19416D01*
G01X5568Y19400D01*
G01X5550Y19368D01*
G01X5542Y19352D01*
G01X5534Y19335D01*
G01X5527Y19317D01*
G01X5521Y19300D01*
G01X5516Y19282D01*
G01X5512Y19264D01*
G01X5508Y19245D01*
G01X5505Y19227D01*
G01X5503Y19209D01*
G01X5502Y19190D01*
G01X5502Y19153D01*
G01X5503Y19134D01*
G01X5505Y19116D01*
G01X5508Y19098D01*
G01X5512Y19079D01*
G01X5516Y19061D01*
G01X5521Y19043D01*
G01X5527Y19026D01*
G01X5534Y19008D01*
G01X5542Y18991D01*
G01X5550Y18975D01*
G01X5568Y18943D01*
G01X5579Y18927D01*
G01X5590Y18912D01*
G01X5601Y18898D01*
G01X5614Y18884D01*
G01X5626Y18870D01*
G01X5640Y18857D01*
G01X5654Y18845D01*
G01X5668Y18834D01*
G01X5683Y18823D01*
G01X5699Y18812D01*
G01X5731Y18794D01*
G01X5748Y18785D01*
G01X5782Y18771D01*
G01X5799Y18765D01*
G01X5817Y18760D01*
G01X5835Y18756D01*
G01X5854Y18752D01*
G01X5872Y18749D01*
G01X5890Y18747D01*
G01X5909Y18746D01*
G01X5946Y18746D01*
G01X5965Y18747D01*
G01X5983Y18749D01*
G01X6002Y18752D01*
G01X6038Y18760D01*
G01X6056Y18765D01*
G01X6073Y18771D01*
G01X6091Y18778D01*
G01X6108Y18785D01*
G01X6124Y18794D01*
G01X6141Y18803D01*
G01X6156Y18812D01*
G01X6172Y18823D01*
G01X6187Y18834D01*
G01X6201Y18845D01*
G01X6215Y18857D01*
G01X6229Y18870D01*
G01X6242Y18884D01*
G01X6266Y18912D01*
G01X6277Y18927D01*
G01X6297Y18959D01*
G01X6305Y18975D01*
G01X6314Y18991D01*
G01X6321Y19008D01*
G01X6328Y19026D01*
G01X6334Y19043D01*
G01X6344Y19079D01*
G01X6347Y19098D01*
G01X6350Y19116D01*
G01X6352Y19134D01*
G01X6353Y19153D01*
G01X6354Y19171D01*
G01X6352Y19209D01*
G01X6350Y19227D01*
G01X6347Y19245D01*
G01X6344Y19264D01*
G01X6334Y19300D01*
G01X6328Y19317D01*
G01X6321Y19335D01*
G01X6314Y19352D01*
G01X6305Y19368D01*
G01X6297Y19384D01*
G01X6277Y19416D01*
G01X6266Y19431D01*
G01X6242Y19459D01*
G01X6229Y19473D01*
G01X6215Y19486D01*
G01X6201Y19498D01*
G01X6187Y19509D01*
G01X6172Y19520D01*
G01X6156Y19531D01*
G01X6141Y19540D01*
G01X6124Y19549D01*
G01X6108Y19558D01*
G01X6091Y19565D01*
G01X6073Y19572D01*
G01X6056Y19578D01*
G01X6038Y19583D01*
G01X6002Y19591D01*
G01X5983Y19594D01*
G01X5965Y19596D01*
G01X5946Y19597D01*
G37*
G36*
G01X1946Y25597D02*
G01X1928Y25598D01*
G01X1890Y25596D01*
G01X1872Y25594D01*
G01X1854Y25591D01*
G01X1835Y25587D01*
G01X1817Y25583D01*
G01X1799Y25578D01*
G01X1782Y25572D01*
G01X1748Y25558D01*
G01X1731Y25549D01*
G01X1699Y25531D01*
G01X1683Y25520D01*
G01X1668Y25509D01*
G01X1654Y25498D01*
G01X1640Y25486D01*
G01X1626Y25473D01*
G01X1614Y25459D01*
G01X1601Y25445D01*
G01X1590Y25431D01*
G01X1579Y25416D01*
G01X1568Y25400D01*
G01X1550Y25368D01*
G01X1542Y25352D01*
G01X1534Y25335D01*
G01X1527Y25317D01*
G01X1521Y25300D01*
G01X1516Y25282D01*
G01X1512Y25264D01*
G01X1508Y25245D01*
G01X1505Y25227D01*
G01X1503Y25209D01*
G01X1502Y25190D01*
G01X1502Y25153D01*
G01X1503Y25134D01*
G01X1505Y25116D01*
G01X1508Y25098D01*
G01X1512Y25079D01*
G01X1516Y25061D01*
G01X1521Y25043D01*
G01X1527Y25026D01*
G01X1534Y25008D01*
G01X1542Y24991D01*
G01X1550Y24975D01*
G01X1568Y24943D01*
G01X1579Y24927D01*
G01X1590Y24912D01*
G01X1601Y24898D01*
G01X1614Y24884D01*
G01X1626Y24870D01*
G01X1640Y24857D01*
G01X1654Y24845D01*
G01X1668Y24834D01*
G01X1683Y24823D01*
G01X1699Y24812D01*
G01X1731Y24794D01*
G01X1748Y24785D01*
G01X1782Y24771D01*
G01X1799Y24765D01*
G01X1817Y24760D01*
G01X1835Y24756D01*
G01X1854Y24752D01*
G01X1872Y24749D01*
G01X1890Y24747D01*
G01X1909Y24746D01*
G01X1946Y24746D01*
G01X1965Y24747D01*
G01X1983Y24749D01*
G01X2002Y24752D01*
G01X2038Y24760D01*
G01X2056Y24765D01*
G01X2073Y24771D01*
G01X2091Y24778D01*
G01X2108Y24785D01*
G01X2124Y24794D01*
G01X2141Y24803D01*
G01X2156Y24812D01*
G01X2172Y24823D01*
G01X2187Y24834D01*
G01X2201Y24845D01*
G01X2215Y24857D01*
G01X2229Y24870D01*
G01X2242Y24884D01*
G01X2266Y24912D01*
G01X2277Y24927D01*
G01X2297Y24959D01*
G01X2305Y24975D01*
G01X2314Y24991D01*
G01X2321Y25008D01*
G01X2328Y25026D01*
G01X2334Y25043D01*
G01X2344Y25079D01*
G01X2347Y25098D01*
G01X2350Y25116D01*
G01X2352Y25134D01*
G01X2353Y25153D01*
G01X2354Y25171D01*
G01X2352Y25209D01*
G01X2350Y25227D01*
G01X2347Y25245D01*
G01X2344Y25264D01*
G01X2334Y25300D01*
G01X2328Y25317D01*
G01X2321Y25335D01*
G01X2314Y25352D01*
G01X2305Y25368D01*
G01X2297Y25384D01*
G01X2277Y25416D01*
G01X2266Y25431D01*
G01X2242Y25459D01*
G01X2229Y25473D01*
G01X2215Y25486D01*
G01X2201Y25498D01*
G01X2187Y25509D01*
G01X2172Y25520D01*
G01X2156Y25531D01*
G01X2141Y25540D01*
G01X2124Y25549D01*
G01X2108Y25558D01*
G01X2091Y25565D01*
G01X2073Y25572D01*
G01X2056Y25578D01*
G01X2038Y25583D01*
G01X2002Y25591D01*
G01X1983Y25594D01*
G01X1965Y25596D01*
G01X1946Y25597D01*
G37*
G36*
G01X7446Y20597D02*
G01X7428Y20598D01*
G01X7390Y20596D01*
G01X7372Y20594D01*
G01X7354Y20591D01*
G01X7335Y20587D01*
G01X7317Y20583D01*
G01X7299Y20578D01*
G01X7282Y20572D01*
G01X7248Y20558D01*
G01X7231Y20549D01*
G01X7199Y20531D01*
G01X7183Y20520D01*
G01X7168Y20509D01*
G01X7154Y20498D01*
G01X7140Y20486D01*
G01X7126Y20473D01*
G01X7114Y20459D01*
G01X7101Y20445D01*
G01X7090Y20431D01*
G01X7079Y20416D01*
G01X7068Y20400D01*
G01X7050Y20368D01*
G01X7042Y20352D01*
G01X7034Y20335D01*
G01X7027Y20317D01*
G01X7021Y20300D01*
G01X7016Y20282D01*
G01X7012Y20264D01*
G01X7008Y20245D01*
G01X7005Y20227D01*
G01X7003Y20209D01*
G01X7002Y20190D01*
G01X7002Y20153D01*
G01X7003Y20134D01*
G01X7005Y20116D01*
G01X7008Y20098D01*
G01X7012Y20079D01*
G01X7016Y20061D01*
G01X7021Y20043D01*
G01X7027Y20026D01*
G01X7034Y20008D01*
G01X7042Y19991D01*
G01X7050Y19975D01*
G01X7068Y19943D01*
G01X7079Y19927D01*
G01X7090Y19912D01*
G01X7101Y19898D01*
G01X7114Y19884D01*
G01X7126Y19870D01*
G01X7140Y19857D01*
G01X7154Y19845D01*
G01X7168Y19834D01*
G01X7183Y19823D01*
G01X7199Y19812D01*
G01X7231Y19794D01*
G01X7248Y19785D01*
G01X7282Y19771D01*
G01X7299Y19765D01*
G01X7317Y19760D01*
G01X7335Y19756D01*
G01X7354Y19752D01*
G01X7372Y19749D01*
G01X7390Y19747D01*
G01X7409Y19746D01*
G01X7446Y19746D01*
G01X7465Y19747D01*
G01X7483Y19749D01*
G01X7502Y19752D01*
G01X7538Y19760D01*
G01X7556Y19765D01*
G01X7573Y19771D01*
G01X7591Y19778D01*
G01X7608Y19785D01*
G01X7624Y19794D01*
G01X7641Y19803D01*
G01X7656Y19812D01*
G01X7672Y19823D01*
G01X7687Y19834D01*
G01X7701Y19845D01*
G01X7715Y19857D01*
G01X7729Y19870D01*
G01X7742Y19884D01*
G01X7766Y19912D01*
G01X7777Y19927D01*
G01X7797Y19959D01*
G01X7805Y19975D01*
G01X7814Y19991D01*
G01X7821Y20008D01*
G01X7828Y20026D01*
G01X7834Y20043D01*
G01X7844Y20079D01*
G01X7847Y20098D01*
G01X7850Y20116D01*
G01X7852Y20134D01*
G01X7853Y20153D01*
G01X7854Y20171D01*
G01X7852Y20209D01*
G01X7850Y20227D01*
G01X7847Y20245D01*
G01X7844Y20264D01*
G01X7834Y20300D01*
G01X7828Y20317D01*
G01X7821Y20335D01*
G01X7814Y20352D01*
G01X7805Y20368D01*
G01X7797Y20384D01*
G01X7777Y20416D01*
G01X7766Y20431D01*
G01X7742Y20459D01*
G01X7729Y20473D01*
G01X7715Y20486D01*
G01X7701Y20498D01*
G01X7687Y20509D01*
G01X7672Y20520D01*
G01X7656Y20531D01*
G01X7641Y20540D01*
G01X7624Y20549D01*
G01X7608Y20558D01*
G01X7591Y20565D01*
G01X7573Y20572D01*
G01X7556Y20578D01*
G01X7538Y20583D01*
G01X7502Y20591D01*
G01X7483Y20594D01*
G01X7465Y20596D01*
G01X7446Y20597D01*
G37*
G36*
G01X10946Y25597D02*
G01X10928Y25598D01*
G01X10890Y25596D01*
G01X10872Y25594D01*
G01X10854Y25591D01*
G01X10835Y25587D01*
G01X10817Y25583D01*
G01X10799Y25578D01*
G01X10782Y25572D01*
G01X10748Y25558D01*
G01X10731Y25549D01*
G01X10699Y25531D01*
G01X10683Y25520D01*
G01X10668Y25509D01*
G01X10654Y25498D01*
G01X10640Y25486D01*
G01X10626Y25473D01*
G01X10614Y25459D01*
G01X10601Y25445D01*
G01X10590Y25431D01*
G01X10579Y25416D01*
G01X10568Y25400D01*
G01X10550Y25368D01*
G01X10542Y25352D01*
G01X10534Y25335D01*
G01X10527Y25317D01*
G01X10521Y25300D01*
G01X10516Y25282D01*
G01X10512Y25264D01*
G01X10508Y25245D01*
G01X10505Y25227D01*
G01X10503Y25209D01*
G01X10502Y25190D01*
G01X10502Y25153D01*
G01X10503Y25134D01*
G01X10505Y25116D01*
G01X10508Y25098D01*
G01X10512Y25079D01*
G01X10516Y25061D01*
G01X10521Y25043D01*
G01X10527Y25026D01*
G01X10534Y25008D01*
G01X10542Y24991D01*
G01X10550Y24975D01*
G01X10568Y24943D01*
G01X10579Y24927D01*
G01X10590Y24912D01*
G01X10601Y24898D01*
G01X10614Y24884D01*
G01X10626Y24870D01*
G01X10640Y24857D01*
G01X10654Y24845D01*
G01X10668Y24834D01*
G01X10683Y24823D01*
G01X10699Y24812D01*
G01X10731Y24794D01*
G01X10748Y24785D01*
G01X10782Y24771D01*
G01X10799Y24765D01*
G01X10817Y24760D01*
G01X10835Y24756D01*
G01X10854Y24752D01*
G01X10872Y24749D01*
G01X10890Y24747D01*
G01X10909Y24746D01*
G01X10946Y24746D01*
G01X10965Y24747D01*
G01X10983Y24749D01*
G01X11002Y24752D01*
G01X11038Y24760D01*
G01X11056Y24765D01*
G01X11073Y24771D01*
G01X11091Y24778D01*
G01X11108Y24785D01*
G01X11124Y24794D01*
G01X11141Y24803D01*
G01X11156Y24812D01*
G01X11172Y24823D01*
G01X11187Y24834D01*
G01X11201Y24845D01*
G01X11215Y24857D01*
G01X11229Y24870D01*
G01X11242Y24884D01*
G01X11266Y24912D01*
G01X11277Y24927D01*
G01X11297Y24959D01*
G01X11305Y24975D01*
G01X11314Y24991D01*
G01X11321Y25008D01*
G01X11328Y25026D01*
G01X11334Y25043D01*
G01X11344Y25079D01*
G01X11347Y25098D01*
G01X11350Y25116D01*
G01X11352Y25134D01*
G01X11353Y25153D01*
G01X11354Y25171D01*
G01X11352Y25209D01*
G01X11350Y25227D01*
G01X11347Y25245D01*
G01X11344Y25264D01*
G01X11334Y25300D01*
G01X11328Y25317D01*
G01X11321Y25335D01*
G01X11314Y25352D01*
G01X11305Y25368D01*
G01X11297Y25384D01*
G01X11277Y25416D01*
G01X11266Y25431D01*
G01X11242Y25459D01*
G01X11229Y25473D01*
G01X11215Y25486D01*
G01X11201Y25498D01*
G01X11187Y25509D01*
G01X11172Y25520D01*
G01X11156Y25531D01*
G01X11141Y25540D01*
G01X11124Y25549D01*
G01X11108Y25558D01*
G01X11091Y25565D01*
G01X11073Y25572D01*
G01X11056Y25578D01*
G01X11038Y25583D01*
G01X11002Y25591D01*
G01X10983Y25594D01*
G01X10965Y25596D01*
G01X10946Y25597D01*
G37*
G36*
G01X3417Y10800D02*
G01X3400Y10801D01*
G01X3364Y10799D01*
G01X3346Y10797D01*
G01X3328Y10794D01*
G01X3310Y10790D01*
G01X3293Y10786D01*
G01X3276Y10781D01*
G01X3259Y10775D01*
G01X3242Y10768D01*
G01X3226Y10761D01*
G01X3209Y10753D01*
G01X3194Y10744D01*
G01X3164Y10724D01*
G01X3149Y10713D01*
G01X3136Y10701D01*
G01X3122Y10689D01*
G01X3110Y10677D01*
G01X3098Y10663D01*
G01X3086Y10650D01*
G01X3075Y10635D01*
G01X3055Y10605D01*
G01X3046Y10590D01*
G01X3038Y10573D01*
G01X3031Y10557D01*
G01X3024Y10540D01*
G01X3018Y10523D01*
G01X3013Y10506D01*
G01X3009Y10489D01*
G01X3005Y10471D01*
G01X3002Y10453D01*
G01X3000Y10435D01*
G01X2999Y10417D01*
G01X2998Y10400D01*
G01X3000Y10364D01*
G01X3002Y10346D01*
G01X3005Y10328D01*
G01X3009Y10310D01*
G01X3013Y10293D01*
G01X3018Y10276D01*
G01X3024Y10259D01*
G01X3031Y10242D01*
G01X3038Y10226D01*
G01X3046Y10209D01*
G01X3055Y10194D01*
G01X3075Y10164D01*
G01X3086Y10149D01*
G01X3098Y10136D01*
G01X3110Y10122D01*
G01X3122Y10110D01*
G01X3136Y10098D01*
G01X3149Y10086D01*
G01X3164Y10075D01*
G01X3194Y10055D01*
G01X3209Y10046D01*
G01X3226Y10038D01*
G01X3242Y10031D01*
G01X3259Y10024D01*
G01X3276Y10018D01*
G01X3293Y10013D01*
G01X3310Y10009D01*
G01X3328Y10005D01*
G01X3346Y10002D01*
G01X3364Y10000D01*
G01X3400Y9998D01*
G01X3417Y9999D01*
G01X3435Y10000D01*
G01X3453Y10002D01*
G01X3471Y10005D01*
G01X3489Y10009D01*
G01X3506Y10013D01*
G01X3523Y10018D01*
G01X3540Y10024D01*
G01X3557Y10031D01*
G01X3573Y10038D01*
G01X3590Y10046D01*
G01X3605Y10055D01*
G01X3635Y10075D01*
G01X3650Y10086D01*
G01X3663Y10098D01*
G01X3677Y10110D01*
G01X3689Y10122D01*
G01X3701Y10136D01*
G01X3713Y10149D01*
G01X3724Y10164D01*
G01X3744Y10194D01*
G01X3753Y10209D01*
G01X3761Y10226D01*
G01X3768Y10242D01*
G01X3775Y10259D01*
G01X3781Y10276D01*
G01X3786Y10293D01*
G01X3790Y10310D01*
G01X3794Y10328D01*
G01X3797Y10346D01*
G01X3799Y10364D01*
G01X3801Y10400D01*
G01X3800Y10417D01*
G01X3799Y10435D01*
G01X3797Y10453D01*
G01X3794Y10471D01*
G01X3790Y10489D01*
G01X3786Y10506D01*
G01X3781Y10523D01*
G01X3775Y10540D01*
G01X3768Y10557D01*
G01X3761Y10573D01*
G01X3753Y10590D01*
G01X3744Y10605D01*
G01X3724Y10635D01*
G01X3713Y10650D01*
G01X3701Y10663D01*
G01X3689Y10677D01*
G01X3677Y10689D01*
G01X3663Y10701D01*
G01X3650Y10713D01*
G01X3635Y10724D01*
G01X3605Y10744D01*
G01X3590Y10753D01*
G01X3573Y10761D01*
G01X3557Y10768D01*
G01X3540Y10775D01*
G01X3523Y10781D01*
G01X3506Y10786D01*
G01X3489Y10790D01*
G01X3471Y10794D01*
G01X3453Y10797D01*
G01X3435Y10799D01*
G01X3417Y10800D01*
G37*
G36*
G01X9017Y13200D02*
G01X9000Y13201D01*
G01X8964Y13199D01*
G01X8946Y13197D01*
G01X8928Y13194D01*
G01X8910Y13190D01*
G01X8893Y13186D01*
G01X8876Y13181D01*
G01X8859Y13175D01*
G01X8842Y13168D01*
G01X8826Y13161D01*
G01X8809Y13153D01*
G01X8794Y13144D01*
G01X8764Y13124D01*
G01X8749Y13113D01*
G01X8736Y13101D01*
G01X8722Y13089D01*
G01X8710Y13077D01*
G01X8698Y13063D01*
G01X8686Y13050D01*
G01X8675Y13035D01*
G01X8655Y13005D01*
G01X8646Y12990D01*
G01X8638Y12973D01*
G01X8631Y12957D01*
G01X8624Y12940D01*
G01X8618Y12923D01*
G01X8613Y12906D01*
G01X8609Y12889D01*
G01X8605Y12871D01*
G01X8602Y12853D01*
G01X8600Y12835D01*
G01X8599Y12817D01*
G01X8598Y12800D01*
G01X8600Y12764D01*
G01X8602Y12746D01*
G01X8605Y12728D01*
G01X8609Y12710D01*
G01X8613Y12693D01*
G01X8618Y12676D01*
G01X8624Y12659D01*
G01X8631Y12642D01*
G01X8638Y12626D01*
G01X8646Y12609D01*
G01X8655Y12594D01*
G01X8675Y12564D01*
G01X8686Y12549D01*
G01X8698Y12536D01*
G01X8710Y12522D01*
G01X8722Y12510D01*
G01X8736Y12498D01*
G01X8749Y12486D01*
G01X8764Y12475D01*
G01X8794Y12455D01*
G01X8809Y12446D01*
G01X8826Y12438D01*
G01X8842Y12431D01*
G01X8859Y12424D01*
G01X8876Y12418D01*
G01X8893Y12413D01*
G01X8910Y12409D01*
G01X8928Y12405D01*
G01X8946Y12402D01*
G01X8964Y12400D01*
G01X9000Y12398D01*
G01X9017Y12399D01*
G01X9035Y12400D01*
G01X9053Y12402D01*
G01X9071Y12405D01*
G01X9089Y12409D01*
G01X9106Y12413D01*
G01X9123Y12418D01*
G01X9140Y12424D01*
G01X9157Y12431D01*
G01X9173Y12438D01*
G01X9190Y12446D01*
G01X9205Y12455D01*
G01X9235Y12475D01*
G01X9250Y12486D01*
G01X9263Y12498D01*
G01X9277Y12510D01*
G01X9289Y12522D01*
G01X9301Y12536D01*
G01X9313Y12549D01*
G01X9324Y12564D01*
G01X9344Y12594D01*
G01X9353Y12609D01*
G01X9361Y12626D01*
G01X9368Y12642D01*
G01X9375Y12659D01*
G01X9381Y12676D01*
G01X9386Y12693D01*
G01X9390Y12710D01*
G01X9394Y12728D01*
G01X9397Y12746D01*
G01X9399Y12764D01*
G01X9401Y12800D01*
G01X9400Y12817D01*
G01X9399Y12835D01*
G01X9397Y12853D01*
G01X9394Y12871D01*
G01X9390Y12889D01*
G01X9386Y12906D01*
G01X9381Y12923D01*
G01X9375Y12940D01*
G01X9368Y12957D01*
G01X9361Y12973D01*
G01X9353Y12990D01*
G01X9344Y13005D01*
G01X9324Y13035D01*
G01X9313Y13050D01*
G01X9301Y13063D01*
G01X9289Y13077D01*
G01X9277Y13089D01*
G01X9263Y13101D01*
G01X9250Y13113D01*
G01X9235Y13124D01*
G01X9205Y13144D01*
G01X9190Y13153D01*
G01X9173Y13161D01*
G01X9157Y13168D01*
G01X9140Y13175D01*
G01X9123Y13181D01*
G01X9106Y13186D01*
G01X9089Y13190D01*
G01X9071Y13194D01*
G01X9053Y13197D01*
G01X9035Y13199D01*
G01X9017Y13200D01*
G37*
G36*
G01X3417Y9800D02*
G01X3400Y9801D01*
G01X3364Y9799D01*
G01X3346Y9797D01*
G01X3328Y9794D01*
G01X3310Y9790D01*
G01X3293Y9786D01*
G01X3276Y9781D01*
G01X3259Y9775D01*
G01X3242Y9768D01*
G01X3226Y9761D01*
G01X3209Y9753D01*
G01X3194Y9744D01*
G01X3164Y9724D01*
G01X3149Y9713D01*
G01X3136Y9701D01*
G01X3122Y9689D01*
G01X3110Y9677D01*
G01X3098Y9663D01*
G01X3086Y9650D01*
G01X3075Y9635D01*
G01X3055Y9605D01*
G01X3046Y9590D01*
G01X3038Y9573D01*
G01X3031Y9557D01*
G01X3024Y9540D01*
G01X3018Y9523D01*
G01X3013Y9506D01*
G01X3009Y9489D01*
G01X3005Y9471D01*
G01X3002Y9453D01*
G01X3000Y9435D01*
G01X2999Y9417D01*
G01X2998Y9400D01*
G01X3000Y9364D01*
G01X3002Y9346D01*
G01X3005Y9328D01*
G01X3009Y9310D01*
G01X3013Y9293D01*
G01X3018Y9276D01*
G01X3024Y9259D01*
G01X3031Y9242D01*
G01X3038Y9226D01*
G01X3046Y9209D01*
G01X3055Y9194D01*
G01X3075Y9164D01*
G01X3086Y9149D01*
G01X3098Y9136D01*
G01X3110Y9122D01*
G01X3122Y9110D01*
G01X3136Y9098D01*
G01X3149Y9086D01*
G01X3164Y9075D01*
G01X3194Y9055D01*
G01X3209Y9046D01*
G01X3226Y9038D01*
G01X3242Y9031D01*
G01X3259Y9024D01*
G01X3276Y9018D01*
G01X3293Y9013D01*
G01X3310Y9009D01*
G01X3328Y9005D01*
G01X3346Y9002D01*
G01X3364Y9000D01*
G01X3400Y8998D01*
G01X3417Y8999D01*
G01X3435Y9000D01*
G01X3453Y9002D01*
G01X3471Y9005D01*
G01X3489Y9009D01*
G01X3506Y9013D01*
G01X3523Y9018D01*
G01X3540Y9024D01*
G01X3557Y9031D01*
G01X3573Y9038D01*
G01X3590Y9046D01*
G01X3605Y9055D01*
G01X3635Y9075D01*
G01X3650Y9086D01*
G01X3663Y9098D01*
G01X3677Y9110D01*
G01X3689Y9122D01*
G01X3701Y9136D01*
G01X3713Y9149D01*
G01X3724Y9164D01*
G01X3744Y9194D01*
G01X3753Y9209D01*
G01X3761Y9226D01*
G01X3768Y9242D01*
G01X3775Y9259D01*
G01X3781Y9276D01*
G01X3786Y9293D01*
G01X3790Y9310D01*
G01X3794Y9328D01*
G01X3797Y9346D01*
G01X3799Y9364D01*
G01X3801Y9400D01*
G01X3800Y9417D01*
G01X3799Y9435D01*
G01X3797Y9453D01*
G01X3794Y9471D01*
G01X3790Y9489D01*
G01X3786Y9506D01*
G01X3781Y9523D01*
G01X3775Y9540D01*
G01X3768Y9557D01*
G01X3761Y9573D01*
G01X3753Y9590D01*
G01X3744Y9605D01*
G01X3724Y9635D01*
G01X3713Y9650D01*
G01X3701Y9663D01*
G01X3689Y9677D01*
G01X3677Y9689D01*
G01X3663Y9701D01*
G01X3650Y9713D01*
G01X3635Y9724D01*
G01X3605Y9744D01*
G01X3590Y9753D01*
G01X3573Y9761D01*
G01X3557Y9768D01*
G01X3540Y9775D01*
G01X3523Y9781D01*
G01X3506Y9786D01*
G01X3489Y9790D01*
G01X3471Y9794D01*
G01X3453Y9797D01*
G01X3435Y9799D01*
G01X3417Y9800D01*
G37*
G36*
G01X6417Y9500D02*
G01X6400Y9501D01*
G01X6364Y9499D01*
G01X6346Y9497D01*
G01X6328Y9494D01*
G01X6310Y9490D01*
G01X6293Y9486D01*
G01X6276Y9481D01*
G01X6259Y9475D01*
G01X6242Y9468D01*
G01X6226Y9461D01*
G01X6209Y9453D01*
G01X6194Y9444D01*
G01X6164Y9424D01*
G01X6149Y9413D01*
G01X6136Y9401D01*
G01X6122Y9389D01*
G01X6110Y9377D01*
G01X6098Y9363D01*
G01X6086Y9350D01*
G01X6075Y9335D01*
G01X6055Y9305D01*
G01X6046Y9290D01*
G01X6038Y9273D01*
G01X6031Y9257D01*
G01X6024Y9240D01*
G01X6018Y9223D01*
G01X6013Y9206D01*
G01X6009Y9189D01*
G01X6005Y9171D01*
G01X6002Y9153D01*
G01X6000Y9135D01*
G01X5999Y9117D01*
G01X5998Y9100D01*
G01X6000Y9064D01*
G01X6002Y9046D01*
G01X6005Y9028D01*
G01X6009Y9010D01*
G01X6013Y8993D01*
G01X6018Y8976D01*
G01X6024Y8959D01*
G01X6031Y8942D01*
G01X6038Y8926D01*
G01X6046Y8909D01*
G01X6055Y8894D01*
G01X6075Y8864D01*
G01X6086Y8849D01*
G01X6098Y8836D01*
G01X6110Y8822D01*
G01X6122Y8810D01*
G01X6136Y8798D01*
G01X6149Y8786D01*
G01X6164Y8775D01*
G01X6194Y8755D01*
G01X6209Y8746D01*
G01X6226Y8738D01*
G01X6242Y8731D01*
G01X6259Y8724D01*
G01X6276Y8718D01*
G01X6293Y8713D01*
G01X6310Y8709D01*
G01X6328Y8705D01*
G01X6346Y8702D01*
G01X6364Y8700D01*
G01X6400Y8698D01*
G01X6417Y8699D01*
G01X6435Y8700D01*
G01X6453Y8702D01*
G01X6471Y8705D01*
G01X6489Y8709D01*
G01X6506Y8713D01*
G01X6523Y8718D01*
G01X6540Y8724D01*
G01X6557Y8731D01*
G01X6573Y8738D01*
G01X6590Y8746D01*
G01X6605Y8755D01*
G01X6635Y8775D01*
G01X6650Y8786D01*
G01X6663Y8798D01*
G01X6677Y8810D01*
G01X6689Y8822D01*
G01X6701Y8836D01*
G01X6713Y8849D01*
G01X6724Y8864D01*
G01X6744Y8894D01*
G01X6753Y8909D01*
G01X6761Y8926D01*
G01X6768Y8942D01*
G01X6775Y8959D01*
G01X6781Y8976D01*
G01X6786Y8993D01*
G01X6790Y9010D01*
G01X6794Y9028D01*
G01X6797Y9046D01*
G01X6799Y9064D01*
G01X6801Y9100D01*
G01X6800Y9117D01*
G01X6799Y9135D01*
G01X6797Y9153D01*
G01X6794Y9171D01*
G01X6790Y9189D01*
G01X6786Y9206D01*
G01X6781Y9223D01*
G01X6775Y9240D01*
G01X6768Y9257D01*
G01X6761Y9273D01*
G01X6753Y9290D01*
G01X6744Y9305D01*
G01X6724Y9335D01*
G01X6713Y9350D01*
G01X6701Y9363D01*
G01X6689Y9377D01*
G01X6677Y9389D01*
G01X6663Y9401D01*
G01X6650Y9413D01*
G01X6635Y9424D01*
G01X6605Y9444D01*
G01X6590Y9453D01*
G01X6573Y9461D01*
G01X6557Y9468D01*
G01X6540Y9475D01*
G01X6523Y9481D01*
G01X6506Y9486D01*
G01X6489Y9490D01*
G01X6471Y9494D01*
G01X6453Y9497D01*
G01X6435Y9499D01*
G01X6417Y9500D01*
G37*
G36*
G01X3417Y8800D02*
G01X3400Y8801D01*
G01X3364Y8799D01*
G01X3346Y8797D01*
G01X3328Y8794D01*
G01X3310Y8790D01*
G01X3293Y8786D01*
G01X3276Y8781D01*
G01X3259Y8775D01*
G01X3242Y8768D01*
G01X3226Y8761D01*
G01X3209Y8753D01*
G01X3194Y8744D01*
G01X3164Y8724D01*
G01X3149Y8713D01*
G01X3136Y8701D01*
G01X3122Y8689D01*
G01X3110Y8677D01*
G01X3098Y8663D01*
G01X3086Y8650D01*
G01X3075Y8635D01*
G01X3055Y8605D01*
G01X3046Y8590D01*
G01X3038Y8573D01*
G01X3031Y8557D01*
G01X3024Y8540D01*
G01X3018Y8523D01*
G01X3013Y8506D01*
G01X3009Y8489D01*
G01X3005Y8471D01*
G01X3002Y8453D01*
G01X3000Y8435D01*
G01X2999Y8417D01*
G01X2998Y8400D01*
G01X3000Y8364D01*
G01X3002Y8346D01*
G01X3005Y8328D01*
G01X3009Y8310D01*
G01X3013Y8293D01*
G01X3018Y8276D01*
G01X3024Y8259D01*
G01X3031Y8242D01*
G01X3038Y8226D01*
G01X3046Y8209D01*
G01X3055Y8194D01*
G01X3075Y8164D01*
G01X3086Y8149D01*
G01X3098Y8136D01*
G01X3110Y8122D01*
G01X3122Y8110D01*
G01X3136Y8098D01*
G01X3149Y8086D01*
G01X3164Y8075D01*
G01X3194Y8055D01*
G01X3209Y8046D01*
G01X3226Y8038D01*
G01X3242Y8031D01*
G01X3259Y8024D01*
G01X3276Y8018D01*
G01X3293Y8013D01*
G01X3310Y8009D01*
G01X3328Y8005D01*
G01X3346Y8002D01*
G01X3364Y8000D01*
G01X3400Y7998D01*
G01X3417Y7999D01*
G01X3435Y8000D01*
G01X3453Y8002D01*
G01X3471Y8005D01*
G01X3489Y8009D01*
G01X3506Y8013D01*
G01X3523Y8018D01*
G01X3540Y8024D01*
G01X3557Y8031D01*
G01X3573Y8038D01*
G01X3590Y8046D01*
G01X3605Y8055D01*
G01X3635Y8075D01*
G01X3650Y8086D01*
G01X3663Y8098D01*
G01X3677Y8110D01*
G01X3689Y8122D01*
G01X3701Y8136D01*
G01X3713Y8149D01*
G01X3724Y8164D01*
G01X3744Y8194D01*
G01X3753Y8209D01*
G01X3761Y8226D01*
G01X3768Y8242D01*
G01X3775Y8259D01*
G01X3781Y8276D01*
G01X3786Y8293D01*
G01X3790Y8310D01*
G01X3794Y8328D01*
G01X3797Y8346D01*
G01X3799Y8364D01*
G01X3801Y8400D01*
G01X3800Y8417D01*
G01X3799Y8435D01*
G01X3797Y8453D01*
G01X3794Y8471D01*
G01X3790Y8489D01*
G01X3786Y8506D01*
G01X3781Y8523D01*
G01X3775Y8540D01*
G01X3768Y8557D01*
G01X3761Y8573D01*
G01X3753Y8590D01*
G01X3744Y8605D01*
G01X3724Y8635D01*
G01X3713Y8650D01*
G01X3701Y8663D01*
G01X3689Y8677D01*
G01X3677Y8689D01*
G01X3663Y8701D01*
G01X3650Y8713D01*
G01X3635Y8724D01*
G01X3605Y8744D01*
G01X3590Y8753D01*
G01X3573Y8761D01*
G01X3557Y8768D01*
G01X3540Y8775D01*
G01X3523Y8781D01*
G01X3506Y8786D01*
G01X3489Y8790D01*
G01X3471Y8794D01*
G01X3453Y8797D01*
G01X3435Y8799D01*
G01X3417Y8800D01*
G37*
G36*
G01X11132Y19545D02*
G01X11115Y19554D01*
G01X11115Y19359D01*
G01X11310Y19359D01*
G01X11302Y19376D01*
G01X11282Y19408D01*
G01X11260Y19438D01*
G01X11248Y19452D01*
G01X11235Y19466D01*
G01X11222Y19479D01*
G01X11208Y19492D01*
G01X11194Y19504D01*
G01X11164Y19526D01*
G01X11148Y19536D01*
G01X11132Y19545D01*
G37*
G36*
G01X11310Y18984D02*
G01X11115Y18984D01*
G01X11115Y18789D01*
G01X11132Y18798D01*
G01X11148Y18807D01*
G01X11164Y18817D01*
G01X11194Y18839D01*
G01X11208Y18851D01*
G01X11222Y18864D01*
G01X11235Y18877D01*
G01X11248Y18891D01*
G01X11260Y18905D01*
G01X11282Y18935D01*
G01X11302Y18967D01*
G01X11310Y18984D01*
G37*
G36*
G01X13404Y17073D02*
G01X13387Y17082D01*
G01X13387Y16887D01*
G01X13582Y16887D01*
G01X13573Y16904D01*
G01X13564Y16920D01*
G01X13554Y16936D01*
G01X13532Y16966D01*
G01X13520Y16980D01*
G01X13507Y16994D01*
G01X13494Y17007D01*
G01X13480Y17020D01*
G01X13466Y17032D01*
G01X13436Y17054D01*
G01X13420Y17064D01*
G01X13404Y17073D01*
G37*
G36*
G01X13012Y16887D02*
G01X13012Y17082D01*
G01X12995Y17073D01*
G01X12979Y17064D01*
G01X12963Y17054D01*
G01X12933Y17032D01*
G01X12919Y17020D01*
G01X12905Y17007D01*
G01X12892Y16994D01*
G01X12879Y16980D01*
G01X12867Y16966D01*
G01X12845Y16936D01*
G01X12835Y16920D01*
G01X12826Y16904D01*
G01X12817Y16887D01*
G01X13012Y16887D01*
G37*
G36*
G01X13582Y16512D02*
G01X13387Y16512D01*
G01X13387Y16317D01*
G01X13404Y16326D01*
G01X13420Y16335D01*
G01X13436Y16345D01*
G01X13466Y16367D01*
G01X13480Y16379D01*
G01X13494Y16392D01*
G01X13507Y16405D01*
G01X13520Y16419D01*
G01X13532Y16433D01*
G01X13554Y16463D01*
G01X13564Y16479D01*
G01X13573Y16495D01*
G01X13582Y16512D01*
G37*
G36*
G01X13012Y16512D02*
G01X12817Y16512D01*
G01X12826Y16495D01*
G01X12835Y16479D01*
G01X12845Y16463D01*
G01X12867Y16433D01*
G01X12879Y16419D01*
G01X12892Y16405D01*
G01X12905Y16392D01*
G01X12919Y16379D01*
G01X12933Y16367D01*
G01X12963Y16345D01*
G01X12979Y16335D01*
G01X12995Y16326D01*
G01X13012Y16317D01*
G01X13012Y16512D01*
G37*
G36*
G01X1132Y22545D02*
G01X1115Y22554D01*
G01X1115Y22359D01*
G01X1310Y22359D01*
G01X1302Y22376D01*
G01X1282Y22408D01*
G01X1260Y22438D01*
G01X1248Y22452D01*
G01X1235Y22466D01*
G01X1222Y22479D01*
G01X1208Y22492D01*
G01X1194Y22504D01*
G01X1164Y22526D01*
G01X1148Y22536D01*
G01X1132Y22545D01*
G37*
G36*
G01X8740Y25359D02*
G01X8740Y25554D01*
G01X8723Y25545D01*
G01X8707Y25536D01*
G01X8691Y25526D01*
G01X8661Y25504D01*
G01X8647Y25492D01*
G01X8633Y25479D01*
G01X8620Y25466D01*
G01X8607Y25452D01*
G01X8595Y25438D01*
G01X8573Y25408D01*
G01X8563Y25392D01*
G01X8554Y25376D01*
G01X8545Y25359D01*
G01X8740Y25359D01*
G37*
G36*
G01X740Y22359D02*
G01X740Y22554D01*
G01X723Y22545D01*
G01X707Y22536D01*
G01X691Y22526D01*
G01X661Y22504D01*
G01X647Y22492D01*
G01X633Y22479D01*
G01X620Y22466D01*
G01X607Y22452D01*
G01X595Y22438D01*
G01X573Y22408D01*
G01X563Y22392D01*
G01X554Y22376D01*
G01X545Y22359D01*
G01X740Y22359D01*
G37*
G36*
G01X8740Y24984D02*
G01X8545Y24984D01*
G01X8554Y24967D01*
G01X8563Y24951D01*
G01X8573Y24935D01*
G01X8595Y24905D01*
G01X8607Y24891D01*
G01X8620Y24877D01*
G01X8633Y24864D01*
G01X8647Y24851D01*
G01X8661Y24839D01*
G01X8691Y24817D01*
G01X8707Y24807D01*
G01X8723Y24798D01*
G01X8740Y24789D01*
G01X8740Y24984D01*
G37*
G36*
G01X740Y21984D02*
G01X545Y21984D01*
G01X554Y21967D01*
G01X563Y21951D01*
G01X573Y21935D01*
G01X595Y21905D01*
G01X607Y21891D01*
G01X620Y21877D01*
G01X633Y21864D01*
G01X647Y21851D01*
G01X661Y21839D01*
G01X691Y21817D01*
G01X707Y21807D01*
G01X723Y21798D01*
G01X740Y21789D01*
G01X740Y21984D01*
G37*
G36*
G01X9310Y24984D02*
G01X9115Y24984D01*
G01X9115Y24789D01*
G01X9132Y24798D01*
G01X9148Y24807D01*
G01X9164Y24817D01*
G01X9194Y24839D01*
G01X9208Y24851D01*
G01X9222Y24864D01*
G01X9235Y24877D01*
G01X9248Y24891D01*
G01X9260Y24905D01*
G01X9282Y24935D01*
G01X9302Y24967D01*
G01X9310Y24984D01*
G37*
G36*
G01X1310Y21984D02*
G01X1115Y21984D01*
G01X1115Y21789D01*
G01X1132Y21798D01*
G01X1148Y21807D01*
G01X1164Y21817D01*
G01X1194Y21839D01*
G01X1208Y21851D01*
G01X1222Y21864D01*
G01X1235Y21877D01*
G01X1248Y21891D01*
G01X1260Y21905D01*
G01X1282Y21935D01*
G01X1302Y21967D01*
G01X1310Y21984D01*
G37*
G36*
G01X9132Y25545D02*
G01X9115Y25554D01*
G01X9115Y25359D01*
G01X9310Y25359D01*
G01X9302Y25376D01*
G01X9282Y25408D01*
G01X9260Y25438D01*
G01X9248Y25452D01*
G01X9235Y25466D01*
G01X9222Y25479D01*
G01X9208Y25492D01*
G01X9194Y25504D01*
G01X9164Y25526D01*
G01X9148Y25536D01*
G01X9132Y25545D01*
G37*
G36*
G01X10740Y18984D02*
G01X10545Y18984D01*
G01X10554Y18967D01*
G01X10563Y18951D01*
G01X10573Y18935D01*
G01X10595Y18905D01*
G01X10607Y18891D01*
G01X10620Y18877D01*
G01X10633Y18864D01*
G01X10647Y18851D01*
G01X10661Y18839D01*
G01X10691Y18817D01*
G01X10707Y18807D01*
G01X10723Y18798D01*
G01X10740Y18789D01*
G01X10740Y18984D01*
G37*
G36*
G01X10740Y19359D02*
G01X10740Y19554D01*
G01X10723Y19545D01*
G01X10707Y19536D01*
G01X10691Y19526D01*
G01X10661Y19504D01*
G01X10647Y19492D01*
G01X10633Y19479D01*
G01X10620Y19466D01*
G01X10607Y19452D01*
G01X10595Y19438D01*
G01X10573Y19408D01*
G01X10563Y19392D01*
G01X10554Y19376D01*
G01X10545Y19359D01*
G01X10740Y19359D01*
G37*
G36*
G01X3225Y11039D02*
G01X3225Y11225D01*
G01X3039Y11224D01*
G01X3047Y11208D01*
G01X3057Y11191D01*
G01X3067Y11175D01*
G01X3078Y11159D01*
G01X3090Y11144D01*
G01X3116Y11116D01*
G01X3144Y11090D01*
G01X3159Y11078D01*
G01X3175Y11067D01*
G01X3191Y11057D01*
G01X3208Y11047D01*
G01X3224Y11039D01*
G01X3225Y11039D01*
G37*
G36*
G01X8825Y13439D02*
G01X8825Y13625D01*
G01X8639Y13624D01*
G01X8647Y13608D01*
G01X8657Y13591D01*
G01X8667Y13575D01*
G01X8678Y13559D01*
G01X8690Y13544D01*
G01X8716Y13516D01*
G01X8744Y13490D01*
G01X8759Y13478D01*
G01X8775Y13467D01*
G01X8791Y13457D01*
G01X8808Y13447D01*
G01X8824Y13439D01*
G01X8825Y13439D01*
G37*
G36*
G01X3225Y11575D02*
G01X3224Y11760D01*
G01X3208Y11752D01*
G01X3191Y11742D01*
G01X3175Y11732D01*
G01X3159Y11721D01*
G01X3144Y11709D01*
G01X3116Y11683D01*
G01X3090Y11655D01*
G01X3078Y11640D01*
G01X3067Y11624D01*
G01X3057Y11608D01*
G01X3047Y11591D01*
G01X3039Y11575D01*
G01X3225Y11575D01*
G37*
G36*
G01X8825Y13975D02*
G01X8824Y14160D01*
G01X8808Y14152D01*
G01X8791Y14142D01*
G01X8775Y14132D01*
G01X8759Y14121D01*
G01X8744Y14109D01*
G01X8716Y14083D01*
G01X8690Y14055D01*
G01X8678Y14040D01*
G01X8667Y14024D01*
G01X8657Y14008D01*
G01X8647Y13991D01*
G01X8639Y13975D01*
G01X8825Y13975D01*
G37*
G36*
G01X9191Y14152D02*
G01X9175Y14160D01*
G01X9175Y13975D01*
G01X9360Y13975D01*
G01X9352Y13991D01*
G01X9342Y14008D01*
G01X9332Y14024D01*
G01X9321Y14040D01*
G01X9309Y14055D01*
G01X9283Y14083D01*
G01X9255Y14109D01*
G01X9240Y14121D01*
G01X9224Y14132D01*
G01X9208Y14142D01*
G01X9191Y14152D01*
G37*
G36*
G01X3591Y11752D02*
G01X3575Y11760D01*
G01X3575Y11575D01*
G01X3760Y11575D01*
G01X3752Y11591D01*
G01X3742Y11608D01*
G01X3732Y11624D01*
G01X3721Y11640D01*
G01X3709Y11655D01*
G01X3683Y11683D01*
G01X3655Y11709D01*
G01X3640Y11721D01*
G01X3624Y11732D01*
G01X3608Y11742D01*
G01X3591Y11752D01*
G37*
G36*
G01X6225Y9739D02*
G01X6225Y9925D01*
G01X6039Y9924D01*
G01X6047Y9908D01*
G01X6057Y9891D01*
G01X6067Y9875D01*
G01X6078Y9859D01*
G01X6090Y9844D01*
G01X6116Y9816D01*
G01X6144Y9790D01*
G01X6159Y9778D01*
G01X6175Y9767D01*
G01X6191Y9757D01*
G01X6208Y9747D01*
G01X6224Y9739D01*
G01X6225Y9739D01*
G37*
G36*
G01X3760Y11224D02*
G01X3575Y11225D01*
G01X3575Y11039D01*
G01X3591Y11047D01*
G01X3608Y11057D01*
G01X3624Y11067D01*
G01X3640Y11078D01*
G01X3655Y11090D01*
G01X3683Y11116D01*
G01X3709Y11144D01*
G01X3721Y11159D01*
G01X3732Y11175D01*
G01X3742Y11191D01*
G01X3752Y11208D01*
G01X3760Y11224D01*
G37*
G36*
G01X9360Y13624D02*
G01X9175Y13625D01*
G01X9175Y13439D01*
G01X9191Y13447D01*
G01X9208Y13457D01*
G01X9224Y13467D01*
G01X9240Y13478D01*
G01X9255Y13490D01*
G01X9283Y13516D01*
G01X9309Y13544D01*
G01X9321Y13559D01*
G01X9332Y13575D01*
G01X9342Y13591D01*
G01X9352Y13608D01*
G01X9360Y13624D01*
G37*
G36*
G01X6591Y10452D02*
G01X6575Y10460D01*
G01X6575Y10275D01*
G01X6760Y10275D01*
G01X6752Y10291D01*
G01X6742Y10308D01*
G01X6732Y10324D01*
G01X6721Y10340D01*
G01X6709Y10355D01*
G01X6683Y10383D01*
G01X6655Y10409D01*
G01X6640Y10421D01*
G01X6624Y10432D01*
G01X6608Y10442D01*
G01X6591Y10452D01*
G37*
G36*
G01X6225Y10460D02*
G01X6224Y10460D01*
G01X6208Y10452D01*
G01X6191Y10442D01*
G01X6175Y10432D01*
G01X6159Y10421D01*
G01X6144Y10409D01*
G01X6116Y10383D01*
G01X6090Y10355D01*
G01X6078Y10340D01*
G01X6067Y10324D01*
G01X6057Y10308D01*
G01X6047Y10291D01*
G01X6039Y10275D01*
G01X6225Y10275D01*
G01X6225Y10460D01*
G37*
G36*
G01X6760Y9924D02*
G01X6575Y9925D01*
G01X6575Y9739D01*
G01X6591Y9747D01*
G01X6608Y9757D01*
G01X6624Y9767D01*
G01X6640Y9778D01*
G01X6655Y9790D01*
G01X6683Y9816D01*
G01X6709Y9844D01*
G01X6721Y9859D01*
G01X6732Y9875D01*
G01X6742Y9891D01*
G01X6752Y9908D01*
G01X6760Y9924D01*
G37*

%LPD*%
G54D11*
G01X3928Y19171D02*
G01X3950Y19171D01*
G01X3950Y17750D01*
G54D10*
G01X6800Y11400D02*
G01X8000Y11400D01*
G01X6800Y10800D02*
G01X8000Y10800D01*
G01X8000Y17000D02*
G01X8600Y16400D01*
G01X9800Y16400D01*
G01X7400Y18400D02*
G01X6800Y18400D01*
G01X6200Y17800D01*
G01X6200Y14200D01*
G01X8400Y18400D02*
G01X8400Y18200D01*
G01X8000Y17800D01*
G01X7400Y17800D01*
G01X6800Y17200D01*
G01X6800Y13800D01*
G01X6200Y13200D01*
G01X6200Y11200D01*
G01X6600Y10800D01*
G01X6800Y10800D01*
G54D12*
G01X9800Y17000D02*
G01X10500Y17700D01*
G01X13200Y17700D01*
G54D18*
G01X9000Y12800D03*
G01X9000Y13800D03*
G01X6400Y9100D03*
G01X6400Y10100D03*
G01X3400Y8400D03*
G01X3400Y9400D03*
G01X3400Y10400D03*
G01X3400Y11400D03*
G54D19*
G01X13200Y17700D03*
G54D20*
G01X13200Y16700D03*
G01X13200Y15700D03*
G01X13200Y14700D03*
G01X13200Y13700D03*
G01X13200Y12700D03*
G01X13200Y11700D03*
G01X13200Y10700D03*
G01X13200Y9700D03*
G01X13200Y8700D03*
G01X11928Y25171D03*
G01X10928Y25171D03*
G01X9928Y25171D03*
G01X8928Y25171D03*
G01X7928Y25171D03*
G01X6928Y25171D03*
G01X5928Y25171D03*
G01X4928Y25171D03*
G01X3928Y25171D03*
G01X2928Y25171D03*
G01X1928Y25171D03*
G01X928Y25171D03*
G01X7428Y20171D03*
G01X8428Y20171D03*
G01X928Y19171D03*
G01X1928Y19171D03*
G01X2928Y19171D03*
G01X3928Y19171D03*
G01X4928Y19171D03*
G01X5928Y19171D03*
G01X6928Y19171D03*
G01X7928Y19171D03*
G01X8928Y19171D03*
G01X9928Y19171D03*
G01X10928Y19171D03*
G01X928Y20171D03*
G01X928Y21171D03*
G01X928Y22171D03*
G01X11928Y19171D03*
G54D14*
G01X3950Y17750D03*
G01X8200Y6000D03*
G01X7200Y6000D03*
G01X8200Y2400D03*
G01X7400Y2400D03*
G01X4600Y4200D03*
G01X8200Y4200D03*
G01X5400Y6000D03*
G01X5400Y2400D03*
G01X4600Y3400D03*
G01X4600Y5200D03*
G01X8200Y5200D03*
G01X8200Y3400D03*
G01X6400Y2400D03*
G01X4600Y2400D03*
G01X4600Y6000D03*
G01X6400Y6000D03*
G01X7100Y13350D03*
G01X6400Y4200D03*
G01X6800Y10800D03*
G01X6800Y11400D03*
G01X8000Y11400D03*
G01X8000Y10800D03*
G01X8000Y17000D03*
G01X7400Y18400D03*
G01X8400Y18400D03*
G01X6200Y14200D03*
G01X9800Y16400D03*
G01X9800Y17000D03*
M00*
M02*
