;Layer: Drill PTH
;EasyEDA v6.2.46, 2019-11-03T11:34:55+01:00
;e10e46a80a834b6b97d20d57123ccb7d,d15f1e4770a0489585fd403fbbc54e69,10
;Gerber Generator version 0.2
M48
INCH,LZ,00.0000
;Holesize 1 = 0.012 INCH
T01C0.012
;Holesize 2 = 0.035 INCH
T02C0.035
;Holesize 3 = 0.036 INCH
T03C0.036
%
G05
G90
T01
X+003950Y+017750
X+008200Y+006000
X+007200Y+006000
X+008200Y+002400
X+007400Y+002400
X+004600Y+004200
X+008200Y+004200
X+005400Y+006000
X+005400Y+002400
X+004600Y+003400
X+004600Y+005200
X+008200Y+005200
X+008200Y+003400
X+006400Y+002400
X+004600Y+002400
X+004600Y+006000
X+006400Y+006000
X+007100Y+013350
X+006400Y+004200
X+006800Y+010800
X+006800Y+011400
X+008000Y+011400
X+008000Y+010800
X+008000Y+017000
X+007400Y+018400
X+008400Y+018400
X+006200Y+014200
X+009800Y+016400
X+009800Y+017000
T02
X+013200Y+017700
X+013200Y+016700
X+013200Y+015700
X+013200Y+014700
X+013200Y+013700
X+013200Y+012700
X+013200Y+011700
X+013200Y+010700
X+013200Y+009700
X+013200Y+008700
T03
X+009000Y+012800
X+009000Y+013800
X+006400Y+009100
X+006400Y+010100
X+003400Y+008400
X+003400Y+009400
X+003400Y+010400
X+003400Y+011400
X+011928Y+025171
X+010928Y+025171
X+009928Y+025171
X+008928Y+025171
X+007928Y+025171
X+006928Y+025171
X+005928Y+025171
X+004928Y+025171
X+003928Y+025171
X+002928Y+025171
X+001928Y+025171
X+000928Y+025171
X+007428Y+020171
X+008428Y+020171
X+000928Y+019171
X+001928Y+019171
X+002928Y+019171
X+003928Y+019171
X+004928Y+019171
X+005928Y+019171
X+006928Y+019171
X+007928Y+019171
X+008928Y+019171
X+009928Y+019171
X+010928Y+019171
X+000928Y+020171
X+000928Y+021171
X+000928Y+022171
X+011928Y+019171
M30
