G04 Layer: TopSolderMaskLayer*
G04 EasyEDA v6.2.46, 2019-11-03T11:34:55+01:00*
G04 e10e46a80a834b6b97d20d57123ccb7d,d15f1e4770a0489585fd403fbbc54e69,10*
G04 Gerber Generator version 0.2*
G04 Scale: 100 percent, Rotated: No, Reflected: No *
G04 Dimensions in inches *
G04 leading zeros omitted , absolute positions ,2 integer and 4 decimal *
%FSLAX24Y24*%
%MOIN*%
G90*
G70D02*

%ADD28C,0.068000*%
%ADD30C,0.073000*%

%LPD*%
G36*
G01X1359Y3159D02*
G01X1359Y5240D01*
G01X2440Y5240D01*
G01X2440Y3159D01*
G01X1359Y3159D01*
G37*
G36*
G01X10360Y3159D02*
G01X10360Y5240D01*
G01X11439Y5240D01*
G01X11439Y3159D01*
G01X10360Y3159D01*
G37*
G36*
G01X4359Y2159D02*
G01X4359Y6240D01*
G01X8440Y6240D01*
G01X8440Y2159D01*
G01X4359Y2159D01*
G37*
G36*
G01X6859Y12659D02*
G01X6859Y13040D01*
G01X7940Y13040D01*
G01X7940Y12659D01*
G01X6859Y12659D01*
G37*
G36*
G01X6859Y13159D02*
G01X6859Y13540D01*
G01X7940Y13540D01*
G01X7940Y13159D01*
G01X6859Y13159D01*
G37*
G36*
G01X6859Y13659D02*
G01X6859Y14040D01*
G01X7940Y14040D01*
G01X7940Y13659D01*
G01X6859Y13659D01*
G37*
G36*
G01X6859Y14159D02*
G01X6859Y14540D01*
G01X7940Y14540D01*
G01X7940Y14159D01*
G01X6859Y14159D01*
G37*
G36*
G01X6859Y14659D02*
G01X6859Y15040D01*
G01X7940Y15040D01*
G01X7940Y14659D01*
G01X6859Y14659D01*
G37*
G36*
G01X6859Y15159D02*
G01X6859Y15540D01*
G01X7940Y15540D01*
G01X7940Y15159D01*
G01X6859Y15159D01*
G37*
G36*
G01X6859Y15659D02*
G01X6859Y16040D01*
G01X7940Y16040D01*
G01X7940Y15659D01*
G01X6859Y15659D01*
G37*
G36*
G01X6859Y16159D02*
G01X6859Y16540D01*
G01X7940Y16540D01*
G01X7940Y16159D01*
G01X6859Y16159D01*
G37*
G54D28*
G01X9000Y12800D03*
G01X9000Y13800D03*
G01X6400Y9100D03*
G01X6400Y10100D03*
G01X3400Y8400D03*
G01X3400Y9400D03*
G01X3400Y10400D03*
G01X3400Y11400D03*
G36*
G01X12835Y17334D02*
G01X12835Y18065D01*
G01X13564Y18065D01*
G01X13564Y17334D01*
G01X12835Y17334D01*
G37*
G54D30*
G01X13200Y16700D03*
G01X13200Y15700D03*
G01X13200Y14700D03*
G01X13200Y13700D03*
G01X13200Y12700D03*
G01X13200Y11700D03*
G01X13200Y10700D03*
G01X13200Y9700D03*
G01X13200Y8700D03*
G01X11928Y25171D03*
G01X10928Y25171D03*
G01X9928Y25171D03*
G01X8928Y25171D03*
G01X7928Y25171D03*
G01X6928Y25171D03*
G01X5928Y25171D03*
G01X4928Y25171D03*
G01X3928Y25171D03*
G01X2928Y25171D03*
G01X1928Y25171D03*
G01X928Y25171D03*
G01X7428Y20171D03*
G01X8428Y20171D03*
G01X928Y19171D03*
G01X1928Y19171D03*
G01X2928Y19171D03*
G01X3928Y19171D03*
G01X4928Y19171D03*
G01X5928Y19171D03*
G01X6928Y19171D03*
G01X7928Y19171D03*
G01X8928Y19171D03*
G01X9928Y19171D03*
G01X10928Y19171D03*
G01X928Y20171D03*
G01X928Y21171D03*
G01X928Y22171D03*
G01X11928Y19171D03*
M00*
M02*
