G04 Layer: TopSilkLayer*
G04 EasyEDA v6.2.46, 2019-11-03T11:34:55+01:00*
G04 e10e46a80a834b6b97d20d57123ccb7d,d15f1e4770a0489585fd403fbbc54e69,10*
G04 Gerber Generator version 0.2*
G04 Scale: 100 percent, Rotated: No, Reflected: No *
G04 Dimensions in inches *
G04 leading zeros omitted , absolute positions ,2 integer and 4 decimal *
%FSLAX24Y24*%
%MOIN*%
G90*
G70D02*

%ADD10C,0.010000*%
%ADD11C,0.008000*%
%ADD21C,0.006000*%
%ADD22C,0.005000*%
%ADD23C,0.004000*%
%ADD24C,0.005906*%

%LPD*%

%LPD*%
G36*
G01X13088Y6715D02*
G01X13065Y6715D01*
G01X13042Y6711D01*
G01X13019Y6705D01*
G01X12998Y6695D01*
G01X12977Y6683D01*
G01X12956Y6667D01*
G01X12937Y6649D01*
G01X12918Y6627D01*
G01X12900Y6603D01*
G01X12883Y6576D01*
G01X12868Y6546D01*
G01X12854Y6521D01*
G01X12842Y6499D01*
G01X12829Y6481D01*
G01X12818Y6467D01*
G01X12806Y6457D01*
G01X12795Y6450D01*
G01X12785Y6447D01*
G01X12774Y6448D01*
G01X12762Y6454D01*
G01X12757Y6468D01*
G01X12757Y6488D01*
G01X12765Y6514D01*
G01X12769Y6526D01*
G01X12769Y6530D01*
G01X12765Y6526D01*
G01X12756Y6515D01*
G01X12749Y6508D01*
G01X12744Y6504D01*
G01X12740Y6503D01*
G01X12739Y6506D01*
G01X12744Y6518D01*
G01X12755Y6530D01*
G01X12766Y6537D01*
G01X12771Y6534D01*
G01X12777Y6534D01*
G01X12792Y6552D01*
G01X12806Y6575D01*
G01X12813Y6594D01*
G01X12809Y6605D01*
G01X12799Y6620D01*
G01X12785Y6637D01*
G01X12767Y6655D01*
G01X12749Y6672D01*
G01X12731Y6686D01*
G01X12716Y6696D01*
G01X12705Y6700D01*
G01X12695Y6696D01*
G01X12683Y6688D01*
G01X12668Y6676D01*
G01X12653Y6659D01*
G01X12638Y6641D01*
G01X12624Y6620D01*
G01X12611Y6599D01*
G01X12600Y6578D01*
G01X12592Y6555D01*
G01X12586Y6527D01*
G01X12582Y6494D01*
G01X12581Y6460D01*
G01X12581Y6426D01*
G01X12584Y6394D01*
G01X12588Y6366D01*
G01X12595Y6344D01*
G01X12608Y6321D01*
G01X12626Y6300D01*
G01X12648Y6282D01*
G01X12672Y6268D01*
G01X12699Y6258D01*
G01X12727Y6252D01*
G01X12755Y6251D01*
G01X12783Y6254D01*
G01X12799Y6259D01*
G01X12815Y6265D01*
G01X12831Y6273D01*
G01X12865Y6295D01*
G01X12882Y6308D01*
G01X12898Y6322D01*
G01X12930Y6354D01*
G01X12944Y6371D01*
G01X12958Y6389D01*
G01X12970Y6407D01*
G01X12986Y6432D01*
G01X13004Y6455D01*
G01X13021Y6476D01*
G01X13038Y6494D01*
G01X13054Y6509D01*
G01X13069Y6521D01*
G01X13082Y6528D01*
G01X13092Y6530D01*
G01X13107Y6526D01*
G01X13120Y6514D01*
G01X13128Y6496D01*
G01X13131Y6474D01*
G01X13129Y6458D01*
G01X13124Y6439D01*
G01X13117Y6419D01*
G01X13108Y6398D01*
G01X13098Y6378D01*
G01X13088Y6361D01*
G01X13078Y6349D01*
G01X13070Y6342D01*
G01X13059Y6334D01*
G01X13059Y6320D01*
G01X13072Y6300D01*
G01X13097Y6272D01*
G01X13117Y6255D01*
G01X13135Y6243D01*
G01X13150Y6236D01*
G01X13163Y6236D01*
G01X13174Y6239D01*
G01X13185Y6247D01*
G01X13197Y6258D01*
G01X13209Y6272D01*
G01X13220Y6289D01*
G01X13231Y6307D01*
G01X13242Y6328D01*
G01X13260Y6374D01*
G01X13268Y6398D01*
G01X13275Y6422D01*
G01X13280Y6446D01*
G01X13284Y6470D01*
G01X13286Y6492D01*
G01X13287Y6513D01*
G01X13285Y6533D01*
G01X13281Y6555D01*
G01X13274Y6576D01*
G01X13265Y6596D01*
G01X13254Y6615D01*
G01X13242Y6633D01*
G01X13227Y6650D01*
G01X13211Y6665D01*
G01X13194Y6678D01*
G01X13175Y6689D01*
G01X13155Y6699D01*
G01X13134Y6707D01*
G01X13112Y6712D01*
G01X13088Y6715D01*
G37*

%LPC*%
G36*
G01X13092Y6326D02*
G01X13086Y6329D01*
G01X13078Y6325D01*
G01X13080Y6315D01*
G01X13092Y6300D01*
G01X13113Y6282D01*
G01X13143Y6261D01*
G01X13156Y6256D01*
G01X13153Y6267D01*
G01X13131Y6292D01*
G01X13116Y6307D01*
G01X13103Y6318D01*
G01X13092Y6326D01*
G37*
G36*
G01X13123Y6340D02*
G01X13106Y6350D01*
G01X13098Y6347D01*
G01X13102Y6336D01*
G01X13117Y6320D01*
G01X13141Y6299D01*
G01X13157Y6286D01*
G01X13171Y6277D01*
G01X13180Y6273D01*
G01X13184Y6274D01*
G01X13173Y6290D01*
G01X13149Y6316D01*
G01X13123Y6340D01*
G37*
G36*
G01X12609Y6424D02*
G01X12602Y6424D01*
G01X12609Y6412D01*
G01X12624Y6393D01*
G01X12645Y6370D01*
G01X12671Y6345D01*
G01X12697Y6321D01*
G01X12722Y6300D01*
G01X12742Y6284D01*
G01X12756Y6278D01*
G01X12763Y6276D01*
G01X12771Y6276D01*
G01X12770Y6278D01*
G01X12762Y6286D01*
G01X12742Y6304D01*
G01X12715Y6330D01*
G01X12683Y6361D01*
G01X12651Y6390D01*
G01X12626Y6412D01*
G01X12609Y6424D01*
G37*
G36*
G01X12610Y6388D02*
G01X12604Y6393D01*
G01X12603Y6392D01*
G01X12602Y6390D01*
G01X12602Y6388D01*
G01X12601Y6385D01*
G01X12606Y6376D01*
G01X12617Y6362D01*
G01X12632Y6345D01*
G01X12670Y6307D01*
G01X12688Y6291D01*
G01X12702Y6280D01*
G01X12710Y6276D01*
G01X12710Y6281D01*
G01X12702Y6293D01*
G01X12686Y6312D01*
G01X12665Y6334D01*
G01X12623Y6376D01*
G01X12610Y6388D01*
G37*
G36*
G01X12594Y6484D02*
G01X12591Y6484D01*
G01X12591Y6482D01*
G01X12594Y6476D01*
G01X12600Y6467D01*
G01X12609Y6457D01*
G01X12621Y6443D01*
G01X12636Y6427D01*
G01X12653Y6409D01*
G01X12673Y6390D01*
G01X12704Y6359D01*
G01X12731Y6334D01*
G01X12753Y6313D01*
G01X12771Y6298D01*
G01X12786Y6287D01*
G01X12797Y6281D01*
G01X12805Y6279D01*
G01X12810Y6280D01*
G01X12809Y6284D01*
G01X12805Y6291D01*
G01X12796Y6301D01*
G01X12784Y6314D01*
G01X12769Y6328D01*
G01X12752Y6346D01*
G01X12734Y6364D01*
G01X12713Y6383D01*
G01X12692Y6403D01*
G01X12669Y6423D01*
G01X12625Y6461D01*
G01X12611Y6472D01*
G01X12601Y6480D01*
G01X12594Y6484D01*
G37*
G36*
G01X12618Y6338D02*
G01X12615Y6340D01*
G01X12612Y6338D01*
G01X12615Y6332D01*
G01X12624Y6322D01*
G01X12641Y6307D01*
G01X12670Y6282D01*
G01X12644Y6311D01*
G01X12634Y6322D01*
G01X12618Y6338D01*
G37*
G36*
G01X12617Y6514D02*
G01X12605Y6520D01*
G01X12601Y6518D01*
G01X12606Y6509D01*
G01X12618Y6494D01*
G01X12637Y6473D01*
G01X12661Y6450D01*
G01X12688Y6424D01*
G01X12717Y6397D01*
G01X12746Y6371D01*
G01X12773Y6347D01*
G01X12798Y6326D01*
G01X12819Y6311D01*
G01X12833Y6302D01*
G01X12840Y6300D01*
G01X12840Y6302D01*
G01X12838Y6307D01*
G01X12832Y6314D01*
G01X12824Y6323D01*
G01X12813Y6334D01*
G01X12800Y6348D01*
G01X12783Y6364D01*
G01X12764Y6382D01*
G01X12742Y6404D01*
G01X12716Y6427D01*
G01X12688Y6453D01*
G01X12657Y6482D01*
G01X12635Y6501D01*
G01X12617Y6514D01*
G37*
G36*
G01X13147Y6365D02*
G01X13131Y6369D01*
G01X13134Y6356D01*
G01X13156Y6330D01*
G01X13175Y6313D01*
G01X13188Y6304D01*
G01X13198Y6301D01*
G01X13206Y6305D01*
G01X13209Y6311D01*
G01X13206Y6320D01*
G01X13196Y6331D01*
G01X13180Y6345D01*
G01X13147Y6365D01*
G37*
G36*
G01X12773Y6413D02*
G01X12764Y6413D01*
G01X12761Y6411D01*
G01X12760Y6410D01*
G01X12764Y6404D01*
G01X12777Y6392D01*
G01X12794Y6377D01*
G01X12814Y6361D01*
G01X12835Y6345D01*
G01X12853Y6332D01*
G01X12866Y6324D01*
G01X12872Y6322D01*
G01X12871Y6328D01*
G01X12863Y6339D01*
G01X12849Y6354D01*
G01X12832Y6370D01*
G01X12814Y6386D01*
G01X12797Y6400D01*
G01X12782Y6410D01*
G01X12773Y6413D01*
G37*
G36*
G01X13151Y6403D02*
G01X13147Y6403D01*
G01X13144Y6400D01*
G01X13142Y6397D01*
G01X13141Y6394D01*
G01X13153Y6380D01*
G01X13178Y6361D01*
G01X13206Y6346D01*
G01X13222Y6342D01*
G01X13215Y6355D01*
G01X13194Y6375D01*
G01X13168Y6395D01*
G01X13151Y6403D01*
G37*
G36*
G01X12817Y6432D02*
G01X12810Y6435D01*
G01X12802Y6431D01*
G01X12806Y6420D01*
G01X12820Y6402D01*
G01X12845Y6378D01*
G01X12863Y6363D01*
G01X12879Y6352D01*
G01X12892Y6346D01*
G01X12900Y6346D01*
G01X12902Y6352D01*
G01X12897Y6363D01*
G01X12884Y6377D01*
G01X12865Y6394D01*
G01X12846Y6410D01*
G01X12830Y6423D01*
G01X12817Y6432D01*
G37*
G36*
G01X13180Y6435D02*
G01X13160Y6446D01*
G01X13152Y6442D01*
G01X13155Y6431D01*
G01X13169Y6414D01*
G01X13193Y6393D01*
G01X13210Y6381D01*
G01X13225Y6373D01*
G01X13235Y6369D01*
G01X13241Y6370D01*
G01X13233Y6386D01*
G01X13209Y6411D01*
G01X13180Y6435D01*
G37*
G36*
G01X12864Y6456D02*
G01X12846Y6462D01*
G01X12836Y6453D01*
G01X12836Y6442D01*
G01X12847Y6428D01*
G01X12869Y6409D01*
G01X12894Y6392D01*
G01X12913Y6384D01*
G01X12925Y6383D01*
G01X12929Y6390D01*
G01X12918Y6410D01*
G01X12892Y6435D01*
G01X12864Y6456D01*
G37*
G36*
G01X13192Y6479D02*
G01X13173Y6482D01*
G01X13164Y6474D01*
G01X13165Y6463D01*
G01X13179Y6450D01*
G01X13205Y6431D01*
G01X13233Y6413D01*
G01X13249Y6405D01*
G01X13256Y6407D01*
G01X13257Y6418D01*
G01X13246Y6437D01*
G01X13220Y6461D01*
G01X13192Y6479D01*
G37*
G36*
G01X12881Y6506D02*
G01X12874Y6509D01*
G01X12866Y6504D01*
G01X12868Y6490D01*
G01X12881Y6470D01*
G01X12902Y6446D01*
G01X12920Y6430D01*
G01X12935Y6421D01*
G01X12945Y6417D01*
G01X12952Y6418D01*
G01X12953Y6425D01*
G01X12949Y6435D01*
G01X12939Y6450D01*
G01X12923Y6468D01*
G01X12907Y6484D01*
G01X12892Y6497D01*
G01X12881Y6506D01*
G37*
G36*
G01X12734Y6486D02*
G01X12732Y6488D01*
G01X12728Y6481D01*
G01X12728Y6467D01*
G01X12732Y6451D01*
G01X12737Y6441D01*
G01X12740Y6441D01*
G01X12742Y6445D01*
G01X12743Y6452D01*
G01X12739Y6472D01*
G01X12736Y6480D01*
G01X12734Y6486D01*
G37*
G36*
G01X12917Y6542D02*
G01X12907Y6544D01*
G01X12900Y6538D01*
G01X12896Y6529D01*
G01X12898Y6518D01*
G01X12909Y6504D01*
G01X12928Y6484D01*
G01X12949Y6465D01*
G01X12963Y6455D01*
G01X12973Y6453D01*
G01X12980Y6459D01*
G01X12984Y6468D01*
G01X12981Y6479D01*
G01X12971Y6493D01*
G01X12952Y6513D01*
G01X12931Y6532D01*
G01X12917Y6542D01*
G37*
G36*
G01X13020Y6678D02*
G01X13011Y6678D01*
G01X13008Y6676D01*
G01X13009Y6669D01*
G01X13015Y6659D01*
G01X13027Y6646D01*
G01X13044Y6629D01*
G01X13067Y6608D01*
G01X13094Y6583D01*
G01X13128Y6554D01*
G01X13159Y6528D01*
G01X13185Y6506D01*
G01X13208Y6488D01*
G01X13227Y6474D01*
G01X13242Y6464D01*
G01X13253Y6458D01*
G01X13260Y6456D01*
G01X13268Y6461D01*
G01X13267Y6472D01*
G01X13258Y6485D01*
G01X13243Y6496D01*
G01X13236Y6500D01*
G01X13226Y6507D01*
G01X13213Y6517D01*
G01X13197Y6529D01*
G01X13181Y6543D01*
G01X13162Y6558D01*
G01X13124Y6592D01*
G01X13086Y6625D01*
G01X13055Y6652D01*
G01X13031Y6671D01*
G01X13020Y6678D01*
G37*
G36*
G01X12638Y6559D02*
G01X12618Y6573D01*
G01X12611Y6567D01*
G01X12616Y6551D01*
G01X12632Y6528D01*
G01X12659Y6498D01*
G01X12681Y6478D01*
G01X12696Y6467D01*
G01X12704Y6464D01*
G01X12707Y6470D01*
G01X12695Y6493D01*
G01X12668Y6528D01*
G01X12638Y6559D01*
G37*
G36*
G01X12955Y6573D02*
G01X12938Y6583D01*
G01X12930Y6578D01*
G01X12931Y6565D01*
G01X12941Y6547D01*
G01X12959Y6527D01*
G01X12981Y6509D01*
G01X12998Y6500D01*
G01X13010Y6500D01*
G01X13014Y6510D01*
G01X13004Y6526D01*
G01X12981Y6551D01*
G01X12955Y6573D01*
G37*
G36*
G01X12640Y6587D02*
G01X12635Y6588D01*
G01X12633Y6586D01*
G01X12643Y6569D01*
G01X12668Y6543D01*
G01X12694Y6519D01*
G01X12710Y6509D01*
G01X12712Y6517D01*
G01X12700Y6537D01*
G01X12680Y6559D01*
G01X12659Y6577D01*
G01X12649Y6583D01*
G01X12640Y6587D01*
G37*
G36*
G01X13055Y6696D02*
G01X13046Y6698D01*
G01X13047Y6692D01*
G01X13056Y6678D01*
G01X13073Y6659D01*
G01X13096Y6635D01*
G01X13122Y6609D01*
G01X13151Y6583D01*
G01X13180Y6558D01*
G01X13207Y6537D01*
G01X13228Y6522D01*
G01X13243Y6513D01*
G01X13253Y6510D01*
G01X13258Y6512D01*
G01X13256Y6519D01*
G01X13248Y6530D01*
G01X13234Y6544D01*
G01X13214Y6562D01*
G01X13188Y6583D01*
G01X13159Y6608D01*
G01X13131Y6633D01*
G01X13108Y6655D01*
G01X13088Y6673D01*
G01X13069Y6687D01*
G01X13055Y6696D01*
G37*
G36*
G01X12666Y6624D02*
G01X12659Y6626D01*
G01X12656Y6623D01*
G01X12657Y6615D01*
G01X12664Y6603D01*
G01X12675Y6588D01*
G01X12692Y6568D01*
G01X12709Y6549D01*
G01X12723Y6538D01*
G01X12733Y6535D01*
G01X12740Y6538D01*
G01X12747Y6549D01*
G01X12743Y6561D01*
G01X12727Y6579D01*
G01X12696Y6605D01*
G01X12679Y6617D01*
G01X12666Y6624D01*
G37*
G36*
G01X12989Y6620D02*
G01X12975Y6626D01*
G01X12964Y6624D01*
G01X12953Y6612D01*
G01X12953Y6600D01*
G01X12966Y6584D01*
G01X12993Y6561D01*
G01X13014Y6546D01*
G01X13030Y6538D01*
G01X13041Y6536D01*
G01X13049Y6539D01*
G01X13051Y6549D01*
G01X13046Y6563D01*
G01X13035Y6578D01*
G01X13021Y6594D01*
G01X13005Y6609D01*
G01X12989Y6620D01*
G37*
G36*
G01X12931Y6609D02*
G01X12941Y6631D01*
G01X12924Y6609D01*
G01X12916Y6600D01*
G01X12909Y6588D01*
G01X12902Y6577D01*
G01X12896Y6567D01*
G01X12886Y6546D01*
G01X12903Y6567D01*
G01X12910Y6577D01*
G01X12918Y6588D01*
G01X12925Y6600D01*
G01X12931Y6609D01*
G37*
G36*
G01X13109Y6694D02*
G01X13100Y6696D01*
G01X13097Y6693D01*
G01X13102Y6685D01*
G01X13113Y6671D01*
G01X13133Y6651D01*
G01X13156Y6629D01*
G01X13180Y6608D01*
G01X13203Y6590D01*
G01X13224Y6573D01*
G01X13242Y6560D01*
G01X13256Y6552D01*
G01X13265Y6548D01*
G01X13268Y6549D01*
G01X13262Y6565D01*
G01X13244Y6586D01*
G01X13213Y6615D01*
G01X13169Y6652D01*
G01X13144Y6671D01*
G01X13123Y6685D01*
G01X13109Y6694D01*
G37*
G36*
G01X12995Y6644D02*
G01X12993Y6644D01*
G01X13006Y6628D01*
G01X13034Y6600D01*
G01X13065Y6574D01*
G01X13082Y6562D01*
G01X13083Y6569D01*
G01X13070Y6585D01*
G01X13048Y6606D01*
G01X13022Y6627D01*
G01X13011Y6635D01*
G01X13002Y6641D01*
G01X12995Y6644D01*
G37*
G36*
G01X12706Y6644D02*
G01X12683Y6657D01*
G01X12675Y6653D01*
G01X12679Y6642D01*
G01X12694Y6624D01*
G01X12719Y6600D01*
G01X12737Y6586D01*
G01X12753Y6576D01*
G01X12766Y6569D01*
G01X12773Y6569D01*
G01X12766Y6585D01*
G01X12738Y6615D01*
G01X12706Y6644D01*
G37*
G36*
G01X12715Y6678D02*
G01X12712Y6678D01*
G01X12710Y6676D01*
G01X12708Y6672D01*
G01X12707Y6669D01*
G01X12719Y6651D01*
G01X12746Y6627D01*
G01X12775Y6605D01*
G01X12790Y6600D01*
G01X12783Y6615D01*
G01X12760Y6641D01*
G01X12733Y6667D01*
G01X12715Y6678D01*
G37*

%LPD*%
G36*
G01X12733Y6197D02*
G01X12724Y6205D01*
G01X12704Y6204D01*
G01X12678Y6187D01*
G01X12653Y6159D01*
G01X12632Y6123D01*
G01X12623Y6100D01*
G01X12617Y6075D01*
G01X12613Y6048D01*
G01X12613Y6021D01*
G01X12614Y5994D01*
G01X12619Y5966D01*
G01X12627Y5938D01*
G01X12638Y5911D01*
G01X12651Y5880D01*
G01X12656Y5862D01*
G01X12654Y5855D01*
G01X12644Y5853D01*
G01X12635Y5849D01*
G01X12628Y5839D01*
G01X12622Y5823D01*
G01X12617Y5802D01*
G01X12614Y5778D01*
G01X12614Y5752D01*
G01X12615Y5725D01*
G01X12619Y5698D01*
G01X12622Y5688D01*
G01X12626Y5680D01*
G01X12634Y5675D01*
G01X12645Y5672D01*
G01X12662Y5670D01*
G01X12685Y5670D01*
G01X12716Y5672D01*
G01X12755Y5675D01*
G01X12769Y5676D01*
G01X12787Y5677D01*
G01X12808Y5678D01*
G01X12831Y5679D01*
G01X12856Y5680D01*
G01X12882Y5682D01*
G01X12910Y5683D01*
G01X12939Y5684D01*
G01X12969Y5685D01*
G01X12998Y5686D01*
G01X13028Y5687D01*
G01X13056Y5688D01*
G01X13098Y5689D01*
G01X13137Y5690D01*
G01X13173Y5691D01*
G01X13205Y5692D01*
G01X13231Y5693D01*
G01X13252Y5693D01*
G01X13265Y5694D01*
G01X13271Y5694D01*
G01X13274Y5701D01*
G01X13277Y5722D01*
G01X13278Y5752D01*
G01X13279Y5789D01*
G01X13279Y5884D01*
G01X13213Y5876D01*
G01X13197Y5875D01*
G01X13177Y5873D01*
G01X13153Y5872D01*
G01X13128Y5871D01*
G01X13101Y5870D01*
G01X13073Y5869D01*
G01X12943Y5869D01*
G01X12919Y5871D01*
G01X12900Y5873D01*
G01X12885Y5877D01*
G01X12872Y5883D01*
G01X12858Y5890D01*
G01X12843Y5901D01*
G01X12825Y5914D01*
G01X12812Y5927D01*
G01X12802Y5940D01*
G01X12796Y5953D01*
G01X12794Y5968D01*
G01X12795Y5984D01*
G01X12799Y6002D01*
G01X12807Y6023D01*
G01X12813Y6040D01*
G01X12822Y6067D01*
G01X12823Y6073D01*
G01X12820Y6082D01*
G01X12810Y6098D01*
G01X12796Y6118D01*
G01X12780Y6140D01*
G01X12763Y6162D01*
G01X12746Y6182D01*
G01X12733Y6197D01*
G37*

%LPC*%
G36*
G01X12673Y5826D02*
G01X12662Y5832D01*
G01X12648Y5829D01*
G01X12648Y5818D01*
G01X12665Y5795D01*
G01X12719Y5735D01*
G01X12736Y5719D01*
G01X12750Y5707D01*
G01X12761Y5699D01*
G01X12770Y5694D01*
G01X12775Y5693D01*
G01X12778Y5696D01*
G01X12777Y5702D01*
G01X12772Y5712D01*
G01X12764Y5726D01*
G01X12752Y5742D01*
G01X12736Y5763D01*
G01X12713Y5789D01*
G01X12692Y5811D01*
G01X12673Y5826D01*
G37*
G36*
G01X12649Y5794D02*
G01X12641Y5799D01*
G01X12634Y5796D01*
G01X12635Y5786D01*
G01X12646Y5767D01*
G01X12665Y5738D01*
G01X12680Y5721D01*
G01X12693Y5707D01*
G01X12705Y5698D01*
G01X12713Y5694D01*
G01X12715Y5699D01*
G01X12711Y5711D01*
G01X12702Y5727D01*
G01X12689Y5746D01*
G01X12675Y5765D01*
G01X12661Y5782D01*
G01X12649Y5794D01*
G37*
G36*
G01X12655Y5727D02*
G01X12634Y5752D01*
G01X12633Y5728D01*
G01X12634Y5718D01*
G01X12638Y5709D01*
G01X12643Y5702D01*
G01X12649Y5698D01*
G01X12664Y5694D01*
G01X12670Y5698D01*
G01X12667Y5709D01*
G01X12655Y5727D01*
G37*
G36*
G01X12658Y5915D02*
G01X12656Y5915D01*
G01X12660Y5902D01*
G01X12673Y5877D01*
G01X12686Y5856D01*
G01X12701Y5833D01*
G01X12718Y5810D01*
G01X12737Y5787D01*
G01X12756Y5765D01*
G01X12775Y5744D01*
G01X12793Y5726D01*
G01X12810Y5712D01*
G01X12824Y5701D01*
G01X12835Y5695D01*
G01X12842Y5695D01*
G01X12845Y5701D01*
G01X12843Y5703D01*
G01X12840Y5709D01*
G01X12834Y5716D01*
G01X12826Y5726D01*
G01X12815Y5739D01*
G01X12802Y5754D01*
G01X12786Y5772D01*
G01X12768Y5793D01*
G01X12747Y5817D01*
G01X12723Y5843D01*
G01X12697Y5873D01*
G01X12668Y5905D01*
G01X12658Y5915D01*
G37*
G36*
G01X13053Y5840D02*
G01X13040Y5840D01*
G01X13038Y5830D01*
G01X13051Y5807D01*
G01X13078Y5765D01*
G01X13106Y5731D01*
G01X13129Y5709D01*
G01X13146Y5703D01*
G01X13152Y5713D01*
G01X13148Y5724D01*
G01X13139Y5741D01*
G01X13125Y5761D01*
G01X13109Y5783D01*
G01X13092Y5804D01*
G01X13076Y5822D01*
G01X13063Y5835D01*
G01X13053Y5840D01*
G37*
G36*
G01X12951Y5830D02*
G01X12942Y5830D01*
G01X12932Y5826D01*
G01X12933Y5817D01*
G01X12944Y5798D01*
G01X12969Y5765D01*
G01X12989Y5742D01*
G01X13009Y5723D01*
G01X13025Y5709D01*
G01X13036Y5705D01*
G01X13045Y5707D01*
G01X13047Y5714D01*
G01X13039Y5730D01*
G01X13023Y5758D01*
G01X13009Y5779D01*
G01X12995Y5798D01*
G01X12984Y5813D01*
G01X12976Y5822D01*
G01X12969Y5826D01*
G01X12960Y5829D01*
G01X12951Y5830D01*
G37*
G36*
G01X13008Y5835D02*
G01X13002Y5836D01*
G01X12995Y5831D01*
G01X12996Y5822D01*
G01X13007Y5803D01*
G01X13032Y5765D01*
G01X13049Y5741D01*
G01X13064Y5722D01*
G01X13077Y5709D01*
G01X13086Y5705D01*
G01X13094Y5706D01*
G01X13092Y5716D01*
G01X13075Y5745D01*
G01X13038Y5803D01*
G01X13027Y5817D01*
G01X13016Y5829D01*
G01X13008Y5835D01*
G37*
G36*
G01X13109Y5842D02*
G01X13093Y5848D01*
G01X13091Y5841D01*
G01X13103Y5816D01*
G01X13132Y5771D01*
G01X13152Y5742D01*
G01X13170Y5721D01*
G01X13185Y5709D01*
G01X13196Y5705D01*
G01X13206Y5707D01*
G01X13206Y5715D01*
G01X13195Y5731D01*
G01X13174Y5759D01*
G01X13157Y5781D01*
G01X13143Y5800D01*
G01X13134Y5815D01*
G01X13131Y5822D01*
G01X13129Y5826D01*
G01X13124Y5832D01*
G01X13118Y5837D01*
G01X13109Y5842D01*
G37*
G36*
G01X12879Y5842D02*
G01X12874Y5842D01*
G01X12870Y5840D01*
G01X12867Y5838D01*
G01X12866Y5834D01*
G01X12871Y5825D01*
G01X12884Y5807D01*
G01X12903Y5786D01*
G01X12924Y5762D01*
G01X12965Y5721D01*
G01X12980Y5709D01*
G01X12987Y5706D01*
G01X12986Y5715D01*
G01X12976Y5731D01*
G01X12961Y5753D01*
G01X12943Y5777D01*
G01X12923Y5801D01*
G01X12904Y5822D01*
G01X12889Y5836D01*
G01X12879Y5842D01*
G37*
G36*
G01X13161Y5847D02*
G01X13155Y5847D01*
G01X13149Y5846D01*
G01X13143Y5844D01*
G01X13141Y5836D01*
G01X13148Y5821D01*
G01X13162Y5799D01*
G01X13184Y5771D01*
G01X13217Y5731D01*
G01X13239Y5711D01*
G01X13253Y5707D01*
G01X13263Y5716D01*
G01X13262Y5724D01*
G01X13254Y5739D01*
G01X13241Y5759D01*
G01X13226Y5782D01*
G01X13209Y5803D01*
G01X13192Y5823D01*
G01X13177Y5838D01*
G01X13167Y5846D01*
G01X13161Y5847D01*
G37*
G36*
G01X12669Y6022D02*
G01X12629Y6059D01*
G01X12651Y6024D01*
G01X12657Y6015D01*
G01X12668Y6000D01*
G01X12682Y5982D01*
G01X12699Y5961D01*
G01X12718Y5937D01*
G01X12740Y5911D01*
G01X12809Y5830D01*
G01X12830Y5805D01*
G01X12849Y5782D01*
G01X12865Y5762D01*
G01X12878Y5745D01*
G01X12888Y5732D01*
G01X12893Y5723D01*
G01X12895Y5719D01*
G01X12891Y5721D01*
G01X12871Y5741D01*
G01X12856Y5757D01*
G01X12838Y5777D01*
G01X12817Y5801D01*
G01X12794Y5827D01*
G01X12770Y5855D01*
G01X12746Y5884D01*
G01X12723Y5911D01*
G01X12702Y5935D01*
G01X12683Y5957D01*
G01X12667Y5976D01*
G01X12655Y5991D01*
G01X12646Y6001D01*
G01X12642Y6006D01*
G01X12638Y6008D01*
G01X12635Y6007D01*
G01X12634Y6002D01*
G01X12633Y5994D01*
G01X12634Y5984D01*
G01X12638Y5972D01*
G01X12646Y5958D01*
G01X12659Y5940D01*
G01X12677Y5917D01*
G01X12701Y5889D01*
G01X12733Y5853D01*
G01X12773Y5809D01*
G01X12802Y5777D01*
G01X12825Y5753D01*
G01X12843Y5735D01*
G01X12858Y5722D01*
G01X12871Y5714D01*
G01X12883Y5709D01*
G01X12895Y5707D01*
G01X12928Y5707D01*
G01X12940Y5709D01*
G01X12945Y5713D01*
G01X12943Y5720D01*
G01X12938Y5727D01*
G01X12930Y5738D01*
G01X12917Y5752D01*
G01X12902Y5770D01*
G01X12883Y5791D01*
G01X12863Y5814D01*
G01X12842Y5838D01*
G01X12773Y5913D01*
G01X12751Y5937D01*
G01X12730Y5960D01*
G01X12710Y5980D01*
G01X12693Y5998D01*
G01X12680Y6012D01*
G01X12669Y6022D01*
G37*
G36*
G01X13198Y5848D02*
G01X13195Y5848D01*
G01X13205Y5828D01*
G01X13227Y5801D01*
G01X13250Y5777D01*
G01X13264Y5771D01*
G01X13263Y5776D01*
G01X13257Y5787D01*
G01X13247Y5801D01*
G01X13232Y5818D01*
G01X13218Y5832D01*
G01X13206Y5843D01*
G01X13198Y5848D01*
G37*
G36*
G01X13242Y5853D02*
G01X13235Y5853D01*
G01X13227Y5851D01*
G01X13226Y5849D01*
G01X13227Y5846D01*
G01X13231Y5842D01*
G01X13235Y5837D01*
G01X13242Y5832D01*
G01X13250Y5826D01*
G01X13255Y5825D01*
G01X13257Y5828D01*
G01X13257Y5836D01*
G01X13256Y5842D01*
G01X13253Y5848D01*
G01X13248Y5851D01*
G01X13242Y5853D01*
G37*
G36*
G01X12808Y5901D02*
G01X12804Y5903D01*
G01X12802Y5902D01*
G01X12807Y5894D01*
G01X12819Y5884D01*
G01X12831Y5877D01*
G01X12839Y5876D01*
G01X12839Y5878D01*
G01X12836Y5883D01*
G01X12831Y5888D01*
G01X12815Y5898D01*
G01X12808Y5901D01*
G37*
G36*
G01X12660Y6102D02*
G01X12652Y6107D01*
G01X12642Y6099D01*
G01X12647Y6080D01*
G01X12664Y6051D01*
G01X12691Y6019D01*
G01X12721Y5990D01*
G01X12742Y5973D01*
G01X12756Y5970D01*
G01X12760Y5979D01*
G01X12756Y5988D01*
G01X12744Y6004D01*
G01X12728Y6025D01*
G01X12710Y6048D01*
G01X12691Y6070D01*
G01X12673Y6089D01*
G01X12660Y6102D01*
G37*
G36*
G01X12790Y6028D02*
G01X12787Y6029D01*
G01X12783Y6026D01*
G01X12780Y6022D01*
G01X12777Y6015D01*
G01X12773Y6006D01*
G01X12773Y6002D01*
G01X12776Y6003D01*
G01X12787Y6014D01*
G01X12790Y6020D01*
G01X12791Y6025D01*
G01X12790Y6028D01*
G37*
G36*
G01X12700Y6158D02*
G01X12689Y6163D01*
G01X12680Y6159D01*
G01X12674Y6153D01*
G01X12669Y6146D01*
G01X12666Y6140D01*
G01X12665Y6134D01*
G01X12668Y6125D01*
G01X12678Y6110D01*
G01X12691Y6092D01*
G01X12707Y6072D01*
G01X12724Y6053D01*
G01X12739Y6038D01*
G01X12752Y6026D01*
G01X12760Y6022D01*
G01X12773Y6029D01*
G01X12773Y6048D01*
G01X12761Y6077D01*
G01X12738Y6113D01*
G01X12716Y6142D01*
G01X12700Y6158D01*
G37*
G36*
G01X12726Y6177D02*
G01X12715Y6182D01*
G01X12714Y6174D01*
G01X12725Y6155D01*
G01X12746Y6124D01*
G01X12760Y6105D01*
G01X12774Y6090D01*
G01X12784Y6081D01*
G01X12789Y6079D01*
G01X12784Y6096D01*
G01X12766Y6127D01*
G01X12744Y6158D01*
G01X12726Y6177D01*
G37*

%LPD*%
G36*
G01X12952Y5613D02*
G01X12923Y5613D01*
G01X12896Y5611D01*
G01X12868Y5608D01*
G01X12842Y5605D01*
G01X12818Y5600D01*
G01X12796Y5595D01*
G01X12776Y5588D01*
G01X12755Y5579D01*
G01X12734Y5568D01*
G01X12714Y5556D01*
G01X12694Y5542D01*
G01X12676Y5527D01*
G01X12659Y5511D01*
G01X12643Y5494D01*
G01X12629Y5477D01*
G01X12617Y5459D01*
G01X12606Y5442D01*
G01X12598Y5424D01*
G01X12593Y5406D01*
G01X12587Y5382D01*
G01X12584Y5357D01*
G01X12582Y5331D01*
G01X12581Y5305D01*
G01X12583Y5278D01*
G01X12585Y5252D01*
G01X12590Y5226D01*
G01X12596Y5200D01*
G01X12603Y5175D01*
G01X12612Y5152D01*
G01X12621Y5130D01*
G01X12631Y5109D01*
G01X12642Y5090D01*
G01X12654Y5071D01*
G01X12668Y5054D01*
G01X12681Y5038D01*
G01X12696Y5023D01*
G01X12712Y5009D01*
G01X12729Y4997D01*
G01X12746Y4986D01*
G01X12764Y4976D01*
G01X12783Y4967D01*
G01X12803Y4960D01*
G01X12824Y4954D01*
G01X12845Y4949D01*
G01X12867Y4946D01*
G01X12890Y4944D01*
G01X12914Y4943D01*
G01X12944Y4945D01*
G01X12975Y4948D01*
G01X13005Y4954D01*
G01X13033Y4961D01*
G01X13057Y4969D01*
G01X13076Y4977D01*
G01X13088Y4986D01*
G01X13091Y4994D01*
G01X13091Y4998D01*
G01X13093Y5000D01*
G01X13098Y5001D01*
G01X13103Y5000D01*
G01X13114Y5001D01*
G01X13130Y5009D01*
G01X13149Y5023D01*
G01X13169Y5041D01*
G01X13190Y5063D01*
G01X13209Y5085D01*
G01X13225Y5107D01*
G01X13237Y5128D01*
G01X13246Y5149D01*
G01X13253Y5172D01*
G01X13260Y5197D01*
G01X13265Y5223D01*
G01X13269Y5251D01*
G01X13272Y5280D01*
G01X13274Y5340D01*
G01X13272Y5363D01*
G01X13269Y5385D01*
G01X13265Y5407D01*
G01X13258Y5428D01*
G01X13250Y5448D01*
G01X13241Y5468D01*
G01X13230Y5486D01*
G01X13218Y5504D01*
G01X13204Y5521D01*
G01X13189Y5536D01*
G01X13173Y5550D01*
G01X13156Y5563D01*
G01X13138Y5574D01*
G01X13119Y5584D01*
G01X13098Y5592D01*
G01X13077Y5599D01*
G01X13056Y5604D01*
G01X13032Y5608D01*
G01X13006Y5611D01*
G01X12952Y5613D01*
G37*

%LPC*%
G36*
G01X12912Y4972D02*
G01X12887Y4973D01*
G01X12847Y4971D01*
G01X12828Y4969D01*
G01X12827Y4966D01*
G01X12840Y4960D01*
G01X12869Y4955D01*
G01X12905Y4954D01*
G01X12937Y4957D01*
G01X12951Y4963D01*
G01X12946Y4967D01*
G01X12932Y4970D01*
G01X12912Y4972D01*
G37*
G36*
G01X13030Y4983D02*
G01X13025Y4984D01*
G01X13017Y4983D01*
G01X13007Y4981D01*
G01X12997Y4978D01*
G01X12988Y4975D01*
G01X12980Y4971D01*
G01X12976Y4968D01*
G01X12977Y4966D01*
G01X12982Y4965D01*
G01X12990Y4966D01*
G01X13000Y4968D01*
G01X13010Y4971D01*
G01X13019Y4975D01*
G01X13027Y4978D01*
G01X13031Y4981D01*
G01X13030Y4983D01*
G37*
G36*
G01X12613Y5277D02*
G01X12606Y5279D01*
G01X12602Y5276D01*
G01X12602Y5257D01*
G01X12606Y5247D01*
G01X12614Y5234D01*
G01X12625Y5219D01*
G01X12641Y5201D01*
G01X12662Y5178D01*
G01X12723Y5117D01*
G01X12761Y5080D01*
G01X12793Y5050D01*
G01X12821Y5026D01*
G01X12843Y5007D01*
G01X12862Y4994D01*
G01X12876Y4987D01*
G01X12886Y4985D01*
G01X12893Y4987D01*
G01X12890Y4991D01*
G01X12870Y5016D01*
G01X12852Y5035D01*
G01X12831Y5058D01*
G01X12806Y5084D01*
G01X12779Y5113D01*
G01X12749Y5144D01*
G01X12705Y5191D01*
G01X12670Y5226D01*
G01X12644Y5251D01*
G01X12625Y5268D01*
G01X12613Y5277D01*
G37*
G36*
G01X12850Y5127D02*
G01X12842Y5127D01*
G01X12836Y5125D01*
G01X12834Y5123D01*
G01X12840Y5113D01*
G01X12856Y5095D01*
G01X12878Y5073D01*
G01X12904Y5048D01*
G01X12931Y5025D01*
G01X12955Y5006D01*
G01X12973Y4994D01*
G01X12982Y4990D01*
G01X12983Y4999D01*
G01X12974Y5015D01*
G01X12959Y5036D01*
G01X12939Y5059D01*
G01X12916Y5083D01*
G01X12894Y5103D01*
G01X12875Y5118D01*
G01X12860Y5125D01*
G01X12850Y5127D01*
G37*
G36*
G01X12609Y5323D02*
G01X12601Y5326D01*
G01X12603Y5321D01*
G01X12610Y5312D01*
G01X12619Y5299D01*
G01X12632Y5284D01*
G01X12648Y5266D01*
G01X12666Y5247D01*
G01X12686Y5226D01*
G01X12707Y5204D01*
G01X12753Y5158D01*
G01X12776Y5134D01*
G01X12798Y5111D01*
G01X12820Y5090D01*
G01X12839Y5071D01*
G01X12855Y5054D01*
G01X12868Y5041D01*
G01X12890Y5020D01*
G01X12908Y5003D01*
G01X12922Y4993D01*
G01X12928Y4991D01*
G01X12925Y4998D01*
G01X12914Y5013D01*
G01X12896Y5033D01*
G01X12873Y5057D01*
G01X12850Y5082D01*
G01X12831Y5104D01*
G01X12818Y5121D01*
G01X12813Y5131D01*
G01X12812Y5136D01*
G01X12809Y5140D01*
G01X12805Y5143D01*
G01X12800Y5144D01*
G01X12787Y5151D01*
G01X12763Y5173D01*
G01X12731Y5204D01*
G01X12694Y5242D01*
G01X12658Y5279D01*
G01X12629Y5307D01*
G01X12609Y5323D01*
G37*
G36*
G01X12637Y5180D02*
G01X12628Y5185D01*
G01X12622Y5184D01*
G01X12621Y5179D01*
G01X12625Y5169D01*
G01X12634Y5154D01*
G01X12648Y5136D01*
G01X12658Y5123D01*
G01X12665Y5111D01*
G01X12668Y5103D01*
G01X12668Y5098D01*
G01X12671Y5085D01*
G01X12686Y5064D01*
G01X12710Y5042D01*
G01X12734Y5025D01*
G01X12738Y5024D01*
G01X12736Y5030D01*
G01X12727Y5042D01*
G01X12713Y5058D01*
G01X12697Y5075D01*
G01X12686Y5089D01*
G01X12681Y5098D01*
G01X12682Y5101D01*
G01X12690Y5097D01*
G01X12704Y5086D01*
G01X12722Y5069D01*
G01X12742Y5048D01*
G01X12763Y5028D01*
G01X12782Y5011D01*
G01X12798Y5000D01*
G01X12810Y4996D01*
G01X12815Y4999D01*
G01X12810Y5009D01*
G01X12796Y5026D01*
G01X12771Y5050D01*
G01X12744Y5074D01*
G01X12716Y5101D01*
G01X12689Y5128D01*
G01X12667Y5152D01*
G01X12651Y5169D01*
G01X12637Y5180D01*
G37*
G36*
G01X12935Y5108D02*
G01X12928Y5112D01*
G01X12919Y5109D01*
G01X12923Y5096D01*
G01X12941Y5075D01*
G01X12972Y5043D01*
G01X12992Y5024D01*
G01X13009Y5009D01*
G01X13021Y5000D01*
G01X13025Y5000D01*
G01X13021Y5008D01*
G01X13011Y5022D01*
G01X12997Y5040D01*
G01X12963Y5080D01*
G01X12935Y5108D01*
G37*
G36*
G01X12977Y5119D02*
G01X12966Y5121D01*
G01X12959Y5117D01*
G01X12961Y5107D01*
G01X12975Y5088D01*
G01X13001Y5059D01*
G01X13025Y5034D01*
G01X13044Y5018D01*
G01X13057Y5011D01*
G01X13065Y5011D01*
G01X13067Y5019D01*
G01X13062Y5032D01*
G01X13049Y5050D01*
G01X13030Y5073D01*
G01X13010Y5095D01*
G01X12992Y5110D01*
G01X12977Y5119D01*
G37*
G36*
G01X13027Y5131D02*
G01X13016Y5137D01*
G01X13010Y5135D01*
G01X13011Y5127D01*
G01X13018Y5113D01*
G01X13031Y5096D01*
G01X13046Y5077D01*
G01X13062Y5058D01*
G01X13077Y5042D01*
G01X13091Y5032D01*
G01X13100Y5028D01*
G01X13108Y5031D01*
G01X13105Y5042D01*
G01X13091Y5063D01*
G01X13063Y5096D01*
G01X13043Y5117D01*
G01X13027Y5131D01*
G37*
G36*
G01X13113Y5185D02*
G01X13091Y5198D01*
G01X13080Y5195D01*
G01X13081Y5174D01*
G01X13083Y5165D01*
G01X13082Y5160D01*
G01X13079Y5160D01*
G01X13073Y5165D01*
G01X13066Y5169D01*
G01X13060Y5170D01*
G01X13054Y5168D01*
G01X13047Y5162D01*
G01X13047Y5151D01*
G01X13054Y5134D01*
G01X13069Y5115D01*
G01X13087Y5095D01*
G01X13107Y5076D01*
G01X13127Y5063D01*
G01X13143Y5055D01*
G01X13154Y5057D01*
G01X13158Y5065D01*
G01X13157Y5074D01*
G01X13148Y5087D01*
G01X13133Y5105D01*
G01X13117Y5121D01*
G01X13106Y5135D01*
G01X13101Y5144D01*
G01X13100Y5148D01*
G01X13103Y5148D01*
G01X13111Y5144D01*
G01X13123Y5134D01*
G01X13140Y5119D01*
G01X13161Y5100D01*
G01X13176Y5090D01*
G01X13186Y5086D01*
G01X13190Y5090D01*
G01X13188Y5099D01*
G01X13180Y5114D01*
G01X13166Y5133D01*
G01X13146Y5155D01*
G01X13113Y5185D01*
G37*
G36*
G01X13130Y5241D02*
G01X13115Y5248D01*
G01X13107Y5247D01*
G01X13101Y5234D01*
G01X13103Y5222D01*
G01X13119Y5203D01*
G01X13151Y5171D01*
G01X13183Y5143D01*
G01X13206Y5130D01*
G01X13221Y5132D01*
G01X13226Y5149D01*
G01X13221Y5161D01*
G01X13209Y5176D01*
G01X13191Y5194D01*
G01X13170Y5212D01*
G01X13149Y5229D01*
G01X13130Y5241D01*
G37*
G36*
G01X12976Y5434D02*
G01X12930Y5435D01*
G01X12885Y5434D01*
G01X12856Y5430D01*
G01X12835Y5423D01*
G01X12818Y5409D01*
G01X12805Y5396D01*
G01X12793Y5380D01*
G01X12782Y5363D01*
G01X12775Y5348D01*
G01X12765Y5320D01*
G01X12761Y5292D01*
G01X12761Y5264D01*
G01X12766Y5238D01*
G01X12775Y5213D01*
G01X12788Y5191D01*
G01X12805Y5173D01*
G01X12825Y5159D01*
G01X12843Y5151D01*
G01X12862Y5146D01*
G01X12882Y5143D01*
G01X12903Y5142D01*
G01X12924Y5143D01*
G01X12945Y5146D01*
G01X12966Y5152D01*
G01X12986Y5159D01*
G01X13005Y5167D01*
G01X13023Y5178D01*
G01X13040Y5190D01*
G01X13056Y5203D01*
G01X13069Y5217D01*
G01X13080Y5232D01*
G01X13089Y5249D01*
G01X13095Y5267D01*
G01X13097Y5282D01*
G01X13097Y5300D01*
G01X13093Y5318D01*
G01X13088Y5337D01*
G01X13080Y5355D01*
G01X13070Y5373D01*
G01X13059Y5389D01*
G01X13045Y5403D01*
G01X13025Y5421D01*
G01X13005Y5430D01*
G01X12976Y5434D01*
G37*
G36*
G01X13120Y5324D02*
G01X13111Y5325D01*
G01X13109Y5312D01*
G01X13111Y5303D01*
G01X13115Y5292D01*
G01X13122Y5280D01*
G01X13133Y5266D01*
G01X13147Y5251D01*
G01X13165Y5234D01*
G01X13186Y5215D01*
G01X13211Y5193D01*
G01X13223Y5184D01*
G01X13231Y5181D01*
G01X13236Y5183D01*
G01X13239Y5190D01*
G01X13237Y5201D01*
G01X13225Y5219D01*
G01X13205Y5243D01*
G01X13177Y5272D01*
G01X13140Y5307D01*
G01X13120Y5324D01*
G37*
G36*
G01X12739Y5276D02*
G01X12735Y5277D01*
G01X12731Y5275D01*
G01X12729Y5269D01*
G01X12728Y5261D01*
G01X12729Y5253D01*
G01X12731Y5245D01*
G01X12735Y5238D01*
G01X12739Y5234D01*
G01X12743Y5233D01*
G01X12746Y5235D01*
G01X12748Y5241D01*
G01X12749Y5248D01*
G01X12748Y5257D01*
G01X12746Y5265D01*
G01X12743Y5272D01*
G01X12739Y5276D01*
G37*
G36*
G01X12928Y5590D02*
G01X12916Y5599D01*
G01X12912Y5598D01*
G01X12910Y5595D01*
G01X12910Y5590D01*
G01X12913Y5584D01*
G01X12918Y5576D01*
G01X12925Y5565D01*
G01X12934Y5553D01*
G01X12946Y5538D01*
G01X12960Y5521D01*
G01X12976Y5503D01*
G01X12994Y5482D01*
G01X13015Y5460D01*
G01X13039Y5435D01*
G01X13065Y5408D01*
G01X13093Y5379D01*
G01X13123Y5348D01*
G01X13160Y5311D01*
G01X13190Y5282D01*
G01X13213Y5262D01*
G01X13231Y5249D01*
G01X13243Y5243D01*
G01X13252Y5244D01*
G01X13256Y5251D01*
G01X13257Y5263D01*
G01X13255Y5267D01*
G01X13248Y5275D01*
G01X13237Y5287D01*
G01X13223Y5302D01*
G01X13206Y5320D01*
G01X13091Y5435D01*
G01X13066Y5459D01*
G01X13041Y5484D01*
G01X13017Y5507D01*
G01X12995Y5528D01*
G01X12974Y5548D01*
G01X12956Y5565D01*
G01X12940Y5579D01*
G01X12928Y5590D01*
G37*
G36*
G01X12667Y5349D02*
G01X12617Y5401D01*
G01X12616Y5395D01*
G01X12614Y5384D01*
G01X12613Y5374D01*
G01X12612Y5366D01*
G01X12616Y5357D01*
G01X12626Y5342D01*
G01X12640Y5323D01*
G01X12657Y5302D01*
G01X12675Y5282D01*
G01X12690Y5266D01*
G01X12703Y5254D01*
G01X12711Y5250D01*
G01X12714Y5251D01*
G01X12716Y5257D01*
G01X12717Y5264D01*
G01X12718Y5273D01*
G01X12714Y5286D01*
G01X12703Y5305D01*
G01X12688Y5326D01*
G01X12667Y5349D01*
G37*
G36*
G01X12982Y5596D02*
G01X12974Y5597D01*
G01X12968Y5596D01*
G01X12964Y5594D01*
G01X12966Y5590D01*
G01X12974Y5580D01*
G01X12987Y5565D01*
G01X13005Y5546D01*
G01X13026Y5524D01*
G01X13050Y5500D01*
G01X13075Y5473D01*
G01X13102Y5446D01*
G01X13128Y5419D01*
G01X13155Y5393D01*
G01X13180Y5369D01*
G01X13202Y5347D01*
G01X13222Y5329D01*
G01X13237Y5315D01*
G01X13248Y5306D01*
G01X13253Y5303D01*
G01X13255Y5303D01*
G01X13257Y5309D01*
G01X13257Y5313D01*
G01X13255Y5319D01*
G01X13247Y5330D01*
G01X13235Y5345D01*
G01X13219Y5363D01*
G01X13200Y5384D01*
G01X13179Y5408D01*
G01X13156Y5432D01*
G01X13133Y5457D01*
G01X13085Y5507D01*
G01X13042Y5550D01*
G01X13024Y5567D01*
G01X13009Y5581D01*
G01X12998Y5590D01*
G01X12991Y5594D01*
G01X12982Y5596D01*
G37*
G36*
G01X12660Y5399D02*
G01X12625Y5430D01*
G01X12618Y5406D01*
G01X12617Y5401D01*
G01X12670Y5357D01*
G01X12696Y5336D01*
G01X12713Y5326D01*
G01X12722Y5324D01*
G01X12727Y5331D01*
G01X12727Y5338D01*
G01X12724Y5346D01*
G01X12719Y5353D01*
G01X12713Y5358D01*
G01X12703Y5364D01*
G01X12690Y5374D01*
G01X12675Y5386D01*
G01X12660Y5399D01*
G37*
G36*
G01X12665Y5478D02*
G01X12656Y5478D01*
G01X12645Y5465D01*
G01X12647Y5447D01*
G01X12661Y5424D01*
G01X12688Y5396D01*
G01X12717Y5370D01*
G01X12735Y5358D01*
G01X12746Y5359D01*
G01X12753Y5372D01*
G01X12752Y5383D01*
G01X12744Y5399D01*
G01X12731Y5418D01*
G01X12714Y5437D01*
G01X12697Y5455D01*
G01X12680Y5469D01*
G01X12665Y5478D01*
G37*
G36*
G01X13054Y5582D02*
G01X13048Y5582D01*
G01X13046Y5579D01*
G01X13048Y5575D01*
G01X13054Y5567D01*
G01X13064Y5556D01*
G01X13076Y5541D01*
G01X13091Y5524D01*
G01X13109Y5505D01*
G01X13128Y5484D01*
G01X13149Y5462D01*
G01X13172Y5438D01*
G01X13210Y5400D01*
G01X13226Y5386D01*
G01X13238Y5376D01*
G01X13247Y5370D01*
G01X13253Y5367D01*
G01X13257Y5368D01*
G01X13257Y5373D01*
G01X13254Y5382D01*
G01X13248Y5394D01*
G01X13239Y5411D01*
G01X13231Y5425D01*
G01X13225Y5438D01*
G01X13222Y5449D01*
G01X13222Y5456D01*
G01X13218Y5473D01*
G01X13201Y5497D01*
G01X13180Y5518D01*
G01X13160Y5528D01*
G01X13152Y5531D01*
G01X13142Y5536D01*
G01X13132Y5542D01*
G01X13123Y5548D01*
G01X13113Y5556D01*
G01X13101Y5564D01*
G01X13088Y5571D01*
G01X13075Y5577D01*
G01X13064Y5580D01*
G01X13054Y5582D01*
G37*
G36*
G01X12707Y5515D02*
G01X12695Y5521D01*
G01X12687Y5519D01*
G01X12684Y5509D01*
G01X12687Y5494D01*
G01X12696Y5476D01*
G01X12709Y5457D01*
G01X12725Y5438D01*
G01X12741Y5423D01*
G01X12758Y5412D01*
G01X12772Y5409D01*
G01X12788Y5411D01*
G01X12789Y5423D01*
G01X12775Y5444D01*
G01X12745Y5479D01*
G01X12724Y5501D01*
G01X12707Y5515D01*
G37*
G36*
G01X12768Y5533D02*
G01X12747Y5546D01*
G01X12730Y5543D01*
G01X12726Y5533D01*
G01X12736Y5514D01*
G01X12759Y5485D01*
G01X12785Y5460D01*
G01X12809Y5444D01*
G01X12827Y5438D01*
G01X12834Y5447D01*
G01X12823Y5470D01*
G01X12797Y5503D01*
G01X12768Y5533D01*
G37*
G36*
G01X12807Y5544D02*
G01X12789Y5557D01*
G01X12782Y5553D01*
G01X12784Y5543D01*
G01X12794Y5526D01*
G01X12814Y5501D01*
G01X12836Y5478D01*
G01X12856Y5464D01*
G01X12871Y5461D01*
G01X12877Y5470D01*
G01X12864Y5488D01*
G01X12836Y5517D01*
G01X12807Y5544D01*
G37*
G36*
G01X12836Y5582D02*
G01X12827Y5588D01*
G01X12812Y5584D01*
G01X12812Y5572D01*
G01X12826Y5549D01*
G01X12856Y5516D01*
G01X12881Y5491D01*
G01X12901Y5473D01*
G01X12916Y5463D01*
G01X12925Y5461D01*
G01X12927Y5466D01*
G01X12922Y5478D01*
G01X12910Y5498D01*
G01X12890Y5524D01*
G01X12869Y5548D01*
G01X12851Y5569D01*
G01X12836Y5582D01*
G37*
G36*
G01X12870Y5588D02*
G01X12864Y5588D01*
G01X12860Y5587D01*
G01X12856Y5585D01*
G01X12855Y5584D01*
G01X12860Y5575D01*
G01X12873Y5559D01*
G01X12892Y5538D01*
G01X12914Y5516D01*
G01X12936Y5495D01*
G01X12956Y5478D01*
G01X12970Y5466D01*
G01X12977Y5463D01*
G01X12976Y5472D01*
G01X12967Y5487D01*
G01X12953Y5507D01*
G01X12934Y5530D01*
G01X12915Y5551D01*
G01X12896Y5570D01*
G01X12880Y5583D01*
G01X12870Y5588D01*
G37*

%LPD*%
G36*
G01X13160Y5518D02*
G01X13153Y5521D01*
G01X13160Y5507D01*
G01X13183Y5480D01*
G01X13195Y5467D01*
G01X13206Y5459D01*
G01X13212Y5455D01*
G01X13215Y5457D01*
G01X13213Y5463D01*
G01X13206Y5473D01*
G01X13196Y5486D01*
G01X13184Y5498D01*
G01X13160Y5518D01*
G37*

%LPD*%
G36*
G01X13088Y4894D02*
G01X13065Y4894D01*
G01X13042Y4891D01*
G01X13019Y4884D01*
G01X12998Y4875D01*
G01X12977Y4862D01*
G01X12956Y4847D01*
G01X12937Y4828D01*
G01X12918Y4807D01*
G01X12900Y4783D01*
G01X12883Y4755D01*
G01X12868Y4726D01*
G01X12854Y4700D01*
G01X12842Y4679D01*
G01X12829Y4661D01*
G01X12818Y4647D01*
G01X12806Y4637D01*
G01X12795Y4630D01*
G01X12785Y4627D01*
G01X12774Y4627D01*
G01X12762Y4634D01*
G01X12757Y4648D01*
G01X12757Y4668D01*
G01X12765Y4694D01*
G01X12769Y4706D01*
G01X12769Y4710D01*
G01X12765Y4706D01*
G01X12756Y4695D01*
G01X12749Y4688D01*
G01X12744Y4684D01*
G01X12740Y4683D01*
G01X12739Y4686D01*
G01X12744Y4698D01*
G01X12755Y4710D01*
G01X12766Y4717D01*
G01X12771Y4714D01*
G01X12777Y4714D01*
G01X12792Y4732D01*
G01X12806Y4755D01*
G01X12813Y4774D01*
G01X12809Y4784D01*
G01X12799Y4799D01*
G01X12785Y4817D01*
G01X12749Y4851D01*
G01X12731Y4866D01*
G01X12716Y4876D01*
G01X12705Y4879D01*
G01X12695Y4876D01*
G01X12683Y4868D01*
G01X12668Y4855D01*
G01X12653Y4839D01*
G01X12638Y4820D01*
G01X12624Y4800D01*
G01X12611Y4779D01*
G01X12600Y4758D01*
G01X12592Y4735D01*
G01X12586Y4707D01*
G01X12582Y4674D01*
G01X12581Y4640D01*
G01X12581Y4606D01*
G01X12584Y4574D01*
G01X12588Y4546D01*
G01X12595Y4524D01*
G01X12608Y4500D01*
G01X12626Y4480D01*
G01X12648Y4462D01*
G01X12672Y4448D01*
G01X12699Y4438D01*
G01X12727Y4432D01*
G01X12755Y4430D01*
G01X12783Y4434D01*
G01X12799Y4438D01*
G01X12815Y4445D01*
G01X12831Y4453D01*
G01X12848Y4463D01*
G01X12865Y4475D01*
G01X12882Y4488D01*
G01X12898Y4502D01*
G01X12914Y4517D01*
G01X12930Y4534D01*
G01X12944Y4551D01*
G01X12958Y4569D01*
G01X12986Y4611D01*
G01X13004Y4634D01*
G01X13021Y4655D01*
G01X13038Y4673D01*
G01X13054Y4689D01*
G01X13069Y4700D01*
G01X13082Y4707D01*
G01X13092Y4710D01*
G01X13107Y4706D01*
G01X13120Y4694D01*
G01X13128Y4676D01*
G01X13131Y4653D01*
G01X13129Y4638D01*
G01X13124Y4619D01*
G01X13117Y4598D01*
G01X13108Y4578D01*
G01X13098Y4558D01*
G01X13088Y4541D01*
G01X13078Y4529D01*
G01X13070Y4522D01*
G01X13059Y4513D01*
G01X13059Y4500D01*
G01X13072Y4479D01*
G01X13097Y4452D01*
G01X13117Y4434D01*
G01X13135Y4422D01*
G01X13150Y4416D01*
G01X13163Y4415D01*
G01X13174Y4419D01*
G01X13185Y4426D01*
G01X13197Y4438D01*
G01X13209Y4452D01*
G01X13220Y4468D01*
G01X13231Y4487D01*
G01X13242Y4508D01*
G01X13251Y4530D01*
G01X13260Y4554D01*
G01X13268Y4578D01*
G01X13275Y4602D01*
G01X13280Y4626D01*
G01X13284Y4650D01*
G01X13286Y4672D01*
G01X13287Y4693D01*
G01X13285Y4713D01*
G01X13281Y4735D01*
G01X13274Y4756D01*
G01X13265Y4776D01*
G01X13254Y4795D01*
G01X13242Y4813D01*
G01X13227Y4829D01*
G01X13211Y4844D01*
G01X13194Y4857D01*
G01X13175Y4869D01*
G01X13155Y4879D01*
G01X13134Y4886D01*
G01X13112Y4892D01*
G01X13088Y4894D01*
G37*

%LPC*%
G36*
G01X13092Y4506D02*
G01X13086Y4509D01*
G01X13078Y4505D01*
G01X13080Y4495D01*
G01X13092Y4480D01*
G01X13113Y4462D01*
G01X13143Y4441D01*
G01X13156Y4436D01*
G01X13153Y4446D01*
G01X13131Y4472D01*
G01X13116Y4486D01*
G01X13103Y4498D01*
G01X13092Y4506D01*
G37*
G36*
G01X13123Y4519D02*
G01X13106Y4530D01*
G01X13098Y4526D01*
G01X13102Y4516D01*
G01X13117Y4500D01*
G01X13141Y4478D01*
G01X13157Y4466D01*
G01X13171Y4457D01*
G01X13180Y4453D01*
G01X13184Y4453D01*
G01X13173Y4470D01*
G01X13149Y4496D01*
G01X13123Y4519D01*
G37*
G36*
G01X12604Y4572D02*
G01X12603Y4572D01*
G01X12602Y4570D01*
G01X12602Y4567D01*
G01X12601Y4565D01*
G01X12606Y4556D01*
G01X12617Y4542D01*
G01X12632Y4524D01*
G01X12651Y4505D01*
G01X12670Y4487D01*
G01X12688Y4471D01*
G01X12702Y4460D01*
G01X12710Y4456D01*
G01X12710Y4461D01*
G01X12702Y4473D01*
G01X12686Y4492D01*
G01X12665Y4514D01*
G01X12642Y4537D01*
G01X12623Y4555D01*
G01X12610Y4568D01*
G01X12604Y4572D01*
G37*
G36*
G01X12609Y4604D02*
G01X12602Y4604D01*
G01X12609Y4592D01*
G01X12624Y4573D01*
G01X12645Y4550D01*
G01X12697Y4500D01*
G01X12722Y4479D01*
G01X12742Y4464D01*
G01X12756Y4457D01*
G01X12763Y4456D01*
G01X12771Y4456D01*
G01X12762Y4465D01*
G01X12742Y4483D01*
G01X12715Y4509D01*
G01X12683Y4540D01*
G01X12651Y4570D01*
G01X12626Y4592D01*
G01X12609Y4604D01*
G37*
G36*
G01X12594Y4663D02*
G01X12591Y4664D01*
G01X12591Y4661D01*
G01X12594Y4656D01*
G01X12600Y4647D01*
G01X12609Y4636D01*
G01X12621Y4623D01*
G01X12636Y4607D01*
G01X12653Y4589D01*
G01X12673Y4569D01*
G01X12704Y4539D01*
G01X12731Y4513D01*
G01X12753Y4493D01*
G01X12771Y4478D01*
G01X12786Y4467D01*
G01X12797Y4461D01*
G01X12805Y4459D01*
G01X12810Y4460D01*
G01X12809Y4464D01*
G01X12805Y4471D01*
G01X12796Y4481D01*
G01X12734Y4543D01*
G01X12713Y4563D01*
G01X12692Y4582D01*
G01X12669Y4602D01*
G01X12647Y4622D01*
G01X12625Y4641D01*
G01X12611Y4652D01*
G01X12601Y4660D01*
G01X12594Y4663D01*
G37*
G36*
G01X12618Y4517D02*
G01X12615Y4519D01*
G01X12612Y4518D01*
G01X12615Y4512D01*
G01X12624Y4502D01*
G01X12641Y4487D01*
G01X12670Y4461D01*
G01X12644Y4490D01*
G01X12634Y4502D01*
G01X12625Y4511D01*
G01X12618Y4517D01*
G37*
G36*
G01X12617Y4694D02*
G01X12605Y4700D01*
G01X12601Y4698D01*
G01X12606Y4689D01*
G01X12618Y4673D01*
G01X12637Y4653D01*
G01X12661Y4629D01*
G01X12688Y4603D01*
G01X12746Y4551D01*
G01X12773Y4527D01*
G01X12798Y4506D01*
G01X12833Y4481D01*
G01X12840Y4480D01*
G01X12840Y4482D01*
G01X12838Y4487D01*
G01X12832Y4494D01*
G01X12824Y4503D01*
G01X12813Y4514D01*
G01X12800Y4528D01*
G01X12783Y4544D01*
G01X12764Y4562D01*
G01X12742Y4583D01*
G01X12716Y4607D01*
G01X12688Y4633D01*
G01X12657Y4662D01*
G01X12635Y4681D01*
G01X12617Y4694D01*
G37*
G36*
G01X13147Y4545D02*
G01X13131Y4548D01*
G01X13134Y4536D01*
G01X13156Y4509D01*
G01X13175Y4493D01*
G01X13188Y4484D01*
G01X13198Y4481D01*
G01X13206Y4484D01*
G01X13209Y4491D01*
G01X13206Y4500D01*
G01X13196Y4511D01*
G01X13180Y4525D01*
G01X13147Y4545D01*
G37*
G36*
G01X12773Y4593D02*
G01X12768Y4593D01*
G01X12764Y4592D01*
G01X12761Y4591D01*
G01X12760Y4590D01*
G01X12764Y4584D01*
G01X12777Y4572D01*
G01X12794Y4557D01*
G01X12814Y4540D01*
G01X12835Y4525D01*
G01X12853Y4512D01*
G01X12866Y4503D01*
G01X12872Y4501D01*
G01X12871Y4507D01*
G01X12863Y4519D01*
G01X12849Y4534D01*
G01X12832Y4550D01*
G01X12814Y4566D01*
G01X12797Y4580D01*
G01X12782Y4590D01*
G01X12773Y4593D01*
G37*
G36*
G01X13168Y4574D02*
G01X13151Y4583D01*
G01X13147Y4582D01*
G01X13144Y4580D01*
G01X13142Y4577D01*
G01X13141Y4573D01*
G01X13153Y4559D01*
G01X13178Y4540D01*
G01X13206Y4526D01*
G01X13222Y4522D01*
G01X13215Y4534D01*
G01X13194Y4555D01*
G01X13168Y4574D01*
G37*
G36*
G01X12817Y4611D02*
G01X12810Y4615D01*
G01X12802Y4611D01*
G01X12806Y4600D01*
G01X12820Y4582D01*
G01X12845Y4557D01*
G01X12863Y4543D01*
G01X12879Y4532D01*
G01X12892Y4526D01*
G01X12900Y4526D01*
G01X12902Y4532D01*
G01X12897Y4542D01*
G01X12884Y4557D01*
G01X12865Y4574D01*
G01X12846Y4590D01*
G01X12830Y4603D01*
G01X12817Y4611D01*
G37*
G36*
G01X13180Y4615D02*
G01X13160Y4625D01*
G01X13152Y4621D01*
G01X13155Y4611D01*
G01X13169Y4594D01*
G01X13193Y4573D01*
G01X13210Y4561D01*
G01X13225Y4553D01*
G01X13235Y4549D01*
G01X13241Y4550D01*
G01X13233Y4566D01*
G01X13209Y4591D01*
G01X13180Y4615D01*
G37*
G36*
G01X12864Y4636D02*
G01X12846Y4642D01*
G01X12836Y4632D01*
G01X12836Y4621D01*
G01X12847Y4607D01*
G01X12869Y4589D01*
G01X12894Y4572D01*
G01X12913Y4563D01*
G01X12925Y4563D01*
G01X12929Y4570D01*
G01X12918Y4590D01*
G01X12892Y4615D01*
G01X12864Y4636D01*
G37*
G36*
G01X13192Y4659D02*
G01X13173Y4662D01*
G01X13164Y4653D01*
G01X13165Y4643D01*
G01X13179Y4629D01*
G01X13205Y4611D01*
G01X13233Y4592D01*
G01X13249Y4585D01*
G01X13256Y4587D01*
G01X13257Y4598D01*
G01X13246Y4617D01*
G01X13220Y4640D01*
G01X13192Y4659D01*
G37*
G36*
G01X12881Y4686D02*
G01X12874Y4689D01*
G01X12866Y4684D01*
G01X12868Y4670D01*
G01X12881Y4650D01*
G01X12902Y4626D01*
G01X12920Y4610D01*
G01X12935Y4601D01*
G01X12945Y4597D01*
G01X12952Y4598D01*
G01X12953Y4604D01*
G01X12949Y4615D01*
G01X12939Y4630D01*
G01X12923Y4648D01*
G01X12907Y4664D01*
G01X12892Y4677D01*
G01X12881Y4686D01*
G37*
G36*
G01X12734Y4665D02*
G01X12732Y4668D01*
G01X12728Y4661D01*
G01X12728Y4646D01*
G01X12732Y4630D01*
G01X12737Y4621D01*
G01X12740Y4621D01*
G01X12742Y4625D01*
G01X12743Y4632D01*
G01X12739Y4652D01*
G01X12736Y4660D01*
G01X12734Y4665D01*
G37*
G36*
G01X12917Y4722D02*
G01X12907Y4723D01*
G01X12900Y4718D01*
G01X12896Y4709D01*
G01X12898Y4698D01*
G01X12909Y4684D01*
G01X12928Y4664D01*
G01X12949Y4644D01*
G01X12963Y4635D01*
G01X12973Y4633D01*
G01X12980Y4639D01*
G01X12984Y4648D01*
G01X12981Y4658D01*
G01X12971Y4673D01*
G01X12952Y4693D01*
G01X12931Y4712D01*
G01X12917Y4722D01*
G37*
G36*
G01X13020Y4858D02*
G01X13011Y4858D01*
G01X13008Y4855D01*
G01X13009Y4849D01*
G01X13015Y4839D01*
G01X13027Y4826D01*
G01X13044Y4809D01*
G01X13067Y4788D01*
G01X13094Y4763D01*
G01X13128Y4734D01*
G01X13159Y4708D01*
G01X13185Y4686D01*
G01X13208Y4668D01*
G01X13227Y4654D01*
G01X13242Y4644D01*
G01X13253Y4638D01*
G01X13260Y4636D01*
G01X13268Y4640D01*
G01X13267Y4652D01*
G01X13258Y4665D01*
G01X13243Y4676D01*
G01X13236Y4680D01*
G01X13226Y4687D01*
G01X13213Y4697D01*
G01X13197Y4709D01*
G01X13181Y4723D01*
G01X13162Y4738D01*
G01X13124Y4772D01*
G01X13086Y4805D01*
G01X13055Y4832D01*
G01X13031Y4851D01*
G01X13020Y4858D01*
G37*
G36*
G01X12638Y4738D02*
G01X12618Y4752D01*
G01X12611Y4746D01*
G01X12616Y4731D01*
G01X12632Y4707D01*
G01X12659Y4678D01*
G01X12681Y4658D01*
G01X12696Y4647D01*
G01X12704Y4644D01*
G01X12707Y4650D01*
G01X12695Y4673D01*
G01X12668Y4707D01*
G01X12638Y4738D01*
G37*
G36*
G01X12955Y4753D02*
G01X12938Y4763D01*
G01X12930Y4758D01*
G01X12931Y4745D01*
G01X12941Y4727D01*
G01X12959Y4707D01*
G01X12981Y4689D01*
G01X12998Y4680D01*
G01X13010Y4680D01*
G01X13014Y4689D01*
G01X13004Y4706D01*
G01X12981Y4731D01*
G01X12955Y4753D01*
G37*
G36*
G01X12640Y4767D02*
G01X12635Y4767D01*
G01X12633Y4765D01*
G01X12643Y4749D01*
G01X12668Y4723D01*
G01X12694Y4699D01*
G01X12710Y4689D01*
G01X12712Y4697D01*
G01X12700Y4716D01*
G01X12680Y4739D01*
G01X12659Y4757D01*
G01X12649Y4763D01*
G01X12640Y4767D01*
G37*
G36*
G01X13055Y4876D02*
G01X13046Y4878D01*
G01X13047Y4871D01*
G01X13056Y4858D01*
G01X13073Y4838D01*
G01X13122Y4789D01*
G01X13151Y4763D01*
G01X13180Y4738D01*
G01X13207Y4716D01*
G01X13228Y4702D01*
G01X13243Y4693D01*
G01X13253Y4690D01*
G01X13258Y4692D01*
G01X13256Y4698D01*
G01X13248Y4709D01*
G01X13234Y4724D01*
G01X13214Y4741D01*
G01X13188Y4763D01*
G01X13159Y4788D01*
G01X13131Y4813D01*
G01X13108Y4835D01*
G01X13088Y4853D01*
G01X13069Y4867D01*
G01X13055Y4876D01*
G37*
G36*
G01X12666Y4804D02*
G01X12659Y4806D01*
G01X12656Y4803D01*
G01X12657Y4795D01*
G01X12664Y4783D01*
G01X12675Y4767D01*
G01X12709Y4729D01*
G01X12723Y4718D01*
G01X12733Y4715D01*
G01X12740Y4718D01*
G01X12747Y4728D01*
G01X12743Y4741D01*
G01X12727Y4759D01*
G01X12696Y4784D01*
G01X12679Y4797D01*
G01X12666Y4804D01*
G37*
G36*
G01X12989Y4800D02*
G01X12975Y4805D01*
G01X12964Y4804D01*
G01X12953Y4792D01*
G01X12953Y4780D01*
G01X12966Y4764D01*
G01X12993Y4741D01*
G01X13014Y4726D01*
G01X13030Y4717D01*
G01X13041Y4715D01*
G01X13049Y4719D01*
G01X13051Y4728D01*
G01X13046Y4742D01*
G01X13035Y4758D01*
G01X13021Y4774D01*
G01X13005Y4789D01*
G01X12989Y4800D01*
G37*
G36*
G01X12931Y4789D02*
G01X12941Y4811D01*
G01X12924Y4789D01*
G01X12916Y4780D01*
G01X12909Y4768D01*
G01X12902Y4757D01*
G01X12896Y4747D01*
G01X12886Y4726D01*
G01X12903Y4747D01*
G01X12910Y4757D01*
G01X12918Y4768D01*
G01X12925Y4780D01*
G01X12931Y4789D01*
G37*
G36*
G01X13109Y4873D02*
G01X13100Y4876D01*
G01X13097Y4873D01*
G01X13102Y4865D01*
G01X13113Y4850D01*
G01X13133Y4831D01*
G01X13156Y4809D01*
G01X13180Y4788D01*
G01X13203Y4769D01*
G01X13224Y4753D01*
G01X13242Y4740D01*
G01X13256Y4731D01*
G01X13265Y4728D01*
G01X13268Y4729D01*
G01X13262Y4744D01*
G01X13244Y4766D01*
G01X13213Y4795D01*
G01X13169Y4832D01*
G01X13144Y4851D01*
G01X13123Y4865D01*
G01X13109Y4873D01*
G37*
G36*
G01X12995Y4824D02*
G01X12993Y4824D01*
G01X13006Y4808D01*
G01X13034Y4780D01*
G01X13065Y4753D01*
G01X13082Y4742D01*
G01X13083Y4748D01*
G01X13070Y4765D01*
G01X13048Y4786D01*
G01X13022Y4807D01*
G01X13011Y4815D01*
G01X13002Y4821D01*
G01X12995Y4824D01*
G37*
G36*
G01X12706Y4823D02*
G01X12683Y4836D01*
G01X12675Y4833D01*
G01X12679Y4822D01*
G01X12694Y4803D01*
G01X12719Y4780D01*
G01X12737Y4766D01*
G01X12753Y4755D01*
G01X12766Y4749D01*
G01X12773Y4749D01*
G01X12766Y4765D01*
G01X12738Y4794D01*
G01X12706Y4823D01*
G37*
G36*
G01X12733Y4847D02*
G01X12715Y4858D01*
G01X12712Y4857D01*
G01X12710Y4855D01*
G01X12708Y4852D01*
G01X12707Y4848D01*
G01X12719Y4831D01*
G01X12746Y4807D01*
G01X12775Y4785D01*
G01X12790Y4779D01*
G01X12783Y4794D01*
G01X12760Y4821D01*
G01X12733Y4847D01*
G37*

%LPD*%
G36*
G01X12981Y4332D02*
G01X12900Y4332D01*
G01X12866Y4331D01*
G01X12836Y4330D01*
G01X12810Y4328D01*
G01X12787Y4326D01*
G01X12767Y4323D01*
G01X12749Y4319D01*
G01X12719Y4309D01*
G01X12707Y4302D01*
G01X12695Y4294D01*
G01X12684Y4285D01*
G01X12673Y4275D01*
G01X12661Y4263D01*
G01X12646Y4245D01*
G01X12634Y4228D01*
G01X12627Y4215D01*
G01X12627Y4205D01*
G01X12628Y4200D01*
G01X12628Y4196D01*
G01X12627Y4195D01*
G01X12623Y4196D01*
G01X12615Y4196D01*
G01X12608Y4184D01*
G01X12604Y4164D01*
G01X12602Y4138D01*
G01X12602Y4107D01*
G01X12604Y4076D01*
G01X12609Y4045D01*
G01X12617Y4018D01*
G01X12623Y4001D01*
G01X12630Y3986D01*
G01X12637Y3973D01*
G01X12643Y3966D01*
G01X12651Y3955D01*
G01X12653Y3946D01*
G01X12650Y3940D01*
G01X12639Y3937D01*
G01X12626Y3932D01*
G01X12618Y3916D01*
G01X12613Y3884D01*
G01X12612Y3836D01*
G01X12612Y3768D01*
G01X12705Y3768D01*
G01X12724Y3767D01*
G01X12772Y3767D01*
G01X12799Y3766D01*
G01X12829Y3765D01*
G01X12861Y3765D01*
G01X12894Y3764D01*
G01X12928Y3763D01*
G01X12998Y3761D01*
G01X13050Y3760D01*
G01X13095Y3759D01*
G01X13134Y3758D01*
G01X13167Y3757D01*
G01X13194Y3758D01*
G01X13217Y3759D01*
G01X13235Y3761D01*
G01X13250Y3765D01*
G01X13261Y3769D01*
G01X13268Y3776D01*
G01X13274Y3783D01*
G01X13277Y3792D01*
G01X13278Y3803D01*
G01X13278Y3832D01*
G01X13277Y3849D01*
G01X13273Y3911D01*
G01X13109Y3917D01*
G01X13064Y3919D01*
G01X13022Y3922D01*
G01X12984Y3926D01*
G01X12949Y3930D01*
G01X12918Y3935D01*
G01X12890Y3940D01*
G01X12865Y3947D01*
G01X12843Y3954D01*
G01X12809Y3971D01*
G01X12796Y3982D01*
G01X12786Y3993D01*
G01X12779Y4005D01*
G01X12774Y4018D01*
G01X12772Y4032D01*
G01X12773Y4048D01*
G01X12775Y4060D01*
G01X12780Y4071D01*
G01X12788Y4082D01*
G01X12797Y4092D01*
G01X12810Y4101D01*
G01X12825Y4110D01*
G01X12843Y4117D01*
G01X12863Y4124D01*
G01X12885Y4130D01*
G01X12911Y4135D01*
G01X12939Y4139D01*
G01X12969Y4143D01*
G01X13003Y4145D01*
G01X13039Y4147D01*
G01X13077Y4148D01*
G01X13119Y4149D01*
G01X13282Y4149D01*
G01X13275Y4235D01*
G01X13272Y4269D01*
G01X13269Y4297D01*
G01X13267Y4317D01*
G01X13265Y4325D01*
G01X13260Y4326D01*
G01X13246Y4326D01*
G01X13223Y4327D01*
G01X13195Y4328D01*
G01X13160Y4329D01*
G01X13120Y4330D01*
G01X13076Y4330D01*
G01X13030Y4331D01*
G01X12981Y4332D01*
G37*

%LPC*%
G36*
G01X12672Y3922D02*
G01X12664Y3923D01*
G01X12656Y3922D01*
G01X12649Y3920D01*
G01X12643Y3917D01*
G01X12638Y3912D01*
G01X12634Y3906D01*
G01X12633Y3901D01*
G01X12637Y3890D01*
G01X12649Y3873D01*
G01X12666Y3853D01*
G01X12686Y3831D01*
G01X12706Y3811D01*
G01X12724Y3794D01*
G01X12738Y3783D01*
G01X12745Y3781D01*
G01X12743Y3789D01*
G01X12735Y3805D01*
G01X12720Y3828D01*
G01X12701Y3855D01*
G01X12678Y3886D01*
G01X12668Y3901D01*
G01X12670Y3902D01*
G01X12684Y3890D01*
G01X12699Y3876D01*
G01X12715Y3858D01*
G01X12730Y3840D01*
G01X12741Y3824D01*
G01X12752Y3811D01*
G01X12762Y3800D01*
G01X12772Y3792D01*
G01X12778Y3789D01*
G01X12780Y3794D01*
G01X12772Y3809D01*
G01X12760Y3828D01*
G01X12743Y3852D01*
G01X12724Y3875D01*
G01X12706Y3896D01*
G01X12690Y3913D01*
G01X12679Y3921D01*
G01X12672Y3922D01*
G37*
G36*
G01X12960Y3882D02*
G01X12939Y3895D01*
G01X12931Y3894D01*
G01X12925Y3892D01*
G01X12921Y3889D01*
G01X12919Y3886D01*
G01X12923Y3876D01*
G01X12934Y3861D01*
G01X12949Y3843D01*
G01X12966Y3825D01*
G01X12984Y3808D01*
G01X12999Y3794D01*
G01X13010Y3787D01*
G01X13014Y3788D01*
G01X13005Y3817D01*
G01X12985Y3853D01*
G01X12960Y3882D01*
G37*
G36*
G01X12623Y4100D02*
G01X12617Y4107D01*
G01X12611Y4100D01*
G01X12612Y4085D01*
G01X12618Y4067D01*
G01X12628Y4053D01*
G01X12634Y4047D01*
G01X12638Y4039D01*
G01X12639Y4030D01*
G01X12638Y4022D01*
G01X12641Y4004D01*
G01X12655Y3978D01*
G01X12676Y3949D01*
G01X12703Y3921D01*
G01X12711Y3913D01*
G01X12724Y3896D01*
G01X12741Y3875D01*
G01X12759Y3850D01*
G01X12777Y3826D01*
G01X12795Y3807D01*
G01X12810Y3794D01*
G01X12820Y3789D01*
G01X12827Y3789D01*
G01X12831Y3790D01*
G01X12831Y3793D01*
G01X12826Y3801D01*
G01X12815Y3815D01*
G01X12796Y3837D01*
G01X12768Y3868D01*
G01X12729Y3911D01*
G01X12708Y3935D01*
G01X12689Y3957D01*
G01X12673Y3976D01*
G01X12661Y3992D01*
G01X12652Y4005D01*
G01X12647Y4014D01*
G01X12645Y4020D01*
G01X12647Y4022D01*
G01X12650Y4020D01*
G01X12657Y4013D01*
G01X12667Y4002D01*
G01X12680Y3988D01*
G01X12696Y3971D01*
G01X12714Y3951D01*
G01X12733Y3929D01*
G01X12754Y3906D01*
G01X12775Y3882D01*
G01X12794Y3861D01*
G01X12813Y3841D01*
G01X12829Y3823D01*
G01X12843Y3809D01*
G01X12855Y3798D01*
G01X12867Y3789D01*
G01X12867Y3795D01*
G01X12856Y3810D01*
G01X12839Y3833D01*
G01X12815Y3861D01*
G01X12802Y3877D01*
G01X12786Y3895D01*
G01X12769Y3915D01*
G01X12735Y3959D01*
G01X12718Y3980D01*
G01X12702Y4001D01*
G01X12687Y4019D01*
G01X12661Y4053D01*
G01X12639Y4081D01*
G01X12623Y4100D01*
G37*
G36*
G01X12634Y3863D02*
G01X12626Y3868D01*
G01X12622Y3867D01*
G01X12623Y3861D01*
G01X12629Y3851D01*
G01X12633Y3847D01*
G01X12636Y3843D01*
G01X12639Y3835D01*
G01X12639Y3826D01*
G01X12635Y3804D01*
G01X12635Y3796D01*
G01X12638Y3791D01*
G01X12643Y3789D01*
G01X12648Y3790D01*
G01X12651Y3794D01*
G01X12651Y3800D01*
G01X12650Y3807D01*
G01X12647Y3816D01*
G01X12647Y3819D01*
G01X12653Y3815D01*
G01X12664Y3805D01*
G01X12685Y3790D01*
G01X12692Y3793D01*
G01X12683Y3811D01*
G01X12660Y3839D01*
G01X12646Y3853D01*
G01X12634Y3863D01*
G37*
G36*
G01X13014Y3881D02*
G01X12996Y3895D01*
G01X12985Y3892D01*
G01X12984Y3883D01*
G01X12992Y3864D01*
G01X13011Y3834D01*
G01X13024Y3816D01*
G01X13037Y3802D01*
G01X13049Y3793D01*
G01X13059Y3789D01*
G01X13066Y3790D01*
G01X13072Y3791D01*
G01X13076Y3792D01*
G01X13077Y3794D01*
G01X13067Y3816D01*
G01X13041Y3850D01*
G01X13014Y3881D01*
G37*
G36*
G01X13114Y3881D02*
G01X13101Y3889D01*
G01X13103Y3876D01*
G01X13121Y3842D01*
G01X13137Y3819D01*
G01X13151Y3802D01*
G01X13164Y3793D01*
G01X13176Y3789D01*
G01X13182Y3792D01*
G01X13180Y3803D01*
G01X13166Y3823D01*
G01X13141Y3853D01*
G01X13114Y3881D01*
G37*
G36*
G01X13157Y3879D02*
G01X13145Y3884D01*
G01X13141Y3882D01*
G01X13153Y3860D01*
G01X13181Y3829D01*
G01X13212Y3801D01*
G01X13234Y3789D01*
G01X13245Y3792D01*
G01X13243Y3803D01*
G01X13226Y3822D01*
G01X13194Y3851D01*
G01X13173Y3867D01*
G01X13157Y3879D01*
G37*
G36*
G01X13077Y3883D02*
G01X13060Y3895D01*
G01X13048Y3890D01*
G01X13047Y3876D01*
G01X13058Y3854D01*
G01X13079Y3827D01*
G01X13101Y3804D01*
G01X13117Y3792D01*
G01X13127Y3790D01*
G01X13131Y3800D01*
G01X13122Y3823D01*
G01X13101Y3855D01*
G01X13077Y3883D01*
G37*
G36*
G01X12638Y4140D02*
G01X12633Y4142D01*
G01X12631Y4138D01*
G01X12633Y4130D01*
G01X12639Y4118D01*
G01X12648Y4102D01*
G01X12660Y4083D01*
G01X12675Y4060D01*
G01X12693Y4035D01*
G01X12714Y4008D01*
G01X12742Y3971D01*
G01X12768Y3939D01*
G01X12793Y3909D01*
G01X12815Y3883D01*
G01X12835Y3860D01*
G01X12854Y3840D01*
G01X12870Y3824D01*
G01X12885Y3811D01*
G01X12897Y3801D01*
G01X12908Y3794D01*
G01X12917Y3791D01*
G01X12924Y3791D01*
G01X12931Y3796D01*
G01X12924Y3811D01*
G01X12902Y3840D01*
G01X12860Y3886D01*
G01X12843Y3905D01*
G01X12825Y3925D01*
G01X12793Y3961D01*
G01X12778Y3978D01*
G01X12766Y3992D01*
G01X12756Y4005D01*
G01X12735Y4032D01*
G01X12718Y4055D01*
G01X12697Y4078D01*
G01X12678Y4101D01*
G01X12660Y4120D01*
G01X12647Y4133D01*
G01X12638Y4140D01*
G37*
G36*
G01X12882Y3902D02*
G01X12876Y3906D01*
G01X12868Y3904D01*
G01X12869Y3897D01*
G01X12882Y3881D01*
G01X12909Y3851D01*
G01X12952Y3805D01*
G01X12919Y3855D01*
G01X12905Y3875D01*
G01X12893Y3891D01*
G01X12882Y3902D01*
G37*
G36*
G01X13198Y3893D02*
G01X13188Y3894D01*
G01X13181Y3890D01*
G01X13181Y3884D01*
G01X13191Y3872D01*
G01X13210Y3854D01*
G01X13240Y3833D01*
G01X13256Y3831D01*
G01X13255Y3844D01*
G01X13234Y3871D01*
G01X13222Y3881D01*
G01X13210Y3888D01*
G01X13198Y3893D01*
G37*
G36*
G01X13247Y3895D02*
G01X13243Y3895D01*
G01X13239Y3894D01*
G01X13237Y3892D01*
G01X13236Y3890D01*
G01X13237Y3888D01*
G01X13239Y3885D01*
G01X13247Y3879D01*
G01X13251Y3878D01*
G01X13255Y3878D01*
G01X13257Y3880D01*
G01X13257Y3888D01*
G01X13255Y3892D01*
G01X13251Y3894D01*
G01X13247Y3895D01*
G37*
G36*
G01X12661Y4186D02*
G01X12652Y4191D01*
G01X12646Y4188D01*
G01X12645Y4178D01*
G01X12650Y4162D01*
G01X12660Y4144D01*
G01X12672Y4123D01*
G01X12689Y4101D01*
G01X12706Y4080D01*
G01X12725Y4061D01*
G01X12737Y4052D01*
G01X12744Y4048D01*
G01X12749Y4051D01*
G01X12753Y4058D01*
G01X12751Y4068D01*
G01X12742Y4086D01*
G01X12728Y4107D01*
G01X12711Y4130D01*
G01X12693Y4153D01*
G01X12676Y4173D01*
G01X12661Y4186D01*
G37*
G36*
G01X12689Y4225D02*
G01X12680Y4227D01*
G01X12668Y4220D01*
G01X12668Y4209D01*
G01X12682Y4188D01*
G01X12713Y4151D01*
G01X12743Y4121D01*
G01X12764Y4105D01*
G01X12777Y4105D01*
G01X12781Y4121D01*
G01X12777Y4132D01*
G01X12768Y4148D01*
G01X12753Y4166D01*
G01X12737Y4185D01*
G01X12719Y4202D01*
G01X12703Y4216D01*
G01X12689Y4225D01*
G37*
G36*
G01X12866Y4148D02*
G01X12859Y4148D01*
G01X12850Y4146D01*
G01X12834Y4138D01*
G01X12826Y4132D01*
G01X12829Y4129D01*
G01X12841Y4132D01*
G01X12860Y4138D01*
G01X12869Y4142D01*
G01X12872Y4146D01*
G01X12871Y4147D01*
G01X12866Y4148D01*
G37*
G36*
G01X12728Y4255D02*
G01X12720Y4257D01*
G01X12710Y4251D01*
G01X12710Y4240D01*
G01X12723Y4220D01*
G01X12750Y4188D01*
G01X12778Y4158D01*
G01X12797Y4142D01*
G01X12809Y4139D01*
G01X12813Y4149D01*
G01X12810Y4160D01*
G01X12800Y4175D01*
G01X12787Y4193D01*
G01X12771Y4212D01*
G01X12755Y4230D01*
G01X12740Y4245D01*
G01X12728Y4255D01*
G37*
G36*
G01X12904Y4158D02*
G01X12898Y4158D01*
G01X12893Y4157D01*
G01X12890Y4155D01*
G01X12889Y4153D01*
G01X12891Y4151D01*
G01X12896Y4150D01*
G01X12904Y4150D01*
G01X12911Y4151D01*
G01X12915Y4152D01*
G01X12914Y4154D01*
G01X12910Y4156D01*
G01X12904Y4158D01*
G37*
G36*
G01X13100Y4317D02*
G01X13095Y4318D01*
G01X13096Y4308D01*
G01X13106Y4288D01*
G01X13122Y4263D01*
G01X13142Y4234D01*
G01X13164Y4207D01*
G01X13185Y4183D01*
G01X13203Y4166D01*
G01X13214Y4160D01*
G01X13224Y4163D01*
G01X13224Y4172D01*
G01X13215Y4187D01*
G01X13197Y4209D01*
G01X13183Y4224D01*
G01X13166Y4243D01*
G01X13149Y4263D01*
G01X13134Y4282D01*
G01X13121Y4298D01*
G01X13109Y4309D01*
G01X13100Y4317D01*
G37*
G36*
G01X12780Y4276D02*
G01X12770Y4279D01*
G01X12762Y4278D01*
G01X12757Y4272D01*
G01X12758Y4262D01*
G01X12765Y4248D01*
G01X12779Y4228D01*
G01X12804Y4196D01*
G01X12826Y4173D01*
G01X12842Y4163D01*
G01X12852Y4163D01*
G01X12853Y4175D01*
G01X12845Y4194D01*
G01X12829Y4221D01*
G01X12805Y4252D01*
G01X12791Y4266D01*
G01X12780Y4276D01*
G37*
G36*
G01X12834Y4293D02*
G01X12823Y4297D01*
G01X12807Y4293D01*
G01X12805Y4280D01*
G01X12816Y4256D01*
G01X12842Y4221D01*
G01X12868Y4192D01*
G01X12891Y4174D01*
G01X12910Y4170D01*
G01X12923Y4178D01*
G01X12922Y4188D01*
G01X12914Y4203D01*
G01X12901Y4223D01*
G01X12885Y4244D01*
G01X12867Y4264D01*
G01X12849Y4281D01*
G01X12834Y4293D01*
G37*
G36*
G01X12886Y4306D02*
G01X12883Y4306D01*
G01X12879Y4305D01*
G01X12876Y4303D01*
G01X12873Y4300D01*
G01X12874Y4290D01*
G01X12882Y4273D01*
G01X12897Y4252D01*
G01X12915Y4229D01*
G01X12935Y4207D01*
G01X12954Y4188D01*
G01X12971Y4175D01*
G01X12983Y4170D01*
G01X12992Y4173D01*
G01X12990Y4182D01*
G01X12977Y4203D01*
G01X12950Y4236D01*
G01X12927Y4262D01*
G01X12908Y4284D01*
G01X12894Y4299D01*
G01X12886Y4306D01*
G37*
G36*
G01X12946Y4305D02*
G01X12932Y4308D01*
G01X12921Y4305D01*
G01X12922Y4294D01*
G01X12937Y4270D01*
G01X12967Y4231D01*
G01X12989Y4205D01*
G01X13008Y4186D01*
G01X13024Y4174D01*
G01X13037Y4170D01*
G01X13047Y4171D01*
G01X13052Y4173D01*
G01X13052Y4177D01*
G01X13049Y4184D01*
G01X13042Y4192D01*
G01X13031Y4207D01*
G01X13018Y4225D01*
G01X13003Y4244D01*
G01X12977Y4277D01*
G01X12959Y4296D01*
G01X12946Y4305D01*
G37*
G36*
G01X13005Y4303D02*
G01X12996Y4308D01*
G01X12986Y4305D01*
G01X12983Y4298D01*
G01X12988Y4285D01*
G01X13000Y4265D01*
G01X13027Y4230D01*
G01X13055Y4200D01*
G01X13081Y4178D01*
G01X13101Y4170D01*
G01X13108Y4171D01*
G01X13114Y4172D01*
G01X13118Y4174D01*
G01X13120Y4176D01*
G01X13115Y4186D01*
G01X13102Y4202D01*
G01X13084Y4224D01*
G01X13063Y4247D01*
G01X13041Y4270D01*
G01X13021Y4289D01*
G01X13005Y4303D01*
G37*
G36*
G01X13055Y4310D02*
G01X13047Y4313D01*
G01X13042Y4311D01*
G01X13044Y4301D01*
G01X13054Y4283D01*
G01X13071Y4260D01*
G01X13091Y4235D01*
G01X13112Y4211D01*
G01X13132Y4190D01*
G01X13149Y4176D01*
G01X13160Y4170D01*
G01X13163Y4172D01*
G01X13163Y4177D01*
G01X13159Y4185D01*
G01X13151Y4197D01*
G01X13139Y4213D01*
G01X13123Y4234D01*
G01X13102Y4259D01*
G01X13077Y4290D01*
G01X13065Y4302D01*
G01X13055Y4310D01*
G37*
G36*
G01X13156Y4313D02*
G01X13146Y4318D01*
G01X13133Y4315D01*
G01X13135Y4302D01*
G01X13152Y4277D01*
G01X13186Y4236D01*
G01X13222Y4196D01*
G01X13243Y4176D01*
G01X13255Y4173D01*
G01X13257Y4185D01*
G01X13253Y4197D01*
G01X13243Y4215D01*
G01X13227Y4237D01*
G01X13209Y4260D01*
G01X13189Y4282D01*
G01X13171Y4301D01*
G01X13156Y4313D01*
G37*
G36*
G01X13202Y4317D02*
G01X13199Y4318D01*
G01X13194Y4315D01*
G01X13197Y4305D01*
G01X13208Y4288D01*
G01X13226Y4265D01*
G01X13257Y4228D01*
G01X13257Y4263D01*
G01X13256Y4280D01*
G01X13252Y4293D01*
G01X13244Y4301D01*
G01X13231Y4308D01*
G01X13210Y4315D01*
G01X13202Y4317D01*
G37*
G36*
G01X12715Y4273D02*
G01X12712Y4276D01*
G01X12706Y4274D01*
G01X12697Y4269D01*
G01X12686Y4262D01*
G01X12675Y4254D01*
G01X12665Y4245D01*
G01X12661Y4240D01*
G01X12662Y4240D01*
G01X12670Y4243D01*
G01X12693Y4256D01*
G01X12708Y4266D01*
G01X12715Y4273D01*
G37*
G36*
G01X12765Y4306D02*
G01X12762Y4307D01*
G01X12757Y4306D01*
G01X12752Y4303D01*
G01X12741Y4292D01*
G01X12740Y4290D01*
G01X12744Y4290D01*
G01X12752Y4292D01*
G01X12759Y4296D01*
G01X12764Y4300D01*
G01X12766Y4303D01*
G01X12765Y4306D01*
G37*

%LPD*%
G36*
G01X12936Y3701D02*
G01X12914Y3702D01*
G01X12890Y3701D01*
G01X12865Y3698D01*
G01X12839Y3692D01*
G01X12812Y3684D01*
G01X12786Y3675D01*
G01X12761Y3664D01*
G01X12738Y3651D01*
G01X12718Y3637D01*
G01X12700Y3621D01*
G01X12681Y3603D01*
G01X12664Y3582D01*
G01X12647Y3560D01*
G01X12632Y3537D01*
G01X12619Y3513D01*
G01X12608Y3489D01*
G01X12602Y3473D01*
G01X12597Y3454D01*
G01X12594Y3434D01*
G01X12592Y3411D01*
G01X12591Y3388D01*
G01X12591Y3364D01*
G01X12592Y3340D01*
G01X12594Y3315D01*
G01X12597Y3292D01*
G01X12602Y3269D01*
G01X12607Y3248D01*
G01X12614Y3229D01*
G01X12622Y3210D01*
G01X12631Y3192D01*
G01X12642Y3175D01*
G01X12653Y3159D01*
G01X12666Y3143D01*
G01X12680Y3128D01*
G01X12696Y3114D01*
G01X12711Y3101D01*
G01X12728Y3089D01*
G01X12747Y3078D01*
G01X12765Y3067D01*
G01X12785Y3058D01*
G01X12805Y3050D01*
G01X12826Y3043D01*
G01X12848Y3037D01*
G01X12870Y3032D01*
G01X12893Y3028D01*
G01X12939Y3024D01*
G01X12964Y3024D01*
G01X12987Y3025D01*
G01X13010Y3028D01*
G01X13031Y3031D01*
G01X13051Y3036D01*
G01X13070Y3043D01*
G01X13089Y3051D01*
G01X13107Y3060D01*
G01X13125Y3071D01*
G01X13142Y3084D01*
G01X13160Y3100D01*
G01X13178Y3117D01*
G01X13197Y3135D01*
G01X13214Y3154D01*
G01X13229Y3172D01*
G01X13242Y3190D01*
G01X13253Y3208D01*
G01X13262Y3226D01*
G01X13270Y3245D01*
G01X13277Y3265D01*
G01X13281Y3286D01*
G01X13285Y3308D01*
G01X13288Y3332D01*
G01X13289Y3358D01*
G01X13289Y3414D01*
G01X13288Y3439D01*
G01X13286Y3462D01*
G01X13283Y3482D01*
G01X13279Y3500D01*
G01X13273Y3517D01*
G01X13267Y3533D01*
G01X13258Y3549D01*
G01X13247Y3564D01*
G01X13235Y3580D01*
G01X13221Y3596D01*
G01X13204Y3613D01*
G01X13179Y3637D01*
G01X13157Y3655D01*
G01X13140Y3666D01*
G01X13131Y3667D01*
G01X13123Y3661D01*
G01X13112Y3648D01*
G01X13098Y3631D01*
G01X13084Y3612D01*
G01X13048Y3563D01*
G01X13086Y3507D01*
G01X13105Y3475D01*
G01X13117Y3447D01*
G01X13124Y3415D01*
G01X13127Y3374D01*
G01X13128Y3343D01*
G01X13127Y3317D01*
G01X13125Y3296D01*
G01X13119Y3278D01*
G01X13111Y3261D01*
G01X13100Y3247D01*
G01X13086Y3234D01*
G01X13068Y3221D01*
G01X13052Y3210D01*
G01X13038Y3202D01*
G01X13027Y3197D01*
G01X13018Y3196D01*
G01X13012Y3200D01*
G01X13006Y3210D01*
G01X13003Y3226D01*
G01X13000Y3249D01*
G01X12998Y3279D01*
G01X12997Y3319D01*
G01X12997Y3367D01*
G01X12996Y3426D01*
G01X12995Y3472D01*
G01X12994Y3516D01*
G01X12993Y3557D01*
G01X12992Y3593D01*
G01X12991Y3624D01*
G01X12990Y3648D01*
G01X12989Y3665D01*
G01X12987Y3674D01*
G01X12981Y3684D01*
G01X12970Y3692D01*
G01X12955Y3698D01*
G01X12936Y3701D01*
G37*

%LPC*%
G36*
G01X12656Y3256D02*
G01X12634Y3269D01*
G01X12627Y3265D01*
G01X12636Y3248D01*
G01X12660Y3219D01*
G01X12671Y3207D01*
G01X12686Y3194D01*
G01X12704Y3180D01*
G01X12724Y3165D01*
G01X12746Y3150D01*
G01X12769Y3134D01*
G01X12793Y3118D01*
G01X12816Y3103D01*
G01X12840Y3089D01*
G01X12862Y3076D01*
G01X12883Y3064D01*
G01X12902Y3054D01*
G01X12919Y3047D01*
G01X12932Y3042D01*
G01X12941Y3040D01*
G01X12946Y3041D01*
G01X12949Y3044D01*
G01X12948Y3049D01*
G01X12942Y3056D01*
G01X12931Y3066D01*
G01X12912Y3080D01*
G01X12884Y3100D01*
G01X12846Y3126D01*
G01X12797Y3159D01*
G01X12773Y3176D01*
G01X12750Y3192D01*
G01X12728Y3207D01*
G01X12708Y3221D01*
G01X12675Y3243D01*
G01X12664Y3251D01*
G01X12656Y3256D01*
G37*
G36*
G01X12682Y3169D02*
G01X12675Y3172D01*
G01X12678Y3169D01*
G01X12685Y3160D01*
G01X12696Y3149D01*
G01X12710Y3136D01*
G01X12723Y3125D01*
G01X12737Y3113D01*
G01X12767Y3093D01*
G01X12784Y3084D01*
G01X12802Y3075D01*
G01X12821Y3066D01*
G01X12842Y3058D01*
G01X12855Y3054D01*
G01X12861Y3053D01*
G01X12861Y3055D01*
G01X12855Y3061D01*
G01X12843Y3070D01*
G01X12823Y3083D01*
G01X12796Y3100D01*
G01X12763Y3121D01*
G01X12729Y3142D01*
G01X12701Y3159D01*
G01X12682Y3169D01*
G37*
G36*
G01X12627Y3351D02*
G01X12618Y3352D01*
G01X12614Y3350D01*
G01X12614Y3348D01*
G01X12615Y3345D01*
G01X12623Y3337D01*
G01X12626Y3331D01*
G01X12627Y3323D01*
G01X12626Y3315D01*
G01X12627Y3304D01*
G01X12635Y3292D01*
G01X12651Y3277D01*
G01X12677Y3259D01*
G01X12691Y3250D01*
G01X12755Y3208D01*
G01X12781Y3190D01*
G01X12835Y3154D01*
G01X12862Y3135D01*
G01X12892Y3115D01*
G01X12918Y3098D01*
G01X12942Y3084D01*
G01X12962Y3072D01*
G01X12979Y3063D01*
G01X12992Y3057D01*
G01X13002Y3055D01*
G01X13008Y3055D01*
G01X13009Y3058D01*
G01X13006Y3063D01*
G01X12998Y3072D01*
G01X12986Y3082D01*
G01X12972Y3095D01*
G01X12954Y3109D01*
G01X12934Y3125D01*
G01X12888Y3157D01*
G01X12863Y3175D01*
G01X12838Y3192D01*
G01X12812Y3209D01*
G01X12786Y3225D01*
G01X12761Y3239D01*
G01X12738Y3253D01*
G01X12716Y3265D01*
G01X12688Y3280D01*
G01X12664Y3294D01*
G01X12647Y3305D01*
G01X12638Y3313D01*
G01X12635Y3321D01*
G01X12640Y3322D01*
G01X12657Y3314D01*
G01X12718Y3280D01*
G01X12737Y3273D01*
G01X12747Y3273D01*
G01X12749Y3280D01*
G01X12744Y3287D01*
G01X12732Y3297D01*
G01X12713Y3309D01*
G01X12689Y3323D01*
G01X12665Y3335D01*
G01X12643Y3345D01*
G01X12627Y3351D01*
G37*
G36*
G01X12878Y3193D02*
G01X12870Y3194D01*
G01X12873Y3188D01*
G01X12886Y3176D01*
G01X12906Y3160D01*
G01X12931Y3141D01*
G01X12981Y3107D01*
G01X13017Y3085D01*
G01X13041Y3073D01*
G01X13058Y3070D01*
G01X13063Y3072D01*
G01X13061Y3077D01*
G01X13054Y3084D01*
G01X13042Y3095D01*
G01X13025Y3107D01*
G01X13003Y3122D01*
G01X12978Y3138D01*
G01X12948Y3157D01*
G01X12919Y3173D01*
G01X12895Y3185D01*
G01X12878Y3193D01*
G37*
G36*
G01X12890Y3228D02*
G01X12880Y3231D01*
G01X12877Y3229D01*
G01X12880Y3223D01*
G01X12888Y3214D01*
G01X12901Y3204D01*
G01X12916Y3193D01*
G01X12963Y3165D01*
G01X13001Y3141D01*
G01X13031Y3123D01*
G01X13055Y3110D01*
G01X13072Y3101D01*
G01X13084Y3096D01*
G01X13092Y3094D01*
G01X13096Y3094D01*
G01X13095Y3103D01*
G01X13081Y3117D01*
G01X13054Y3134D01*
G01X13014Y3155D01*
G01X12992Y3167D01*
G01X12967Y3181D01*
G01X12943Y3196D01*
G01X12922Y3209D01*
G01X12904Y3220D01*
G01X12890Y3228D01*
G37*
G36*
G01X13025Y3182D02*
G01X13015Y3183D01*
G01X13009Y3180D01*
G01X13008Y3177D01*
G01X13013Y3173D01*
G01X13025Y3167D01*
G01X13038Y3161D01*
G01X13053Y3153D01*
G01X13068Y3143D01*
G01X13083Y3134D01*
G01X13106Y3120D01*
G01X13126Y3113D01*
G01X13137Y3113D01*
G01X13136Y3122D01*
G01X13130Y3128D01*
G01X13118Y3137D01*
G01X13101Y3148D01*
G01X13081Y3159D01*
G01X13060Y3169D01*
G01X13041Y3178D01*
G01X13025Y3182D01*
G37*
G36*
G01X13093Y3205D02*
G01X13084Y3207D01*
G01X13065Y3203D01*
G01X13064Y3193D01*
G01X13078Y3178D01*
G01X13108Y3160D01*
G01X13135Y3147D01*
G01X13153Y3141D01*
G01X13164Y3142D01*
G01X13173Y3149D01*
G01X13177Y3157D01*
G01X13174Y3165D01*
G01X13163Y3174D01*
G01X13142Y3185D01*
G01X13125Y3194D01*
G01X13107Y3201D01*
G01X13093Y3205D01*
G37*
G36*
G01X13128Y3237D02*
G01X13120Y3239D01*
G01X13109Y3235D01*
G01X13112Y3225D01*
G01X13127Y3211D01*
G01X13153Y3196D01*
G01X13173Y3187D01*
G01X13188Y3182D01*
G01X13200Y3181D01*
G01X13207Y3184D01*
G01X13209Y3190D01*
G01X13204Y3198D01*
G01X13193Y3207D01*
G01X13175Y3217D01*
G01X13157Y3226D01*
G01X13141Y3232D01*
G01X13128Y3237D01*
G37*
G36*
G01X12927Y3246D02*
G01X12898Y3258D01*
G01X12887Y3257D01*
G01X12895Y3246D01*
G01X12923Y3226D01*
G01X12941Y3214D01*
G01X12957Y3205D01*
G01X12970Y3199D01*
G01X12977Y3196D01*
G01X12980Y3202D01*
G01X12969Y3215D01*
G01X12950Y3231D01*
G01X12927Y3246D01*
G37*
G36*
G01X12832Y3523D02*
G01X12827Y3523D01*
G01X12818Y3519D01*
G01X12806Y3510D01*
G01X12795Y3498D01*
G01X12784Y3483D01*
G01X12773Y3461D01*
G01X12765Y3434D01*
G01X12761Y3405D01*
G01X12760Y3374D01*
G01X12763Y3346D01*
G01X12769Y3320D01*
G01X12778Y3300D01*
G01X12799Y3279D01*
G01X12802Y3274D01*
G01X12802Y3269D01*
G01X12801Y3265D01*
G01X12797Y3264D01*
G01X12792Y3267D01*
G01X12784Y3271D01*
G01X12780Y3274D01*
G01X12781Y3270D01*
G01X12789Y3261D01*
G01X12802Y3246D01*
G01X12816Y3232D01*
G01X12829Y3221D01*
G01X12838Y3214D01*
G01X12843Y3213D01*
G01X12843Y3216D01*
G01X12841Y3221D01*
G01X12835Y3228D01*
G01X12828Y3234D01*
G01X12818Y3243D01*
G01X12814Y3247D01*
G01X12817Y3248D01*
G01X12826Y3245D01*
G01X12832Y3244D01*
G01X12836Y3246D01*
G01X12839Y3252D01*
G01X12842Y3263D01*
G01X12843Y3280D01*
G01X12844Y3305D01*
G01X12844Y3339D01*
G01X12845Y3383D01*
G01X12844Y3426D01*
G01X12844Y3460D01*
G01X12843Y3485D01*
G01X12842Y3503D01*
G01X12839Y3514D01*
G01X12836Y3521D01*
G01X12832Y3523D01*
G37*
G36*
G01X13173Y3285D02*
G01X13157Y3290D01*
G01X13147Y3288D01*
G01X13141Y3281D01*
G01X13133Y3267D01*
G01X13134Y3257D01*
G01X13144Y3248D01*
G01X13168Y3236D01*
G01X13198Y3223D01*
G01X13218Y3219D01*
G01X13232Y3222D01*
G01X13240Y3234D01*
G01X13240Y3242D01*
G01X13234Y3252D01*
G01X13220Y3262D01*
G01X13198Y3273D01*
G01X13173Y3285D01*
G37*
G36*
G01X12888Y3301D02*
G01X12882Y3302D01*
G01X12875Y3299D01*
G01X12881Y3290D01*
G01X12897Y3277D01*
G01X12924Y3262D01*
G01X12958Y3249D01*
G01X12971Y3250D01*
G01X12962Y3261D01*
G01X12930Y3281D01*
G01X12913Y3289D01*
G01X12898Y3296D01*
G01X12888Y3301D01*
G37*
G36*
G01X13177Y3318D02*
G01X13165Y3321D01*
G01X13158Y3320D01*
G01X13157Y3313D01*
G01X13174Y3299D01*
G01X13201Y3286D01*
G01X13230Y3275D01*
G01X13252Y3273D01*
G01X13253Y3280D01*
G01X13238Y3293D01*
G01X13207Y3308D01*
G01X13192Y3314D01*
G01X13177Y3318D01*
G37*
G36*
G01X12902Y3338D02*
G01X12882Y3345D01*
G01X12875Y3341D01*
G01X12880Y3330D01*
G01X12895Y3317D01*
G01X12918Y3303D01*
G01X12947Y3289D01*
G01X12963Y3282D01*
G01X12970Y3284D01*
G01X12972Y3292D01*
G01X12960Y3304D01*
G01X12933Y3321D01*
G01X12902Y3338D01*
G37*
G36*
G01X13170Y3371D02*
G01X13159Y3374D01*
G01X13153Y3371D01*
G01X13153Y3362D01*
G01X13160Y3348D01*
G01X13181Y3332D01*
G01X13214Y3319D01*
G01X13246Y3311D01*
G01X13264Y3315D01*
G01X13266Y3325D01*
G01X13260Y3334D01*
G01X13245Y3343D01*
G01X13221Y3353D01*
G01X13193Y3363D01*
G01X13180Y3367D01*
G01X13170Y3371D01*
G37*
G36*
G01X12905Y3390D02*
G01X12882Y3398D01*
G01X12880Y3397D01*
G01X12878Y3394D01*
G01X12877Y3390D01*
G01X12877Y3384D01*
G01X12888Y3370D01*
G01X12915Y3350D01*
G01X12945Y3332D01*
G01X12966Y3323D01*
G01X12968Y3325D01*
G01X12970Y3328D01*
G01X12971Y3333D01*
G01X12972Y3339D01*
G01X12960Y3354D01*
G01X12934Y3373D01*
G01X12905Y3390D01*
G37*
G36*
G01X12624Y3399D02*
G01X12614Y3399D01*
G01X12612Y3392D01*
G01X12616Y3383D01*
G01X12628Y3373D01*
G01X12646Y3361D01*
G01X12670Y3350D01*
G01X12709Y3333D01*
G01X12729Y3325D01*
G01X12737Y3326D01*
G01X12739Y3334D01*
G01X12734Y3340D01*
G01X12720Y3351D01*
G01X12700Y3363D01*
G01X12675Y3376D01*
G01X12644Y3392D01*
G01X12624Y3399D01*
G37*
G36*
G01X13160Y3417D02*
G01X13152Y3417D01*
G01X13146Y3409D01*
G01X13153Y3398D01*
G01X13174Y3384D01*
G01X13204Y3371D01*
G01X13238Y3360D01*
G01X13257Y3356D01*
G01X13266Y3360D01*
G01X13268Y3370D01*
G01X13264Y3378D01*
G01X13253Y3386D01*
G01X13236Y3395D01*
G01X13215Y3403D01*
G01X13194Y3409D01*
G01X13175Y3414D01*
G01X13160Y3417D01*
G37*
G36*
G01X12648Y3432D02*
G01X12622Y3440D01*
G01X12611Y3436D01*
G01X12616Y3427D01*
G01X12636Y3413D01*
G01X12670Y3395D01*
G01X12696Y3383D01*
G01X12714Y3376D01*
G01X12725Y3376D01*
G01X12728Y3380D01*
G01X12715Y3394D01*
G01X12684Y3415D01*
G01X12648Y3432D01*
G37*
G36*
G01X12894Y3443D02*
G01X12871Y3451D01*
G01X12866Y3448D01*
G01X12866Y3440D01*
G01X12871Y3430D01*
G01X12879Y3421D01*
G01X12898Y3409D01*
G01X12925Y3394D01*
G01X12951Y3382D01*
G01X12966Y3376D01*
G01X12970Y3380D01*
G01X12972Y3390D01*
G01X12959Y3404D01*
G01X12928Y3425D01*
G01X12894Y3443D01*
G37*
G36*
G01X13115Y3509D02*
G01X13109Y3510D01*
G01X13111Y3507D01*
G01X13115Y3500D01*
G01X13122Y3489D01*
G01X13130Y3476D01*
G01X13142Y3460D01*
G01X13157Y3446D01*
G01X13177Y3435D01*
G01X13200Y3426D01*
G01X13239Y3413D01*
G01X13260Y3410D01*
G01X13267Y3417D01*
G01X13266Y3436D01*
G01X13262Y3451D01*
G01X13250Y3463D01*
G01X13227Y3474D01*
G01X13186Y3488D01*
G01X13156Y3497D01*
G01X13132Y3504D01*
G01X13115Y3509D01*
G37*
G36*
G01X12653Y3493D02*
G01X12639Y3495D01*
G01X12631Y3490D01*
G01X12625Y3477D01*
G01X12628Y3467D01*
G01X12645Y3455D01*
G01X12681Y3437D01*
G01X12713Y3422D01*
G01X12730Y3416D01*
G01X12737Y3418D01*
G01X12739Y3429D01*
G01X12735Y3440D01*
G01X12724Y3453D01*
G01X12708Y3465D01*
G01X12690Y3477D01*
G01X12671Y3487D01*
G01X12653Y3493D01*
G37*
G36*
G01X12877Y3494D02*
G01X12868Y3494D01*
G01X12866Y3487D01*
G01X12870Y3478D01*
G01X12882Y3468D01*
G01X12899Y3457D01*
G01X12918Y3446D01*
G01X12938Y3436D01*
G01X12956Y3430D01*
G01X12970Y3428D01*
G01X12977Y3430D01*
G01X12981Y3440D01*
G01X12976Y3448D01*
G01X12956Y3460D01*
G01X12919Y3478D01*
G01X12893Y3489D01*
G01X12877Y3494D01*
G37*
G36*
G01X12705Y3518D02*
G01X12670Y3528D01*
G01X12653Y3526D01*
G01X12657Y3514D01*
G01X12685Y3495D01*
G01X12715Y3480D01*
G01X12735Y3473D01*
G01X12746Y3475D01*
G01X12749Y3486D01*
G01X12746Y3493D01*
G01X12736Y3501D01*
G01X12722Y3510D01*
G01X12705Y3518D01*
G37*
G36*
G01X12874Y3530D02*
G01X12869Y3531D01*
G01X12878Y3517D01*
G01X12911Y3497D01*
G01X12949Y3479D01*
G01X12974Y3474D01*
G01X12974Y3478D01*
G01X12965Y3485D01*
G01X12950Y3495D01*
G01X12929Y3506D01*
G01X12906Y3517D01*
G01X12888Y3525D01*
G01X12874Y3530D01*
G37*
G36*
G01X13093Y3565D02*
G01X13082Y3565D01*
G01X13073Y3562D01*
G01X13071Y3558D01*
G01X13075Y3552D01*
G01X13085Y3545D01*
G01X13100Y3538D01*
G01X13121Y3529D01*
G01X13146Y3519D01*
G01X13177Y3509D01*
G01X13216Y3498D01*
G01X13240Y3493D01*
G01X13254Y3493D01*
G01X13257Y3499D01*
G01X13256Y3505D01*
G01X13251Y3511D01*
G01X13243Y3516D01*
G01X13234Y3519D01*
G01X13220Y3524D01*
G01X13201Y3530D01*
G01X13155Y3548D01*
G01X13132Y3555D01*
G01X13111Y3561D01*
G01X13093Y3565D01*
G37*
G36*
G01X12758Y3632D02*
G01X12746Y3632D01*
G01X12750Y3623D01*
G01X12770Y3609D01*
G01X12805Y3588D01*
G01X12854Y3563D01*
G01X12938Y3521D01*
G01X12965Y3508D01*
G01X12977Y3503D01*
G01X12979Y3505D01*
G01X12981Y3508D01*
G01X12982Y3513D01*
G01X12982Y3519D01*
G01X12974Y3529D01*
G01X12950Y3545D01*
G01X12914Y3565D01*
G01X12869Y3588D01*
G01X12821Y3610D01*
G01X12783Y3625D01*
G01X12758Y3632D01*
G37*
G36*
G01X12714Y3572D02*
G01X12691Y3578D01*
G01X12676Y3573D01*
G01X12677Y3561D01*
G01X12691Y3546D01*
G01X12717Y3530D01*
G01X12743Y3521D01*
G01X12763Y3518D01*
G01X12777Y3523D01*
G01X12781Y3534D01*
G01X12770Y3545D01*
G01X12744Y3559D01*
G01X12714Y3572D01*
G37*
G36*
G01X13121Y3603D02*
G01X13106Y3605D01*
G01X13097Y3602D01*
G01X13093Y3594D01*
G01X13101Y3586D01*
G01X13128Y3575D01*
G01X13182Y3556D01*
G01X13206Y3548D01*
G01X13223Y3544D01*
G01X13232Y3544D01*
G01X13234Y3548D01*
G01X13228Y3555D01*
G01X13215Y3563D01*
G01X13196Y3574D01*
G01X13169Y3586D01*
G01X13142Y3597D01*
G01X13121Y3603D01*
G37*
G36*
G01X12728Y3607D02*
G01X12719Y3609D01*
G01X12708Y3606D01*
G01X12710Y3598D01*
G01X12724Y3584D01*
G01X12750Y3568D01*
G01X12772Y3557D01*
G01X12789Y3550D01*
G01X12803Y3547D01*
G01X12811Y3548D01*
G01X12814Y3551D01*
G01X12810Y3558D01*
G01X12799Y3568D01*
G01X12780Y3580D01*
G01X12760Y3592D01*
G01X12742Y3601D01*
G01X12728Y3607D01*
G37*
G36*
G01X12785Y3659D02*
G01X12775Y3660D01*
G01X12779Y3655D01*
G01X12792Y3646D01*
G01X12813Y3633D01*
G01X12840Y3618D01*
G01X12898Y3588D01*
G01X12926Y3575D01*
G01X12950Y3565D01*
G01X12964Y3561D01*
G01X12971Y3560D01*
G01X12969Y3562D01*
G01X12961Y3569D01*
G01X12947Y3578D01*
G01X12927Y3590D01*
G01X12900Y3604D01*
G01X12869Y3621D01*
G01X12834Y3638D01*
G01X12805Y3651D01*
G01X12785Y3659D01*
G37*
G36*
G01X12846Y3670D02*
G01X12832Y3671D01*
G01X12825Y3667D01*
G01X12830Y3660D01*
G01X12849Y3647D01*
G01X12885Y3628D01*
G01X12935Y3602D01*
G01X12961Y3591D01*
G01X12970Y3592D01*
G01X12972Y3605D01*
G01X12968Y3613D01*
G01X12956Y3624D01*
G01X12937Y3636D01*
G01X12914Y3648D01*
G01X12889Y3658D01*
G01X12865Y3665D01*
G01X12846Y3670D01*
G37*
G36*
G01X13144Y3637D02*
G01X13136Y3637D01*
G01X13129Y3633D01*
G01X13127Y3628D01*
G01X13129Y3622D01*
G01X13138Y3617D01*
G01X13153Y3611D01*
G01X13178Y3603D01*
G01X13190Y3604D01*
G01X13187Y3611D01*
G01X13168Y3626D01*
G01X13155Y3633D01*
G01X13144Y3637D01*
G37*
G36*
G01X12928Y3682D02*
G01X12914Y3682D01*
G01X12884Y3678D01*
G01X12924Y3659D01*
G01X12951Y3648D01*
G01X12965Y3645D01*
G01X12967Y3651D01*
G01X12958Y3667D01*
G01X12950Y3674D01*
G01X12940Y3680D01*
G01X12928Y3682D01*
G37*

%LPD*%
G36*
G01X13098Y2965D02*
G01X13052Y2965D01*
G01X13034Y2964D01*
G01X13018Y2961D01*
G01X13002Y2957D01*
G01X12985Y2950D01*
G01X12965Y2941D01*
G01X12942Y2930D01*
G01X12910Y2912D01*
G01X12895Y2903D01*
G01X12880Y2891D01*
G01X12863Y2878D01*
G01X12845Y2863D01*
G01X12825Y2844D01*
G01X12803Y2823D01*
G01X12750Y2770D01*
G01X12719Y2737D01*
G01X12683Y2700D01*
G01X12650Y2666D01*
G01X12627Y2648D01*
G01X12610Y2641D01*
G01X12593Y2642D01*
G01X12571Y2650D01*
G01X12557Y2662D01*
G01X12550Y2680D01*
G01X12548Y2708D01*
G01X12549Y2721D01*
G01X12553Y2733D01*
G01X12559Y2746D01*
G01X12568Y2759D01*
G01X12580Y2773D01*
G01X12595Y2788D01*
G01X12614Y2805D01*
G01X12637Y2824D01*
G01X12645Y2833D01*
G01X12644Y2845D01*
G01X12631Y2864D01*
G01X12606Y2896D01*
G01X12585Y2918D01*
G01X12568Y2936D01*
G01X12554Y2949D01*
G01X12547Y2953D01*
G01X12539Y2950D01*
G01X12526Y2940D01*
G01X12508Y2926D01*
G01X12489Y2909D01*
G01X12472Y2892D01*
G01X12456Y2875D01*
G01X12442Y2857D01*
G01X12418Y2819D01*
G01X12400Y2779D01*
G01X12394Y2759D01*
G01X12389Y2739D01*
G01X12385Y2718D01*
G01X12383Y2698D01*
G01X12383Y2678D01*
G01X12385Y2658D01*
G01X12388Y2638D01*
G01X12393Y2619D01*
G01X12400Y2600D01*
G01X12411Y2575D01*
G01X12424Y2552D01*
G01X12440Y2531D01*
G01X12457Y2511D01*
G01X12476Y2493D01*
G01X12495Y2477D01*
G01X12516Y2464D01*
G01X12537Y2453D01*
G01X12558Y2445D01*
G01X12579Y2440D01*
G01X12600Y2438D01*
G01X12620Y2440D01*
G01X12638Y2443D01*
G01X12656Y2449D01*
G01X12674Y2456D01*
G01X12693Y2465D01*
G01X12712Y2476D01*
G01X12731Y2490D01*
G01X12752Y2505D01*
G01X12773Y2522D01*
G01X12795Y2542D01*
G01X12818Y2563D01*
G01X12841Y2588D01*
G01X12866Y2614D01*
G01X12903Y2653D01*
G01X12934Y2685D01*
G01X12959Y2709D01*
G01X12980Y2728D01*
G01X12999Y2741D01*
G01X13017Y2751D01*
G01X13035Y2758D01*
G01X13053Y2763D01*
G01X13080Y2765D01*
G01X13101Y2758D01*
G01X13115Y2743D01*
G01X13120Y2722D01*
G01X13118Y2711D01*
G01X13112Y2698D01*
G01X13103Y2682D01*
G01X13091Y2665D01*
G01X13077Y2647D01*
G01X13060Y2628D01*
G01X13042Y2610D01*
G01X13022Y2592D01*
G01X12977Y2553D01*
G01X13018Y2494D01*
G01X13035Y2470D01*
G01X13050Y2450D01*
G01X13061Y2436D01*
G01X13067Y2429D01*
G01X13076Y2427D01*
G01X13089Y2430D01*
G01X13105Y2436D01*
G01X13122Y2446D01*
G01X13142Y2459D01*
G01X13162Y2475D01*
G01X13182Y2492D01*
G01X13202Y2512D01*
G01X13227Y2540D01*
G01X13247Y2565D01*
G01X13263Y2589D01*
G01X13274Y2613D01*
G01X13282Y2637D01*
G01X13286Y2663D01*
G01X13287Y2691D01*
G01X13286Y2722D01*
G01X13283Y2752D01*
G01X13278Y2778D01*
G01X13272Y2801D01*
G01X13263Y2823D01*
G01X13252Y2844D01*
G01X13237Y2865D01*
G01X13218Y2887D01*
G01X13195Y2911D01*
G01X13167Y2939D01*
G01X13146Y2955D01*
G01X13125Y2963D01*
G01X13098Y2965D01*
G37*

%LPC*%
G36*
G01X13046Y2513D02*
G01X13038Y2515D01*
G01X13042Y2505D01*
G01X13058Y2480D01*
G01X13067Y2467D01*
G01X13076Y2457D01*
G01X13084Y2451D01*
G01X13089Y2451D01*
G01X13097Y2459D01*
G01X13097Y2470D01*
G01X13086Y2482D01*
G01X13067Y2498D01*
G01X13046Y2513D01*
G37*
G36*
G01X12718Y2498D02*
G01X12713Y2504D01*
G01X12698Y2502D01*
G01X12674Y2492D01*
G01X12656Y2484D01*
G01X12634Y2477D01*
G01X12609Y2471D01*
G01X12586Y2467D01*
G01X12558Y2463D01*
G01X12546Y2460D01*
G01X12550Y2458D01*
G01X12566Y2455D01*
G01X12582Y2453D01*
G01X12602Y2454D01*
G01X12623Y2457D01*
G01X12645Y2461D01*
G01X12666Y2466D01*
G01X12685Y2472D01*
G01X12700Y2479D01*
G01X12710Y2486D01*
G01X12718Y2498D01*
G37*
G36*
G01X12407Y2669D02*
G01X12400Y2672D01*
G01X12403Y2665D01*
G01X12412Y2652D01*
G01X12425Y2634D01*
G01X12442Y2614D01*
G01X12461Y2591D01*
G01X12481Y2568D01*
G01X12502Y2545D01*
G01X12522Y2523D01*
G01X12541Y2505D01*
G01X12556Y2490D01*
G01X12568Y2480D01*
G01X12575Y2477D01*
G01X12581Y2478D01*
G01X12586Y2479D01*
G01X12589Y2482D01*
G01X12590Y2485D01*
G01X12583Y2496D01*
G01X12563Y2519D01*
G01X12532Y2551D01*
G01X12495Y2588D01*
G01X12458Y2624D01*
G01X12428Y2652D01*
G01X12407Y2669D01*
G37*
G36*
G01X13047Y2563D02*
G01X13041Y2563D01*
G01X13049Y2545D01*
G01X13073Y2516D01*
G01X13101Y2489D01*
G01X13121Y2477D01*
G01X13133Y2481D01*
G01X13132Y2493D01*
G01X13119Y2511D01*
G01X13094Y2534D01*
G01X13075Y2548D01*
G01X13059Y2558D01*
G01X13047Y2563D01*
G37*
G36*
G01X12417Y2725D02*
G01X12405Y2732D01*
G01X12400Y2728D01*
G01X12404Y2719D01*
G01X12415Y2703D01*
G01X12433Y2682D01*
G01X12455Y2656D01*
G01X12480Y2628D01*
G01X12506Y2600D01*
G01X12534Y2571D01*
G01X12560Y2545D01*
G01X12584Y2522D01*
G01X12605Y2504D01*
G01X12620Y2492D01*
G01X12629Y2488D01*
G01X12642Y2492D01*
G01X12639Y2505D01*
G01X12622Y2528D01*
G01X12588Y2560D01*
G01X12575Y2571D01*
G01X12561Y2584D01*
G01X12546Y2599D01*
G01X12529Y2615D01*
G01X12513Y2631D01*
G01X12496Y2647D01*
G01X12481Y2663D01*
G01X12466Y2678D01*
G01X12438Y2707D01*
G01X12417Y2725D01*
G37*
G36*
G01X12421Y2604D02*
G01X12414Y2607D01*
G01X12411Y2605D01*
G01X12414Y2596D01*
G01X12423Y2581D01*
G01X12436Y2561D01*
G01X12459Y2532D01*
G01X12486Y2508D01*
G01X12509Y2492D01*
G01X12523Y2491D01*
G01X12521Y2498D01*
G01X12510Y2513D01*
G01X12492Y2533D01*
G01X12470Y2558D01*
G01X12449Y2579D01*
G01X12432Y2595D01*
G01X12421Y2604D01*
G37*
G36*
G01X12427Y2780D02*
G01X12418Y2784D01*
G01X12412Y2782D01*
G01X12410Y2777D01*
G01X12412Y2769D01*
G01X12418Y2757D01*
G01X12429Y2742D01*
G01X12444Y2724D01*
G01X12464Y2703D01*
G01X12487Y2678D01*
G01X12518Y2646D01*
G01X12547Y2617D01*
G01X12574Y2592D01*
G01X12598Y2569D01*
G01X12620Y2551D01*
G01X12640Y2535D01*
G01X12656Y2523D01*
G01X12671Y2514D01*
G01X12682Y2509D01*
G01X12690Y2507D01*
G01X12695Y2510D01*
G01X12697Y2516D01*
G01X12693Y2525D01*
G01X12682Y2538D01*
G01X12667Y2554D01*
G01X12631Y2588D01*
G01X12613Y2601D01*
G01X12599Y2611D01*
G01X12589Y2615D01*
G01X12571Y2622D01*
G01X12551Y2641D01*
G01X12534Y2664D01*
G01X12527Y2684D01*
G01X12523Y2692D01*
G01X12512Y2705D01*
G01X12497Y2721D01*
G01X12478Y2739D01*
G01X12460Y2756D01*
G01X12442Y2770D01*
G01X12427Y2780D01*
G37*
G36*
G01X12754Y2529D02*
G01X12751Y2530D01*
G01X12746Y2529D01*
G01X12741Y2527D01*
G01X12737Y2523D01*
G01X12734Y2519D01*
G01X12732Y2515D01*
G01X12732Y2512D01*
G01X12734Y2509D01*
G01X12742Y2509D01*
G01X12747Y2512D01*
G01X12751Y2515D01*
G01X12755Y2519D01*
G01X12756Y2523D01*
G01X12756Y2527D01*
G01X12754Y2529D01*
G37*
G36*
G01X13097Y2583D02*
G01X13086Y2587D01*
G01X13079Y2586D01*
G01X13078Y2581D01*
G01X13083Y2572D01*
G01X13094Y2559D01*
G01X13112Y2543D01*
G01X13139Y2522D01*
G01X13157Y2511D01*
G01X13169Y2510D01*
G01X13177Y2518D01*
G01X13176Y2524D01*
G01X13167Y2534D01*
G01X13153Y2547D01*
G01X13135Y2561D01*
G01X13114Y2575D01*
G01X13097Y2583D01*
G37*
G36*
G01X12640Y2621D02*
G01X12634Y2622D01*
G01X12633Y2617D01*
G01X12639Y2607D01*
G01X12651Y2592D01*
G01X12669Y2573D01*
G01X12691Y2553D01*
G01X12708Y2540D01*
G01X12721Y2534D01*
G01X12728Y2536D01*
G01X12730Y2543D01*
G01X12724Y2554D01*
G01X12711Y2569D01*
G01X12691Y2587D01*
G01X12669Y2604D01*
G01X12652Y2615D01*
G01X12640Y2621D01*
G37*
G36*
G01X13117Y2623D02*
G01X13114Y2623D01*
G01X13112Y2622D01*
G01X13110Y2618D01*
G01X13110Y2613D01*
G01X13121Y2596D01*
G01X13148Y2572D01*
G01X13178Y2550D01*
G01X13198Y2540D01*
G01X13205Y2543D01*
G01X13205Y2550D01*
G01X13199Y2561D01*
G01X13188Y2573D01*
G01X13173Y2587D01*
G01X13155Y2601D01*
G01X13136Y2613D01*
G01X13117Y2623D01*
G37*
G36*
G01X12676Y2651D02*
G01X12669Y2652D01*
G01X12664Y2651D01*
G01X12660Y2647D01*
G01X12670Y2629D01*
G01X12700Y2600D01*
G01X12735Y2573D01*
G01X12760Y2561D01*
G01X12759Y2573D01*
G01X12739Y2598D01*
G01X12710Y2627D01*
G01X12684Y2647D01*
G01X12676Y2651D01*
G37*
G36*
G01X13149Y2665D02*
G01X13142Y2667D01*
G01X13138Y2666D01*
G01X13134Y2663D01*
G01X13131Y2659D01*
G01X13131Y2653D01*
G01X13135Y2641D01*
G01X13147Y2626D01*
G01X13167Y2609D01*
G01X13197Y2590D01*
G01X13213Y2580D01*
G01X13222Y2577D01*
G01X13228Y2580D01*
G01X13233Y2588D01*
G01X13235Y2595D01*
G01X13236Y2601D01*
G01X13236Y2605D01*
G01X13235Y2607D01*
G01X13231Y2611D01*
G01X13221Y2618D01*
G01X13207Y2628D01*
G01X13192Y2639D01*
G01X13176Y2650D01*
G01X13161Y2659D01*
G01X13149Y2665D01*
G37*
G36*
G01X12716Y2678D02*
G01X12704Y2684D01*
G01X12697Y2682D01*
G01X12696Y2675D01*
G01X12703Y2662D01*
G01X12715Y2646D01*
G01X12730Y2628D01*
G01X12747Y2611D01*
G01X12764Y2597D01*
G01X12778Y2586D01*
G01X12789Y2583D01*
G01X12801Y2586D01*
G01X12799Y2596D01*
G01X12784Y2616D01*
G01X12755Y2646D01*
G01X12733Y2666D01*
G01X12716Y2678D01*
G37*
G36*
G01X12747Y2711D02*
G01X12731Y2717D01*
G01X12731Y2709D01*
G01X12747Y2687D01*
G01X12777Y2653D01*
G01X12799Y2630D01*
G01X12815Y2616D01*
G01X12828Y2610D01*
G01X12835Y2612D01*
G01X12836Y2618D01*
G01X12832Y2629D01*
G01X12823Y2642D01*
G01X12810Y2657D01*
G01X12795Y2673D01*
G01X12779Y2688D01*
G01X12763Y2701D01*
G01X12747Y2711D01*
G37*
G36*
G01X13168Y2721D02*
G01X13149Y2733D01*
G01X13142Y2730D01*
G01X13141Y2715D01*
G01X13143Y2701D01*
G01X13152Y2687D01*
G01X13167Y2673D01*
G01X13191Y2657D01*
G01X13223Y2637D01*
G01X13243Y2627D01*
G01X13255Y2627D01*
G01X13263Y2635D01*
G01X13260Y2643D01*
G01X13248Y2656D01*
G01X13229Y2674D01*
G01X13205Y2694D01*
G01X13168Y2721D01*
G37*
G36*
G01X12782Y2741D02*
G01X12768Y2747D01*
G01X12760Y2746D01*
G01X12759Y2738D01*
G01X12766Y2725D01*
G01X12783Y2707D01*
G01X12808Y2684D01*
G01X12831Y2665D01*
G01X12852Y2650D01*
G01X12867Y2642D01*
G01X12874Y2640D01*
G01X12872Y2647D01*
G01X12863Y2661D01*
G01X12847Y2680D01*
G01X12826Y2702D01*
G01X12801Y2726D01*
G01X12782Y2741D01*
G37*
G36*
G01X12813Y2787D02*
G01X12801Y2794D01*
G01X12798Y2793D01*
G01X12794Y2790D01*
G01X12791Y2785D01*
G01X12788Y2779D01*
G01X12790Y2769D01*
G01X12800Y2754D01*
G01X12816Y2735D01*
G01X12835Y2716D01*
G01X12856Y2698D01*
G01X12874Y2684D01*
G01X12890Y2675D01*
G01X12899Y2674D01*
G01X12902Y2678D01*
G01X12901Y2685D01*
G01X12897Y2693D01*
G01X12891Y2703D01*
G01X12861Y2738D01*
G01X12834Y2767D01*
G01X12813Y2787D01*
G37*
G36*
G01X12993Y2928D02*
G01X12984Y2932D01*
G01X12973Y2928D01*
G01X12978Y2916D01*
G01X12998Y2892D01*
G01X13038Y2852D01*
G01X13060Y2832D01*
G01X13083Y2811D01*
G01X13108Y2789D01*
G01X13133Y2769D01*
G01X13159Y2748D01*
G01X13183Y2730D01*
G01X13206Y2713D01*
G01X13226Y2700D01*
G01X13243Y2689D01*
G01X13257Y2682D01*
G01X13265Y2679D01*
G01X13268Y2681D01*
G01X13262Y2692D01*
G01X13244Y2711D01*
G01X13218Y2735D01*
G01X13186Y2763D01*
G01X13169Y2778D01*
G01X13131Y2810D01*
G01X13095Y2842D01*
G01X13078Y2857D01*
G01X13063Y2870D01*
G01X13050Y2882D01*
G01X13028Y2901D01*
G01X13009Y2917D01*
G01X12993Y2928D01*
G37*
G36*
G01X12849Y2812D02*
G01X12836Y2819D01*
G01X12830Y2817D01*
G01X12831Y2808D01*
G01X12839Y2793D01*
G01X12852Y2775D01*
G01X12869Y2756D01*
G01X12887Y2738D01*
G01X12905Y2723D01*
G01X12920Y2714D01*
G01X12930Y2712D01*
G01X12934Y2717D01*
G01X12928Y2729D01*
G01X12914Y2748D01*
G01X12891Y2773D01*
G01X12868Y2796D01*
G01X12849Y2812D01*
G37*
G36*
G01X12460Y2821D02*
G01X12441Y2830D01*
G01X12433Y2823D01*
G01X12435Y2812D01*
G01X12447Y2795D01*
G01X12472Y2770D01*
G01X12498Y2747D01*
G01X12519Y2734D01*
G01X12533Y2732D01*
G01X12538Y2741D01*
G01X12524Y2763D01*
G01X12493Y2794D01*
G01X12460Y2821D01*
G37*
G36*
G01X13042Y2942D02*
G01X13034Y2942D01*
G01X13028Y2940D01*
G01X13026Y2936D01*
G01X13027Y2930D01*
G01X13032Y2923D01*
G01X13040Y2913D01*
G01X13053Y2900D01*
G01X13069Y2885D01*
G01X13090Y2866D01*
G01X13115Y2844D01*
G01X13146Y2819D01*
G01X13181Y2791D01*
G01X13225Y2756D01*
G01X13251Y2738D01*
G01X13264Y2733D01*
G01X13268Y2741D01*
G01X13267Y2750D01*
G01X13265Y2756D01*
G01X13262Y2761D01*
G01X13258Y2763D01*
G01X13247Y2770D01*
G01X13223Y2789D01*
G01X13191Y2818D01*
G01X13115Y2888D01*
G01X13082Y2916D01*
G01X13056Y2936D01*
G01X13042Y2942D01*
G37*
G36*
G01X12870Y2845D02*
G01X12865Y2847D01*
G01X12856Y2844D01*
G01X12860Y2832D01*
G01X12876Y2812D01*
G01X12906Y2781D01*
G01X12930Y2759D01*
G01X12948Y2745D01*
G01X12961Y2739D01*
G01X12972Y2741D01*
G01X12981Y2750D01*
G01X12983Y2753D01*
G01X12982Y2755D01*
G01X12963Y2773D01*
G01X12925Y2805D01*
G01X12908Y2818D01*
G01X12893Y2830D01*
G01X12880Y2839D01*
G01X12870Y2845D01*
G37*
G36*
G01X12906Y2875D02*
G01X12895Y2879D01*
G01X12887Y2875D01*
G01X12891Y2863D01*
G01X12906Y2845D01*
G01X12932Y2821D01*
G01X12968Y2791D01*
G01X12994Y2773D01*
G01X13010Y2768D01*
G01X13019Y2773D01*
G01X13016Y2780D01*
G01X13005Y2794D01*
G01X12987Y2811D01*
G01X12966Y2830D01*
G01X12943Y2848D01*
G01X12922Y2864D01*
G01X12906Y2875D01*
G37*
G36*
G01X12494Y2857D02*
G01X12475Y2869D01*
G01X12465Y2865D01*
G01X12466Y2853D01*
G01X12479Y2834D01*
G01X12503Y2810D01*
G01X12529Y2787D01*
G01X12547Y2776D01*
G01X12556Y2775D01*
G01X12559Y2785D01*
G01X12548Y2804D01*
G01X12523Y2832D01*
G01X12494Y2857D01*
G37*
G36*
G01X12947Y2905D02*
G01X12937Y2908D01*
G01X12932Y2906D01*
G01X12928Y2903D01*
G01X12925Y2898D01*
G01X12922Y2894D01*
G01X12927Y2886D01*
G01X12941Y2871D01*
G01X12963Y2853D01*
G01X12988Y2833D01*
G01X13014Y2814D01*
G01X13038Y2799D01*
G01X13057Y2788D01*
G01X13068Y2786D01*
G01X13067Y2792D01*
G01X13057Y2807D01*
G01X13039Y2827D01*
G01X13014Y2851D01*
G01X12988Y2874D01*
G01X12964Y2893D01*
G01X12947Y2905D01*
G37*
G36*
G01X13110Y2940D02*
G01X13102Y2941D01*
G01X13100Y2936D01*
G01X13105Y2926D01*
G01X13118Y2911D01*
G01X13137Y2890D01*
G01X13163Y2866D01*
G01X13194Y2839D01*
G01X13219Y2817D01*
G01X13237Y2803D01*
G01X13244Y2799D01*
G01X13245Y2807D01*
G01X13239Y2821D01*
G01X13228Y2839D01*
G01X13214Y2859D01*
G01X13197Y2880D01*
G01X13180Y2899D01*
G01X13163Y2914D01*
G01X13149Y2924D01*
G01X13126Y2935D01*
G01X13110Y2940D01*
G37*
G36*
G01X12540Y2885D02*
G01X12514Y2897D01*
G01X12505Y2891D01*
G01X12513Y2871D01*
G01X12538Y2842D01*
G01X12554Y2827D01*
G01X12569Y2815D01*
G01X12581Y2809D01*
G01X12587Y2808D01*
G01X12588Y2822D01*
G01X12578Y2844D01*
G01X12561Y2867D01*
G01X12540Y2885D01*
G37*
G36*
G01X12549Y2921D02*
G01X12545Y2921D01*
G01X12546Y2916D01*
G01X12552Y2906D01*
G01X12562Y2892D01*
G01X12576Y2876D01*
G01X12589Y2862D01*
G01X12601Y2852D01*
G01X12609Y2846D01*
G01X12612Y2847D01*
G01X12609Y2854D01*
G01X12603Y2865D01*
G01X12593Y2878D01*
G01X12581Y2892D01*
G01X12568Y2905D01*
G01X12557Y2915D01*
G01X12549Y2921D01*
G37*

%LPD*%
G36*
G01X12620Y2381D02*
G01X12614Y2382D01*
G01X12608Y2376D01*
G01X12604Y2359D01*
G01X12602Y2329D01*
G01X12601Y2283D01*
G01X12602Y2240D01*
G01X12605Y2206D01*
G01X12609Y2182D01*
G01X12614Y2168D01*
G01X12622Y2163D01*
G01X12636Y2156D01*
G01X12656Y2147D01*
G01X12681Y2136D01*
G01X12710Y2125D01*
G01X12742Y2113D01*
G01X12774Y2102D01*
G01X12806Y2090D01*
G01X12838Y2080D01*
G01X12867Y2071D01*
G01X12893Y2064D01*
G01X12914Y2059D01*
G01X12922Y2057D01*
G01X12929Y2056D01*
G01X12934Y2054D01*
G01X12936Y2051D01*
G01X12935Y2048D01*
G01X12929Y2042D01*
G01X12918Y2034D01*
G01X12902Y2024D01*
G01X12880Y2010D01*
G01X12851Y1992D01*
G01X12771Y1942D01*
G01X12732Y1919D01*
G01X12702Y1899D01*
G01X12677Y1883D01*
G01X12660Y1869D01*
G01X12647Y1858D01*
G01X12639Y1849D01*
G01X12634Y1841D01*
G01X12633Y1833D01*
G01X12634Y1818D01*
G01X12638Y1798D01*
G01X12643Y1775D01*
G01X12650Y1751D01*
G01X12657Y1729D01*
G01X12664Y1709D01*
G01X12670Y1695D01*
G01X12675Y1688D01*
G01X12693Y1694D01*
G01X12710Y1703D01*
G01X12733Y1715D01*
G01X12760Y1730D01*
G01X12791Y1748D01*
G01X12824Y1767D01*
G01X12859Y1789D01*
G01X12894Y1810D01*
G01X12927Y1830D01*
G01X12957Y1848D01*
G01X12984Y1864D01*
G01X13006Y1877D01*
G01X13023Y1886D01*
G01X13035Y1893D01*
G01X13040Y1895D01*
G01X13046Y1897D01*
G01X13057Y1903D01*
G01X13072Y1912D01*
G01X13090Y1922D01*
G01X13120Y1940D01*
G01X13145Y1954D01*
G01X13168Y1963D01*
G01X13189Y1967D01*
G01X13210Y1968D01*
G01X13233Y1965D01*
G01X13259Y1958D01*
G01X13289Y1947D01*
G01X13323Y1935D01*
G01X13357Y1922D01*
G01X13386Y1910D01*
G01X13408Y1901D01*
G01X13433Y1891D01*
G01X13452Y1885D01*
G01X13466Y1884D01*
G01X13477Y1888D01*
G01X13484Y1898D01*
G01X13489Y1914D01*
G01X13493Y1938D01*
G01X13496Y1970D01*
G01X13498Y2005D01*
G01X13498Y2034D01*
G01X13497Y2055D01*
G01X13494Y2065D01*
G01X13490Y2068D01*
G01X13482Y2072D01*
G01X13470Y2077D01*
G01X13454Y2083D01*
G01X13434Y2091D01*
G01X13410Y2100D01*
G01X13382Y2109D01*
G01X13351Y2121D01*
G01X13315Y2133D01*
G01X13275Y2146D01*
G01X13231Y2161D01*
G01X13184Y2177D01*
G01X13159Y2186D01*
G01X13128Y2198D01*
G01X13094Y2211D01*
G01X13062Y2224D01*
G01X12978Y2257D01*
G01X12949Y2269D01*
G01X12920Y2280D01*
G01X12892Y2290D01*
G01X12863Y2301D01*
G01X12835Y2311D01*
G01X12808Y2321D01*
G01X12782Y2330D01*
G01X12757Y2339D01*
G01X12733Y2347D01*
G01X12711Y2355D01*
G01X12690Y2361D01*
G01X12672Y2367D01*
G01X12655Y2372D01*
G01X12641Y2376D01*
G01X12629Y2379D01*
G01X12620Y2381D01*
G37*

%LPD*%
G36*
G01X13223Y1705D02*
G01X13206Y1705D01*
G01X13187Y1704D01*
G01X13167Y1703D01*
G01X13144Y1702D01*
G01X13121Y1700D01*
G01X13095Y1698D01*
G01X13069Y1695D01*
G01X13013Y1689D01*
G01X12983Y1685D01*
G01X12952Y1680D01*
G01X12921Y1676D01*
G01X12889Y1671D01*
G01X12790Y1653D01*
G01X12756Y1647D01*
G01X12723Y1640D01*
G01X12675Y1630D01*
G01X12632Y1621D01*
G01X12594Y1613D01*
G01X12560Y1605D01*
G01X12530Y1598D01*
G01X12504Y1592D01*
G01X12482Y1586D01*
G01X12464Y1581D01*
G01X12450Y1577D01*
G01X12439Y1573D01*
G01X12425Y1566D01*
G01X12419Y1556D01*
G01X12414Y1537D01*
G01X12411Y1509D01*
G01X12410Y1472D01*
G01X12410Y1390D01*
G01X12509Y1352D01*
G01X12535Y1342D01*
G01X12559Y1333D01*
G01X12580Y1325D01*
G01X12600Y1318D01*
G01X12618Y1312D01*
G01X12635Y1306D01*
G01X12669Y1296D01*
G01X12687Y1291D01*
G01X12706Y1286D01*
G01X12726Y1281D01*
G01X12749Y1276D01*
G01X12785Y1267D01*
G01X12819Y1258D01*
G01X12850Y1249D01*
G01X12877Y1242D01*
G01X12899Y1235D01*
G01X12915Y1229D01*
G01X12925Y1225D01*
G01X12927Y1222D01*
G01X12916Y1216D01*
G01X12852Y1184D01*
G01X12807Y1161D01*
G01X12786Y1151D01*
G01X12766Y1142D01*
G01X12747Y1132D01*
G01X12727Y1124D01*
G01X12707Y1115D01*
G01X12688Y1107D01*
G01X12668Y1099D01*
G01X12648Y1092D01*
G01X12628Y1084D01*
G01X12607Y1077D01*
G01X12586Y1069D01*
G01X12565Y1062D01*
G01X12543Y1055D01*
G01X12520Y1048D01*
G01X12496Y1040D01*
G01X12472Y1033D01*
G01X12410Y1015D01*
G01X12411Y960D01*
G01X12412Y938D01*
G01X12413Y919D01*
G01X12414Y903D01*
G01X12416Y895D01*
G01X12418Y888D01*
G01X12420Y879D01*
G01X12423Y868D01*
G01X12425Y857D01*
G01X12431Y841D01*
G01X12441Y832D01*
G01X12462Y826D01*
G01X12498Y822D01*
G01X12514Y820D01*
G01X12534Y817D01*
G01X12557Y814D01*
G01X12611Y806D01*
G01X12640Y802D01*
G01X12668Y798D01*
G01X12697Y793D01*
G01X12728Y788D01*
G01X12755Y784D01*
G01X12778Y780D01*
G01X12799Y777D01*
G01X12817Y774D01*
G01X12835Y772D01*
G01X12852Y769D01*
G01X12869Y767D01*
G01X12887Y765D01*
G01X12907Y763D01*
G01X12930Y760D01*
G01X12956Y757D01*
G01X12971Y756D01*
G01X12990Y753D01*
G01X13013Y750D01*
G01X13038Y746D01*
G01X13064Y742D01*
G01X13092Y738D01*
G01X13146Y730D01*
G01X13209Y720D01*
G01X13249Y715D01*
G01X13271Y716D01*
G01X13281Y722D01*
G01X13284Y734D01*
G01X13286Y754D01*
G01X13285Y780D01*
G01X13284Y809D01*
G01X13282Y837D01*
G01X13278Y863D01*
G01X13274Y882D01*
G01X13269Y892D01*
G01X13265Y894D01*
G01X13255Y897D01*
G01X13241Y900D01*
G01X13222Y903D01*
G01X13200Y907D01*
G01X13175Y911D01*
G01X13147Y915D01*
G01X13118Y920D01*
G01X13087Y924D01*
G01X13055Y929D01*
G01X13022Y933D01*
G01X12990Y937D01*
G01X12959Y941D01*
G01X12928Y944D01*
G01X12900Y947D01*
G01X12874Y950D01*
G01X12846Y953D01*
G01X12823Y956D01*
G01X12808Y959D01*
G01X12802Y962D01*
G01X12806Y965D01*
G01X12815Y969D01*
G01X12829Y976D01*
G01X12848Y984D01*
G01X12872Y993D01*
G01X12898Y1003D01*
G01X12927Y1015D01*
G01X12959Y1026D01*
G01X12981Y1034D01*
G01X13003Y1043D01*
G01X13025Y1051D01*
G01X13048Y1060D01*
G01X13070Y1069D01*
G01X13092Y1077D01*
G01X13112Y1085D01*
G01X13150Y1101D01*
G01X13166Y1107D01*
G01X13180Y1113D01*
G01X13192Y1119D01*
G01X13269Y1154D01*
G01X13263Y1318D01*
G01X13205Y1336D01*
G01X13190Y1341D01*
G01X13173Y1346D01*
G01X13152Y1352D01*
G01X13129Y1359D01*
G01X13105Y1366D01*
G01X13030Y1387D01*
G01X12995Y1397D01*
G01X12961Y1407D01*
G01X12929Y1416D01*
G01X12899Y1425D01*
G01X12872Y1434D01*
G01X12847Y1441D01*
G01X12825Y1448D01*
G01X12807Y1455D01*
G01X12793Y1460D01*
G01X12782Y1464D01*
G01X12776Y1467D01*
G01X12775Y1469D01*
G01X12779Y1470D01*
G01X12788Y1472D01*
G01X12802Y1475D01*
G01X12819Y1477D01*
G01X12840Y1480D01*
G01X12864Y1483D01*
G01X12891Y1487D01*
G01X12919Y1490D01*
G01X12949Y1494D01*
G01X13011Y1500D01*
G01X13071Y1506D01*
G01X13100Y1509D01*
G01X13126Y1511D01*
G01X13150Y1513D01*
G01X13205Y1518D01*
G01X13244Y1523D01*
G01X13268Y1530D01*
G01X13280Y1536D01*
G01X13284Y1548D01*
G01X13286Y1566D01*
G01X13288Y1589D01*
G01X13289Y1615D01*
G01X13288Y1640D01*
G01X13286Y1663D01*
G01X13284Y1681D01*
G01X13280Y1693D01*
G01X13276Y1696D01*
G01X13270Y1699D01*
G01X13261Y1701D01*
G01X13251Y1703D01*
G01X13238Y1704D01*
G01X13223Y1705D01*
G37*

%LPD*%
G54D10*
G01X2309Y5180D02*
G01X2309Y5890D01*
G01X3450Y7030D01*
G01X9269Y7030D01*
G01X9390Y7030D02*
G01X10460Y5969D01*
G01X10460Y5140D01*
G01X10460Y3180D02*
G01X10460Y2550D01*
G01X9269Y1369D01*
G01X3409Y1369D02*
G01X2309Y2469D01*
G01X2309Y3180D01*
G01X7650Y12100D02*
G01X7650Y17100D01*
G01X7650Y12100D02*
G01X150Y12100D01*
G01X7650Y17100D02*
G01X150Y17100D01*
G01X150Y12100D01*
G01X3150Y13100D02*
G01X1150Y13100D01*
G01X1150Y13600D01*
G01X1900Y13600D01*
G01X1900Y13850D01*
G01X1150Y13850D01*
G01X1150Y14100D01*
G01X1900Y14100D01*
G01X1900Y14350D01*
G01X1150Y14350D01*
G01X1150Y15600D01*
G01X6400Y13100D02*
G01X6400Y16100D01*
G01X3400Y16100D01*
G01X3400Y13100D01*
G01X6400Y13100D01*
G01X8019Y13309D02*
G01X9969Y13309D01*
G01X9509Y12830D02*
G01X9509Y13159D01*
G01X9309Y13009D02*
G01X9710Y13009D01*
G01X6400Y8400D02*
G01X6400Y8800D01*
G01X6200Y8600D02*
G01X6600Y8600D01*
G01X3900Y7900D02*
G01X400Y7900D01*
G01X400Y11900D01*
G01X3900Y11900D01*
G01X3900Y7900D01*
G01X12700Y18200D02*
G01X13700Y18200D01*
G01X13700Y8200D01*
G01X12700Y8200D01*
G01X12700Y18200D01*
G01X13585Y25775D02*
G01X13585Y18570D01*
G01X200Y18570D01*
G01X200Y25775D01*
G01X13585Y25775D01*

%LPD*%
G36*
G01X807Y6599D02*
G01X796Y6600D01*
G01X765Y6598D01*
G01X737Y6594D01*
G01X711Y6588D01*
G01X688Y6579D01*
G01X666Y6568D01*
G01X648Y6555D01*
G01X632Y6539D01*
G01X618Y6521D01*
G01X607Y6501D01*
G01X600Y6479D01*
G01X595Y6455D01*
G01X594Y6428D01*
G01X594Y6410D01*
G01X598Y6392D01*
G01X603Y6374D01*
G01X609Y6357D01*
G01X618Y6340D01*
G01X628Y6324D01*
G01X641Y6309D01*
G01X655Y6295D01*
G01X670Y6282D01*
G01X706Y6260D01*
G01X726Y6252D01*
G01X748Y6245D01*
G01X771Y6240D01*
G01X796Y6236D01*
G01X847Y6236D01*
G01X872Y6240D01*
G01X895Y6245D01*
G01X916Y6252D01*
G01X936Y6260D01*
G01X955Y6271D01*
G01X971Y6282D01*
G01X987Y6296D01*
G01X1001Y6310D01*
G01X1013Y6326D01*
G01X1023Y6343D01*
G01X1031Y6361D01*
G01X1038Y6380D01*
G01X1043Y6399D01*
G01X1046Y6419D01*
G01X1046Y6462D01*
G01X1043Y6483D01*
G01X1039Y6502D01*
G01X1034Y6520D01*
G01X1027Y6537D01*
G01X1019Y6553D01*
G01X1011Y6568D01*
G01X1003Y6582D01*
G01X959Y6559D01*
G01X974Y6534D01*
G01X985Y6508D01*
G01X992Y6479D01*
G01X994Y6448D01*
G01X993Y6428D01*
G01X989Y6408D01*
G01X983Y6390D01*
G01X974Y6373D01*
G01X963Y6357D01*
G01X951Y6344D01*
G01X936Y6332D01*
G01X919Y6321D01*
G01X900Y6313D01*
G01X880Y6307D01*
G01X858Y6303D01*
G01X834Y6301D01*
G01X834Y6596D01*
G01X826Y6597D01*
G01X817Y6599D01*
G01X807Y6599D01*
G37*

%LPC*%
G36*
G01X788Y6300D02*
G01X788Y6542D01*
G01X755Y6540D01*
G01X726Y6534D01*
G01X702Y6525D01*
G01X682Y6512D01*
G01X667Y6496D01*
G01X655Y6476D01*
G01X649Y6455D01*
G01X646Y6430D01*
G01X649Y6406D01*
G01X656Y6384D01*
G01X668Y6363D01*
G01X684Y6344D01*
G01X704Y6328D01*
G01X728Y6315D01*
G01X756Y6305D01*
G01X788Y6300D01*
G37*

%LPD*%
G36*
G01X1036Y6119D02*
G01X400Y6119D01*
G01X400Y6053D01*
G01X569Y6053D01*
G01X644Y6057D01*
G01X623Y6028D01*
G01X607Y5999D01*
G01X597Y5968D01*
G01X594Y5932D01*
G01X594Y5914D01*
G01X598Y5896D01*
G01X603Y5878D01*
G01X609Y5861D01*
G01X618Y5845D01*
G01X629Y5830D01*
G01X641Y5815D01*
G01X655Y5801D01*
G01X671Y5789D01*
G01X688Y5778D01*
G01X707Y5768D01*
G01X727Y5760D01*
G01X748Y5753D01*
G01X771Y5748D01*
G01X821Y5744D01*
G01X848Y5745D01*
G01X873Y5748D01*
G01X896Y5752D01*
G01X917Y5757D01*
G01X938Y5764D01*
G01X956Y5772D01*
G01X973Y5782D01*
G01X988Y5793D01*
G01X1001Y5805D01*
G01X1013Y5819D01*
G01X1023Y5834D01*
G01X1032Y5850D01*
G01X1038Y5867D01*
G01X1043Y5884D01*
G01X1046Y5903D01*
G01X1046Y5923D01*
G01X1045Y5943D01*
G01X1042Y5961D01*
G01X1036Y5980D01*
G01X1028Y5997D01*
G01X1019Y6013D01*
G01X1009Y6029D01*
G01X997Y6043D01*
G01X984Y6057D01*
G01X984Y6059D01*
G01X1036Y6065D01*
G01X1036Y6119D01*
G37*

%LPC*%
G36*
G01X930Y6053D02*
G01X696Y6053D01*
G01X675Y6025D01*
G01X660Y5998D01*
G01X651Y5971D01*
G01X648Y5944D01*
G01X650Y5925D01*
G01X654Y5908D01*
G01X661Y5892D01*
G01X671Y5877D01*
G01X682Y5863D01*
G01X697Y5850D01*
G01X713Y5839D01*
G01X731Y5830D01*
G01X751Y5823D01*
G01X773Y5817D01*
G01X796Y5814D01*
G01X821Y5813D01*
G01X846Y5813D01*
G01X870Y5816D01*
G01X892Y5821D01*
G01X912Y5827D01*
G01X930Y5835D01*
G01X946Y5845D01*
G01X959Y5856D01*
G01X971Y5869D01*
G01X980Y5884D01*
G01X986Y5900D01*
G01X990Y5917D01*
G01X992Y5936D01*
G01X988Y5967D01*
G01X976Y5996D01*
G01X957Y6025D01*
G01X930Y6053D01*
G37*

%LPD*%
G36*
G01X848Y5659D02*
G01X795Y5659D01*
G01X770Y5655D01*
G01X747Y5650D01*
G01X725Y5643D01*
G01X704Y5635D01*
G01X686Y5625D01*
G01X669Y5613D01*
G01X653Y5600D01*
G01X640Y5586D01*
G01X628Y5570D01*
G01X617Y5554D01*
G01X609Y5536D01*
G01X602Y5518D01*
G01X597Y5500D01*
G01X594Y5480D01*
G01X594Y5441D01*
G01X597Y5422D01*
G01X602Y5403D01*
G01X609Y5385D01*
G01X617Y5368D01*
G01X628Y5352D01*
G01X640Y5336D01*
G01X653Y5322D01*
G01X669Y5309D01*
G01X686Y5298D01*
G01X704Y5287D01*
G01X725Y5279D01*
G01X747Y5272D01*
G01X770Y5267D01*
G01X795Y5263D01*
G01X848Y5263D01*
G01X872Y5267D01*
G01X895Y5272D01*
G01X917Y5279D01*
G01X937Y5287D01*
G01X955Y5298D01*
G01X972Y5309D01*
G01X987Y5322D01*
G01X1001Y5336D01*
G01X1013Y5352D01*
G01X1023Y5368D01*
G01X1031Y5385D01*
G01X1038Y5403D01*
G01X1043Y5422D01*
G01X1046Y5441D01*
G01X1046Y5480D01*
G01X1043Y5500D01*
G01X1038Y5518D01*
G01X1031Y5536D01*
G01X1023Y5554D01*
G01X1013Y5570D01*
G01X1001Y5586D01*
G01X987Y5600D01*
G01X972Y5613D01*
G01X955Y5625D01*
G01X937Y5635D01*
G01X917Y5643D01*
G01X895Y5650D01*
G01X872Y5655D01*
G01X848Y5659D01*
G37*

%LPC*%
G36*
G01X846Y5591D02*
G01X821Y5592D01*
G01X796Y5591D01*
G01X773Y5588D01*
G01X751Y5583D01*
G01X731Y5576D01*
G01X713Y5567D01*
G01X696Y5556D01*
G01X682Y5543D01*
G01X671Y5529D01*
G01X661Y5514D01*
G01X654Y5497D01*
G01X650Y5480D01*
G01X648Y5461D01*
G01X650Y5442D01*
G01X654Y5424D01*
G01X661Y5407D01*
G01X671Y5392D01*
G01X682Y5378D01*
G01X696Y5366D01*
G01X713Y5355D01*
G01X731Y5346D01*
G01X751Y5339D01*
G01X773Y5334D01*
G01X796Y5330D01*
G01X846Y5330D01*
G01X870Y5334D01*
G01X891Y5339D01*
G01X911Y5346D01*
G01X929Y5355D01*
G01X945Y5366D01*
G01X959Y5378D01*
G01X971Y5392D01*
G01X980Y5407D01*
G01X987Y5424D01*
G01X991Y5442D01*
G01X992Y5461D01*
G01X991Y5480D01*
G01X987Y5497D01*
G01X980Y5514D01*
G01X971Y5529D01*
G01X959Y5543D01*
G01X945Y5556D01*
G01X929Y5567D01*
G01X911Y5576D01*
G01X891Y5583D01*
G01X870Y5588D01*
G01X846Y5591D01*
G37*

%LPD*%
G36*
G01X1036Y5138D02*
G01X451Y5138D01*
G01X451Y5076D01*
G01X813Y5076D01*
G01X905Y5080D01*
G01X951Y5084D01*
G01X951Y5080D01*
G01X830Y5017D01*
G01X451Y4796D01*
G01X451Y4728D01*
G01X1036Y4728D01*
G01X1036Y4790D01*
G01X715Y4790D01*
G01X693Y4789D01*
G01X670Y4789D01*
G01X625Y4787D01*
G01X603Y4785D01*
G01X559Y4783D01*
G01X538Y4782D01*
G01X538Y4786D01*
G01X657Y4850D01*
G01X1036Y5069D01*
G01X1036Y5138D01*
G37*

%LPD*%
G36*
G01X840Y4423D02*
G01X813Y4425D01*
G01X789Y4424D01*
G01X766Y4422D01*
G01X744Y4418D01*
G01X723Y4413D01*
G01X703Y4407D01*
G01X686Y4400D01*
G01X669Y4391D01*
G01X654Y4380D01*
G01X640Y4369D01*
G01X628Y4356D01*
G01X618Y4342D01*
G01X609Y4326D01*
G01X603Y4309D01*
G01X598Y4291D01*
G01X594Y4272D01*
G01X594Y4251D01*
G01X595Y4233D01*
G01X598Y4214D01*
G01X604Y4196D01*
G01X612Y4178D01*
G01X621Y4161D01*
G01X632Y4144D01*
G01X643Y4128D01*
G01X655Y4113D01*
G01X655Y4111D01*
G01X605Y4103D01*
G01X605Y4051D01*
G01X1223Y4051D01*
G01X1223Y4115D01*
G01X996Y4115D01*
G01X1018Y4145D01*
G01X1034Y4175D01*
G01X1043Y4205D01*
G01X1046Y4236D01*
G01X1046Y4254D01*
G01X1038Y4290D01*
G01X1031Y4307D01*
G01X1022Y4324D01*
G01X1012Y4339D01*
G01X1000Y4354D01*
G01X986Y4367D01*
G01X970Y4380D01*
G01X952Y4391D01*
G01X933Y4401D01*
G01X912Y4409D01*
G01X890Y4416D01*
G01X866Y4421D01*
G01X840Y4423D01*
G37*

%LPC*%
G36*
G01X841Y4355D02*
G01X815Y4357D01*
G01X791Y4356D01*
G01X768Y4354D01*
G01X747Y4350D01*
G01X728Y4345D01*
G01X710Y4338D01*
G01X695Y4329D01*
G01X681Y4319D01*
G01X670Y4306D01*
G01X661Y4292D01*
G01X654Y4276D01*
G01X650Y4257D01*
G01X648Y4236D01*
G01X653Y4208D01*
G01X665Y4179D01*
G01X684Y4148D01*
G01X711Y4115D01*
G01X944Y4115D01*
G01X967Y4146D01*
G01X981Y4175D01*
G01X989Y4202D01*
G01X992Y4226D01*
G01X990Y4245D01*
G01X986Y4262D01*
G01X979Y4278D01*
G01X970Y4294D01*
G01X958Y4307D01*
G01X944Y4320D01*
G01X928Y4330D01*
G01X909Y4340D01*
G01X888Y4347D01*
G01X865Y4352D01*
G01X841Y4355D01*
G37*

%LPD*%
G36*
G01X1036Y3907D02*
G01X763Y3907D01*
G01X736Y3905D01*
G01X711Y3903D01*
G01X689Y3898D01*
G01X669Y3892D01*
G01X652Y3884D01*
G01X636Y3874D01*
G01X623Y3862D01*
G01X613Y3848D01*
G01X604Y3833D01*
G01X598Y3816D01*
G01X595Y3796D01*
G01X594Y3776D01*
G01X595Y3756D01*
G01X600Y3738D01*
G01X607Y3719D01*
G01X617Y3701D01*
G01X629Y3684D01*
G01X643Y3666D01*
G01X659Y3649D01*
G01X678Y3632D01*
G01X659Y3624D01*
G01X643Y3615D01*
G01X628Y3604D01*
G01X616Y3591D01*
G01X607Y3575D01*
G01X600Y3557D01*
G01X595Y3536D01*
G01X594Y3511D01*
G01X595Y3493D01*
G01X599Y3475D01*
G01X606Y3457D01*
G01X615Y3440D01*
G01X626Y3423D01*
G01X639Y3407D01*
G01X653Y3392D01*
G01X669Y3378D01*
G01X669Y3376D01*
G01X605Y3369D01*
G01X605Y3315D01*
G01X1036Y3315D01*
G01X1036Y3380D01*
G01X721Y3380D01*
G01X690Y3411D01*
G01X668Y3440D01*
G01X655Y3467D01*
G01X651Y3494D01*
G01X652Y3514D01*
G01X657Y3531D01*
G01X666Y3546D01*
G01X679Y3558D01*
G01X696Y3567D01*
G01X716Y3573D01*
G01X741Y3577D01*
G01X771Y3578D01*
G01X1036Y3578D01*
G01X1036Y3644D01*
G01X721Y3644D01*
G01X690Y3673D01*
G01X668Y3702D01*
G01X655Y3730D01*
G01X651Y3757D01*
G01X652Y3777D01*
G01X657Y3794D01*
G01X666Y3809D01*
G01X679Y3820D01*
G01X696Y3829D01*
G01X716Y3836D01*
G01X741Y3839D01*
G01X771Y3840D01*
G01X1036Y3840D01*
G01X1036Y3907D01*
G37*

%LPD*%
G36*
G01X807Y3206D02*
G01X796Y3207D01*
G01X765Y3205D01*
G01X737Y3201D01*
G01X711Y3195D01*
G01X688Y3186D01*
G01X666Y3175D01*
G01X648Y3161D01*
G01X632Y3146D01*
G01X618Y3128D01*
G01X607Y3108D01*
G01X600Y3086D01*
G01X595Y3061D01*
G01X594Y3036D01*
G01X594Y3017D01*
G01X598Y2999D01*
G01X603Y2981D01*
G01X609Y2964D01*
G01X618Y2947D01*
G01X628Y2931D01*
G01X641Y2916D01*
G01X655Y2902D01*
G01X670Y2890D01*
G01X688Y2878D01*
G01X706Y2868D01*
G01X726Y2859D01*
G01X748Y2853D01*
G01X771Y2848D01*
G01X796Y2844D01*
G01X847Y2844D01*
G01X872Y2848D01*
G01X895Y2853D01*
G01X916Y2859D01*
G01X936Y2868D01*
G01X955Y2878D01*
G01X971Y2890D01*
G01X987Y2903D01*
G01X1001Y2917D01*
G01X1013Y2933D01*
G01X1023Y2950D01*
G01X1031Y2968D01*
G01X1038Y2987D01*
G01X1043Y3006D01*
G01X1046Y3026D01*
G01X1046Y3069D01*
G01X1043Y3090D01*
G01X1039Y3109D01*
G01X1034Y3127D01*
G01X1027Y3144D01*
G01X1019Y3160D01*
G01X1003Y3190D01*
G01X959Y3165D01*
G01X974Y3141D01*
G01X985Y3115D01*
G01X992Y3086D01*
G01X994Y3055D01*
G01X993Y3034D01*
G01X989Y3015D01*
G01X983Y2997D01*
G01X974Y2980D01*
G01X963Y2965D01*
G01X951Y2951D01*
G01X936Y2939D01*
G01X919Y2928D01*
G01X900Y2920D01*
G01X880Y2914D01*
G01X858Y2909D01*
G01X834Y2907D01*
G01X834Y3203D01*
G01X826Y3205D01*
G01X817Y3206D01*
G01X807Y3206D01*
G37*

%LPC*%
G36*
G01X788Y2907D02*
G01X788Y3148D01*
G01X755Y3146D01*
G01X726Y3141D01*
G01X702Y3132D01*
G01X682Y3119D01*
G01X667Y3103D01*
G01X655Y3084D01*
G01X649Y3062D01*
G01X646Y3036D01*
G01X649Y3013D01*
G01X656Y2990D01*
G01X668Y2970D01*
G01X684Y2951D01*
G01X704Y2935D01*
G01X728Y2922D01*
G01X756Y2913D01*
G01X788Y2907D01*
G37*

%LPD*%
G36*
G01X507Y2834D02*
G01X451Y2834D01*
G01X451Y2409D01*
G01X507Y2409D01*
G01X507Y2588D01*
G01X1036Y2588D01*
G01X1036Y2655D01*
G01X507Y2655D01*
G01X507Y2834D01*
G37*

%LPD*%
G36*
G01X1036Y2336D02*
G01X763Y2336D01*
G01X736Y2334D01*
G01X711Y2332D01*
G01X689Y2327D01*
G01X669Y2321D01*
G01X652Y2313D01*
G01X636Y2303D01*
G01X623Y2290D01*
G01X613Y2277D01*
G01X604Y2261D01*
G01X598Y2244D01*
G01X595Y2225D01*
G01X594Y2203D01*
G01X595Y2184D01*
G01X600Y2166D01*
G01X607Y2148D01*
G01X617Y2130D01*
G01X629Y2112D01*
G01X643Y2094D01*
G01X659Y2077D01*
G01X678Y2059D01*
G01X659Y2053D01*
G01X643Y2044D01*
G01X628Y2032D01*
G01X616Y2019D01*
G01X607Y2003D01*
G01X600Y1985D01*
G01X595Y1964D01*
G01X594Y1940D01*
G01X595Y1922D01*
G01X599Y1904D01*
G01X606Y1886D01*
G01X615Y1869D01*
G01X626Y1852D01*
G01X639Y1836D01*
G01X653Y1821D01*
G01X669Y1807D01*
G01X669Y1803D01*
G01X605Y1798D01*
G01X605Y1744D01*
G01X1036Y1744D01*
G01X1036Y1809D01*
G01X721Y1809D01*
G01X690Y1840D01*
G01X668Y1869D01*
G01X655Y1896D01*
G01X651Y1923D01*
G01X652Y1943D01*
G01X657Y1960D01*
G01X666Y1975D01*
G01X679Y1987D01*
G01X696Y1996D01*
G01X716Y2002D01*
G01X741Y2006D01*
G01X771Y2007D01*
G01X1036Y2007D01*
G01X1036Y2071D01*
G01X721Y2071D01*
G01X690Y2102D01*
G01X668Y2131D01*
G01X655Y2159D01*
G01X651Y2186D01*
G01X652Y2206D01*
G01X657Y2223D01*
G01X666Y2238D01*
G01X679Y2249D01*
G01X696Y2258D01*
G01X716Y2265D01*
G01X741Y2268D01*
G01X771Y2269D01*
G01X1036Y2269D01*
G01X1036Y2336D01*
G37*

%LPD*%
G36*
G01X1036Y1594D02*
G01X605Y1594D01*
G01X605Y1528D01*
G01X915Y1528D01*
G01X933Y1513D01*
G01X948Y1498D01*
G01X961Y1483D01*
G01X972Y1469D01*
G01X980Y1454D01*
G01X986Y1439D01*
G01X989Y1424D01*
G01X990Y1407D01*
G01X989Y1386D01*
G01X984Y1368D01*
G01X975Y1353D01*
G01X962Y1342D01*
G01X946Y1333D01*
G01X925Y1326D01*
G01X900Y1323D01*
G01X871Y1321D01*
G01X605Y1321D01*
G01X605Y1257D01*
G01X905Y1257D01*
G01X930Y1260D01*
G01X951Y1264D01*
G01X971Y1271D01*
G01X989Y1278D01*
G01X1004Y1288D01*
G01X1017Y1300D01*
G01X1028Y1313D01*
G01X1036Y1329D01*
G01X1042Y1346D01*
G01X1045Y1366D01*
G01X1046Y1388D01*
G01X1045Y1409D01*
G01X1041Y1430D01*
G01X1034Y1449D01*
G01X1025Y1467D01*
G01X1013Y1484D01*
G01X1000Y1501D01*
G01X984Y1516D01*
G01X967Y1532D01*
G01X967Y1534D01*
G01X1036Y1540D01*
G01X1036Y1594D01*
G37*

%LPD*%
G36*
G01X1036Y1105D02*
G01X451Y1105D01*
G01X451Y1040D01*
G01X698Y1040D01*
G01X698Y757D01*
G01X451Y757D01*
G01X451Y692D01*
G01X1036Y692D01*
G01X1036Y757D01*
G01X757Y757D01*
G01X757Y1040D01*
G01X1036Y1040D01*
G01X1036Y1105D01*
G37*

%LPD*%

%LPD*%
G36*
G01X12185Y3597D02*
G01X12172Y3600D01*
G01X12158Y3597D01*
G01X12148Y3590D01*
G01X12141Y3580D01*
G01X12139Y3569D01*
G01X12141Y3557D01*
G01X12148Y3547D01*
G01X12158Y3540D01*
G01X12172Y3538D01*
G01X12185Y3540D01*
G01X12195Y3547D01*
G01X12202Y3557D01*
G01X12205Y3569D01*
G01X12202Y3580D01*
G01X12195Y3590D01*
G01X12185Y3597D01*
G37*

%LPD*%
G36*
G01X11981Y3597D02*
G01X11968Y3600D01*
G01X11955Y3597D01*
G01X11944Y3590D01*
G01X11938Y3580D01*
G01X11935Y3569D01*
G01X11938Y3557D01*
G01X11944Y3547D01*
G01X11955Y3540D01*
G01X11968Y3538D01*
G01X11981Y3540D01*
G01X11991Y3547D01*
G01X11997Y3557D01*
G01X12000Y3569D01*
G01X11997Y3580D01*
G01X11991Y3590D01*
G01X11981Y3597D01*
G37*

%LPD*%
G36*
G01X12222Y3392D02*
G01X11927Y3494D01*
G01X11927Y3455D01*
G01X12081Y3405D01*
G01X12100Y3398D01*
G01X12139Y3387D01*
G01X12157Y3382D01*
G01X12157Y3378D01*
G01X12139Y3372D01*
G01X12119Y3365D01*
G01X12081Y3351D01*
G01X11927Y3294D01*
G01X11927Y3251D01*
G01X12198Y3361D01*
G01X12221Y3355D01*
G01X12244Y3344D01*
G01X12264Y3330D01*
G01X12277Y3313D01*
G01X12281Y3292D01*
G01X12281Y3286D01*
G01X12280Y3281D01*
G01X12279Y3275D01*
G01X12277Y3271D01*
G01X12310Y3263D01*
G01X12313Y3269D01*
G01X12314Y3276D01*
G01X12315Y3285D01*
G01X12315Y3294D01*
G01X12314Y3312D01*
G01X12308Y3328D01*
G01X12300Y3343D01*
G01X12288Y3355D01*
G01X12274Y3366D01*
G01X12259Y3376D01*
G01X12241Y3384D01*
G01X12222Y3392D01*
G37*

%LPD*%
G36*
G01X12090Y3219D02*
G01X12057Y3221D01*
G01X12028Y3220D01*
G01X12001Y3215D01*
G01X11978Y3206D01*
G01X11958Y3194D01*
G01X11942Y3178D01*
G01X11930Y3160D01*
G01X11923Y3138D01*
G01X11921Y3113D01*
G01X11924Y3090D01*
G01X11932Y3068D01*
G01X11944Y3046D01*
G01X11960Y3026D01*
G01X11910Y3028D01*
G01X11800Y3028D01*
G01X11800Y2988D01*
G01X12197Y2988D01*
G01X12197Y3019D01*
G01X12169Y3025D01*
G01X12169Y3026D01*
G01X12184Y3044D01*
G01X12195Y3064D01*
G01X12202Y3084D01*
G01X12205Y3103D01*
G01X12202Y3126D01*
G01X12195Y3148D01*
G01X12182Y3168D01*
G01X12166Y3186D01*
G01X12145Y3201D01*
G01X12120Y3212D01*
G01X12090Y3219D01*
G37*

%LPC*%
G36*
G01X12059Y3178D02*
G01X12036Y3178D01*
G01X12017Y3174D01*
G01X11999Y3169D01*
G01X11984Y3161D01*
G01X11971Y3151D01*
G01X11962Y3138D01*
G01X11956Y3122D01*
G01X11955Y3103D01*
G01X11957Y3086D01*
G01X11965Y3067D01*
G01X11977Y3048D01*
G01X11994Y3028D01*
G01X12140Y3028D01*
G01X12154Y3047D01*
G01X12163Y3065D01*
G01X12168Y3082D01*
G01X12169Y3098D01*
G01X12168Y3115D01*
G01X12162Y3130D01*
G01X12152Y3144D01*
G01X12140Y3156D01*
G01X12124Y3165D01*
G01X12105Y3173D01*
G01X12083Y3177D01*
G01X12059Y3178D01*
G37*

%LPD*%
G36*
G01X12197Y2782D02*
G01X11800Y2782D01*
G01X11800Y2742D01*
G01X11906Y2742D01*
G01X11952Y2744D01*
G01X11939Y2725D01*
G01X11929Y2707D01*
G01X11923Y2688D01*
G01X11921Y2665D01*
G01X11923Y2643D01*
G01X11931Y2621D01*
G01X11943Y2601D01*
G01X11959Y2584D01*
G01X11980Y2569D01*
G01X12004Y2558D01*
G01X12032Y2551D01*
G01X12064Y2548D01*
G01X12095Y2551D01*
G01X12123Y2556D01*
G01X12148Y2566D01*
G01X12168Y2578D01*
G01X12184Y2594D01*
G01X12195Y2613D01*
G01X12202Y2635D01*
G01X12205Y2659D01*
G01X12201Y2684D01*
G01X12193Y2706D01*
G01X12181Y2726D01*
G01X12165Y2744D01*
G01X12197Y2748D01*
G01X12197Y2782D01*
G37*

%LPC*%
G36*
G01X12131Y2742D02*
G01X11985Y2742D01*
G01X11971Y2723D01*
G01X11962Y2706D01*
G01X11956Y2690D01*
G01X11955Y2673D01*
G01X11956Y2656D01*
G01X11963Y2640D01*
G01X11972Y2626D01*
G01X11985Y2614D01*
G01X12001Y2604D01*
G01X12019Y2597D01*
G01X12040Y2592D01*
G01X12063Y2590D01*
G01X12086Y2592D01*
G01X12107Y2596D01*
G01X12126Y2602D01*
G01X12141Y2611D01*
G01X12153Y2622D01*
G01X12162Y2635D01*
G01X12168Y2651D01*
G01X12169Y2669D01*
G01X12167Y2688D01*
G01X12160Y2706D01*
G01X12148Y2724D01*
G01X12131Y2742D01*
G37*

%LPD*%
G36*
G01X12054Y2500D02*
G01X12047Y2501D01*
G01X12019Y2499D01*
G01X11994Y2493D01*
G01X11973Y2484D01*
G01X11955Y2473D01*
G01X11940Y2457D01*
G01X11929Y2439D01*
G01X11923Y2418D01*
G01X11921Y2394D01*
G01X11923Y2371D01*
G01X11930Y2348D01*
G01X11942Y2328D01*
G01X11959Y2310D01*
G01X11979Y2295D01*
G01X12004Y2284D01*
G01X12032Y2276D01*
G01X12064Y2273D01*
G01X12095Y2276D01*
G01X12123Y2284D01*
G01X12147Y2295D01*
G01X12167Y2311D01*
G01X12183Y2330D01*
G01X12195Y2351D01*
G01X12202Y2376D01*
G01X12205Y2401D01*
G01X12202Y2428D01*
G01X12196Y2451D01*
G01X12187Y2471D01*
G01X12177Y2490D01*
G01X12150Y2475D01*
G01X12159Y2459D01*
G01X12166Y2443D01*
G01X12170Y2425D01*
G01X12172Y2407D01*
G01X12170Y2387D01*
G01X12164Y2370D01*
G01X12156Y2354D01*
G01X12144Y2341D01*
G01X12130Y2330D01*
G01X12113Y2322D01*
G01X12093Y2316D01*
G01X12072Y2313D01*
G01X12072Y2498D01*
G01X12067Y2499D01*
G01X12060Y2500D01*
G01X12054Y2500D01*
G37*

%LPC*%
G36*
G01X12042Y2313D02*
G01X12042Y2465D01*
G01X12003Y2460D01*
G01X11976Y2446D01*
G01X11959Y2424D01*
G01X11953Y2394D01*
G01X11960Y2366D01*
G01X11977Y2341D01*
G01X12005Y2323D01*
G01X12042Y2313D01*
G37*

%LPD*%
G36*
G01X11963Y2246D02*
G01X11927Y2253D01*
G01X11923Y2247D01*
G01X11921Y2233D01*
G01X11921Y2226D01*
G01X11925Y2203D01*
G01X11936Y2182D01*
G01X11954Y2164D01*
G01X11977Y2148D01*
G01X11927Y2144D01*
G01X11927Y2111D01*
G01X12197Y2111D01*
G01X12197Y2151D01*
G01X12022Y2151D01*
G01X11992Y2166D01*
G01X11972Y2184D01*
G01X11961Y2203D01*
G01X11957Y2221D01*
G01X11960Y2239D01*
G01X11963Y2246D01*
G37*

%LPD*%
G36*
G01X12054Y2042D02*
G01X12047Y2042D01*
G01X12019Y2040D01*
G01X11994Y2034D01*
G01X11973Y2026D01*
G01X11955Y2014D01*
G01X11940Y1998D01*
G01X11929Y1980D01*
G01X11923Y1959D01*
G01X11921Y1936D01*
G01X11923Y1913D01*
G01X11930Y1890D01*
G01X11942Y1870D01*
G01X11959Y1852D01*
G01X11979Y1836D01*
G01X12004Y1825D01*
G01X12032Y1817D01*
G01X12064Y1815D01*
G01X12095Y1817D01*
G01X12123Y1825D01*
G01X12147Y1836D01*
G01X12167Y1852D01*
G01X12183Y1871D01*
G01X12195Y1892D01*
G01X12202Y1917D01*
G01X12205Y1942D01*
G01X12202Y1969D01*
G01X12196Y1992D01*
G01X12187Y2013D01*
G01X12177Y2032D01*
G01X12150Y2017D01*
G01X12159Y2001D01*
G01X12166Y1985D01*
G01X12170Y1967D01*
G01X12172Y1948D01*
G01X12170Y1928D01*
G01X12164Y1911D01*
G01X12156Y1895D01*
G01X12144Y1882D01*
G01X12130Y1871D01*
G01X12113Y1863D01*
G01X12093Y1858D01*
G01X12072Y1855D01*
G01X12072Y2040D01*
G01X12067Y2041D01*
G01X12060Y2041D01*
G01X12054Y2042D01*
G37*

%LPC*%
G36*
G01X12042Y1855D02*
G01X12042Y2005D01*
G01X12003Y2001D01*
G01X11976Y1987D01*
G01X11959Y1965D01*
G01X11953Y1936D01*
G01X11960Y1907D01*
G01X11977Y1882D01*
G01X12005Y1864D01*
G01X12042Y1855D01*
G37*

%LPD*%
G36*
G01X12197Y1703D02*
G01X11927Y1778D01*
G01X11927Y1738D01*
G01X12089Y1698D01*
G01X12107Y1692D01*
G01X12126Y1688D01*
G01X12144Y1684D01*
G01X12163Y1680D01*
G01X12163Y1678D01*
G01X12144Y1673D01*
G01X12126Y1668D01*
G01X12107Y1663D01*
G01X12089Y1659D01*
G01X11927Y1615D01*
G01X11927Y1573D01*
G01X12089Y1530D01*
G01X12107Y1525D01*
G01X12126Y1520D01*
G01X12144Y1515D01*
G01X12163Y1511D01*
G01X12163Y1509D01*
G01X12144Y1505D01*
G01X12126Y1501D01*
G01X12107Y1497D01*
G01X12089Y1492D01*
G01X11927Y1450D01*
G01X11927Y1409D01*
G01X12197Y1484D01*
G01X12197Y1532D01*
G01X12047Y1573D01*
G01X12009Y1583D01*
G01X11989Y1587D01*
G01X11969Y1592D01*
G01X11969Y1594D01*
G01X11989Y1598D01*
G01X12009Y1603D01*
G01X12028Y1607D01*
G01X12047Y1613D01*
G01X12197Y1653D01*
G01X12197Y1703D01*
G37*

%LPD*%
G36*
G01X12095Y1368D02*
G01X12064Y1371D01*
G01X12031Y1368D01*
G01X12003Y1361D01*
G01X11978Y1349D01*
G01X11958Y1333D01*
G01X11942Y1315D01*
G01X11930Y1294D01*
G01X11923Y1271D01*
G01X11921Y1246D01*
G01X11923Y1222D01*
G01X11930Y1199D01*
G01X11942Y1178D01*
G01X11958Y1160D01*
G01X11978Y1144D01*
G01X12003Y1132D01*
G01X12031Y1125D01*
G01X12064Y1123D01*
G01X12095Y1125D01*
G01X12123Y1132D01*
G01X12147Y1144D01*
G01X12167Y1160D01*
G01X12183Y1178D01*
G01X12195Y1199D01*
G01X12202Y1222D01*
G01X12205Y1246D01*
G01X12202Y1271D01*
G01X12195Y1294D01*
G01X12183Y1315D01*
G01X12167Y1333D01*
G01X12147Y1349D01*
G01X12123Y1361D01*
G01X12095Y1368D01*
G37*

%LPC*%
G36*
G01X12086Y1327D02*
G01X12064Y1328D01*
G01X12040Y1327D01*
G01X12019Y1323D01*
G01X12001Y1315D01*
G01X11985Y1305D01*
G01X11972Y1294D01*
G01X11962Y1280D01*
G01X11956Y1264D01*
G01X11955Y1246D01*
G01X11956Y1229D01*
G01X11962Y1213D01*
G01X11972Y1200D01*
G01X11985Y1188D01*
G01X12001Y1178D01*
G01X12019Y1171D01*
G01X12040Y1166D01*
G01X12064Y1165D01*
G01X12086Y1166D01*
G01X12107Y1171D01*
G01X12126Y1178D01*
G01X12141Y1188D01*
G01X12153Y1200D01*
G01X12163Y1213D01*
G01X12168Y1229D01*
G01X12171Y1246D01*
G01X12168Y1264D01*
G01X12163Y1280D01*
G01X12153Y1294D01*
G01X12141Y1305D01*
G01X12126Y1315D01*
G01X12107Y1323D01*
G01X12086Y1327D01*
G37*

%LPD*%
G36*
G01X11964Y1083D02*
G01X11938Y1086D01*
G01X11910Y1083D01*
G01X11888Y1076D01*
G01X11869Y1064D01*
G01X11855Y1048D01*
G01X11844Y1028D01*
G01X11837Y1005D01*
G01X11833Y978D01*
G01X11831Y948D01*
G01X11831Y848D01*
G01X12197Y848D01*
G01X12197Y890D01*
G01X12050Y890D01*
G01X12050Y951D01*
G01X12048Y980D01*
G01X12043Y1006D01*
G01X12034Y1029D01*
G01X12022Y1048D01*
G01X12006Y1064D01*
G01X11987Y1076D01*
G01X11964Y1083D01*
G37*

%LPC*%
G36*
G01X11956Y1043D02*
G01X11938Y1044D01*
G01X11919Y1043D01*
G01X11903Y1038D01*
G01X11890Y1030D01*
G01X11881Y1019D01*
G01X11874Y1005D01*
G01X11869Y988D01*
G01X11866Y967D01*
G01X11865Y944D01*
G01X11865Y890D01*
G01X12015Y890D01*
G01X12015Y944D01*
G01X12014Y968D01*
G01X12011Y988D01*
G01X12005Y1005D01*
G01X11997Y1020D01*
G01X11986Y1030D01*
G01X11972Y1038D01*
G01X11956Y1043D01*
G37*

%LPD*%

%LPD*%
G36*
G01X1794Y2259D02*
G01X1738Y2259D01*
G01X1738Y2069D01*
G01X1739Y2045D01*
G01X1740Y2020D01*
G01X1742Y1996D01*
G01X1722Y2017D01*
G01X1703Y2037D01*
G01X1683Y2057D01*
G01X1663Y2075D01*
G01X1644Y2093D01*
G01X1625Y2110D01*
G01X1606Y2126D01*
G01X1587Y2141D01*
G01X1568Y2155D01*
G01X1550Y2167D01*
G01X1531Y2179D01*
G01X1513Y2190D01*
G01X1494Y2200D01*
G01X1476Y2208D01*
G01X1458Y2215D01*
G01X1440Y2221D01*
G01X1422Y2226D01*
G01X1404Y2229D01*
G01X1386Y2231D01*
G01X1369Y2232D01*
G01X1343Y2230D01*
G01X1320Y2226D01*
G01X1298Y2220D01*
G01X1278Y2211D01*
G01X1260Y2200D01*
G01X1244Y2186D01*
G01X1230Y2171D01*
G01X1219Y2153D01*
G01X1209Y2134D01*
G01X1203Y2112D01*
G01X1199Y2089D01*
G01X1198Y2063D01*
G01X1199Y2038D01*
G01X1204Y2013D01*
G01X1211Y1990D01*
G01X1221Y1969D01*
G01X1234Y1949D01*
G01X1248Y1930D01*
G01X1265Y1911D01*
G01X1284Y1894D01*
G01X1319Y1932D01*
G01X1305Y1945D01*
G01X1292Y1959D01*
G01X1280Y1973D01*
G01X1270Y1988D01*
G01X1262Y2004D01*
G01X1256Y2021D01*
G01X1252Y2038D01*
G01X1251Y2057D01*
G01X1253Y2083D01*
G01X1260Y2105D01*
G01X1271Y2125D01*
G01X1285Y2140D01*
G01X1303Y2152D01*
G01X1323Y2161D01*
G01X1346Y2166D01*
G01X1371Y2167D01*
G01X1387Y2167D01*
G01X1402Y2165D01*
G01X1418Y2162D01*
G01X1434Y2157D01*
G01X1451Y2152D01*
G01X1485Y2136D01*
G01X1503Y2126D01*
G01X1521Y2115D01*
G01X1540Y2103D01*
G01X1559Y2089D01*
G01X1578Y2073D01*
G01X1598Y2057D01*
G01X1640Y2019D01*
G01X1684Y1975D01*
G01X1707Y1951D01*
G01X1730Y1925D01*
G01X1755Y1898D01*
G01X1794Y1898D01*
G01X1794Y2259D01*
G37*

%LPD*%
G36*
G01X1773Y1798D02*
G01X1753Y1803D01*
G01X1731Y1798D01*
G01X1714Y1788D01*
G01X1703Y1772D01*
G01X1700Y1753D01*
G01X1703Y1734D01*
G01X1714Y1718D01*
G01X1731Y1707D01*
G01X1753Y1703D01*
G01X1773Y1707D01*
G01X1790Y1718D01*
G01X1800Y1734D01*
G01X1803Y1753D01*
G01X1800Y1772D01*
G01X1790Y1788D01*
G01X1773Y1798D01*
G37*

%LPD*%
G36*
G01X1794Y1592D02*
G01X1740Y1592D01*
G01X1740Y1473D01*
G01X1207Y1473D01*
G01X1207Y1423D01*
G01X1221Y1400D01*
G01X1232Y1372D01*
G01X1240Y1341D01*
G01X1248Y1305D01*
G01X1290Y1305D01*
G01X1290Y1409D01*
G01X1740Y1409D01*
G01X1740Y1278D01*
G01X1794Y1278D01*
G01X1794Y1592D01*
G37*

%LPD*%
G36*
G01X1794Y1042D02*
G01X1361Y1196D01*
G01X1361Y1132D01*
G01X1613Y1046D01*
G01X1677Y1026D01*
G01X1709Y1015D01*
G01X1740Y1005D01*
G01X1740Y1003D01*
G01X1709Y992D01*
G01X1677Y982D01*
G01X1645Y971D01*
G01X1613Y961D01*
G01X1361Y876D01*
G01X1361Y807D01*
G01X1794Y965D01*
G01X1794Y1042D01*
G37*

%LPD*%
G54D21*
G01X6000Y1400D02*
G01X6000Y1094D01*
G01X6019Y1032D01*
G01X6061Y990D01*
G01X6123Y971D01*
G01X6163Y971D01*
G01X6225Y990D01*
G01X6265Y1032D01*
G01X6286Y1094D01*
G01X6286Y1400D01*
G01X6442Y1298D02*
G01X6442Y1319D01*
G01X6461Y1359D01*
G01X6482Y1380D01*
G01X6523Y1400D01*
G01X6605Y1400D01*
G01X6646Y1380D01*
G01X6667Y1359D01*
G01X6686Y1319D01*
G01X6686Y1278D01*
G01X6667Y1236D01*
G01X6626Y1175D01*
G01X6421Y971D01*
G01X6707Y971D01*
G01X4400Y15399D02*
G01X4400Y14970D01*
G01X4400Y15399D02*
G01X4563Y14970D01*
G01X4726Y15399D02*
G01X4563Y14970D01*
G01X4726Y15399D02*
G01X4726Y14970D01*
G01X4861Y15399D02*
G01X4861Y14970D01*
G01X5148Y15399D02*
G01X4861Y15113D01*
G01X4965Y15215D02*
G01X5148Y14970D01*
G01X5284Y15318D02*
G01X5325Y15338D01*
G01X5386Y15399D01*
G01X5386Y14970D01*
G54D22*
G01X4000Y14104D02*
G01X4000Y13913D01*
G01X4000Y14050D02*
G01X4040Y14091D01*
G01X4067Y14104D01*
G01X4109Y14104D01*
G01X4136Y14091D01*
G01X4150Y14050D01*
G01X4150Y13913D01*
G01X4240Y14200D02*
G01X4240Y13913D01*
G01X4240Y14200D02*
G01X4363Y14200D01*
G01X4403Y14186D01*
G01X4417Y14172D01*
G01X4430Y14145D01*
G01X4430Y14118D01*
G01X4417Y14091D01*
G01X4403Y14077D01*
G01X4363Y14063D01*
G01X4240Y14063D01*
G01X4334Y14063D02*
G01X4430Y13913D01*
G01X4521Y14200D02*
G01X4521Y13913D01*
G01X4521Y14200D02*
G01X4698Y14200D01*
G01X4521Y14063D02*
G01X4630Y14063D01*
G01X4801Y14131D02*
G01X4801Y14145D01*
G01X4815Y14172D01*
G01X4828Y14186D01*
G01X4855Y14200D01*
G01X4911Y14200D01*
G01X4938Y14186D01*
G01X4951Y14172D01*
G01X4965Y14145D01*
G01X4965Y14118D01*
G01X4951Y14091D01*
G01X4925Y14050D01*
G01X4788Y13913D01*
G01X4978Y13913D01*
G01X5205Y14200D02*
G01X5069Y14009D01*
G01X5273Y14009D01*
G01X5205Y14200D02*
G01X5205Y13913D01*
G01X5363Y14200D02*
G01X5363Y13913D01*
G01X5363Y13913D02*
G01X5526Y13913D01*
G01X5698Y14200D02*
G01X5657Y14186D01*
G01X5630Y14145D01*
G01X5617Y14077D01*
G01X5617Y14036D01*
G01X5630Y13968D01*
G01X5657Y13927D01*
G01X5698Y13913D01*
G01X5726Y13913D01*
G01X5767Y13927D01*
G01X5794Y13968D01*
G01X5807Y14036D01*
G01X5807Y14077D01*
G01X5794Y14145D01*
G01X5767Y14186D01*
G01X5726Y14200D01*
G01X5698Y14200D01*
G01X5898Y14145D02*
G01X5925Y14159D01*
G01X5965Y14200D01*
G01X5965Y13913D01*
G54D21*
G01X9006Y12098D02*
G01X8985Y12138D01*
G01X8944Y12180D01*
G01X8904Y12200D01*
G01X8822Y12200D01*
G01X8781Y12180D01*
G01X8740Y12138D01*
G01X8719Y12098D01*
G01X8699Y12036D01*
G01X8699Y11934D01*
G01X8719Y11873D01*
G01X8740Y11832D01*
G01X8781Y11790D01*
G01X8822Y11771D01*
G01X8904Y11771D01*
G01X8944Y11790D01*
G01X8985Y11832D01*
G01X9006Y11873D01*
G01X9141Y12117D02*
G01X9182Y12138D01*
G01X9243Y12200D01*
G01X9243Y11771D01*
G01X8306Y9698D02*
G01X8285Y9739D01*
G01X8244Y9780D01*
G01X8204Y9800D01*
G01X8122Y9800D01*
G01X8081Y9780D01*
G01X8040Y9739D01*
G01X8019Y9698D01*
G01X7999Y9637D01*
G01X7999Y9535D01*
G01X8019Y9473D01*
G01X8040Y9432D01*
G01X8081Y9391D01*
G01X8122Y9371D01*
G01X8204Y9371D01*
G01X8244Y9391D01*
G01X8285Y9432D01*
G01X8306Y9473D01*
G01X8461Y9698D02*
G01X8461Y9719D01*
G01X8482Y9760D01*
G01X8502Y9780D01*
G01X8543Y9800D01*
G01X8625Y9800D01*
G01X8666Y9780D01*
G01X8686Y9760D01*
G01X8707Y9719D01*
G01X8707Y9678D01*
G01X8686Y9637D01*
G01X8645Y9575D01*
G01X8441Y9371D01*
G01X8727Y9371D01*
G01X600Y7799D02*
G01X600Y7493D01*
G01X619Y7431D01*
G01X661Y7390D01*
G01X723Y7370D01*
G01X763Y7370D01*
G01X825Y7390D01*
G01X865Y7431D01*
G01X886Y7493D01*
G01X886Y7799D01*
G01X1061Y7799D02*
G01X1286Y7799D01*
G01X1165Y7636D01*
G01X1226Y7636D01*
G01X1267Y7615D01*
G01X1286Y7595D01*
G01X1307Y7534D01*
G01X1307Y7493D01*
G01X1286Y7431D01*
G01X1246Y7390D01*
G01X1184Y7370D01*
G01X1123Y7370D01*
G01X1061Y7390D01*
G01X1042Y7411D01*
G01X1021Y7452D01*
G54D23*
G01X2126Y8599D02*
G01X2276Y8599D01*
G01X2194Y8490D01*
G01X2235Y8490D01*
G01X2263Y8476D01*
G01X2276Y8462D01*
G01X2290Y8421D01*
G01X2290Y8394D01*
G01X2276Y8353D01*
G01X2249Y8326D01*
G01X2208Y8312D01*
G01X2167Y8312D01*
G01X2126Y8326D01*
G01X2113Y8340D01*
G01X2099Y8367D01*
G01X2394Y8380D02*
G01X2380Y8367D01*
G01X2394Y8353D01*
G01X2407Y8367D01*
G01X2394Y8380D01*
G01X2524Y8599D02*
G01X2674Y8599D01*
G01X2593Y8490D01*
G01X2634Y8490D01*
G01X2661Y8476D01*
G01X2674Y8462D01*
G01X2688Y8421D01*
G01X2688Y8394D01*
G01X2674Y8353D01*
G01X2647Y8326D01*
G01X2606Y8312D01*
G01X2565Y8312D01*
G01X2524Y8326D01*
G01X2511Y8340D01*
G01X2497Y8367D01*
G01X2778Y8503D02*
G01X2860Y8312D01*
G01X2942Y8503D02*
G01X2860Y8312D01*
G01X2355Y11480D02*
G01X2340Y11509D01*
G01X2313Y11536D01*
G01X2286Y11550D01*
G01X2232Y11550D01*
G01X2205Y11536D01*
G01X2176Y11509D01*
G01X2163Y11480D01*
G01X2150Y11440D01*
G01X2150Y11371D01*
G01X2163Y11330D01*
G01X2176Y11303D01*
G01X2205Y11276D01*
G01X2232Y11263D01*
G01X2286Y11263D01*
G01X2313Y11276D01*
G01X2340Y11303D01*
G01X2355Y11330D01*
G01X2355Y11371D01*
G01X2286Y11371D02*
G01X2355Y11371D01*
G01X2444Y11550D02*
G01X2444Y11263D01*
G01X2444Y11550D02*
G01X2634Y11263D01*
G01X2634Y11550D02*
G01X2634Y11263D01*
G01X2725Y11550D02*
G01X2725Y11263D01*
G01X2725Y11550D02*
G01X2821Y11550D01*
G01X2861Y11536D01*
G01X2888Y11509D01*
G01X2903Y11480D01*
G01X2915Y11440D01*
G01X2915Y11371D01*
G01X2903Y11330D01*
G01X2888Y11303D01*
G01X2861Y11276D01*
G01X2821Y11263D01*
G01X2725Y11263D01*
G01X2390Y9509D02*
G01X2363Y9536D01*
G01X2323Y9550D01*
G01X2267Y9550D01*
G01X2226Y9536D01*
G01X2200Y9509D01*
G01X2200Y9481D01*
G01X2213Y9454D01*
G01X2226Y9441D01*
G01X2255Y9427D01*
G01X2336Y9400D01*
G01X2363Y9386D01*
G01X2376Y9372D01*
G01X2390Y9345D01*
G01X2390Y9304D01*
G01X2363Y9277D01*
G01X2323Y9263D01*
G01X2267Y9263D01*
G01X2226Y9277D01*
G01X2200Y9304D01*
G01X2684Y9481D02*
G01X2671Y9509D01*
G01X2644Y9536D01*
G01X2617Y9550D01*
G01X2563Y9550D01*
G01X2534Y9536D01*
G01X2507Y9509D01*
G01X2494Y9481D01*
G01X2480Y9441D01*
G01X2480Y9372D01*
G01X2494Y9331D01*
G01X2507Y9304D01*
G01X2534Y9277D01*
G01X2563Y9263D01*
G01X2617Y9263D01*
G01X2644Y9277D01*
G01X2671Y9304D01*
G01X2684Y9331D01*
G01X2775Y9550D02*
G01X2775Y9263D01*
G01X2775Y9263D02*
G01X2938Y9263D01*
G01X2341Y10508D02*
G01X2314Y10535D01*
G01X2273Y10549D01*
G01X2218Y10549D01*
G01X2177Y10535D01*
G01X2150Y10508D01*
G01X2150Y10480D01*
G01X2164Y10453D01*
G01X2177Y10440D01*
G01X2205Y10426D01*
G01X2286Y10399D01*
G01X2314Y10385D01*
G01X2327Y10371D01*
G01X2341Y10344D01*
G01X2341Y10303D01*
G01X2314Y10276D01*
G01X2273Y10262D01*
G01X2218Y10262D01*
G01X2177Y10276D01*
G01X2150Y10303D01*
G01X2431Y10549D02*
G01X2431Y10262D01*
G01X2431Y10549D02*
G01X2526Y10549D01*
G01X2567Y10535D01*
G01X2595Y10508D01*
G01X2608Y10480D01*
G01X2622Y10440D01*
G01X2622Y10371D01*
G01X2608Y10330D01*
G01X2595Y10303D01*
G01X2567Y10276D01*
G01X2526Y10262D01*
G01X2431Y10262D01*
G01X2821Y10549D02*
G01X2712Y10262D01*
G01X2821Y10549D02*
G01X2930Y10262D01*
G01X2753Y10358D02*
G01X2889Y10358D01*
G54D22*
G01X1144Y11017D02*
G01X1200Y11073D01*
G01X1226Y11155D01*
G01X1226Y11263D01*
G01X1200Y11344D01*
G01X1144Y11400D01*
G01X1090Y11400D01*
G01X1036Y11373D01*
G01X1009Y11344D01*
G01X982Y11290D01*
G01X926Y11126D01*
G01X900Y11073D01*
G01X873Y11044D01*
G01X817Y11017D01*
G01X736Y11017D01*
G01X682Y11073D01*
G01X655Y11155D01*
G01X655Y11263D01*
G01X682Y11344D01*
G01X736Y11400D01*
G01X1226Y10838D02*
G01X1200Y10811D01*
G01X1226Y10784D01*
G01X1255Y10811D01*
G01X1226Y10838D01*
G01X1036Y10811D02*
G01X655Y10811D01*
G01X1226Y10221D02*
G01X655Y10494D01*
G01X1226Y10603D02*
G01X1226Y10221D01*
G01X1226Y9878D02*
G01X1200Y9959D01*
G01X1117Y10015D01*
G01X982Y10042D01*
G01X900Y10042D01*
G01X763Y10015D01*
G01X682Y9959D01*
G01X655Y9878D01*
G01X655Y9823D01*
G01X682Y9742D01*
G01X763Y9686D01*
G01X900Y9659D01*
G01X982Y9659D01*
G01X1117Y9686D01*
G01X1200Y9742D01*
G01X1226Y9823D01*
G01X1226Y9878D01*
G01X1090Y9453D02*
G01X1117Y9453D01*
G01X1173Y9425D01*
G01X1200Y9398D01*
G01X1226Y9344D01*
G01X1226Y9234D01*
G01X1200Y9180D01*
G01X1173Y9153D01*
G01X1117Y9125D01*
G01X1063Y9125D01*
G01X1009Y9153D01*
G01X926Y9207D01*
G01X655Y9480D01*
G01X655Y9098D01*
G01X1117Y8917D02*
G01X1144Y8863D01*
G01X1226Y8782D01*
G01X655Y8782D01*
G54D21*
G01X13205Y8000D02*
G01X13205Y7673D01*
G01X13184Y7611D01*
G01X13164Y7590D01*
G01X13122Y7571D01*
G01X13081Y7571D01*
G01X13040Y7590D01*
G01X13019Y7611D01*
G01X13000Y7673D01*
G01X13000Y7713D01*
G01X13339Y7919D02*
G01X13380Y7938D01*
G01X13442Y8000D01*
G01X13442Y7571D01*
G54D11*
G01X11000Y18000D02*
G01X11218Y17428D01*
G01X11435Y18000D02*
G01X11218Y17428D01*
G01X11943Y17728D02*
G01X11889Y17782D01*
G01X11835Y17809D01*
G01X11752Y17809D01*
G01X11697Y17782D01*
G01X11643Y17728D01*
G01X11615Y17646D01*
G01X11615Y17590D01*
G01X11643Y17509D01*
G01X11697Y17455D01*
G01X11752Y17428D01*
G01X11835Y17428D01*
G01X11889Y17455D01*
G01X11943Y17509D01*
G01X12451Y17728D02*
G01X12396Y17782D01*
G01X12342Y17809D01*
G01X12260Y17809D01*
G01X12205Y17782D01*
G01X12151Y17728D01*
G01X12123Y17646D01*
G01X12123Y17590D01*
G01X12151Y17509D01*
G01X12205Y17455D01*
G01X12260Y17428D01*
G01X12342Y17428D01*
G01X12396Y17455D01*
G01X12451Y17509D01*
G01X11409Y16863D02*
G01X11381Y16917D01*
G01X11327Y16973D01*
G01X11272Y17000D01*
G01X11164Y17000D01*
G01X11109Y16973D01*
G01X11055Y16917D01*
G01X11027Y16863D01*
G01X11000Y16782D01*
G01X11000Y16646D01*
G01X11027Y16563D01*
G01X11055Y16509D01*
G01X11109Y16455D01*
G01X11164Y16428D01*
G01X11272Y16428D01*
G01X11327Y16455D01*
G01X11381Y16509D01*
G01X11409Y16563D01*
G01X11409Y16646D01*
G01X11272Y16646D02*
G01X11409Y16646D01*
G01X11589Y17000D02*
G01X11589Y16428D01*
G01X11589Y17000D02*
G01X11971Y16428D01*
G01X11971Y17000D02*
G01X11971Y16428D01*
G01X12151Y17000D02*
G01X12151Y16428D01*
G01X12151Y17000D02*
G01X12342Y17000D01*
G01X12423Y16973D01*
G01X12477Y16917D01*
G01X12505Y16863D01*
G01X12532Y16782D01*
G01X12532Y16646D01*
G01X12505Y16563D01*
G01X12477Y16509D01*
G01X12423Y16455D01*
G01X12342Y16428D01*
G01X12151Y16428D01*
G01X11600Y16000D02*
G01X11600Y15428D01*
G01X11600Y16000D02*
G01X11790Y16000D01*
G01X11872Y15973D01*
G01X11927Y15917D01*
G01X11955Y15863D01*
G01X11981Y15782D01*
G01X11981Y15646D01*
G01X11955Y15563D01*
G01X11927Y15509D01*
G01X11872Y15455D01*
G01X11790Y15428D01*
G01X11600Y15428D01*
G01X12189Y15863D02*
G01X12189Y15890D01*
G01X12215Y15946D01*
G01X12243Y15973D01*
G01X12297Y16000D01*
G01X12406Y16000D01*
G01X12461Y15973D01*
G01X12489Y15946D01*
G01X12515Y15890D01*
G01X12515Y15836D01*
G01X12489Y15782D01*
G01X12435Y15700D01*
G01X12161Y15428D01*
G01X12543Y15428D01*
G01X11600Y15000D02*
G01X11600Y14428D01*
G01X11600Y15000D02*
G01X11790Y15000D01*
G01X11872Y14973D01*
G01X11927Y14917D01*
G01X11955Y14863D01*
G01X11981Y14782D01*
G01X11981Y14646D01*
G01X11955Y14563D01*
G01X11927Y14509D01*
G01X11872Y14455D01*
G01X11790Y14428D01*
G01X11600Y14428D01*
G01X12215Y15000D02*
G01X12515Y15000D01*
G01X12352Y14782D01*
G01X12435Y14782D01*
G01X12489Y14755D01*
G01X12515Y14728D01*
G01X12543Y14646D01*
G01X12543Y14590D01*
G01X12515Y14509D01*
G01X12461Y14455D01*
G01X12380Y14428D01*
G01X12297Y14428D01*
G01X12215Y14455D01*
G01X12189Y14482D01*
G01X12161Y14536D01*
G01X11600Y14000D02*
G01X11600Y13428D01*
G01X11600Y14000D02*
G01X11790Y14000D01*
G01X11872Y13973D01*
G01X11927Y13917D01*
G01X11955Y13863D01*
G01X11981Y13782D01*
G01X11981Y13646D01*
G01X11955Y13563D01*
G01X11927Y13509D01*
G01X11872Y13455D01*
G01X11790Y13428D01*
G01X11600Y13428D01*
G01X12435Y14000D02*
G01X12161Y13617D01*
G01X12571Y13617D01*
G01X12435Y14000D02*
G01X12435Y13428D01*
G01X11600Y13000D02*
G01X11600Y12428D01*
G01X11600Y13000D02*
G01X11790Y13000D01*
G01X11872Y12973D01*
G01X11927Y12917D01*
G01X11955Y12863D01*
G01X11981Y12782D01*
G01X11981Y12646D01*
G01X11955Y12563D01*
G01X11927Y12509D01*
G01X11872Y12455D01*
G01X11790Y12428D01*
G01X11600Y12428D01*
G01X12489Y13000D02*
G01X12215Y13000D01*
G01X12189Y12755D01*
G01X12215Y12782D01*
G01X12297Y12809D01*
G01X12380Y12809D01*
G01X12461Y12782D01*
G01X12515Y12728D01*
G01X12543Y12646D01*
G01X12543Y12590D01*
G01X12515Y12509D01*
G01X12461Y12455D01*
G01X12380Y12428D01*
G01X12297Y12428D01*
G01X12215Y12455D01*
G01X12189Y12482D01*
G01X12161Y12536D01*
G01X11600Y12000D02*
G01X11600Y11428D01*
G01X11600Y12000D02*
G01X11790Y12000D01*
G01X11872Y11973D01*
G01X11927Y11917D01*
G01X11955Y11863D01*
G01X11981Y11782D01*
G01X11981Y11646D01*
G01X11955Y11563D01*
G01X11927Y11509D01*
G01X11872Y11455D01*
G01X11790Y11428D01*
G01X11600Y11428D01*
G01X12489Y11917D02*
G01X12461Y11973D01*
G01X12380Y12000D01*
G01X12325Y12000D01*
G01X12243Y11973D01*
G01X12189Y11890D01*
G01X12161Y11755D01*
G01X12161Y11617D01*
G01X12189Y11509D01*
G01X12243Y11455D01*
G01X12325Y11428D01*
G01X12352Y11428D01*
G01X12435Y11455D01*
G01X12489Y11509D01*
G01X12515Y11590D01*
G01X12515Y11617D01*
G01X12489Y11700D01*
G01X12435Y11755D01*
G01X12352Y11782D01*
G01X12325Y11782D01*
G01X12243Y11755D01*
G01X12189Y11700D01*
G01X12161Y11617D01*
G01X11618Y11000D02*
G01X11400Y10428D01*
G01X11618Y11000D02*
G01X11835Y10428D01*
G01X11481Y10617D02*
G01X11755Y10617D01*
G01X12180Y11000D02*
G01X12097Y10973D01*
G01X12043Y10890D01*
G01X12015Y10755D01*
G01X12015Y10673D01*
G01X12043Y10536D01*
G01X12097Y10455D01*
G01X12180Y10428D01*
G01X12235Y10428D01*
G01X12315Y10455D01*
G01X12371Y10536D01*
G01X12397Y10673D01*
G01X12397Y10755D01*
G01X12371Y10890D01*
G01X12315Y10973D01*
G01X12235Y11000D01*
G01X12180Y11000D01*
G01X11381Y9917D02*
G01X11327Y9973D01*
G01X11244Y10000D01*
G01X11135Y10000D01*
G01X11055Y9973D01*
G01X11000Y9917D01*
G01X11000Y9863D01*
G01X11027Y9809D01*
G01X11055Y9782D01*
G01X11109Y9755D01*
G01X11272Y9700D01*
G01X11327Y9673D01*
G01X11355Y9646D01*
G01X11381Y9590D01*
G01X11381Y9509D01*
G01X11327Y9455D01*
G01X11244Y9428D01*
G01X11135Y9428D01*
G01X11055Y9455D01*
G01X11000Y9509D01*
G01X11561Y10000D02*
G01X11561Y9428D01*
G01X11561Y10000D02*
G01X11752Y10000D01*
G01X11835Y9973D01*
G01X11889Y9917D01*
G01X11915Y9863D01*
G01X11943Y9782D01*
G01X11943Y9646D01*
G01X11915Y9563D01*
G01X11889Y9509D01*
G01X11835Y9455D01*
G01X11752Y9428D01*
G01X11561Y9428D01*
G01X12342Y10000D02*
G01X12123Y9428D01*
G01X12342Y10000D02*
G01X12560Y9428D01*
G01X12205Y9617D02*
G01X12477Y9617D01*
G01X11381Y8917D02*
G01X11327Y8973D01*
G01X11244Y9000D01*
G01X11135Y9000D01*
G01X11055Y8973D01*
G01X11000Y8917D01*
G01X11000Y8863D01*
G01X11027Y8809D01*
G01X11055Y8782D01*
G01X11109Y8755D01*
G01X11272Y8700D01*
G01X11327Y8673D01*
G01X11355Y8646D01*
G01X11381Y8590D01*
G01X11381Y8509D01*
G01X11327Y8455D01*
G01X11244Y8428D01*
G01X11135Y8428D01*
G01X11055Y8455D01*
G01X11000Y8509D01*
G01X11971Y8863D02*
G01X11943Y8917D01*
G01X11889Y8973D01*
G01X11835Y9000D01*
G01X11725Y9000D01*
G01X11671Y8973D01*
G01X11615Y8917D01*
G01X11589Y8863D01*
G01X11561Y8782D01*
G01X11561Y8646D01*
G01X11589Y8563D01*
G01X11615Y8509D01*
G01X11671Y8455D01*
G01X11725Y8428D01*
G01X11835Y8428D01*
G01X11889Y8455D01*
G01X11943Y8509D01*
G01X11971Y8563D01*
G01X12151Y9000D02*
G01X12151Y8428D01*
G01X12151Y8428D02*
G01X12477Y8428D01*
G54D21*
G01X700Y23600D02*
G01X700Y23294D01*
G01X719Y23232D01*
G01X761Y23191D01*
G01X823Y23171D01*
G01X863Y23171D01*
G01X925Y23191D01*
G01X965Y23232D01*
G01X986Y23294D01*
G01X986Y23600D01*
G01X1121Y23519D02*
G01X1161Y23539D01*
G01X1223Y23600D01*
G01X1223Y23171D01*
G54D23*
G01X11978Y24430D02*
G01X11691Y24430D01*
G01X11978Y24525D02*
G01X11978Y24334D01*
G01X11978Y24244D02*
G01X11691Y24053D01*
G01X11978Y24053D02*
G01X11691Y24244D01*
G01X11078Y24525D02*
G01X10791Y24525D01*
G01X11078Y24525D02*
G01X11078Y24402D01*
G01X11064Y24361D01*
G01X11050Y24348D01*
G01X11023Y24334D01*
G01X10996Y24334D01*
G01X10969Y24348D01*
G01X10955Y24361D01*
G01X10941Y24402D01*
G01X10941Y24525D01*
G01X10941Y24430D02*
G01X10791Y24334D01*
G01X11078Y24244D02*
G01X10791Y24053D01*
G01X11078Y24053D02*
G01X10791Y24244D01*
G01X10078Y24525D02*
G01X9791Y24525D01*
G01X10078Y24525D02*
G01X10078Y24402D01*
G01X10064Y24361D01*
G01X10050Y24348D01*
G01X10023Y24334D01*
G01X9996Y24334D01*
G01X9969Y24348D01*
G01X9955Y24361D01*
G01X9941Y24402D01*
G01X9941Y24525D01*
G01X9941Y24430D02*
G01X9791Y24334D01*
G01X10037Y24053D02*
G01X10064Y24080D01*
G01X10078Y24121D01*
G01X10078Y24176D01*
G01X10064Y24217D01*
G01X10037Y24244D01*
G01X10009Y24244D01*
G01X9982Y24230D01*
G01X9969Y24217D01*
G01X9955Y24190D01*
G01X9928Y24108D01*
G01X9914Y24080D01*
G01X9900Y24067D01*
G01X9873Y24053D01*
G01X9832Y24053D01*
G01X9805Y24080D01*
G01X9791Y24121D01*
G01X9791Y24176D01*
G01X9805Y24217D01*
G01X9832Y24244D01*
G01X10078Y23868D02*
G01X9791Y23868D01*
G01X10078Y23963D02*
G01X10078Y23772D01*
G01X9009Y24320D02*
G01X9037Y24334D01*
G01X9064Y24361D01*
G01X9078Y24389D01*
G01X9078Y24443D01*
G01X9064Y24470D01*
G01X9037Y24498D01*
G01X9009Y24511D01*
G01X8969Y24525D01*
G01X8900Y24525D01*
G01X8859Y24511D01*
G01X8832Y24498D01*
G01X8805Y24470D01*
G01X8791Y24443D01*
G01X8791Y24389D01*
G01X8805Y24361D01*
G01X8832Y24334D01*
G01X8859Y24320D01*
G01X8900Y24320D01*
G01X8900Y24389D02*
G01X8900Y24320D01*
G01X9078Y24230D02*
G01X8791Y24230D01*
G01X9078Y24230D02*
G01X8791Y24040D01*
G01X9078Y24040D02*
G01X8791Y24040D01*
G01X9078Y23950D02*
G01X8791Y23950D01*
G01X9078Y23950D02*
G01X9078Y23854D01*
G01X9064Y23813D01*
G01X9037Y23786D01*
G01X9009Y23772D01*
G01X8969Y23759D01*
G01X8900Y23759D01*
G01X8859Y23772D01*
G01X8832Y23786D01*
G01X8805Y23813D01*
G01X8791Y23854D01*
G01X8791Y23950D01*
G01X8017Y24386D02*
G01X8032Y24386D01*
G01X8059Y24373D01*
G01X8073Y24359D01*
G01X8086Y24332D01*
G01X8086Y24277D01*
G01X8073Y24250D01*
G01X8059Y24236D01*
G01X8032Y24223D01*
G01X8005Y24223D01*
G01X7978Y24236D01*
G01X7936Y24263D01*
G01X7800Y24400D01*
G01X7800Y24209D01*
G01X7078Y24498D02*
G01X7078Y24348D01*
G01X6969Y24430D01*
G01X6969Y24389D01*
G01X6955Y24361D01*
G01X6941Y24348D01*
G01X6900Y24334D01*
G01X6873Y24334D01*
G01X6832Y24348D01*
G01X6805Y24375D01*
G01X6791Y24416D01*
G01X6791Y24457D01*
G01X6805Y24498D01*
G01X6819Y24511D01*
G01X6846Y24525D01*
G01X6078Y24389D02*
G01X5887Y24525D01*
G01X5887Y24320D01*
G01X6078Y24389D02*
G01X5791Y24389D01*
G01X5078Y24361D02*
G01X5078Y24498D01*
G01X4955Y24511D01*
G01X4969Y24498D01*
G01X4982Y24457D01*
G01X4982Y24416D01*
G01X4969Y24375D01*
G01X4941Y24348D01*
G01X4900Y24334D01*
G01X4873Y24334D01*
G01X4832Y24348D01*
G01X4805Y24375D01*
G01X4791Y24416D01*
G01X4791Y24457D01*
G01X4805Y24498D01*
G01X4819Y24511D01*
G01X4846Y24525D01*
G01X4037Y24361D02*
G01X4064Y24375D01*
G01X4078Y24416D01*
G01X4078Y24443D01*
G01X4064Y24484D01*
G01X4023Y24511D01*
G01X3955Y24525D01*
G01X3887Y24525D01*
G01X3832Y24511D01*
G01X3805Y24484D01*
G01X3791Y24443D01*
G01X3791Y24430D01*
G01X3805Y24389D01*
G01X3832Y24361D01*
G01X3873Y24348D01*
G01X3887Y24348D01*
G01X3928Y24361D01*
G01X3955Y24389D01*
G01X3969Y24430D01*
G01X3969Y24443D01*
G01X3955Y24484D01*
G01X3928Y24511D01*
G01X3887Y24525D01*
G01X3078Y24334D02*
G01X2791Y24470D01*
G01X3078Y24525D02*
G01X3078Y24334D01*
G01X2078Y24457D02*
G01X2064Y24498D01*
G01X2037Y24511D01*
G01X2009Y24511D01*
G01X1982Y24498D01*
G01X1969Y24470D01*
G01X1955Y24416D01*
G01X1941Y24375D01*
G01X1914Y24348D01*
G01X1887Y24334D01*
G01X1846Y24334D01*
G01X1819Y24348D01*
G01X1805Y24361D01*
G01X1791Y24402D01*
G01X1791Y24457D01*
G01X1805Y24498D01*
G01X1819Y24511D01*
G01X1846Y24525D01*
G01X1887Y24525D01*
G01X1914Y24511D01*
G01X1941Y24484D01*
G01X1955Y24443D01*
G01X1969Y24389D01*
G01X1982Y24361D01*
G01X2009Y24348D01*
G01X2037Y24348D01*
G01X2064Y24361D01*
G01X2078Y24402D01*
G01X2078Y24457D01*
G01X982Y24348D02*
G01X941Y24361D01*
G01X914Y24389D01*
G01X900Y24430D01*
G01X900Y24443D01*
G01X914Y24484D01*
G01X941Y24511D01*
G01X982Y24525D01*
G01X996Y24525D01*
G01X1037Y24511D01*
G01X1064Y24484D01*
G01X1078Y24443D01*
G01X1078Y24430D01*
G01X1064Y24389D01*
G01X1037Y24361D01*
G01X982Y24348D01*
G01X914Y24348D01*
G01X846Y24361D01*
G01X805Y24389D01*
G01X791Y24430D01*
G01X791Y24457D01*
G01X805Y24498D01*
G01X832Y24511D01*
G01X12089Y20499D02*
G01X11802Y20499D01*
G01X12089Y20499D02*
G01X12089Y20376D01*
G01X12075Y20335D01*
G01X12061Y20322D01*
G01X12034Y20308D01*
G01X12007Y20308D01*
G01X11980Y20322D01*
G01X11966Y20335D01*
G01X11952Y20376D01*
G01X11952Y20499D01*
G01X11952Y20404D02*
G01X11802Y20308D01*
G01X12089Y20109D02*
G01X11802Y20218D01*
G01X12089Y20109D02*
G01X11802Y20000D01*
G01X11898Y20177D02*
G01X11898Y20041D01*
G01X12089Y19910D02*
G01X11802Y19842D01*
G01X12089Y19774D02*
G01X11802Y19842D01*
G01X12089Y19774D02*
G01X11802Y19705D01*
G01X12089Y19637D02*
G01X11802Y19705D01*
G01X10997Y20294D02*
G01X11025Y20308D01*
G01X11052Y20335D01*
G01X11066Y20363D01*
G01X11066Y20417D01*
G01X11052Y20444D01*
G01X11025Y20472D01*
G01X10997Y20485D01*
G01X10957Y20499D01*
G01X10888Y20499D01*
G01X10847Y20485D01*
G01X10820Y20472D01*
G01X10793Y20444D01*
G01X10779Y20417D01*
G01X10779Y20363D01*
G01X10793Y20335D01*
G01X10820Y20308D01*
G01X10847Y20294D01*
G01X10888Y20294D01*
G01X10888Y20363D02*
G01X10888Y20294D01*
G01X11066Y20204D02*
G01X10779Y20204D01*
G01X11066Y20204D02*
G01X10779Y20014D01*
G01X11066Y20014D02*
G01X10779Y20014D01*
G01X11066Y19924D02*
G01X10779Y19924D01*
G01X11066Y19924D02*
G01X11066Y19828D01*
G01X11052Y19787D01*
G01X11025Y19760D01*
G01X10997Y19746D01*
G01X10957Y19733D01*
G01X10888Y19733D01*
G01X10847Y19746D01*
G01X10820Y19760D01*
G01X10793Y19787D01*
G01X10779Y19828D01*
G01X10779Y19924D01*
G01X10081Y20459D02*
G01X9794Y20459D01*
G01X10081Y20459D02*
G01X10081Y20336D01*
G01X10067Y20295D01*
G01X10053Y20282D01*
G01X10026Y20268D01*
G01X9999Y20268D01*
G01X9972Y20282D01*
G01X9958Y20295D01*
G01X9944Y20336D01*
G01X9944Y20459D01*
G01X9944Y20364D02*
G01X9794Y20268D01*
G01X10040Y19987D02*
G01X10067Y20014D01*
G01X10081Y20055D01*
G01X10081Y20110D01*
G01X10067Y20151D01*
G01X10040Y20178D01*
G01X10012Y20178D01*
G01X9985Y20164D01*
G01X9972Y20151D01*
G01X9958Y20124D01*
G01X9931Y20042D01*
G01X9917Y20014D01*
G01X9903Y20001D01*
G01X9876Y19987D01*
G01X9835Y19987D01*
G01X9808Y20014D01*
G01X9794Y20055D01*
G01X9794Y20110D01*
G01X9808Y20151D01*
G01X9835Y20178D01*
G01X10081Y19802D02*
G01X9794Y19802D01*
G01X10081Y19897D02*
G01X10081Y19706D01*
G01X9333Y20459D02*
G01X9046Y20350D01*
G01X9333Y20241D02*
G01X9046Y20350D01*
G01X9264Y19946D02*
G01X9292Y19960D01*
G01X9319Y19987D01*
G01X9333Y20014D01*
G01X9333Y20069D01*
G01X9319Y20096D01*
G01X9292Y20124D01*
G01X9264Y20137D01*
G01X9224Y20151D01*
G01X9155Y20151D01*
G01X9114Y20137D01*
G01X9087Y20124D01*
G01X9060Y20096D01*
G01X9046Y20069D01*
G01X9046Y20014D01*
G01X9060Y19987D01*
G01X9087Y19960D01*
G01X9114Y19946D01*
G01X9264Y19652D02*
G01X9292Y19665D01*
G01X9319Y19693D01*
G01X9333Y19720D01*
G01X9333Y19774D01*
G01X9319Y19802D01*
G01X9292Y19829D01*
G01X9264Y19843D01*
G01X9224Y19856D01*
G01X9155Y19856D01*
G01X9114Y19843D01*
G01X9087Y19829D01*
G01X9060Y19802D01*
G01X9046Y19774D01*
G01X9046Y19720D01*
G01X9060Y19693D01*
G01X9087Y19665D01*
G01X9114Y19652D01*
G01X8585Y21059D02*
G01X8298Y21168D01*
G01X8585Y21059D02*
G01X8298Y20950D01*
G01X8394Y21127D02*
G01X8394Y20991D01*
G01X8585Y20696D02*
G01X8585Y20833D01*
G01X8462Y20846D01*
G01X8476Y20833D01*
G01X8489Y20792D01*
G01X8489Y20751D01*
G01X8476Y20710D01*
G01X8448Y20683D01*
G01X8407Y20669D01*
G01X8380Y20669D01*
G01X8339Y20683D01*
G01X8312Y20710D01*
G01X8298Y20751D01*
G01X8298Y20792D01*
G01X8312Y20833D01*
G01X8326Y20846D01*
G01X8353Y20860D01*
G01X8073Y19957D02*
G01X7786Y20066D01*
G01X8073Y19957D02*
G01X7786Y19848D01*
G01X7882Y20025D02*
G01X7882Y19889D01*
G01X8073Y19731D02*
G01X8073Y19581D01*
G01X7965Y19662D01*
G01X7965Y19621D01*
G01X7951Y19594D01*
G01X7936Y19581D01*
G01X7896Y19567D01*
G01X7869Y19567D01*
G01X7828Y19581D01*
G01X7801Y19608D01*
G01X7786Y19649D01*
G01X7786Y19690D01*
G01X7801Y19731D01*
G01X7815Y19744D01*
G01X7842Y19758D01*
G01X7562Y21020D02*
G01X7275Y21129D01*
G01X7562Y21020D02*
G01X7275Y20911D01*
G01X7371Y21088D02*
G01X7371Y20952D01*
G01X7562Y20684D02*
G01X7371Y20821D01*
G01X7371Y20616D01*
G01X7562Y20684D02*
G01X7275Y20684D01*
G01X7011Y20035D02*
G01X6723Y20144D01*
G01X7011Y20035D02*
G01X6723Y19926D01*
G01X6819Y20103D02*
G01X6819Y19967D01*
G01X6942Y19822D02*
G01X6955Y19822D01*
G01X6982Y19809D01*
G01X6996Y19795D01*
G01X7011Y19768D01*
G01X7011Y19713D01*
G01X6996Y19686D01*
G01X6982Y19672D01*
G01X6955Y19659D01*
G01X6928Y19659D01*
G01X6901Y19672D01*
G01X6861Y19699D01*
G01X6723Y19836D01*
G01X6723Y19645D01*
G01X6021Y20118D02*
G01X5734Y20227D01*
G01X6021Y20118D02*
G01X5734Y20009D01*
G01X5830Y20186D02*
G01X5830Y20050D01*
G01X5966Y19919D02*
G01X5980Y19892D01*
G01X6021Y19851D01*
G01X5734Y19851D01*
G01X5071Y20218D02*
G01X4784Y20327D01*
G01X5071Y20218D02*
G01X4784Y20109D01*
G01X4880Y20286D02*
G01X4880Y20150D01*
G01X5071Y19937D02*
G01X5057Y19978D01*
G01X5016Y20005D01*
G01X4948Y20019D01*
G01X4907Y20019D01*
G01X4839Y20005D01*
G01X4798Y19978D01*
G01X4784Y19937D01*
G01X4784Y19910D01*
G01X4798Y19869D01*
G01X4839Y19842D01*
G01X4907Y19828D01*
G01X4948Y19828D01*
G01X5016Y19842D01*
G01X5057Y19869D01*
G01X5071Y19910D01*
G01X5071Y19937D01*
G01X4016Y20227D02*
G01X4030Y20200D01*
G01X4071Y20159D01*
G01X3784Y20159D01*
G01X4071Y20042D02*
G01X4071Y19892D01*
G01X3962Y19973D01*
G01X3962Y19932D01*
G01X3948Y19905D01*
G01X3934Y19892D01*
G01X3893Y19878D01*
G01X3866Y19878D01*
G01X3825Y19892D01*
G01X3798Y19919D01*
G01X3784Y19960D01*
G01X3784Y20001D01*
G01X3798Y20042D01*
G01X3812Y20055D01*
G01X3839Y20069D01*
G01X3016Y20177D02*
G01X3030Y20150D01*
G01X3071Y20109D01*
G01X2784Y20109D01*
G01X3002Y20005D02*
G01X3016Y20005D01*
G01X3043Y19992D01*
G01X3057Y19978D01*
G01X3071Y19951D01*
G01X3071Y19896D01*
G01X3057Y19869D01*
G01X3043Y19855D01*
G01X3016Y19842D01*
G01X2989Y19842D01*
G01X2962Y19855D01*
G01X2921Y19882D01*
G01X2784Y20019D01*
G01X2784Y19828D01*
G01X2016Y20077D02*
G01X2030Y20050D01*
G01X2071Y20009D01*
G01X1784Y20009D01*
G01X2016Y19919D02*
G01X2030Y19892D01*
G01X2071Y19851D01*
G01X1784Y19851D01*
G01X1423Y19821D02*
G01X1437Y19794D01*
G01X1478Y19753D01*
G01X1191Y19753D01*
G01X1478Y19582D02*
G01X1464Y19623D01*
G01X1423Y19650D01*
G01X1355Y19663D01*
G01X1314Y19663D01*
G01X1246Y19650D01*
G01X1205Y19623D01*
G01X1191Y19582D01*
G01X1191Y19555D01*
G01X1205Y19513D01*
G01X1246Y19486D01*
G01X1314Y19473D01*
G01X1355Y19473D01*
G01X1423Y19486D01*
G01X1464Y19513D01*
G01X1478Y19555D01*
G01X1478Y19582D01*
G01X1631Y20427D02*
G01X1522Y20140D01*
G01X1631Y20427D02*
G01X1740Y20140D01*
G01X1563Y20236D02*
G01X1699Y20236D01*
G01X2021Y20427D02*
G01X1885Y20140D01*
G01X1830Y20427D02*
G01X2021Y20427D01*
G01X1595Y21277D02*
G01X1486Y20990D01*
G01X1595Y21277D02*
G01X1704Y20990D01*
G01X1527Y21086D02*
G01X1663Y21086D01*
G01X1958Y21236D02*
G01X1944Y21263D01*
G01X1903Y21277D01*
G01X1876Y21277D01*
G01X1835Y21263D01*
G01X1808Y21222D01*
G01X1794Y21154D01*
G01X1794Y21086D01*
G01X1808Y21031D01*
G01X1835Y21004D01*
G01X1876Y20990D01*
G01X1890Y20990D01*
G01X1931Y21004D01*
G01X1958Y21031D01*
G01X1971Y21072D01*
G01X1971Y21086D01*
G01X1958Y21127D01*
G01X1931Y21154D01*
G01X1890Y21168D01*
G01X1876Y21168D01*
G01X1835Y21154D01*
G01X1808Y21127D01*
G01X1794Y21086D01*
G01X1760Y22208D02*
G01X1746Y22236D01*
G01X1719Y22263D01*
G01X1691Y22277D01*
G01X1637Y22277D01*
G01X1610Y22263D01*
G01X1582Y22236D01*
G01X1569Y22208D01*
G01X1555Y22168D01*
G01X1555Y22099D01*
G01X1569Y22058D01*
G01X1582Y22031D01*
G01X1610Y22004D01*
G01X1637Y21990D01*
G01X1691Y21990D01*
G01X1719Y22004D01*
G01X1746Y22031D01*
G01X1760Y22058D01*
G01X1760Y22099D01*
G01X1691Y22099D02*
G01X1760Y22099D01*
G01X1850Y22277D02*
G01X1850Y21990D01*
G01X1850Y22277D02*
G01X2040Y21990D01*
G01X2040Y22277D02*
G01X2040Y21990D01*
G01X2130Y22277D02*
G01X2130Y21990D01*
G01X2130Y22277D02*
G01X2226Y22277D01*
G01X2267Y22263D01*
G01X2294Y22236D01*
G01X2308Y22208D01*
G01X2321Y22168D01*
G01X2321Y22099D01*
G01X2308Y22058D01*
G01X2294Y22031D01*
G01X2267Y22004D01*
G01X2226Y21990D01*
G01X2130Y21990D01*
G54D24*
G01X3762Y23215D02*
G01X3547Y22651D01*
G01X3762Y23215D02*
G01X3977Y22651D01*
G01X3628Y22839D02*
G01X3896Y22839D01*
G01X4154Y23215D02*
G01X4154Y22651D01*
G01X4154Y23215D02*
G01X4396Y23215D01*
G01X4476Y23188D01*
G01X4503Y23161D01*
G01X4530Y23107D01*
G01X4530Y23054D01*
G01X4503Y23000D01*
G01X4476Y22973D01*
G01X4396Y22946D01*
G01X4154Y22946D01*
G01X4342Y22946D02*
G01X4530Y22651D01*
G01X4707Y23215D02*
G01X4707Y22651D01*
G01X4707Y23215D02*
G01X4895Y23215D01*
G01X4975Y23188D01*
G01X5029Y23134D01*
G01X5056Y23081D01*
G01X5083Y23000D01*
G01X5083Y22866D01*
G01X5056Y22785D01*
G01X5029Y22732D01*
G01X4975Y22678D01*
G01X4895Y22651D01*
G01X4707Y22651D01*
G01X5260Y23215D02*
G01X5260Y22812D01*
G01X5287Y22732D01*
G01X5340Y22678D01*
G01X5421Y22651D01*
G01X5475Y22651D01*
G01X5555Y22678D01*
G01X5609Y22732D01*
G01X5636Y22812D01*
G01X5636Y23215D01*
G01X5813Y23215D02*
G01X5813Y22651D01*
G01X5990Y23215D02*
G01X5990Y22651D01*
G01X5990Y23215D02*
G01X6366Y22651D01*
G01X6366Y23215D02*
G01X6366Y22651D01*
G01X6704Y23215D02*
G01X6650Y23188D01*
G01X6597Y23134D01*
G01X6570Y23081D01*
G01X6543Y23000D01*
G01X6543Y22866D01*
G01X6570Y22785D01*
G01X6597Y22732D01*
G01X6650Y22678D01*
G01X6704Y22651D01*
G01X6811Y22651D01*
G01X6865Y22678D01*
G01X6919Y22732D01*
G01X6946Y22785D01*
G01X6972Y22866D01*
G01X6972Y23000D01*
G01X6946Y23081D01*
G01X6919Y23134D01*
G01X6865Y23188D01*
G01X6811Y23215D01*
G01X6704Y23215D01*
G01X7563Y23215D02*
G01X7563Y22651D01*
G01X7563Y23215D02*
G01X7805Y23215D01*
G01X7885Y23188D01*
G01X7912Y23161D01*
G01X7939Y23107D01*
G01X7939Y23027D01*
G01X7912Y22973D01*
G01X7885Y22946D01*
G01X7805Y22920D01*
G01X7563Y22920D01*
G01X8116Y23215D02*
G01X8116Y22651D01*
G01X8116Y23215D02*
G01X8358Y23215D01*
G01X8438Y23188D01*
G01X8465Y23161D01*
G01X8492Y23107D01*
G01X8492Y23054D01*
G01X8465Y23000D01*
G01X8438Y22973D01*
G01X8358Y22946D01*
G01X8116Y22946D01*
G01X8304Y22946D02*
G01X8492Y22651D01*
G01X8830Y23215D02*
G01X8776Y23188D01*
G01X8723Y23134D01*
G01X8696Y23081D01*
G01X8669Y23000D01*
G01X8669Y22866D01*
G01X8696Y22785D01*
G01X8723Y22732D01*
G01X8776Y22678D01*
G01X8830Y22651D01*
G01X8937Y22651D01*
G01X8991Y22678D01*
G01X9045Y22732D01*
G01X9072Y22785D01*
G01X9098Y22866D01*
G01X9098Y23000D01*
G01X9072Y23081D01*
G01X9045Y23134D01*
G01X8991Y23188D01*
G01X8937Y23215D01*
G01X8830Y23215D01*
G01X9689Y23215D02*
G01X9689Y22651D01*
G01X9689Y23215D02*
G01X9904Y22651D01*
G01X10119Y23215D02*
G01X9904Y22651D01*
G01X10119Y23215D02*
G01X10119Y22651D01*
G01X10296Y23215D02*
G01X10296Y22651D01*
G01X10473Y23215D02*
G01X10473Y22651D01*
G01X10473Y23215D02*
G01X10849Y22651D01*
G01X10849Y23215D02*
G01X10849Y22651D01*
G01X11026Y23215D02*
G01X11026Y22651D01*
G54D10*
G75*
G01X9274Y1365D02*
G02X8093Y1247I-663J663D01*
G01*
G75*
G01X8093Y1247D02*
G03X4589Y1247I-1752J-2639D01*
G01*
G75*
G01X4589Y1247D02*
G02X3408Y1365I-518J781D01*
G01*
G75*
G01X9994Y13310D02*
G03X9994Y13310I-984J0D01*
G01*
G75*
G01X7640Y9600D02*
G03X7640Y9600I-1240J0D01*
G01*

%LPD*%
G36*
G01X6446Y10849D02*
G01X6353Y10849D01*
G01X6322Y10847D01*
G01X6290Y10845D01*
G01X6228Y10837D01*
G01X6198Y10833D01*
G01X6136Y10821D01*
G01X6046Y10797D01*
G01X6016Y10787D01*
G01X5987Y10777D01*
G01X5957Y10766D01*
G01X5929Y10754D01*
G01X5900Y10742D01*
G01X5872Y10729D01*
G01X5844Y10715D01*
G01X5816Y10700D01*
G01X5789Y10685D01*
G01X5762Y10669D01*
G01X5736Y10652D01*
G01X5710Y10634D01*
G01X5660Y10598D01*
G01X5635Y10578D01*
G01X5611Y10558D01*
G01X5588Y10538D01*
G01X5565Y10516D01*
G01X5542Y10495D01*
G01X5521Y10472D01*
G01X5500Y10450D01*
G01X7300Y10450D01*
G01X7278Y10472D01*
G01X7257Y10495D01*
G01X7234Y10516D01*
G01X7211Y10538D01*
G01X7188Y10558D01*
G01X7164Y10578D01*
G01X7139Y10598D01*
G01X7089Y10634D01*
G01X7063Y10652D01*
G01X7037Y10669D01*
G01X7010Y10685D01*
G01X6983Y10700D01*
G01X6955Y10715D01*
G01X6927Y10729D01*
G01X6899Y10742D01*
G01X6870Y10754D01*
G01X6842Y10766D01*
G01X6812Y10777D01*
G01X6783Y10787D01*
G01X6753Y10797D01*
G01X6663Y10821D01*
G01X6601Y10833D01*
G01X6571Y10837D01*
G01X6509Y10845D01*
G01X6477Y10847D01*
G01X6446Y10849D01*
G37*
M00*
M02*
